<?xml version="1.0" encoding="utf-8"?>
<!-- Generator: Adobe Illustrator 24.0.1, SVG Export Plug-In . SVG Version: 6.00 Build 0)  -->
<svg version="1.1" xmlns="http://www.w3.org/2000/svg" xmlns:xlink="http://www.w3.org/1999/xlink" x="0px" y="0px"
	 viewBox="0 0 115.9 144.8" style="enable-background:new 0 0 115.9 144.8;" xml:space="preserve">
<style type="text/css">
	.st0{display:none;}
	.st1{display:inline;}
	.st2{fill:none;}
	.st3{fill:#2D7564;}
</style>
<g id="Capa_1" xmlns:xodm="http://www.corel.com/coreldraw/odm/2003" class="st0">
	<g class="st1">
		<g>
			<path class="st2" d="M58.3,72l0-0.5c0-0.1,0-0.1,0.1-0.1c0.3-0.1,0.7-0.3,0.9-0.6c0.2-0.3,0.3-0.6,0.3-0.9
				c-0.5-0.2-0.9-0.4-1.2-0.7l0,0c-0.2-0.2-0.3-0.4-0.4-0.7c-0.1,0.3-0.3,0.5-0.4,0.7c-0.3,0.3-0.7,0.5-1.2,0.7
				c0,0.3,0.1,0.6,0.3,0.9c0.2,0.3,0.5,0.5,0.9,0.6c0.1,0,0.1,0.1,0.1,0.1V72c0,0.1,0,0.2-0.1,0.3l0,0c0,0-0.1,0.1-0.1,0.1l0.5,0.8
				l0.5-0.8c0,0-0.1,0-0.1-0.1C58.3,72.2,58.3,72.1,58.3,72z"/>
			<path class="st2" d="M56.3,73.8L56.3,73.8c0,0-0.1,0.1-0.1,0.1c0,0.1,0,0.1,0.1,0.1c0,0,0.1,0.1,0.1,0.1c0.1,0,0.1,0,0.1-0.1
				c0,0,0.1-0.1,0.1-0.1c0-0.1,0-0.1-0.1-0.1c0,0-0.1-0.1-0.1-0.1C56.4,73.7,56.3,73.8,56.3,73.8z"/>
			<path class="st2" d="M59.2,73.8C59.1,73.8,59.1,73.9,59.2,73.8l0.5,0.1c0,0,0-0.1-0.1-0.1C59.5,73.7,59.3,73.7,59.2,73.8z"/>
			<path class="st2" d="M57.9,67.7c-0.6,0-1.1,0.3-1.5,0.7c-0.4,0.4-0.6,1-0.6,1.6v2.6c0,0,0,0,0.1,0c0.5-0.1,0.9-0.2,1.4-0.3
				c0,0,0.1,0,0.1-0.1l0,0c0,0,0-0.1,0-0.1v-0.4c-0.4-0.1-0.7-0.4-0.9-0.6c-0.2-0.3-0.4-0.7-0.4-1.1c0-0.1,0-0.1,0.1-0.1
				c0.5-0.2,0.9-0.4,1.2-0.7c0.3-0.3,0.4-0.6,0.5-1c0-0.1,0.1-0.1,0.1-0.1c0.1,0,0.1,0.1,0.1,0.1c0.1,0.4,0.2,0.7,0.5,1l0,0
				c0.3,0.3,0.7,0.5,1.2,0.7c0.1,0,0.1,0.1,0.1,0.1c0,0.4-0.1,0.8-0.4,1.1c-0.2,0.3-0.5,0.5-0.9,0.7l0,0.4c0,0,0,0.1,0,0.1
				c0,0,0.1,0.1,0.1,0.1l1.4,0.3c0,0,0,0,0.1,0v-2.6c0-0.6-0.2-1.2-0.6-1.6C59.1,67.9,58.5,67.7,57.9,67.7z"/>
			<path d="M60.3,72.9L60.3,72.9l0-2.9c0-0.7-0.3-1.3-0.7-1.8c-0.4-0.5-1-0.7-1.7-0.7s-1.3,0.3-1.7,0.7c-0.4,0.5-0.7,1.1-0.7,1.8
				v2.9v0l0,0l-0.3,2.3c0,0.1,0,0.1,0.1,0.1c0.1,0,0.1,0,0.1-0.1l0.3-2.3c0,0,0-0.1,0-0.1c0,0,0.1,0,0.1-0.1l0.4-0.1v0.8
				c-0.1,0-0.1,0.1-0.2,0.1l0,0C56,73.7,56,73.8,56,73.9c0,0.1,0.1,0.2,0.1,0.3l0,0c0.1,0.1,0.2,0.1,0.3,0.1c0.1,0,0.2-0.1,0.3-0.1
				c0.1-0.1,0.1-0.2,0.1-0.3c0-0.1-0.1-0.2-0.1-0.3c-0.1-0.1-0.1-0.1-0.2-0.1v-0.9l0.6-0.1l0.6,0.9v1.8c0,0.1,0.1,0.1,0.1,0.1
				c0.1,0,0.1-0.1,0.1-0.1v-1.8l0.6-0.9l0.6,0.1v0.9c-0.1,0-0.2,0.1-0.3,0.2c-0.1,0.1-0.2,0.2-0.2,0.4v0v0v0.6
				c0,0.1,0.1,0.1,0.1,0.1h0.2c0.1,0,0.1-0.1,0.1-0.1c0-0.1-0.1-0.1-0.1-0.1h0v-0.4h0.6v0.4h0c-0.1,0-0.1,0.1-0.1,0.1
				c0,0.1,0.1,0.1,0.1,0.1h0.2c0.1,0,0.1-0.1,0.1-0.1V74v0v0c0-0.2-0.1-0.3-0.2-0.4c-0.1-0.1-0.2-0.1-0.3-0.2v-0.8l0.4,0.1
				c0,0,0.1,0,0.1,0.1c0,0,0,0,0,0.1v0c0,0,0,0,0,0l0.3,2.2c0,0.1,0.1,0.1,0.1,0.1c0.1,0,0.1-0.1,0.1-0.1L60.3,72.9z M56.6,73.8
				c0,0,0.1,0.1,0.1,0.1c0,0.1,0,0.1-0.1,0.1c0,0-0.1,0.1-0.1,0.1c-0.1,0-0.1,0-0.1-0.1c0,0-0.1-0.1-0.1-0.1c0-0.1,0-0.1,0.1-0.1
				l0,0c0,0,0.1-0.1,0.1-0.1C56.5,73.7,56.5,73.8,56.6,73.8z M57.9,73.1l-0.5-0.8c0,0,0.1,0,0.1-0.1l0,0c0.1-0.1,0.1-0.2,0.1-0.3
				v-0.5c0-0.1,0-0.1-0.1-0.1c-0.4-0.1-0.6-0.3-0.9-0.6c-0.2-0.3-0.3-0.6-0.3-0.9c0.5-0.2,0.9-0.4,1.2-0.7c0.2-0.2,0.3-0.4,0.4-0.7
				c0.1,0.3,0.3,0.5,0.4,0.7l0,0c0.3,0.3,0.7,0.5,1.2,0.7c0,0.3-0.1,0.6-0.3,0.9c-0.2,0.3-0.5,0.5-0.9,0.6c-0.1,0-0.1,0.1-0.1,0.1
				l0,0.5c0,0.1,0,0.2,0.1,0.3c0,0,0.1,0.1,0.1,0.1L57.9,73.1z M59.6,73.8C59.6,73.8,59.7,73.9,59.6,73.8l-0.5,0.1
				c0,0,0-0.1,0.1-0.1C59.3,73.7,59.5,73.7,59.6,73.8z M60.1,72.5C60.1,72.5,60,72.5,60.1,72.5l-1.4-0.3c0,0-0.1,0-0.1-0.1
				c0,0,0-0.1,0-0.1l0-0.4c0.4-0.1,0.7-0.4,0.9-0.7c0.2-0.3,0.4-0.7,0.4-1.1c0-0.1,0-0.1-0.1-0.1c-0.5-0.2-0.9-0.4-1.2-0.7l0,0
				c-0.3-0.3-0.4-0.6-0.5-1c0-0.1,0-0.1-0.1-0.1c-0.1,0-0.1,0-0.1,0.1c-0.1,0.4-0.2,0.7-0.5,1c-0.3,0.3-0.7,0.5-1.2,0.7
				c-0.1,0-0.1,0.1-0.1,0.1c0,0.4,0.1,0.8,0.4,1.1c0.2,0.3,0.5,0.5,0.9,0.6V72c0,0,0,0.1,0,0.1l0,0c0,0-0.1,0.1-0.1,0.1
				c-0.5,0.1-0.9,0.2-1.4,0.3c0,0,0,0-0.1,0v-2.6c0-0.6,0.2-1.2,0.6-1.6c0.4-0.4,0.9-0.7,1.5-0.7c0.6,0,1.1,0.3,1.5,0.7
				c0.4,0.4,0.6,1,0.6,1.6V72.5z"/>
		</g>
	</g>
</g>
<g id="Capa_2">
	<g>
		<g>
			<path class="st3" d="M15.2,135.8c1.9-12.3,3.8-24.6,5.8-36.9c0.3-1.7,0.5-3.4,0.8-5.2c-0.5,0.5-1,1-1.6,1.6
				c8.8-2.3,17.6-4.5,26.4-6.8c1.3-0.3,2.5-0.6,3.8-1c1-0.2,1.7-1.2,1.7-2.2c0-4.1,0-8.1,0-12.2c0-1-0.7-1.9-1.7-2.2
				c-3.8-1.1-7.6-3.1-10.9-5.7c-5-4-7.2-9.7-8.4-15.9c-0.1-0.7-0.2-1.3-0.3-2c0.1,0.4,0-0.3-0.1-0.4c0-0.2,0-0.4-0.1-0.6
				c0-0.5-0.1-0.9-0.1-1.4c-0.6,0.7-1.1,1.4-1.7,2.2c3.7-1.1,7.4-2.7,10.8-4.5c6.5-3.4,12.8-8,16.8-14.3c2.5-3.9,3.8-8.5,3.7-13.1
				c0-2.9-4.5-2.9-4.5,0c0.1,15.3,14,25.4,26.8,30.7c1.2,0.5,2.5,1,3.8,1.4c-0.6-0.7-1.1-1.4-1.7-2.2c0.5,4.5-0.8,9.4-2.8,13.3
				c-1.5,2.9-3.7,5.5-6.3,7.4c-2,1.4-4.5,2.8-6.5,3.6c-1.2,0.5-2.5,0.9-3.8,1.2c-1,0.2-1.7,1.2-1.7,2.2c0,4.3,0,8.5,0,12.8
				c0,1,0.7,1.9,1.7,2.2c8.6,2.3,17.2,4.6,25.8,6.9c1.2,0.3,2.5,0.7,3.7,1c-0.5-0.5-1-1-1.6-1.6c2.2,12.1,4.4,24.2,6.7,36.4
				c0.3,1.7,0.6,3.4,0.9,5.2c0.2,1.2,1.7,1.9,2.8,1.6c1.3-0.3,1.8-1.6,1.6-2.8c-2.2-12.1-4.4-24.2-6.7-36.4
				c-0.3-1.7-0.6-3.4-0.9-5.2c-0.1-0.7-0.9-1.4-1.6-1.6c-8.6-2.3-17.2-4.6-25.8-6.9c-1.2-0.3-2.5-0.7-3.7-1c0.6,0.7,1.1,1.4,1.7,2.2
				c0-4.3,0-8.5,0-12.8c-0.6,0.7-1.1,1.4-1.7,2.2c3.9-0.9,7.7-2.7,11-5c6.3-4.4,10.3-11.2,11.5-18.8c0.3-2,0.5-4.1,0.3-6.2
				c-0.1-1-0.6-1.8-1.7-2.2c-0.9-0.3-1.8-0.6-2.8-1c-0.2-0.1-0.4-0.2-0.7-0.3c-0.1,0-0.2-0.1-0.3-0.1c-0.3-0.1,0.5,0.2,0,0
				c-0.6-0.3-1.2-0.5-1.7-0.8c-1.2-0.6-2.4-1.2-3.6-1.8C72.6,36,67.1,32,63.6,26.4c-2.2-3.4-3.3-7.1-3.4-11.1c-1.5,0-3,0-4.5,0
				c0.1,7.2-3.8,13.1-9.3,17.7c-2.3,1.9-5.3,3.8-8.2,5.4c-1.3,0.7-2.7,1.4-4,2c-0.3,0.1-0.6,0.3-0.9,0.4c-0.1,0.1-0.3,0.1-0.4,0.2
				c-0.5,0.2,0.3-0.1,0,0c-0.5,0.2-1.1,0.4-1.6,0.7c-1.2,0.5-2.4,0.9-3.6,1.2C26.8,43.1,26,44,26,45c0.2,4.6,1.3,9.4,3,13.7
				c1.4,3.4,3.4,6.5,6.1,8.9c2.6,2.3,5.5,4.2,8.6,5.7c1.7,0.8,3.5,1.6,5.4,2.2c-0.6-0.7-1.1-1.4-1.7-2.2c0,4.1,0,8.1,0,12.2
				c0.6-0.7,1.1-1.4,1.7-2.2c-8.8,2.3-17.6,4.5-26.4,6.8c-1.3,0.3-2.5,0.6-3.8,1c-0.7,0.2-1.5,0.8-1.6,1.6
				c-1.9,12.3-3.8,24.6-5.8,36.9c-0.3,1.7-0.5,3.4-0.8,5.2c-0.2,1.2,0.3,2.4,1.6,2.8C13.5,137.7,15,137,15.2,135.8L15.2,135.8z"/>
		</g>
	</g>
	<g>
		<g>
			<path class="st3" d="M30.8,89.7c0,5.2,0,10.3,0,15.5c0,0.7,0,1.5,0,2.2c0,2.9,4.5,2.9,4.5,0c0-5.2,0-10.3,0-15.5
				c0-0.7,0-1.5,0-2.2C35.3,86.8,30.8,86.8,30.8,89.7L30.8,89.7z"/>
		</g>
	</g>
	<g>
		<g>
			<path class="st3" d="M41.5,113.6c0-3.6-2.3-6.7-5.6-8c-3.2-1.2-7.1-0.2-9.2,2.5c-2.3,2.8-2.7,6.7-0.9,9.8c1.9,3.1,5.5,4.6,9,4
				C38.6,121.2,41.4,117.5,41.5,113.6c0-1.2-1-2.3-2.3-2.3c-1.2,0.1-2.2,1-2.3,2.3c0,0.2,0,0.3,0,0.5c0,0.5,0-0.1,0-0.1
				c0,0.2-0.1,0.6-0.2,0.8c0,0.1-0.1,0.3-0.2,0.5c0,0,0.2-0.5,0-0.1c-0.2,0.3-0.3,0.6-0.5,0.8c-0.3,0.4,0.2-0.2,0,0
				c-0.1,0.1-0.2,0.2-0.3,0.3c-0.1,0.1-0.7,0.7-0.3,0.3c-0.2,0.2-0.5,0.3-0.7,0.4c-0.1,0.1-0.2,0.1-0.3,0.2
				c-0.4,0.2,0.4-0.1-0.1,0.1c-0.3,0.1-0.5,0.2-0.8,0.2c-0.2,0-0.5,0.2,0,0c-0.1,0-0.3,0-0.4,0c-0.3,0-0.6,0-0.9,0
				c-0.3,0,0.5,0.1,0,0c-0.2,0-0.3-0.1-0.5-0.1c-0.2,0-0.3-0.1-0.5-0.2c-0.2-0.1-0.2,0,0.1,0c-0.2,0-0.5-0.3-0.7-0.4
				c-0.1-0.1-0.2-0.2-0.3-0.2c-0.3-0.2,0.4,0.4,0,0c-0.2-0.2-0.6-0.5-0.7-0.7c0.1,0.3,0.2,0.3,0.1,0.1c-0.1-0.1-0.2-0.3-0.3-0.4
				c-0.1-0.1-0.1-0.2-0.2-0.3c-0.1-0.1-0.4-0.5,0-0.1c-0.1-0.2-0.2-0.5-0.3-0.8c0-0.1,0-0.2-0.1-0.3c-0.1-0.5,0,0.4,0-0.2
				c0-0.3,0-0.5,0-0.8c0-0.1,0-0.1,0-0.2c0-0.3,0-0.2,0,0.1c0,0,0.1-0.3,0.1-0.3c0.1-0.3,0.1-0.5,0.2-0.8c0.2-0.5-0.2,0.4,0-0.1
				c0.1-0.1,0.2-0.3,0.2-0.4c0.1-0.1,0.1-0.2,0.2-0.3c0.1-0.2,0.1-0.4,0,0c0-0.2,0.4-0.5,0.6-0.6c0,0,0.4-0.4,0.1-0.1
				c-0.3,0.2,0.1-0.1,0.2-0.1c0.2-0.1,0.6-0.5,0.9-0.5c0,0-0.5,0.2-0.1,0c0.2-0.1,0.3-0.1,0.5-0.2c0.1,0,0.2-0.1,0.3-0.1
				c0,0,0.6-0.1,0.2,0c-0.4,0.1,0.2,0,0.2,0c0.1,0,0.3,0,0.4,0c0.1,0,0.3,0,0.4,0c0.5,0-0.4-0.1,0.1,0c0.3,0.1,0.6,0.2,1,0.3
				c0.5,0.2-0.3-0.2,0,0c0.1,0.1,0.3,0.2,0.5,0.3c0.1,0.1,0.2,0.1,0.3,0.2c0.1,0.1,0.2,0.1,0.3,0.2c-0.2-0.2-0.3-0.2-0.1,0
				c0.2,0.2,0.4,0.4,0.6,0.6c0.4,0.4-0.2-0.4,0,0.1c0.1,0.1,0.2,0.3,0.3,0.4c0.1,0.1,0.2,0.3,0.2,0.4c0.2,0.4-0.1-0.4,0,0.1
				c0.1,0.3,0.2,0.6,0.3,1c0,0.2,0.2,0.3,0-0.1c0.1,0.2,0,0.5,0,0.7c0,1.2,1,2.3,2.3,2.3C40.4,115.8,41.5,114.9,41.5,113.6z"/>
		</g>
	</g>
	<g>
		<g>
			<path class="st3" d="M60.2,134.4c0-9.2,0-18.4,0-27.7c0-1.3,0-2.6,0-4c0-2.9-4.5-2.9-4.5,0c0,9.2,0,18.4,0,27.7c0,1.3,0,2.6,0,4
				C55.7,137.2,60.2,137.3,60.2,134.4L60.2,134.4z"/>
		</g>
	</g>
	<g>
		<g>
			<path class="st3" d="M44.4,88.5c3.9,5.5,7.7,10.9,11.6,16.4c1,1.5,2.8,1.4,3.9,0c3.7-4.8,7.4-9.6,11.1-14.4
				c0.5-0.7,1.1-1.4,1.6-2c0.7-1,0.1-2.5-0.8-3.1c-1.2-0.7-2.3-0.2-3.1,0.8c-3.7,4.8-7.4,9.6-11.1,14.4c-0.5,0.7-1.1,1.4-1.6,2
				c1.3,0,2.6,0,3.9,0c-3.9-5.5-7.7-10.9-11.6-16.4c-0.7-1-2-1.5-3.1-0.8C44.3,86,43.7,87.5,44.4,88.5L44.4,88.5z"/>
		</g>
	</g>
	<g>
		<g>
			<path class="st3" d="M80,90.2c0,5,0,10.1,0,15.1c0,0.7,0,1.4,0,2.1c0,2.9,4.5,2.9,4.5,0c0-5,0-10.1,0-15.1c0-0.7,0-1.4,0-2.1
				C84.5,87.3,80,87.3,80,90.2L80,90.2z"/>
		</g>
	</g>
	<g>
		<g>
			<path class="st3" d="M78.9,124.3c-1.6,0-3.2,0-4.8,0c0.8,0.8,1.5,1.5,2.3,2.3c0-3.5,0-7,0-10.4c-0.8,0.8-1.5,1.5-2.3,2.3
				c4.3,0,8.5,0,12.8,0c1.2,0,2.3,0,3.5,0c-0.8-0.8-1.5-1.5-2.3-2.3c0,3.5,0,7,0,10.4c0.8-0.8,1.5-1.5,2.3-2.3c-1.3,0-2.6,0-3.9,0
				c-1.2,0-2.3,1-2.3,2.3c0,1.2,1,2.2,2.3,2.2c1.3,0,2.6,0,3.9,0c1.2,0,2.3-1,2.3-2.2c0-3.5,0-7,0-10.4c0-1.2-1-2.3-2.3-2.3
				c-4.3,0-8.7,0-13,0c-1.1,0-2.2,0-3.3,0c-1.2,0-2.3,1-2.3,2.3c0,3.5,0,7,0,10.4c0,1.2,1,2.2,2.3,2.2c1.6,0,3.2,0,4.8,0
				c1.2,0,2.3-1,2.3-2.2C81.2,125.3,80.1,124.3,78.9,124.3L78.9,124.3z"/>
		</g>
	</g>
	<g>
		<g>
			<path class="st3" d="M92.6,116.1c-0.1-4.5-2.6-8.6-6.9-10.3c-4.1-1.6-8.9-0.1-11.5,3.4c-1.6,2-2.4,4.4-2.4,7c0,1.2,1,2.3,2.3,2.3
				c1.2,0,2.2-1,2.3-2.3c0-0.3,0-0.6,0-0.9c0,0.4,0.1-0.3,0.1-0.3c0.1-0.5,0.2-1,0.4-1.5c-0.1,0.4,0.1-0.2,0.1-0.3
				c0.1-0.3,0.3-0.5,0.4-0.8c0.1-0.2,0.2-0.4,0.4-0.5c-0.2,0.3,0.3-0.3,0.3-0.4c0.1-0.2,0.3-0.3,0.5-0.4c0.1-0.1,0.2-0.2,0.3-0.3
				c-0.2,0.1-0.2,0.1,0,0c0.4-0.3,0.8-0.5,1.2-0.7c0.2-0.1,0.3-0.1,0,0c0.1-0.1,0.3-0.1,0.4-0.1c0.2-0.1,0.4-0.1,0.6-0.2
				c0.1,0,0.3-0.1,0.4-0.1c-0.2,0-0.2,0-0.1,0c0.3,0,0.5,0,0.8,0c0.2,0,0.4,0,0.7,0c0.3,0,0.3,0,0,0c0.1,0,0.3,0.1,0.4,0.1
				c0.2,0,0.4,0.1,0.6,0.2c0.1,0,0.3,0.1,0.4,0.1c-0.2-0.1-0.2-0.1-0.1,0c0.4,0.2,0.8,0.4,1.2,0.7c0.2,0.2,0.2,0.2,0,0
				c0.1,0.1,0.2,0.2,0.3,0.3c0.2,0.1,0.3,0.3,0.5,0.4c0.1,0.1,0.6,0.7,0.3,0.4c0.1,0.2,0.3,0.4,0.4,0.5c0.1,0.2,0.3,0.4,0.4,0.7
				c0,0.1,0.3,0.7,0.2,0.4c0.2,0.5,0.3,1,0.4,1.5c0,0.1,0.1,0.7,0.1,0.3c0,0.3,0,0.6,0,0.9c0,1.2,1,2.3,2.3,2.3
				C91.6,118.4,92.6,117.3,92.6,116.1L92.6,116.1z"/>
		</g>
	</g>
	<g>
		<g>
			<path class="st3" d="M97.5,93.7c0-5.5,0-11,0-16.5c0-9.1,0-18.1,0-27.2c0-3.4,0.3-6.8-0.4-10.2c-1.4-6.5-4.1-13-8-18.5
				C82.9,12.7,73.9,7,63.3,5.7C52,4.2,40.5,7.5,32.2,15.3c-6,5.7-10.2,13.3-12.8,21.1c-1,3.1-1.9,6.1-1.9,9.3
				c0,7.8-0.1,15.7-0.1,23.5c0,7.5-0.1,15.1-0.1,22.6c0,0.4,0,0.9,0,1.3c0,2.9,4.5,2.9,4.5,0c0-5.4,0-10.9,0.1-16.3
				c0-8.8,0.1-17.6,0.1-26.4c0-2.1,0.2-4.3,0-6.4c0-0.5-0.2,0.9,0,0c0.1-0.7,0.3-1.4,0.5-2.1c0.7-2.7,1.6-5.4,2.7-8
				c0.2-0.5-0.1,0.1,0.1-0.2c0.1-0.2,0.2-0.4,0.2-0.5c0.2-0.4,0.4-0.9,0.6-1.3c0.4-0.9,0.9-1.8,1.3-2.7c1-1.8,2.1-3.6,3.3-5.3
				c0.7-0.9,1-1.4,1.9-2.4c0.7-0.8,1.5-1.6,2.3-2.4c1.7-1.7,3.3-2.9,5.2-4.2c4.3-2.7,9.1-4.4,14.2-4.9c5.7-0.5,11.5,0.1,16.8,2.2
				c4.2,1.7,7.9,4.4,11.1,7.7c2.7,2.9,4.9,6.3,6.8,10.1c0.9,1.8,1.2,2.5,1.9,4.4c0.5,1.4,0.9,2.8,1.3,4.2c0.4,1.4,0.6,2.9,1,4.3
				c0,0.2,0-0.9-0.1-0.4c0,0.2,0,0.5,0,0.7c0,1,0,2,0,3c0,8.3,0,16.5,0,24.8c0,7.2,0,14.3,0,21.5c0,0.4,0,0.8,0,1.2
				C93,96.6,97.5,96.6,97.5,93.7L97.5,93.7z"/>
		</g>
	</g>
</g>
</svg>
