<?xml version="1.0" encoding="utf-8"?>
<!-- Generator: Adobe Illustrator 24.0.1, SVG Export Plug-In . SVG Version: 6.00 Build 0)  -->
<svg version="1.1" id="Capa_1" xmlns="http://www.w3.org/2000/svg" xmlns:xlink="http://www.w3.org/1999/xlink" x="0px" y="0px"
	 viewBox="0 0 110 135" style="enable-background:new 0 0 110 135;" xml:space="preserve">
<style type="text/css">
	.st0{fill:#2D7564;}
</style>
<path class="st0" d="M73.6,21.9c-7.3,0-14.1,3.3-18.6,8.8c-4.5-5.5-11.3-8.8-18.6-8.8c-13.2,0-23.9,10.6-24,23.8
	c-0.4,3.5-1.5,26.5,40.7,51.9c0.4,0.2,0.9,0.4,1.3,0.5c0.2,0,0.4,0,0.6,0h0h0h0h0c0.7,0,1.4-0.2,2-0.6
	c42.1-25.5,41.1-48.4,40.6-51.9C97.5,32.5,86.8,21.9,73.6,21.9L73.6,21.9z"/>
</svg>
