<?xml version="1.0" encoding="UTF-8"?>
<svg id="Capa_2" xmlns="http://www.w3.org/2000/svg" xmlns:xlink="http://www.w3.org/1999/xlink" viewBox="0 0 151.63 175.09">
  <defs>
    <style>
      .cls-1 {
        fill: url(#Degradado_sin_nombre_6);
      }

      .cls-2 {
        fill: #90cdd2;
      }

      .cls-3 {
        fill: url(#Degradado_sin_nombre_4);
      }

      .cls-4 {
        fill: #afd6db;
      }

      .cls-5 {
        fill: #eabdc8;
      }

      .cls-6 {
        fill: #ecf3f0;
      }

      .cls-7 {
        fill: #f0a297;
      }

      .cls-8 {
        fill: #e2e8e5;
      }

      .cls-9 {
        fill: #edc8c4;
      }

      .cls-10 {
        fill: #ef9d9d;
      }

      .cls-11 {
        fill: #c3cecb;
      }

      .cls-12 {
        fill: url(#Degradado_sin_nombre_6-2);
      }
    </style>
    <linearGradient id="Degradado_sin_nombre_4" data-name="Degradado sin nombre 4" x1="11.1" y1="129.45" x2="76.4" y2="87.22" gradientUnits="userSpaceOnUse">
      <stop offset="0" stop-color="#79968d"/>
      <stop offset="1" stop-color="#96cebf"/>
    </linearGradient>
    <linearGradient id="Degradado_sin_nombre_6" data-name="Degradado sin nombre 6" x1="148.4" y1="129.22" x2="78.03" y2="89.16" gradientUnits="userSpaceOnUse">
      <stop offset="0" stop-color="#7bc4b5"/>
      <stop offset="1" stop-color="#96cebf"/>
    </linearGradient>
    <linearGradient id="Degradado_sin_nombre_6-2" data-name="Degradado sin nombre 6" x1="127.86" y1="77.26" x2="23.96" y2="18.12" xlink:href="#Degradado_sin_nombre_6"/>
  </defs>
  <g id="Capa_1-2" data-name="Capa_1">
    <g>
      <polygon class="cls-5" points="75.81 47.7 75.81 0 151.63 43.77 110.32 67.62 75.81 47.7"/>
      <polygon class="cls-4" points="110.32 67.62 110.32 107.46 151.63 131.31 151.63 43.77 110.32 67.62"/>
      <polygon class="cls-2" points="75.81 127.39 75.81 175.09 151.63 131.31 110.32 107.46 75.81 127.39"/>
      <polygon class="cls-7" points="75.81 127.39 75.81 175.09 0 131.31 41.31 107.46 75.81 127.39"/>
      <polygon class="cls-10" points="41.31 107.46 41.31 67.62 0 43.77 0 131.31 41.31 107.46"/>
      <polygon class="cls-9" points="75.81 0 75.81 47.7 41.31 67.62 0 43.77 75.81 0"/>
      <g>
        <polygon class="cls-3" points="75.79 8.19 7.01 47.9 7.01 127.32 75.79 167.03 144.57 127.32 144.57 47.9 75.79 8.19"/>
        <polyline id="SVGID" class="cls-1" points="75.79 86.8 144.57 47.9 144.57 127.32 75.79 167.03 75.79 86.8"/>
        <polygon id="SVGID-2" data-name="SVGID" class="cls-12" points="75.79 86.8 7.01 47.9 75.79 8.19 144.57 47.9 75.79 86.8"/>
        <path class="cls-8" d="M119.27,62.21c9.08,24.59,4.04,52.56-18.77,68.22-7.47,5.13-16.14,8.55-24.66,9.04l-.05-19.84c5.25-.58,10.81-3.8,15.54-6.48,8.38-4.74,14.55-10.7,14.64-25.54l-30.13,17.27-.05-18.08,43.48-24.59Z"/>
        <path class="cls-11" d="M32.42,62.63c-7.21,14.59-5.79,31.73,1.95,47.96,6.75,14.14,21.01,26.67,41.46,28.88l-.05-19.83c-10.62-.66-21.3-7.75-26.64-17.91-5.61-10.65-3.81-19.59-1.03-30.18l-15.69-8.93"/>
        <path class="cls-6" d="M60.18,43.44c-10.63,3-24.28,13.06-27.75,19.19l15.69,8.93s7.91-10.21,19.85-12.85c4.56-1.01,16.15-3.31,27.18,3.21l16.21-9.41c-22.97-13.43-39.93-12.24-51.17-9.07Z"/>
      </g>
    </g>
  </g>
</svg>