<svg id="Capa_1" data-name="Capa 1" xmlns="http://www.w3.org/2000/svg" viewBox="0 0 141.73 141.73"><defs><style>.cls-1{fill:#feeee7;}</style></defs><title>whatsapp-line-icon</title><path class="cls-1" d="M17.11,128.16h-.68l-.34-.34v-.68c.77,0,.73-.64.85-1.06.65-2.26,1.26-4.54,1.87-6.81,1.72-6.33,3.4-12.67,5.17-19a2.42,2.42,0,0,0-.17-1.91c-1-2.07-2.09-4.12-3-6.25a56.35,56.35,0,0,1-3.76-30.54,58.31,58.31,0,0,1,5.09-16.5,59,59,0,0,1,7.23-11.35,55.8,55.8,0,0,1,10.06-9.67,55.1,55.1,0,0,1,13.47-7.62,53.64,53.64,0,0,1,16.64-3.8c.34,0,.69,0,.9-.34h7.47a.83.83,0,0,0,.9.34,22.57,22.57,0,0,1,6.5.77,58.8,58.8,0,0,1,20,8.12,56.41,56.41,0,0,1,11.86,10.15c1,1.14,2,2.3,2.9,3.5a54.36,54.36,0,0,1,7.8,13.93,57.71,57.71,0,0,1,3.44,13c.17,1.29-.12,2.69.61,3.9v7.47c-.35.21-.35.56-.34.9a34.41,34.41,0,0,1-1.38,9.46,54.81,54.81,0,0,1-7.7,17.68,58.62,58.62,0,0,1-9.94,11.62,63.69,63.69,0,0,1-11.89,8.23,56.6,56.6,0,0,1-25.23,6.45,57.17,57.17,0,0,1-6.91-.26,62.5,62.5,0,0,1-11.66-2.38,52.45,52.45,0,0,1-10.09-4.28,4.67,4.67,0,0,0-4.13-.28c-2.45.81-5,1.43-7.45,2.11q-8.76,2.4-17.52,4.77A.66.66,0,0,0,17.11,128.16Zm16-17.32a1.12,1.12,0,0,0,1.25.21c3.67-1,7.35-2.06,11-3.12a3,3,0,0,1,2.59.32,53.72,53.72,0,0,0,13.26,6.16,48.22,48.22,0,0,0,10.41,1.81,44.25,44.25,0,0,0,13.55-1.3,45.67,45.67,0,0,0,21.67-12.17,38.4,38.4,0,0,0,5-5.92,49.25,49.25,0,0,0,5.4-9.93,45.27,45.27,0,0,0,3.11-17.81,46.29,46.29,0,0,0-1.19-9.32A49,49,0,0,0,116,50.53,45.35,45.35,0,0,0,105,35.8a48.69,48.69,0,0,0-12.56-8.11C86.87,25.16,81,24.31,75,23.88a33.2,33.2,0,0,0-4.88.27,42.27,42.27,0,0,0-6.15.94,45.17,45.17,0,0,0-17.35,8A43.73,43.73,0,0,0,38,41.36a47.07,47.07,0,0,0-7.15,12.78A48.4,48.4,0,0,0,28,68.44a43.51,43.51,0,0,0,.64,9.25A45.21,45.21,0,0,0,31,86.62a60.13,60.13,0,0,0,5,9.73,3,3,0,0,1,.34,2.44c-.46,1.62-.95,3.23-1.39,4.86C34.32,106.07,33.69,108.49,33.07,110.84Z"/><path class="cls-1" d="M89,96.2c-4.13.27-7.76-1.14-11.37-2.55a53.33,53.33,0,0,1-13.19-7.46,79.75,79.75,0,0,1-7.39-7A51.43,51.43,0,0,1,46.85,65a18.57,18.57,0,0,1-2.17-9.25C45,50.88,46.82,46.62,51,43.81c2.16-1.45,4.59-1.25,6.93-.21A2.19,2.19,0,0,1,59,44.85c1.58,3.74,3.17,7.46,4.74,11.2a3.31,3.31,0,0,1-.35,3.21c-1,1.53-2.19,2.85-3.27,4.29S59.08,65,60,66.65a37.58,37.58,0,0,0,8.35,9.91A27.13,27.13,0,0,0,77,82c.74.26,1.41.7,2.14,1a2.22,2.22,0,0,0,2.76-.47,42.79,42.79,0,0,0,3.51-4.11c1.52-2,2.92-2.51,5.28-1.49,3.41,1.48,6.79,3,10.17,4.57a2.46,2.46,0,0,1,1.55,2.38,16.35,16.35,0,0,1-.9,5.12A7.78,7.78,0,0,1,98.3,92.9C95.5,94.93,92.5,96.64,89,96.2Z"/></svg>