<?xml version="1.0" encoding="UTF-8"?>
<svg xmlns="http://www.w3.org/2000/svg" version="1.1" viewBox="0 0 100 125">
  <defs>
    <style>
      .cls-1 {
        fill: #fff;
      }
    </style>
  </defs>
  <!-- Generator: Adobe Illustrator 28.7.1, SVG Export Plug-In . SVG Version: 1.2.0 Build 142)  -->
  <g>
    <g id="Capa_1">
      <g id="Capa_1-2" data-name="Capa_1">
        <path class="cls-1" d="M86.6,36.4h-16.3l-1.1-3.3-1.7-5.2c-2-5.9-7.5-9.9-13.7-9.9h-7.5c-6.2,0-11.8,4-13.7,9.9l-1.7,5.2-1.1,3.3H13.4c-2.8,0-5.1,2-5.5,4.8-.3,2.9,1.8,5.5,4.7,5.8h4.4v1.2l5,42.4c.8,6.6,6.4,11.6,13.1,11.6h29.5c6.7,0,12.3-5,13.1-11.6l5-42.4v-1.2h3.9c2.9,0,5.3-2.3,5.3-5.2v-.5c-.3-2.8-2.7-4.8-5.5-4.8h.2ZM42.5,31.2c.5-1.6,2-2.7,3.7-2.7h7.5c1.7,0,3.2,1.1,3.8,2.7l1.7,5.2h-18.4s1.7-5.2,1.7-5.2ZM67.4,89.4c-.2,1.3-1.3,2.3-2.6,2.3h-29.5c-1.3,0-2.5-1-2.6-2.3l-5-42.4h44.8l-5,42.4h0Z"/>
      </g>
    </g>
  </g>
</svg>