<?xml version="1.0" encoding="UTF-8"?>
<svg id="Capa_2" xmlns="http://www.w3.org/2000/svg" xmlns:xlink="http://www.w3.org/1999/xlink" viewBox="0 0 493.28 175.09">
  <defs>
    <style>
      .cls-1 {
        fill: url(#Degradado_sin_nombre_6);
      }

      .cls-2 {
        fill: #4c4d51;
      }

      .cls-3 {
        fill: #90cdd2;
      }

      .cls-4 {
        fill: url(#Degradado_sin_nombre_4);
      }

      .cls-5 {
        fill: #afd6db;
      }

      .cls-6 {
        fill: #eabdc8;
      }

      .cls-7 {
        fill: #ecf3f0;
      }

      .cls-8 {
        fill: #f0a297;
      }

      .cls-9 {
        fill: #e2e8e5;
      }

      .cls-10 {
        fill: #edc8c4;
      }

      .cls-11 {
        fill: #ef9d9d;
      }

      .cls-12 {
        fill: #c3cecb;
      }

      .cls-13 {
        fill: url(#Degradado_sin_nombre_6-2);
      }
    </style>
    <linearGradient id="Degradado_sin_nombre_4" data-name="Degradado sin nombre 4" x1="11.1" y1="129.45" x2="76.4" y2="87.22" gradientUnits="userSpaceOnUse">
      <stop offset="0" stop-color="#79968d"/>
      <stop offset="1" stop-color="#96cebf"/>
    </linearGradient>
    <linearGradient id="Degradado_sin_nombre_6" data-name="Degradado sin nombre 6" x1="148.4" y1="129.22" x2="78.03" y2="89.16" gradientUnits="userSpaceOnUse">
      <stop offset="0" stop-color="#7bc4b5"/>
      <stop offset="1" stop-color="#96cebf"/>
    </linearGradient>
    <linearGradient id="Degradado_sin_nombre_6-2" data-name="Degradado sin nombre 6" x1="127.86" y1="77.26" x2="23.96" y2="18.12" xlink:href="#Degradado_sin_nombre_6"/>
  </defs>
  <g id="Capa_1-2" data-name="Capa_1">
    <g>
      <polygon class="cls-6" points="75.81 47.7 75.81 0 151.63 43.77 110.32 67.62 75.81 47.7"/>
      <polygon class="cls-5" points="110.32 67.62 110.32 107.46 151.63 131.31 151.63 43.77 110.32 67.62"/>
      <polygon class="cls-3" points="75.81 127.39 75.81 175.09 151.63 131.31 110.32 107.46 75.81 127.39"/>
      <polygon class="cls-8" points="75.81 127.39 75.81 175.09 0 131.31 41.31 107.46 75.81 127.39"/>
      <polygon class="cls-11" points="41.31 107.46 41.31 67.62 0 43.77 0 131.31 41.31 107.46"/>
      <polygon class="cls-10" points="75.81 0 75.81 47.7 41.31 67.62 0 43.77 75.81 0"/>
      <g>
        <polygon class="cls-4" points="75.79 8.19 7.01 47.9 7.01 127.32 75.79 167.03 144.57 127.32 144.57 47.9 75.79 8.19"/>
        <polyline id="SVGID" class="cls-1" points="75.79 86.8 144.57 47.9 144.57 127.32 75.79 167.03 75.79 86.8"/>
        <polygon id="SVGID-2" data-name="SVGID" class="cls-13" points="75.79 86.8 7.01 47.9 75.79 8.19 144.57 47.9 75.79 86.8"/>
        <path class="cls-9" d="M119.27,62.21c9.08,24.59,4.04,52.56-18.77,68.22-7.47,5.13-16.14,8.55-24.66,9.04l-.05-19.84c5.25-.58,10.81-3.8,15.54-6.48,8.38-4.74,14.55-10.7,14.64-25.54l-30.13,17.27-.05-18.08,43.48-24.59Z"/>
        <path class="cls-12" d="M32.42,62.63c-7.21,14.59-5.79,31.73,1.95,47.96,6.75,14.14,21.01,26.67,41.46,28.88l-.05-19.83c-10.62-.66-21.3-7.75-26.64-17.91-5.61-10.65-3.81-19.59-1.03-30.18l-15.69-8.93"/>
        <path class="cls-7" d="M60.18,43.44c-10.63,3-24.28,13.06-27.75,19.19l15.69,8.93s7.91-10.21,19.85-12.85c4.56-1.01,16.15-3.31,27.18,3.21l16.21-9.41c-22.97-13.43-39.93-12.24-51.17-9.07Z"/>
      </g>
    </g>
    <g>
      <g>
        <path class="cls-2" d="M211.19,86.12l-.19-4.25c-1.03,1.8-2.68,3.21-4.96,4.22-2.28,1.01-4.9,1.51-7.86,1.51s-5.64-.63-8.02-1.9-4.42-2.96-6.12-5.09c-1.7-2.13-3-4.57-3.9-7.34-.9-2.77-1.35-5.64-1.35-8.6,0-3.13.45-6.09,1.35-8.86.9-2.77,2.23-5.19,3.99-7.25,1.76-2.06,3.95-3.68,6.57-4.86,2.62-1.18,5.67-1.77,9.15-1.77,2.53,0,4.91.37,7.12,1.1,2.21.73,4.14,1.74,5.8,3.03,1.65,1.29,2.98,2.82,3.99,4.61,1.01,1.78,1.6,3.75,1.77,5.89h-9.02c-.13-.99-.47-1.92-1.03-2.8-.56-.88-1.27-1.64-2.13-2.29-.86-.64-1.86-1.16-3-1.55-1.14-.39-2.31-.58-3.51-.58-3.61,0-6.5,1.34-8.66,4.03-2.17,2.68-3.25,6.58-3.25,11.69,0,1.76.23,3.53.68,5.31.45,1.78,1.16,3.39,2.13,4.83.97,1.44,2.2,2.61,3.7,3.51,1.5.9,3.29,1.35,5.35,1.35,1.46,0,2.82-.26,4.09-.77,1.27-.52,2.37-1.22,3.32-2.13.94-.9,1.69-1.94,2.22-3.12.54-1.18.8-2.44.8-3.77h-9.47v-7.15h17.84v23h-7.41Z"/>
        <path class="cls-2" d="M232.25,86.12v-42.78h31.44v7.47h-22.74v9.15h20.94v7.54h-20.94v11.02h23.77v7.6h-32.47Z"/>
        <path class="cls-2" d="M303.7,86.12l-18.3-28.73v28.73h-8.31v-42.78h9.47l17.01,27.51v-27.51h8.37v42.78h-8.25Z"/>
        <path class="cls-2" d="M325.73,86.12v-42.78h31.44v7.47h-22.74v9.15h20.94v7.54h-20.94v11.02h23.77v7.6h-32.47Z"/>
        <path class="cls-2" d="M394.79,55.97c-.22-2.19-1.01-3.82-2.38-4.9-1.38-1.07-3.41-1.61-6.12-1.61-2.53,0-4.45.43-5.73,1.29-1.29.86-1.93,2.1-1.93,3.74,0,1.38.5,2.47,1.51,3.29,1.01.82,2.72,1.52,5.12,2.13,2.45.6,4.78,1.19,6.99,1.77,2.21.58,4.11,1.24,5.7,1.97.94.43,1.82.92,2.64,1.48.82.56,1.52,1.25,2.13,2.06.6.82,1.07,1.78,1.42,2.9.34,1.12.52,2.43.52,3.93,0,2.36-.42,4.39-1.26,6.09-.84,1.7-2.02,3.1-3.54,4.22-1.53,1.12-3.33,1.94-5.41,2.48-2.08.54-4.37.8-6.86.8-2.66,0-5.09-.29-7.28-.87-2.19-.58-4.08-1.47-5.67-2.67-1.59-1.2-2.83-2.69-3.74-4.48-.9-1.78-1.37-3.88-1.42-6.28h8.63c.09,2.19.98,3.92,2.67,5.19,1.7,1.27,3.98,1.9,6.86,1.9,2.66,0,4.71-.53,6.15-1.58,1.44-1.05,2.16-2.54,2.16-4.48,0-.64-.1-1.22-.29-1.74-.19-.52-.54-1-1.03-1.45-.49-.45-1.17-.86-2.03-1.22-.86-.36-1.96-.7-3.29-1-2.66-.6-4.91-1.13-6.73-1.58-1.83-.45-3.49-1.02-4.99-1.71-2.32-1.03-4.09-2.37-5.31-4.03-1.22-1.65-1.84-3.83-1.84-6.54,0-1.93.32-3.7.97-5.31.64-1.61,1.62-3,2.93-4.15,1.31-1.16,2.94-2.06,4.9-2.71,1.95-.64,4.24-.97,6.86-.97s5.11.34,7.21,1.03c2.1.69,3.88,1.65,5.31,2.9,1.44,1.25,2.55,2.73,3.35,4.44.79,1.72,1.23,3.61,1.32,5.67h-8.5Z"/>
        <path class="cls-2" d="M426.22,86.12v-16.17l-14.82-26.61h10.44l9.02,17.39,8.31-17.39h10.31l-14.3,26.73v16.04h-8.95Z"/>
        <path class="cls-2" d="M483.43,55.97c-.22-2.19-1.01-3.82-2.38-4.9-1.38-1.07-3.41-1.61-6.12-1.61-2.53,0-4.45.43-5.73,1.29-1.29.86-1.93,2.1-1.93,3.74,0,1.38.5,2.47,1.51,3.29,1.01.82,2.72,1.52,5.12,2.13,2.45.6,4.78,1.19,6.99,1.77,2.21.58,4.11,1.24,5.7,1.97.94.43,1.82.92,2.64,1.48.82.56,1.52,1.25,2.13,2.06.6.82,1.07,1.78,1.42,2.9.34,1.12.52,2.43.52,3.93,0,2.36-.42,4.39-1.26,6.09-.84,1.7-2.02,3.1-3.54,4.22-1.53,1.12-3.33,1.94-5.41,2.48-2.08.54-4.37.8-6.86.8-2.66,0-5.09-.29-7.28-.87-2.19-.58-4.08-1.47-5.67-2.67-1.59-1.2-2.83-2.69-3.74-4.48-.9-1.78-1.37-3.88-1.42-6.28h8.63c.09,2.19.98,3.92,2.67,5.19,1.7,1.27,3.98,1.9,6.86,1.9,2.66,0,4.71-.53,6.15-1.58,1.44-1.05,2.16-2.54,2.16-4.48,0-.64-.1-1.22-.29-1.74-.19-.52-.54-1-1.03-1.45-.49-.45-1.17-.86-2.03-1.22-.86-.36-1.96-.7-3.29-1-2.66-.6-4.91-1.13-6.73-1.58-1.83-.45-3.49-1.02-4.99-1.71-2.32-1.03-4.09-2.37-5.31-4.03-1.22-1.65-1.84-3.83-1.84-6.54,0-1.93.32-3.7.97-5.31.64-1.61,1.62-3,2.93-4.15,1.31-1.16,2.94-2.06,4.9-2.71,1.95-.64,4.24-.97,6.86-.97s5.11.34,7.21,1.03c2.1.69,3.88,1.65,5.31,2.9,1.44,1.25,2.55,2.73,3.35,4.44.79,1.72,1.23,3.61,1.32,5.67h-8.5Z"/>
      </g>
      <g>
        <path class="cls-2" d="M182.51,120.65v-25.52h2.32v23.34h8.75v2.18h-11.07Z"/>
        <path class="cls-2" d="M193.77,120.65l11.21-26.54,10.74,26.54h-2.53l-3.26-8.65h-10.43l-3.38,8.65h-2.35ZM200.29,110.02h8.89l-4.36-11.11-4.53,11.11Z"/>
        <path class="cls-2" d="M218.58,120.65v-25.52h4.43c1.94,0,3.34.09,4.2.28.86.19,1.59.51,2.2.96.85.64,1.49,1.42,1.94,2.34.44.92.66,1.94.66,3.06,0,1.36-.35,2.52-1.06,3.47-.71.95-1.69,1.58-2.93,1.88,1.64.24,2.92.9,3.85,1.97.93,1.07,1.39,2.42,1.39,4.06,0,1.2-.18,2.26-.54,3.19-.36.93-.91,1.73-1.64,2.41-.74.7-1.64,1.19-2.68,1.47-1.05.29-2.83.43-5.35.43h-4.46ZM220.9,106.48h2.89c2.13,0,3.63-.35,4.51-1.05s1.32-1.86,1.32-3.49c0-1.75-.43-2.99-1.28-3.71-.85-.72-2.37-1.08-4.54-1.08h-2.89v9.33ZM220.9,118.65h2.96c1.69,0,2.85-.07,3.49-.21.64-.14,1.18-.38,1.62-.71.55-.42.98-1,1.31-1.73.33-.74.49-1.53.49-2.36,0-1.02-.18-1.92-.54-2.69-.36-.77-.86-1.35-1.5-1.73-.44-.26-.96-.44-1.56-.55-.6-.11-1.53-.17-2.8-.17h-3.47v10.16Z"/>
        <path class="cls-2" d="M264.45,107.94c0,1.8-.34,3.51-1.03,5.13-.69,1.62-1.67,3.07-2.97,4.33-1.31,1.28-2.8,2.25-4.45,2.92-1.65.67-3.4,1-5.23,1s-3.58-.33-5.22-1c-1.65-.67-3.12-1.64-4.42-2.92-1.3-1.29-2.29-2.74-2.97-4.35-.68-1.61-1.02-3.32-1.02-5.12s.34-3.55,1.02-5.17c.68-1.62,1.67-3.08,2.97-4.37,1.28-1.27,2.74-2.23,4.38-2.88,1.64-.65,3.4-.98,5.27-.98s3.65.33,5.3.98c1.65.66,3.11,1.61,4.39,2.87,1.3,1.29,2.29,2.75,2.97,4.37.68,1.62,1.02,3.34,1.02,5.17ZM250.77,119.26c1.51,0,2.94-.28,4.29-.84,1.35-.56,2.56-1.37,3.65-2.44,1.06-1.08,1.87-2.31,2.43-3.69.56-1.38.85-2.83.85-4.35s-.28-2.98-.84-4.35c-.56-1.37-1.37-2.59-2.44-3.69-1.06-1.07-2.27-1.88-3.62-2.44-1.36-.56-2.8-.84-4.32-.84s-2.94.28-4.27.84c-1.34.56-2.55,1.37-3.63,2.44-1.07,1.1-1.88,2.33-2.44,3.69-.56,1.35-.84,2.8-.84,4.35s.28,2.98.84,4.35c.56,1.37,1.37,2.59,2.44,3.69,1.07,1.08,2.27,1.9,3.59,2.45,1.33.55,2.76.83,4.31.83Z"/>
        <path class="cls-2" d="M285.08,120.65h-2.82l-8.96-12.17h-1.39v12.17h-2.32v-25.52h4.69c2.77,0,4.84.58,6.22,1.73,1.38,1.15,2.07,2.89,2.07,5.23,0,1.99-.59,3.55-1.77,4.69-1.18,1.14-2.8,1.71-4.87,1.71l9.17,12.17ZM271.89,97.15v9.43h2.34c2.16,0,3.67-.35,4.52-1.04.85-.69,1.28-1.87,1.28-3.53,0-1.75-.44-3-1.33-3.75-.88-.74-2.38-1.12-4.48-1.12h-2.34Z"/>
        <path class="cls-2" d="M284.94,120.65l11.21-26.54,10.74,26.54h-2.53l-3.26-8.65h-10.43l-3.38,8.65h-2.35ZM291.46,110.02h8.89l-4.36-11.11-4.53,11.11Z"/>
        <path class="cls-2" d="M309.75,120.65v-25.52h2.32v23.34h8.75v2.18h-11.07Z"/>
        <path class="cls-2" d="M346.43,121.64l-8.96-20.49-1.94,19.49h-2.39l3.47-26.61,9.78,22.72,10.15-22.72,3.28,26.61h-2.39l-1.9-19.49-9.1,20.49Z"/>
        <path class="cls-2" d="M364.63,120.65v-25.52h12.64v2.18h-10.32v7.99h10.32v2.18h-10.32v11h10.32v2.18h-12.64Z"/>
        <path class="cls-2" d="M382.95,120.65v-25.52h3.98c3.54,0,6.06.17,7.55.52,1.49.35,2.77.95,3.84,1.8,1.42,1.13,2.5,2.58,3.24,4.36.74,1.78,1.12,3.81,1.12,6.1s-.37,4.33-1.12,6.11c-.74,1.78-1.81,3.21-3.21,4.28-1.1.85-2.37,1.45-3.78,1.81-1.42.36-3.7.54-6.85.54h-4.76ZM385.27,118.65h3.26c2.64,0,4.51-.15,5.61-.44,1.1-.3,2.04-.8,2.81-1.51,1.07-1,1.88-2.24,2.42-3.73.55-1.49.82-3.18.82-5.09s-.28-3.67-.83-5.16c-.55-1.49-1.37-2.71-2.45-3.66-.81-.73-1.81-1.25-2.98-1.55-1.17-.3-3.23-.45-6.15-.45h-2.51v21.6Z"/>
        <path class="cls-2" d="M407.83,120.65v-25.52h2.32v25.52h-2.32Z"/>
        <path class="cls-2" d="M437.02,99.8c-1.27-1.09-2.56-1.9-3.89-2.42-1.33-.52-2.72-.78-4.18-.78-3.3,0-5.98,1.05-8.05,3.14s-3.09,4.82-3.09,8.18c0,1.69.25,3.2.76,4.55.51,1.35,1.28,2.55,2.31,3.59,1.02,1.02,2.19,1.8,3.51,2.34,1.32.53,2.73.8,4.25.8s2.89-.25,4.29-.75c1.39-.5,2.71-1.24,3.96-2.21v2.72c-1.26.77-2.58,1.36-3.98,1.77-1.4.41-2.79.62-4.16.62-1.85,0-3.61-.33-5.3-.99-1.69-.66-3.13-1.59-4.34-2.79-1.24-1.23-2.19-2.66-2.82-4.29-.64-1.63-.96-3.41-.96-5.35s.33-3.68.98-5.33c.66-1.65,1.6-3.07,2.83-4.27,1.2-1.17,2.64-2.09,4.33-2.75,1.69-.66,3.45-.99,5.27-.99,1.63,0,3.14.22,4.52.67,1.39.45,2.65,1.12,3.79,2.01l-.03,2.56Z"/>
        <path class="cls-2" d="M442.04,120.65v-25.52h2.32v25.52h-2.32Z"/>
        <path class="cls-2" d="M450.72,120.65v-26.61l18.08,21.36v-20.28h2.16v26.27l-18.06-21.39v20.64h-2.18Z"/>
        <path class="cls-2" d="M477.33,120.65v-25.52h12.64v2.18h-10.32v7.99h10.32v2.18h-10.32v11h10.32v2.18h-12.64Z"/>
      </g>
    </g>
  </g>
</svg>