<?xml version="1.0" encoding="UTF-8"?>
<svg id="Capa_2" xmlns="http://www.w3.org/2000/svg" viewBox="0 0 562.07 199.1">
  <defs>
    <style>
      .cls-1 {
        fill: #4c4d51;
      }
    </style>
  </defs>
  <g id="Capa_1-2" data-name="Capa_1">
    <g>
      <g>
        <g>
          <path class="cls-1" d="M237.74,99.09l-.22-4.89c-1.18,2.07-3.09,3.69-5.7,4.85-2.62,1.16-5.63,1.74-9.04,1.74s-6.48-.73-9.22-2.18c-2.74-1.46-5.09-3.41-7.04-5.85-1.95-2.44-3.44-5.26-4.48-8.44-1.04-3.18-1.56-6.48-1.56-9.89,0-3.6.52-7,1.56-10.18,1.04-3.18,2.57-5.96,4.59-8.33,2.02-2.37,4.54-4.23,7.55-5.59,3.01-1.36,6.52-2.04,10.52-2.04,2.91,0,5.64.42,8.18,1.26,2.54.84,4.76,2,6.67,3.48,1.9,1.48,3.43,3.25,4.59,5.3,1.16,2.05,1.84,4.31,2.04,6.78h-10.37c-.15-1.14-.54-2.21-1.18-3.22-.64-1.01-1.46-1.89-2.44-2.63-.99-.74-2.14-1.33-3.44-1.78-1.31-.44-2.65-.67-4.04-.67-4.15,0-7.47,1.54-9.96,4.63-2.49,3.09-3.74,7.57-3.74,13.44,0,2.03.26,4.06.78,6.11.52,2.05,1.33,3.9,2.44,5.55,1.11,1.66,2.53,3,4.26,4.04,1.73,1.04,3.78,1.55,6.15,1.55,1.68,0,3.25-.3,4.7-.89,1.46-.59,2.73-1.41,3.81-2.44,1.09-1.04,1.94-2.23,2.56-3.59.62-1.36.93-2.8.93-4.33h-10.89v-8.22h20.52v26.44h-8.52Z"/>
          <path class="cls-1" d="M261.95,99.09v-49.18h36.15v8.59h-26.15v10.52h24.07v8.67h-24.07v12.67h27.33v8.74h-37.33Z"/>
          <path class="cls-1" d="M344.1,99.09l-21.04-33.03v33.03h-9.55v-49.18h10.89l19.55,31.63v-31.63h9.63v49.18h-9.48Z"/>
          <path class="cls-1" d="M369.43,99.09v-49.18h36.15v8.59h-26.15v10.52h24.07v8.67h-24.07v12.67h27.33v8.74h-37.33Z"/>
          <path class="cls-1" d="M448.83,64.43c-.25-2.52-1.16-4.39-2.74-5.63-1.58-1.23-3.93-1.85-7.04-1.85-2.91,0-5.11.49-6.59,1.48-1.48.99-2.22,2.42-2.22,4.3,0,1.58.58,2.84,1.74,3.78,1.16.94,3.12,1.75,5.89,2.44,2.81.69,5.49,1.37,8.04,2.04,2.54.67,4.73,1.42,6.56,2.26,1.09.49,2.1,1.06,3.04,1.7.94.64,1.75,1.43,2.44,2.37.69.94,1.23,2.05,1.63,3.33.39,1.28.59,2.79.59,4.52,0,2.72-.48,5.05-1.44,7-.96,1.95-2.32,3.57-4.07,4.85-1.75,1.28-3.83,2.23-6.22,2.85-2.4.62-5.03.93-7.89.93-3.06,0-5.85-.33-8.37-1-2.52-.67-4.69-1.69-6.52-3.07-1.83-1.38-3.26-3.1-4.3-5.15-1.04-2.05-1.58-4.46-1.63-7.22h9.92c.1,2.52,1.12,4.51,3.07,5.96,1.95,1.46,4.58,2.18,7.89,2.18,3.06,0,5.42-.6,7.07-1.81,1.65-1.21,2.48-2.93,2.48-5.15,0-.74-.11-1.41-.33-2-.22-.59-.62-1.15-1.19-1.67-.57-.52-1.35-.99-2.33-1.41-.99-.42-2.25-.8-3.78-1.15-3.06-.69-5.64-1.3-7.74-1.81-2.1-.52-4.01-1.17-5.74-1.96-2.67-1.19-4.7-2.73-6.11-4.63-1.41-1.9-2.11-4.41-2.11-7.52,0-2.22.37-4.26,1.11-6.11.74-1.85,1.86-3.44,3.37-4.78,1.51-1.33,3.38-2.37,5.63-3.11,2.25-.74,4.88-1.11,7.89-1.11s5.88.4,8.3,1.18c2.42.79,4.46,1.9,6.11,3.33,1.65,1.43,2.94,3.14,3.85,5.11.91,1.98,1.42,4.15,1.52,6.52h-9.78Z"/>
          <path class="cls-1" d="M484.97,99.09v-18.59l-17.04-30.59h12l10.37,20,9.55-20h11.85l-16.44,30.74v18.44h-10.3Z"/>
          <path class="cls-1" d="M550.74,64.43c-.25-2.52-1.16-4.39-2.74-5.63-1.58-1.23-3.93-1.85-7.04-1.85-2.91,0-5.11.49-6.59,1.48-1.48.99-2.22,2.42-2.22,4.3,0,1.58.58,2.84,1.74,3.78,1.16.94,3.12,1.75,5.89,2.44,2.81.69,5.49,1.37,8.04,2.04,2.54.67,4.73,1.42,6.56,2.26,1.09.49,2.1,1.06,3.04,1.7.94.64,1.75,1.43,2.44,2.37.69.94,1.23,2.05,1.63,3.33.39,1.28.59,2.79.59,4.52,0,2.72-.48,5.05-1.44,7-.96,1.95-2.32,3.57-4.07,4.85-1.75,1.28-3.83,2.23-6.22,2.85-2.4.62-5.03.93-7.89.93-3.06,0-5.85-.33-8.37-1-2.52-.67-4.69-1.69-6.52-3.07-1.83-1.38-3.26-3.1-4.3-5.15-1.04-2.05-1.58-4.46-1.63-7.22h9.92c.1,2.52,1.12,4.51,3.07,5.96,1.95,1.46,4.58,2.18,7.89,2.18,3.06,0,5.42-.6,7.07-1.81,1.65-1.21,2.48-2.93,2.48-5.15,0-.74-.11-1.41-.33-2-.22-.59-.62-1.15-1.19-1.67-.57-.52-1.35-.99-2.33-1.41-.99-.42-2.25-.8-3.78-1.15-3.06-.69-5.64-1.3-7.74-1.81-2.1-.52-4.01-1.17-5.74-1.96-2.67-1.19-4.7-2.73-6.11-4.63-1.41-1.9-2.11-4.41-2.11-7.52,0-2.22.37-4.26,1.11-6.11.74-1.85,1.86-3.44,3.37-4.78,1.51-1.33,3.38-2.37,5.63-3.11,2.25-.74,4.88-1.11,7.89-1.11s5.88.4,8.3,1.18c2.42.79,4.46,1.9,6.11,3.33,1.65,1.43,2.94,3.14,3.85,5.11.91,1.98,1.42,4.15,1.52,6.52h-9.78Z"/>
        </g>
        <g>
          <path class="cls-1" d="M204.76,138.8v-29.35h2.67v26.84h10.06v2.51h-12.73Z"/>
          <path class="cls-1" d="M217.71,138.8l12.89-30.51,12.35,30.51h-2.91l-3.75-9.94h-11.99l-3.89,9.94h-2.71ZM225.21,126.57h10.22l-5.01-12.77-5.21,12.77Z"/>
          <path class="cls-1" d="M246.23,138.8v-29.35h5.09c2.23,0,3.84.11,4.83.32.99.21,1.83.58,2.53,1.1.98.74,1.72,1.63,2.23,2.7.51,1.06.76,2.24.76,3.52,0,1.56-.41,2.89-1.22,3.99-.82,1.1-1.94,1.82-3.37,2.16,1.88.28,3.36,1.04,4.43,2.27,1.07,1.23,1.6,2.79,1.6,4.67,0,1.38-.21,2.6-.62,3.67-.41,1.07-1.04,1.99-1.88,2.77-.86.8-1.88,1.37-3.09,1.69-1.2.33-3.25.49-6.15.49h-5.13ZM248.9,122.5h3.33c2.45,0,4.17-.4,5.18-1.2,1.01-.8,1.51-2.14,1.51-4.01,0-2.02-.49-3.44-1.47-4.27-.98-.83-2.72-1.24-5.22-1.24h-3.33v10.72ZM248.9,136.49h3.41c1.94,0,3.27-.08,4.01-.24.73-.16,1.36-.43,1.86-.82.63-.48,1.13-1.15,1.5-1.99.37-.85.56-1.75.56-2.72,0-1.18-.21-2.21-.62-3.1-.41-.89-.99-1.55-1.72-1.99-.51-.29-1.11-.5-1.79-.63-.69-.13-1.76-.19-3.22-.19h-3.99v11.69Z"/>
          <path class="cls-1" d="M298.97,124.19c0,2.07-.39,4.04-1.18,5.9-.79,1.86-1.93,3.53-3.41,4.98-1.51,1.47-3.22,2.59-5.11,3.36-1.9.77-3.9,1.15-6.02,1.15s-4.12-.38-6.01-1.15c-1.89-.77-3.59-1.89-5.08-3.36-1.5-1.48-2.64-3.15-3.42-5-.78-1.85-1.17-3.81-1.17-5.88s.39-4.08,1.17-5.94c.78-1.86,1.92-3.54,3.42-5.02,1.47-1.46,3.15-2.56,5.03-3.31,1.89-.75,3.9-1.12,6.06-1.12s4.2.38,6.09,1.13c1.89.76,3.57,1.85,5.04,3.3,1.5,1.48,2.64,3.16,3.42,5.02.78,1.86,1.17,3.85,1.17,5.94ZM283.25,137.2c1.74,0,3.38-.32,4.94-.96,1.55-.64,2.95-1.58,4.19-2.81,1.22-1.24,2.15-2.66,2.8-4.24.65-1.58.97-3.25.97-5s-.32-3.43-.96-5c-.64-1.57-1.58-2.98-2.81-4.24-1.22-1.23-2.6-2.16-4.16-2.81-1.56-.64-3.21-.96-4.97-.96s-3.38.32-4.92.96c-1.54.64-2.93,1.58-4.17,2.81-1.23,1.27-2.17,2.68-2.81,4.24-.64,1.56-.96,3.22-.96,5s.32,3.43.96,5,1.58,2.98,2.81,4.24c1.23,1.24,2.61,2.18,4.13,2.82,1.53.63,3.18.95,4.96.95Z"/>
          <path class="cls-1" d="M322.69,138.8h-3.25l-10.3-13.99h-1.6v13.99h-2.67v-29.35h5.39c3.18,0,5.56.66,7.15,1.98,1.58,1.32,2.38,3.33,2.38,6.01,0,2.29-.68,4.08-2.03,5.39-1.36,1.31-3.22,1.96-5.6,1.96l10.54,13.99ZM307.53,111.78v10.84h2.69c2.49,0,4.22-.4,5.2-1.19.98-.79,1.47-2.15,1.47-4.06,0-2.02-.51-3.45-1.52-4.31-1.02-.86-2.73-1.28-5.15-1.28h-2.69Z"/>
          <path class="cls-1" d="M322.53,138.8l12.89-30.51,12.35,30.51h-2.91l-3.75-9.94h-11.99l-3.89,9.94h-2.71ZM330.02,126.57h10.22l-5.01-12.77-5.21,12.77Z"/>
          <path class="cls-1" d="M351.05,138.8v-29.35h2.67v26.84h10.06v2.51h-12.73Z"/>
          <path class="cls-1" d="M393.23,139.94l-10.3-23.55-2.23,22.41h-2.75l3.99-30.59,11.25,26.12,11.67-26.12,3.77,30.59h-2.75l-2.18-22.41-10.46,23.55Z"/>
          <path class="cls-1" d="M414.15,138.8v-29.35h14.53v2.51h-11.87v9.18h11.87v2.51h-11.87v12.65h11.87v2.51h-14.53Z"/>
          <path class="cls-1" d="M435.22,138.8v-29.35h4.57c4.08,0,6.97.2,8.68.6,1.71.4,3.18,1.09,4.41,2.06,1.63,1.3,2.87,2.97,3.73,5.01.86,2.04,1.28,4.38,1.28,7.02s-.43,4.97-1.28,7.03c-.86,2.05-2.08,3.69-3.69,4.92-1.27.98-2.72,1.67-4.35,2.08-1.63.41-4.26.62-7.88.62h-5.47ZM437.89,136.49h3.75c3.03,0,5.18-.17,6.45-.51,1.27-.34,2.35-.92,3.23-1.73,1.23-1.15,2.16-2.58,2.79-4.29.63-1.71.94-3.66.94-5.85s-.32-4.22-.95-5.93c-.63-1.71-1.57-3.11-2.82-4.21-.94-.84-2.08-1.44-3.43-1.78-1.35-.35-3.71-.52-7.08-.52h-2.89v24.84Z"/>
          <path class="cls-1" d="M463.83,138.8v-29.35h2.67v29.35h-2.67Z"/>
          <path class="cls-1" d="M497.38,114.83c-1.46-1.26-2.95-2.18-4.47-2.79-1.52-.6-3.13-.9-4.81-.9-3.8,0-6.88,1.2-9.25,3.61-2.37,2.41-3.56,5.54-3.56,9.4,0,1.94.29,3.68.87,5.23.58,1.55,1.47,2.93,2.66,4.13,1.18,1.18,2.52,2.07,4.04,2.69,1.52.62,3.14.92,4.88.92s3.33-.29,4.93-.86c1.6-.57,3.12-1.42,4.55-2.55v3.13c-1.44.88-2.97,1.56-4.58,2.03-1.61.47-3.2.71-4.78.71-2.12,0-4.16-.38-6.09-1.14-1.94-.76-3.6-1.83-4.99-3.21-1.43-1.42-2.51-3.06-3.25-4.93-.74-1.87-1.1-3.92-1.1-6.15s.38-4.24,1.13-6.13c.75-1.9,1.84-3.53,3.26-4.91,1.38-1.35,3.04-2.41,4.98-3.17,1.94-.76,3.96-1.14,6.06-1.14,1.87,0,3.6.26,5.2.77,1.6.51,3.05,1.29,4.36,2.32l-.04,2.95Z"/>
          <path class="cls-1" d="M503.15,138.8v-29.35h2.67v29.35h-2.67Z"/>
          <path class="cls-1" d="M513.14,138.8v-30.59l20.79,24.56v-23.31h2.49v30.21l-20.77-24.6v23.73h-2.51Z"/>
          <path class="cls-1" d="M543.73,138.8v-29.35h14.53v2.51h-11.87v9.18h11.87v2.51h-11.87v12.65h11.87v2.51h-14.53Z"/>
        </g>
      </g>
      <path class="cls-1" d="M86.21,0L0,49.78v99.55l86.21,49.78,86.21-49.78V49.78L86.21,0ZM117.18,153.22c-9.36,6.43-20.23,10.72-30.91,11.33-25.64-2.78-43.51-18.48-51.97-36.2-9.71-20.34-11.48-41.83-2.45-60.12,4.35-7.67,21.46-20.29,34.79-24.05,14.09-3.97,35.35-5.46,64.14,11.37l-20.31,11.79c-13.82-8.17-28.35-5.29-34.06-4.03-14.96,3.3-24.88,16.1-24.88,16.1-3.49,13.27-5.74,24.48,1.29,37.83,6.7,12.73,20.09,21.61,33.4,22.45,6.58-.72,13.55-4.78,19.47-8.13,10.51-5.95,18.24-13.41,18.35-32.02l-37.76,21.65-.06-22.66,54.49-30.82c11.38,30.82,5.06,65.88-23.52,85.51Z"/>
    </g>
  </g>
</svg>