<svg id="Capa_1" data-name="Capa 1" xmlns="http://www.w3.org/2000/svg" viewBox="0 0 141.73 141.73"><defs><style>.cls-1{fill:#4daf4a;}.cls-2{fill:#266e3f;}</style></defs><title>logo_sns</title><path class="cls-1" d="M137.51,74.79a9.41,9.41,0,0,0-.26,1.5,15.55,15.55,0,0,1-13.91,12.38,15,15,0,0,1-3.72-.13.52.52,0,0,1-.16-.06,14.07,14.07,0,0,0,11-3.7A13.49,13.49,0,0,0,135,74.12a14.16,14.16,0,1,0-28.31.78A15.33,15.33,0,0,1,116,59.05a14.78,14.78,0,0,1,4-1.1c.07,0,.17,0,.22-.08h3.51a.29.29,0,0,0,.13.05,15.66,15.66,0,0,1,5.95,2A15.43,15.43,0,0,1,137,69.2c.24.82.34,1.67.52,2.5Z"/><path class="cls-2" d="M113.58,88.28a12.08,12.08,0,0,1,0-2.62,32.84,32.84,0,0,1,.91-5.57,24.68,24.68,0,0,1,6.4-11.33,4.64,4.64,0,0,1,1.24-1,2.4,2.4,0,0,1,3.08.66,1.79,1.79,0,0,1,.16,2,2.77,2.77,0,0,1-1,1.09A39.42,39.42,0,0,0,120,74.83a18.35,18.35,0,0,0-4.11,5.24,21.68,21.68,0,0,0-2.23,7.5C113.61,87.8,113.6,88,113.58,88.28Z"/><path class="cls-2" d="M21.24,66.34a3.19,3.19,0,0,0-1.66-.92,2.54,2.54,0,0,0-2.76,1.28,2.47,2.47,0,0,0,1.46,3.46,2.43,2.43,0,0,0,2-.09,1.84,1.84,0,0,0,.89-1H19.07V67.8c.2-.06,3.35-.07,3.67,0a3.58,3.58,0,0,1-1.32,3.11,3.41,3.41,0,0,1-2,.75,3.85,3.85,0,0,1-4-5.37A3.89,3.89,0,0,1,19.55,64,4,4,0,0,1,22,65.08a1.39,1.39,0,0,1,.24.25Z"/><path class="cls-2" d="M49.38,71.66a3.82,3.82,0,0,1-3.78-4,3.81,3.81,0,1,1,7.61.41A3.81,3.81,0,0,1,49.38,71.66ZM47,67.79a2.37,2.37,0,0,0,2.33,2.52,2.47,2.47,0,0,0,.14-4.93A2.34,2.34,0,0,0,47,67.79Z"/><path class="cls-2" d="M38.9,64.16c.72,0,1.43,0,2.13,0a6,6,0,0,1,.95.11,3,3,0,0,1,2.4,2,4.32,4.32,0,0,1-.08,3.33,2.83,2.83,0,0,1-2.48,1.76c-1,.09-1.93,0-2.92,0Zm1.36,1.38v4.55A7.45,7.45,0,0,0,41.83,70a1.58,1.58,0,0,0,1.25-1.19,3,3,0,0,0,.12-1.33,2,2,0,0,0-1.51-1.86A5.61,5.61,0,0,0,40.26,65.54Z"/><path class="cls-2" d="M32.2,71.46H30.74l2.81-7.29a9.74,9.74,0,0,1,1.43,0l2.81,7.29H36.3L35.76,70h-3Zm3-2.86-.94-2.44c-.38.83-.64,1.63-1,2.44Z"/><path class="cls-2" d="M106.52,81.13V76.27h1.16V88.65a6.37,6.37,0,0,1-1.16,0V87.18a4.62,4.62,0,0,1-4.41,1.65,4.44,4.44,0,0,1-2.82-1.75,4.78,4.78,0,0,1,.36-6.2,4.59,4.59,0,0,1,3.47-1.42,4.22,4.22,0,0,1,3.32,1.73Zm.08,3.12a3.53,3.53,0,1,0-3.51,3.55A3.48,3.48,0,0,0,106.6,84.25Z"/><path class="cls-2" d="M39.48,79.69h.34c.26,0,.52,0,.82,0v1.59a4.5,4.5,0,0,1,7.17,0,4.78,4.78,0,0,1-.46,6.43,4.6,4.6,0,0,1-6.71-.46v4.72H39.48ZM47.6,84.2a3.52,3.52,0,1,0-3.54,3.61A3.61,3.61,0,0,0,47.6,84.2Z"/><path class="cls-2" d="M59.78,84.26h-8a3.33,3.33,0,0,0,2.11,3.34,3.75,3.75,0,0,0,4.59-1.93,7.3,7.3,0,0,1,1,.5c-.86,2-3,3.21-5.72,2.54a4.68,4.68,0,0,1-3.13-5.52,4.57,4.57,0,0,1,5.43-3.65A4.47,4.47,0,0,1,59.78,84.26Zm-7.87-1h6.53a3.34,3.34,0,0,0-6.53,0Z"/><path class="cls-2" d="M112.7,88c-.32-2.5-.47-5-.6-7.54A24.75,24.75,0,0,1,113,72a13.32,13.32,0,0,1,1.25-3,3.16,3.16,0,0,1,1.11-1.19,1.61,1.61,0,0,1,1.93.1,1.72,1.72,0,0,1,.41,2,3.52,3.52,0,0,1-.55.83,20,20,0,0,0-3.24,6.45,31,31,0,0,0-1.14,6.32,27.77,27.77,0,0,0,0,3.65A2,2,0,0,0,112.7,88Z"/><path class="cls-2" d="M81.31,81.23a6.9,6.9,0,0,1,.08-1.54h1.1v9a3.63,3.63,0,0,1-1.14,0v-1.3l-.07-.08a4.58,4.58,0,0,1-4,1.6,4.44,4.44,0,0,1-3.55-2.3,4.73,4.73,0,0,1,1-5.93,4.47,4.47,0,0,1,3.39-1.16A4.26,4.26,0,0,1,81.31,81.23Zm.11,2.9a3.53,3.53,0,1,0-7,.07,3.5,3.5,0,0,0,3.52,3.6A3.45,3.45,0,0,0,81.42,84.13Z"/><path class="cls-2" d="M5,64.17H6.41L8.24,69.3l1.86-5.13a11.74,11.74,0,0,1,1.46,0L8.91,71.46H7.54Z"/><path class="cls-2" d="M114.75,88.25a33.18,33.18,0,0,1,1.58-5.35A19.7,19.7,0,0,1,123.54,74a2.36,2.36,0,0,1,2.07-.41,1.58,1.58,0,0,1,.65,2.73,5.35,5.35,0,0,1-1.64,1,17.58,17.58,0,0,0-6.88,5,16.24,16.24,0,0,0-2.82,5.54.84.84,0,0,1-.17.37Z"/><path class="cls-2" d="M26.65,78.26l-1,.73c-.27-.16-.38-.42-.58-.61a2.41,2.41,0,0,0-1.42-.83,1.74,1.74,0,0,0-1.69.71,1.67,1.67,0,0,0,.14,1.85,6.6,6.6,0,0,0,1.25,1.17,22,22,0,0,1,2.07,1.65,4.32,4.32,0,0,1,1.37,2.38,3.32,3.32,0,0,1-2.61,3.58c-2,.39-3.48-.53-4.46-2.49a9,9,0,0,1,1-.63c.22.32.41.63.64.92a2.32,2.32,0,0,0,3,.81,1.93,1.93,0,0,0,.77-2.83,7.71,7.71,0,0,0-1.91-1.87c-.62-.49-1.25-1-1.82-1.51a2.94,2.94,0,0,1-.84-3,2.67,2.67,0,0,1,2.12-2A3.08,3.08,0,0,1,25.5,77,5.21,5.21,0,0,1,26.65,78.26Z"/><path class="cls-2" d="M89.45,79.7a1.12,1.12,0,0,1,0,.44c0,1.72-.07,3.44.05,5.15a2.37,2.37,0,0,0,1.71,2.28,2.8,2.8,0,0,0,3-.63A2.61,2.61,0,0,0,95,85c0-1.6,0-3.2,0-4.8A.69.69,0,0,1,95,79.7a4.88,4.88,0,0,1,1.15,0v1c0,1.6.07,3.2-.08,4.79a3.51,3.51,0,0,1-3.78,3.43,3.76,3.76,0,0,1-3.07-1.18,4.18,4.18,0,0,1-.91-2.55c-.13-1.77,0-3.54-.06-5.3a1.43,1.43,0,0,1,0-.16Z"/><path class="cls-2" d="M35.75,79.71a6.62,6.62,0,0,1,1.08,0c.11.09.08.19.08.28,0,1.62,0,3.23,0,4.84a4.79,4.79,0,0,1-.53,2.32,3.37,3.37,0,0,1-3,1.77A3.9,3.9,0,0,1,30,87.75a4.12,4.12,0,0,1-1-2.64C29,83.37,29,81.63,29,79.88c0,0,0-.09,0-.17h1.13c.09.1,0,.24,0,.36,0,1.68,0,3.35.05,5a2.47,2.47,0,0,0,1.58,2.45A3,3,0,0,0,35,87a2.38,2.38,0,0,0,.67-1.79c.08-1.65.05-3.3,0-4.94A.85.85,0,0,1,35.75,79.71Z"/><path class="cls-2" d="M30.27,70.11v1.35H26.86V64.17h1.39v5.94Z"/><path class="cls-2" d="M66.14,87.61l.72-.81.65.53a1.9,1.9,0,0,0,2.27.11,1.34,1.34,0,0,0,.07-2.22,8.33,8.33,0,0,0-1.41-.84,5,5,0,0,1-1.16-.83,2.35,2.35,0,0,1,1.24-4,2.93,2.93,0,0,1,2.32.61,2.59,2.59,0,0,1,.67.58l-.68.72a2.18,2.18,0,0,1-.67-.42,2,2,0,0,0-1.38-.4,1.25,1.25,0,0,0-1.09.81,1.09,1.09,0,0,0,.3,1.24,4.3,4.3,0,0,0,1.17.81,6.68,6.68,0,0,1,1.74,1.18,2.28,2.28,0,0,1,.45,2.59,2.48,2.48,0,0,1-2.13,1.63,3.36,3.36,0,0,1-2.89-1A2.92,2.92,0,0,1,66.14,87.61Z"/><path class="cls-2" d="M12.56,64.16H13.9v7.3H12.56Z"/><path class="cls-2" d="M25.29,71.46H24V64.17h1.34Z"/><path class="cls-2" d="M62.66,88.67H61.51v-9h1.17v1.23l.46-.51a2.38,2.38,0,0,1,2.18-.91,2.68,2.68,0,0,1,.72.28l-.56,1c-.3,0-.55-.17-.85-.11A2.13,2.13,0,0,0,63.1,82a5.45,5.45,0,0,0-.36,2c-.05,1.47-.08,3-.06,4.43C62.68,88.48,62.67,88.56,62.66,88.67Z"/><path class="cls-2" d="M84.91,76.26h1.15v12.4H84.91Z"/><path class="cls-2" d="M127.68,68.3A1.63,1.63,0,0,1,126,66.54,1.67,1.67,0,0,1,127.63,65a1.69,1.69,0,0,1,1.73,1.67A1.64,1.64,0,0,1,127.68,68.3Z"/><path class="cls-2" d="M129.41,75.1a1.68,1.68,0,0,1,0-3.36,1.7,1.7,0,0,1,1.69,1.72A1.66,1.66,0,0,1,129.41,75.1Z"/><path class="cls-2" d="M117.45,65.75a1.74,1.74,0,0,1,1.69-1.66,1.77,1.77,0,0,1,1.71,1.68,1.7,1.7,0,1,1-3.4,0Z"/><path class="cls-2" d="M114.75,88.24a.08.08,0,0,0,0,.1c.09,0,.08,0,0-.09Z"/></svg>