<svg id="Capa_1" data-name="Capa 1" xmlns="http://www.w3.org/2000/svg" viewBox="0 0 141.73 141.73"><defs><style>.cls-1{fill:#3b8e38;}.cls-2{fill:#de2f18;}.cls-3{fill:#dddc13;}.cls-4{fill:#f3f0e7;}</style></defs><title>Recurso 14</title><path class="cls-1" d="M71.29,117.42c-8.81.5-17.61.15-26.41,0-5.13-.11-10.3-.14-15.22-2.22-8.32-3.51-14.28-9-16.14-18.22a32,32,0,0,1,.09-11.42c.76-5,1.33-10,2.54-14.83.59-2.4.6-2.4,3-2.4,7.31,0,14.61,0,21.92,0,1.24,0,1.73.17,2,1.6,1.32,7.2,5.5,12.46,11.65,16.19a32.22,32.22,0,0,0,35.7-1.73,22.59,22.59,0,0,0,9.14-14.48c.17-1,.54-1.24,1.49-1.23,7.55,0,15.1,0,22.64,0,1,0,1.29.33,1.44,1.28,1.14,7,2.7,14.06,3.43,21.15a20.79,20.79,0,0,1-8.34,19.36,29.31,29.31,0,0,1-16.92,6c-5.35.29-10.7.82-16.05,1S76.61,117.42,71.29,117.42Zm1.9-14.59c-.54,0-.62-.36-.78-.57-1.6-2.19-3.22-4.37-4.78-6.59a1.92,1.92,0,0,0-1.8-.92c-2.27.06-4.55.06-6.82,0-.9,0-1.25.16-1.27,1.18,0,1.17.28,1.73,1.5,1.5,1.39-.26,1.73.39,1.65,1.68-.1,1.69,0,3.4,0,5.09,0,1.94,0,2-1.95,2-1.21,0-1.21.63-1.14,1.46s-.37,1.72,1.08,1.67c2.22-.08,4.45-.08,6.67,0,1.12,0,1.17-.56,1.09-1.35s.42-1.9-1.12-1.77c-.39,0-1.08.18-1.1-.37-.09-1.92,0-3.84,0-5.77a50,50,0,0,1,3.81,5.32c2.59,4,2.58,4,7.3,3.91a.75.75,0,0,1,.15,0c1,.11,1.24-.33,1.22-1.27,0-3.1,0-6.21,0-9.31,0-.88.14-1.42,1.17-1.28,1.44.19.84-.91,1-1.55s0-1.17-1-1.13c-1.89.07-3.78,0-5.66,0-.78,0-1.23.15-1.1,1,.1.68-.38,1.68,1,1.63.46,0,1-.1,1,.67C73.18,99.66,73.19,101.24,73.19,102.83ZM95.74,97c0-.63,0-1.26,0-1.89,0-.29,0-.71-.29-.74-1.23-.14-2.58-.45-3.66.15a1.14,1.14,0,0,1-1.19.12,9.85,9.85,0,0,0-5-.68,7.82,7.82,0,0,0-6.86,5.6,7.26,7.26,0,0,0,2.87,8.07c2.45,1.65,5.24,1.78,8.09,1.5a7.47,7.47,0,0,0,5.17-2.59c1.7-2,1.51-2.62-.9-3.44-1.32-.45-2.35-.86-2.92,1.06-.35,1.21-1.59,1.61-2.87,1.42a2.44,2.44,0,0,1-2.09-2.11,7.84,7.84,0,0,1,0-3.88,2.46,2.46,0,0,1,2-2,2.37,2.37,0,0,1,2.64,1.1c.55,1,1.29,1.07,2.23,1.06C95.75,99.75,95.75,99.76,95.74,97ZM36.22,94.77H28.53c-.57,0-1.3-.13-1.15.8.11.71-.6,2,1,1.86.77,0,.72.44.72.94,0,2.28,0,4.56,0,6.83,0,.6,0,1-.83,1-1.6.1-.69,1.39-.86,2.13s.41.93,1.08.93c2.71,0,5.41,0,8.12,0,1.07,0,1.19-.55,1.12-1.37s.35-1.78-1.09-1.65c-.44,0-1.12.19-1.17-.49-.06-.89-.48-2.07.25-2.62s1.22.61,1.81,1a1.94,1.94,0,0,1,.21.2,2.06,2.06,0,0,0,2.06.25c.66-.19.33-.92.35-1.41,0-1.11,0-2.23,0-3.34,0-.84-.33-1-1.11-1.11-1.17-.11-1.74.68-2.41,1.35a1.15,1.15,0,0,1-1.18.37c-.58-.16-.41-.68-.43-1.09-.08-2-.07-2,1.9-2,.29,0,.59,0,.87,0,1.06.06,2.25-.35,3.14.18s.59,1.66.89,2.52c.44,1.23,1.48.56,2.25.67s.72-.57.73-1.08c0-1.31-.05-2.62,0-3.92.05-.86-.27-1.07-1.07-1C41.24,94.8,38.73,94.77,36.22,94.77Zm74.55,14.28c1.31,0,2.62,0,3.92,0,.78,0,1.28-.17,1.07-1s.69-1.93-.9-1.94a1.4,1.4,0,0,1-1.42-1c-1.24-2.78-2.59-5.51-3.8-8.31-.54-1.27-1.24-1.92-2.69-1.7a14.05,14.05,0,0,1-2.9,0,1.52,1.52,0,0,0-1.74,1.09c-1.24,2.94-2.62,5.81-3.89,8.74a1.54,1.54,0,0,1-1.58,1.16c-1.56,0-.78,1.23-.94,1.94s.25,1,1,1c2,0,4.07,0,6.1,0,.44,0,1,0,.88-.62s.53-1.76-.49-2.31c-.34-.18-1,0-.74-.71.17-.59.37-1.08,1.14-1a20.18,20.18,0,0,0,2.91,0c.88-.08,1.32.35,1.35,1.11,0,1-.8.65-1.27.62-1.45-.09-.85,1-.93,1.61s-.18,1.47,1,1.38S109.46,109,110.77,109.05ZM51.28,94.77h0c-1.5,0-3,0-4.5,0-.36,0-.76-.1-1,.41-.49,1.26.11,2.26,1.46,2.23.86,0,1.21.21,1.19,1.13,0,2.13,0,4.27,0,6.4,0,1.06-.43,1.42-1.39,1.26-1.19-.2-1.39.41-1.32,1.42s-.18,1.73,1.26,1.68c2.8-.1,5.61-.09,8.41,0,1.25,0,1.3-.58,1.26-1.51s.2-1.85-1.25-1.6c-1,.17-1.29-.28-1.27-1.23.05-1.93.07-3.88,0-5.81,0-1.21.14-2,1.62-1.74,1.16.2.87-.72.88-1.33s.24-1.4-.91-1.34C54.28,94.83,52.78,94.77,51.28,94.77Z"/><path class="cls-1" d="M42,63.05c-4.49.09-9,.2-13.48.25-3.29.05-6.58,0-9.87,0-.92,0-1-.18-.75-1C20,55.68,22.49,49.2,24.84,42.66A24,24,0,0,1,33.9,30.93a35.16,35.16,0,0,1,12.26-5.34,52.07,52.07,0,0,1,12.32-1.51c9.43,0,18.86-.09,28.3,0a35.84,35.84,0,0,1,19.49,5.59,29.89,29.89,0,0,1,12.49,15.85c1.75,5.26,3.69,10.45,5.55,15.67.16.45.3.91.49,1.51H101.86l6.43-3.47c-2.7-.85-5-1.64-7.28-2.26-1.33-.36-1.26-.87-.46-1.69,1.34-1.39,2.69-2.78,4-4.18.22-.24.57-.48.43-.85s-.58-.28-.9-.28c-1.79,0-3.58,0-5.37,0-.66,0-1.59.35-1.91-.2s.45-1.27.81-1.87c.92-1.49,1.88-3,2.87-4.52a3.88,3.88,0,0,0-2,0c-1.61.32-3.21.66-4.82,1-1,.2-1.52.08-1.19-1.21.55-2.13.92-4.31,1.36-6.42a.8.8,0,0,0-.82,0l-5.86,2.88c-.93.47-1.48.52-1.39-.85.1-1.69,0-3.4,0-5.09,0-.36.21-.85-.24-1s-.57.26-.83.46c-1.59,1.19-3.18,2.37-4.75,3.58-.67.52-1.05.45-1.37-.37-.62-1.62-1.31-3.23-2-4.84-.14-.35-.16-.87-.58-.93s-.64.5-.89.83C74.14,32.83,73,34.24,72,35.7c-.58.82-1,.73-1.52,0-1.11-1.53-2.27-3-3.42-4.51-.19-.26-.31-.68-.73-.58s-.38.51-.49.82c-.64,1.82-1.33,3.63-1.95,5.47-.27.81-.55.86-1.17.28-1.41-1.33-2.87-2.6-4.32-3.88-.27-.24-.49-.74-.91-.58s-.31.65-.36,1c-.19,1.73-.39,3.46-.58,5.19-.1.87-.31,1.38-1.36.82-1.79-1-3.64-1.78-5.47-2.66-.67-.32-1-.27-.78.63.36,1.56.64,3.13.94,4.7.45,2.37.45,2.34-1.94,1.8a46.9,46.9,0,0,0-6-1.27l3.08,6c.41.8.33,1.24-.72,1.29-1.54.07-3.08.21-4.62.37-.82.08-1.64.26-2.63.43,1.82,1.67,3.47,3.17,5.08,4.69.36.34,1.09.61.89,1.18s-.91.45-1.41.58c-2.21.56-4.42,1.08-7,1.71Z"/><path class="cls-2" d="M97,62.76A23.56,23.56,0,0,1,77.52,85.7c-9.81,2.1-18.6-.16-25.78-7.47a21.57,21.57,0,0,1-6.08-13.92c0-.53,0-1.06-.43-1.46.32-.16.3-.46.32-.75A22.07,22.07,0,0,1,56.38,44.5c7.91-5,16.37-5.66,25.13-2.4C89.94,45.24,96.86,53.28,97,62.76ZM71.9,50h0c-5.23,0-10.45,0-15.68,0-1.78,0-2.61.75-2.63,2.21s.81,2.23,2.54,2.28c2.6.08,3.06.57,3.07,3.24q0,7,.08,14c0,1.88-.77,2.58-2.64,2.35-2-.26-3.32.84-3,2.6.2,1.27,1.12,1.88,3,1.89,5.23,0,10.45,0,15.68,0a7.09,7.09,0,0,0,1.44-.18A2,2,0,0,0,75.4,76a2,2,0,0,0-2.11-2c-.67,0-1.35,0-2,0-1,0-1.57-.37-1.63-1.42-.08-1.26-.25-2.52-.27-3.77,0-2.25.68-3,2.71-3.09,2.51-.09,3.15.43,3.42,2.75a2.2,2.2,0,0,0,4.37.15,72.15,72.15,0,0,0,0-9.3,2,2,0,0,0-2.32-1.88,2.09,2.09,0,0,0-2,2.07c-.3,2.71-.31,2.71-3.11,2.7h-1c-1.67,0-2.26-.55-2.34-2.24-.06-1.25,0-2.52,0-3.78a1.61,1.61,0,0,1,1.78-1.83c2.85,0,5.71,0,8.56.13s4.41,1.74,4.58,4c.16,2,1.39,3.27,3.16,3.26s3.05-1.35,3.08-3.48c0-1.79,0-3.58,0-5.38,0-2.23-.75-2.93-3-2.94Z"/><path class="cls-3" d="M97,62.76c-.17-9.48-7.09-17.52-15.52-20.66-8.76-3.26-17.22-2.58-25.13,2.4A22.07,22.07,0,0,0,45.55,62.1c0,.29,0,.59-.32.75-1.1-.31-2.13.4-3.22.2l-7.38-3.86c2.59-.63,4.8-1.15,7-1.71.5-.13,1.23-.08,1.41-.58s-.53-.84-.89-1.18c-1.61-1.52-3.26-3-5.08-4.69,1-.17,1.81-.35,2.63-.43,1.54-.16,3.08-.3,4.62-.37,1.05,0,1.13-.49.72-1.29l-3.08-6a46.9,46.9,0,0,1,6,1.27c2.39.54,2.39.57,1.94-1.8-.3-1.57-.58-3.14-.94-4.7-.21-.9.11-1,.78-.63,1.83.88,3.68,1.71,5.47,2.66,1,.56,1.26,0,1.36-.82.19-1.73.39-3.46.58-5.19,0-.38,0-.88.36-1s.64.34.91.58c1.45,1.28,2.91,2.55,4.32,3.88.62.58.9.53,1.17-.28.62-1.84,1.31-3.65,1.95-5.47.11-.31.1-.73.49-.82s.54.32.73.58c1.15,1.5,2.31,3,3.42,4.51.55.75.94.84,1.52,0,1-1.46,2.13-2.87,3.22-4.29.25-.33.36-.92.89-.83s.44.58.58.93c.66,1.61,1.35,3.22,2,4.84.32.82.7.89,1.37.37,1.57-1.21,3.16-2.39,4.75-3.58.26-.2.48-.61.83-.46s.23.68.24,1c0,1.69.08,3.4,0,5.09-.09,1.37.46,1.32,1.39.85l5.86-2.88a.8.8,0,0,1,.82,0c-.44,2.11-.81,4.29-1.36,6.42-.33,1.29.18,1.41,1.19,1.21,1.61-.33,3.21-.67,4.82-1a3.88,3.88,0,0,1,2,0c-1,1.55-2,3-2.87,4.52-.36.6-1.2,1.2-.81,1.87s1.25.19,1.91.2c1.79,0,3.58,0,5.37,0,.32,0,.75-.12.9.28s-.21.61-.43.85c-1.34,1.4-2.69,2.79-4,4.18-.8.82-.87,1.33.46,1.69,2.31.62,4.58,1.41,7.28,2.26l-6.43,3.47Z"/><path class="cls-4" d="M71.9,50H87.14c2.25,0,3,.71,3,2.94,0,1.8,0,3.59,0,5.38,0,2.13-1.23,3.46-3.08,3.48s-3-1.25-3.16-3.26c-.17-2.23-1.86-3.81-4.58-4s-5.71-.13-8.56-.13A1.61,1.61,0,0,0,69,56.25c0,1.26,0,2.53,0,3.78.08,1.69.67,2.22,2.34,2.24h1c2.8,0,2.81,0,3.11-2.7a2.09,2.09,0,0,1,2-2.07,2,2,0,0,1,2.32,1.88,72.15,72.15,0,0,1,0,9.3,2.2,2.2,0,0,1-4.37-.15c-.27-2.32-.91-2.84-3.42-2.75-2,.07-2.74.84-2.71,3.09,0,1.25.19,2.51.27,3.77.06,1,.68,1.42,1.63,1.42.68,0,1.36-.06,2,0a2,2,0,0,1,2.11,2,2,2,0,0,1-1.69,2.33,7.09,7.09,0,0,1-1.44.18c-5.23,0-10.45,0-15.68,0-1.87,0-2.79-.62-3-1.89-.28-1.76,1-2.86,3-2.6,1.87.23,2.65-.47,2.64-2.35q0-7-.08-14c0-2.67-.47-3.16-3.07-3.24-1.73,0-2.57-.8-2.54-2.28S54.44,50,56.22,50c5.23,0,10.45,0,15.68,0Z"/><path class="cls-1" d="M105.15,98.93a10.46,10.46,0,0,1,1.57,3.37c-1.07.06-2.5.5-2.94-.14s.62-1.76,1-2.68A4.21,4.21,0,0,1,105.15,98.93Z"/></svg>