<svg id="Capa_1" data-name="Capa 1" xmlns="http://www.w3.org/2000/svg" viewBox="0 0 141.73 141.73"><defs><style>.cls-1{fill:#084062;}.cls-2{fill:#0a4162;}.cls-3{fill:#37a3dc;}.cls-4{fill:#8dd1f0;}.cls-5{fill:#97d0f0;}.cls-6{fill:#a0cef0;}.cls-7{fill:#adddf5;}.cls-8{fill:#72c0ea;}.cls-9{fill:#7fc1eb;}.cls-10{fill:#84d0f5;}.cls-11{fill:#29a8e1;}.cls-12{fill:#67beec;}.cls-13{fill:#b5def7;}.cls-14{fill:#b6ddf5;}.cls-15{fill:#37a5de;}.cls-16{fill:#36a5de;}.cls-17{fill:#59bbeb;}.cls-18{fill:#2aabe3;}.cls-19{fill:#2996d3;}.cls-20{fill:#2896d3;}.cls-21{fill:#3bb9eb;}.cls-22{fill:#2895d3;}.cls-23{fill:#1bb6e7;}.cls-24{fill:#d0e8f5;}.cls-25{fill:#2babe3;}.cls-26{fill:#c1e1f2;}.cls-27{fill:#daeffb;}.cls-28{fill:#c9e3f4;}.cls-29{fill:#ddeef9;}.cls-30{fill:#2b96d3;}.cls-31{fill:#e2eef7;}.cls-32{fill:#73c0ea;}.cls-33{fill:#c9e2f4;}.cls-34{fill:#1eb7e8;}.cls-35{fill:#2c96d3;}.cls-36{fill:#2d96d3;}.cls-37{fill:#3dbaeb;}.cls-38{fill:#2795d3;}.cls-39{fill:#39a6de;}.cls-40{fill:#d0e7f5;}.cls-41{fill:#40baec;}.cls-42{fill:#e7f0fb;}.cls-43{fill:#69bfec;}.cls-44{fill:#68bfec;}.cls-45{fill:#9bd2f1;}.cls-46{fill:#a2d5f2;}.cls-47{fill:#d9e7f7;}.cls-48{fill:#86c8ee;}.cls-49{fill:#dae8f8;}</style></defs><title>Recurso 19</title><path class="cls-1" d="M21.42,65c0-3.6,0-7.1,0-10.61,0-.52.15-.68.65-.63a5.92,5.92,0,0,0,1.19,0c.43,0,.57.08.57.54,0,2.08,0,4.15,0,6.23,0,6.35,0,12.71,0,19.06,0,.43-.08.61-.55.56a12,12,0,0,0-1.47,0c-.31,0-.39-.1-.38-.39,0-.63,0-1.27,0-2a9.17,9.17,0,0,1-13.85-.59A9.22,9.22,0,0,1,21.42,65Zm0,6.43c.46-3.71-3.26-6.87-6.57-6.81a6.76,6.76,0,1,0-.11,13.51C18.27,78.25,21.87,74.92,21.42,71.45Z"/><path class="cls-1" d="M36.68,71.09c-2.41,0-4.81,0-7.21,0-.53,0-.6.16-.58.63a6.74,6.74,0,0,0,6.59,6.43,6.67,6.67,0,0,0,5.46-2.57.61.61,0,0,1,.84-.21c.49.2,1,.35,1.49.51.3.1.43.19.19.52a9.39,9.39,0,0,1-6.52,4.13,9.21,9.21,0,0,1-3.46-18.07,8.73,8.73,0,0,1,11.09,8.11c0,.41-.08.55-.52.54C41.59,71.08,39.13,71.09,36.68,71.09ZM35.6,68.67h5.56c.7,0,.74,0,.37-.62a6.71,6.71,0,0,0-6.17-3.39,6.89,6.89,0,0,0-5.73,3.49c-.24.37-.23.54.3.53C31.82,68.66,33.71,68.67,35.6,68.67Z"/><path class="cls-1" d="M89.28,65v-.43c0-1,0-1,1-1,1.36,0,1.36,0,1.36,1.37,0,4.85,0,9.7,0,14.55,0,.5-.12.67-.62.61s-1.35.24-1.68-.13-.07-1.08-.08-1.64c0-.18,0-.37,0-.68a9.13,9.13,0,0,1-7.73,2.85,8.93,8.93,0,0,1-6.08-3.34A9.22,9.22,0,0,1,89.28,65Zm0,6.38c.4-3.4-3-6.76-6.58-6.79a6.77,6.77,0,0,0-.21,13.53C86.32,78.24,89.68,74.72,89.28,71.42Z"/><path class="cls-1" d="M47.06,71.87c0-2.57,0-5.14,0-7.7,0-.46.14-.57.56-.54a5.1,5.1,0,0,1,1.52,0c.49.2.71-.08,1-.25a6.58,6.58,0,0,1,3.48-.74,6.46,6.46,0,0,1,6.65,6.62c0,3.43,0,6.86,0,10.3,0,.42-.06.62-.55.57a7.72,7.72,0,0,0-1.36,0c-.41,0-.49-.13-.49-.51q0-5.07,0-10.13a4.33,4.33,0,0,0-3.44-4.37,4.54,4.54,0,0,0-4.92,2.29,1.37,1.37,0,0,0-.1.66c0,3.81,0,7.62,0,11.43,0,.54-.17.68-.66.63a6.53,6.53,0,0,0-1.25,0c-.4,0-.5-.09-.5-.49C47.07,77.08,47.06,74.47,47.06,71.87Z"/><path class="cls-1" d="M65.9,73.05c0-2.17,0-4.34,0-6.51,0-.46-.14-.56-.56-.54-.74,0-1.48,0-2.21,0-.31,0-.44-.06-.43-.4,0-.64-.21-1.47.1-1.86s1.21-.11,1.84-.12c1.25,0,1.25,0,1.25-1.25,0-1.64,0-3.29,0-4.93,0-.43.12-.54.53-.51a9.62,9.62,0,0,0,1.42,0c.36,0,.44.12.44.45,0,1.93,0,3.85,0,5.77,0,.36.08.49.46.47.78,0,1.55,0,2.33,0,.3,0,.43.06.41.4,0,.54,0,1.09,0,1.64,0,.27-.09.35-.36.35-.77,0-1.55,0-2.32,0-.43,0-.52.11-.52.53,0,4.34,0,8.67,0,13,0,.54-.16.68-.66.63a6.53,6.53,0,0,0-1.25,0c-.41,0-.48-.13-.48-.5C65.91,77.46,65.9,75.25,65.9,73.05Z"/><path class="cls-2" d="M95.31,67q0-6.31,0-12.62c0-.48.14-.63.6-.58a5.8,5.8,0,0,0,1.25,0c.53-.07.6.16.6.63q0,12.56,0,25.12c0,.53-.15.7-.66.64a4.75,4.75,0,0,0-1.13,0c-.58.08-.67-.16-.67-.68C95.32,75.32,95.31,71.15,95.31,67Z"/><path class="cls-3" d="M115.15,77.77A4.68,4.68,0,0,1,112,79a8.41,8.41,0,0,1-3.62-.4,5.46,5.46,0,0,1-1.72-8.69,3.62,3.62,0,0,1,1-.88,4,4,0,0,1,.42.52,29.42,29.42,0,0,0,4.32,5.61C113.23,76.12,114.3,76.83,115.15,77.77Z"/><path class="cls-3" d="M127.06,83.66A16.25,16.25,0,0,1,111.81,83a9.31,9.31,0,0,1-2.18-1.67c2.76.2,5.36-.11,7.43-2.17a.71.71,0,0,1,.22.06,29.18,29.18,0,0,0,5,2.75A43.26,43.26,0,0,0,127.06,83.66Z"/><path class="cls-4" d="M116.87,62.39a5.72,5.72,0,0,0-.58-3.61L116,58.2c.28-.37,0-.72,0-1.08a30.2,30.2,0,0,1,.36-3.43,3.53,3.53,0,0,1,1.24-.26,13.16,13.16,0,0,0-.32,5.58,14.41,14.41,0,0,0,1.63,4.65,15.68,15.68,0,0,0,5.13,5.6A16,16,0,0,0,133.41,72a2.15,2.15,0,0,1,.26,1,16.84,16.84,0,0,1-6.74-1.12,17.64,17.64,0,0,1-7.9-6,14.81,14.81,0,0,1-1.76-3.07C117.2,62.64,117.25,62.28,116.87,62.39Z"/><path class="cls-5" d="M133.41,72A16,16,0,0,1,124,69.26a15.68,15.68,0,0,1-5.13-5.6A14.41,14.41,0,0,1,117.21,59a13.16,13.16,0,0,1,.32-5.58,6.53,6.53,0,0,1,1.81-.2c-.32.11-.61.2-.73.63a12.23,12.23,0,0,0-.23,5.41,14,14,0,0,0,5.43,8.63A14.49,14.49,0,0,0,132.87,71,2.11,2.11,0,0,1,133.41,72Z"/><path class="cls-6" d="M132.87,71a14.49,14.49,0,0,1-9.06-3.09,14,14,0,0,1-5.43-8.63,12.23,12.23,0,0,1,.23-5.41c.12-.43.41-.52.73-.63h.58v.22a10.81,10.81,0,0,0-.67,3.17A11.53,11.53,0,0,0,120.34,62a13,13,0,0,0,4.12,5.12A13.25,13.25,0,0,0,132,69.86,3.06,3.06,0,0,1,132.87,71Z"/><path class="cls-7" d="M132,69.86a13.25,13.25,0,0,1-7.49-2.77A13,13,0,0,1,120.34,62a11.53,11.53,0,0,1-1.09-5.35,10.81,10.81,0,0,1,.67-3.17,3.1,3.1,0,0,1,1.25-.12,1.41,1.41,0,0,1-.06.22,9.57,9.57,0,0,0-.5,6,11.27,11.27,0,0,0,2.62,5.1,9.49,9.49,0,0,0,2.8,2.32.88.88,0,0,1,0,.28c-.08.5.12.64.62.63a8.16,8.16,0,0,1,5,1.74A1.86,1.86,0,0,1,132,69.86Z"/><path class="cls-8" d="M115.17,65.57a2.71,2.71,0,0,1,.66-.69c.21,0,.25.19.34.33a20,20,0,0,0,5.33,6,21.69,21.69,0,0,0,5,2.73,17.79,17.79,0,0,0,7.19,1.16,2.15,2.15,0,0,1-.35,1.13,2.72,2.72,0,0,0-.94-.11,11,11,0,0,1-2.69-.26,21.2,21.2,0,0,1-11-5.75c-.09-.09-.14-.35-.38-.21a12.76,12.76,0,0,0-2.13-2.51c.09-.07.07-.15,0-.23Z"/><path class="cls-9" d="M133.66,75.07a17.79,17.79,0,0,1-7.19-1.16,21.69,21.69,0,0,1-5-2.73,20,20,0,0,1-5.33-6c-.09-.14-.13-.33-.34-.33l.69-1.13A27.81,27.81,0,0,0,118.6,67,18.74,18.74,0,0,0,124.73,72a17.47,17.47,0,0,0,9,2A2.08,2.08,0,0,1,133.66,75.07Z"/><path class="cls-10" d="M133.76,74.05a17.47,17.47,0,0,1-9-2A18.74,18.74,0,0,1,118.6,67a27.81,27.81,0,0,1-2.08-3.2c.12-.45.24-.91.35-1.36.38-.11.33.25.4.4A14.81,14.81,0,0,0,119,65.86a17.64,17.64,0,0,0,7.9,6A16.84,16.84,0,0,0,133.67,73,2.21,2.21,0,0,1,133.76,74.05Z"/><path class="cls-11" d="M108.67,68.47a5.32,5.32,0,0,1,1.94-.66,25.84,25.84,0,0,0,5.18,6.45c.32.29.59.69,1.06.81a3.84,3.84,0,0,1-1,2,17.41,17.41,0,0,0-1.5-1.35,29.85,29.85,0,0,1-3.94-4.39A12,12,0,0,1,108.67,68.47Z"/><path class="cls-11" d="M122.22,78.57a7.62,7.62,0,0,0,7.54,3l.34,0s.06,0,.17.08a8.74,8.74,0,0,1-1.83,1.28,24.91,24.91,0,0,1-4.33-1.24,28.7,28.7,0,0,1-6.34-3.29,12.13,12.13,0,0,0,1-1.72c.45.27.89.55,1.35.81A11.3,11.3,0,0,0,122.22,78.57Z"/><path class="cls-12" d="M118.32,69.87c.24-.14.29.12.38.21a21.2,21.2,0,0,0,11,5.75,11,11,0,0,0,2.69.26,2.72,2.72,0,0,1,.94.11,2.72,2.72,0,0,1-.68,1.13,5.89,5.89,0,0,0-2-.32,22.83,22.83,0,0,1-4.32-1c-1.09-.37-2.1-.93-3.16-1.36,0-.56-.32-.52-.7-.36l-3.29-2.36A18.59,18.59,0,0,0,118.32,69.87Z"/><path class="cls-13" d="M126,66.92a9.49,9.49,0,0,1-2.8-2.32,11.27,11.27,0,0,1-2.62-5.1,9.57,9.57,0,0,1,.5-6,1.41,1.41,0,0,0,.06-.22h.46c.3.06.63-.12.91.11a.83.83,0,0,0-.18.13,7.83,7.83,0,0,0-.94,4.23,9.09,9.09,0,0,0,.77,3.31A10.52,10.52,0,0,0,126,65.78Z"/><path class="cls-14" d="M126,65.78a10.52,10.52,0,0,1-3.85-4.67,9.09,9.09,0,0,1-.77-3.31,7.83,7.83,0,0,1,.94-4.23.83.83,0,0,1,.18-.13,2.84,2.84,0,0,1,1.25.23.49.49,0,0,0-.44.31,8.7,8.7,0,0,0-.84,3.3c0,.82.2,1.6.25,2.4a.38.38,0,0,0,.22.45,9.43,9.43,0,0,0,3,4.37c.43.35,1,.53,1.28,1l-.82,0C126.29,65.57,126.09,65.53,126,65.78Z"/><path class="cls-15" d="M108.67,68.47a12,12,0,0,0,1.74,2.82,29.85,29.85,0,0,0,3.94,4.39,17.41,17.41,0,0,1,1.5,1.35,2.25,2.25,0,0,1-.7.74c-.85-.94-1.92-1.65-2.76-2.58a29.42,29.42,0,0,1-4.32-5.61,4,4,0,0,0-.42-.52A2.9,2.9,0,0,1,108.67,68.47Z"/><path class="cls-16" d="M117.77,78.36a28.7,28.7,0,0,0,6.34,3.29,24.91,24.91,0,0,0,4.33,1.24,6,6,0,0,1-1.38.77A43.26,43.26,0,0,1,122.23,82a29.18,29.18,0,0,1-5-2.75.71.71,0,0,0-.22-.06Z"/><path class="cls-17" d="M123.11,74.62c1.06.43,2.07,1,3.16,1.36a22.83,22.83,0,0,0,4.32,1,5.89,5.89,0,0,1,2,.32,3.81,3.81,0,0,1-1,1c0-.21-.18-.23-.33-.21a3.83,3.83,0,0,1-1-.12,22.67,22.67,0,0,1-6.33-1.9c-.12-.06-.25-.2-.39,0A3.83,3.83,0,0,1,123.11,74.62Z"/><path class="cls-18" d="M116.85,75.07c-.47-.12-.74-.52-1.06-.81a25.84,25.84,0,0,1-5.18-6.45,1.52,1.52,0,0,1,1.25,0c.16.29.32.59.5.87a26.49,26.49,0,0,0,4.24,4.91c.19.18.41.34.37.65A1.44,1.44,0,0,1,116.85,75.07Z"/><path class="cls-19" d="M52.81,86.89c-1.17.67-2.14.57-2.83-.25a1.94,1.94,0,0,1,0-2.45c.72-.84,1.65-.93,2.86-.22,0-.61,0-1.18,0-1.75,0-.19-.11-.48.28-.47s.27.25.27.44v4.64c0,.17.05.38-.22.45S52.86,87.09,52.81,86.89Zm-1.33-.13a1.31,1.31,0,0,0,1.37-1.33,1.37,1.37,0,1,0-2.73,0A1.31,1.31,0,0,0,51.48,86.76Z"/><path class="cls-20" d="M75.66,84V82.13c0-.19,0-.38.27-.38s.3.15.29.36v4.8c0,.14,0,.33-.17.36s-.35.08-.37-.14-.14-.19-.31-.1a1.93,1.93,0,1,1-1.3-3.53A2,2,0,0,1,75.66,84Zm0,1.46A1.35,1.35,0,0,0,74.32,84a1.45,1.45,0,0,0-1.38,1.38,1.41,1.41,0,0,0,1.37,1.37A1.3,1.3,0,0,0,75.66,85.45Z"/><path class="cls-3" d="M106.53,66.93a14.88,14.88,0,0,0-2.44,2.51,13.65,13.65,0,0,1,1-6,3.11,3.11,0,0,1,.58,1.36A13,13,0,0,1,106.53,66.93Z"/><path class="cls-21" d="M123.54,76.1c.14-.19.27,0,.39,0a22.67,22.67,0,0,0,6.33,1.9,3.83,3.83,0,0,0,1,.12c.15,0,.31,0,.33.21a3.83,3.83,0,0,1-1.48.78.39.39,0,0,0-.31-.2,23.66,23.66,0,0,1-4.45-1.15c-.34-.11-.63-.37-1-.31A3.41,3.41,0,0,1,123.54,76.1Z"/><path class="cls-22" d="M39.68,86.87v1.32c0,.18,0,.33-.26.34s-.3-.15-.3-.36c0-1.35,0-2.71,0-4.07,0-.31.2-.4.38-.29s.42,0,.63-.1a1.94,1.94,0,0,1,2.43,2.92,2,2,0,0,1-2.41.51C40,87.08,39.89,87,39.68,86.87Zm0-1.45A1.36,1.36,0,0,0,41,86.8a1.42,1.42,0,0,0,1.39-1.41A1.46,1.46,0,0,0,41,84,1.41,1.41,0,0,0,39.68,85.42Z"/><path class="cls-21" d="M109.47,58.42a1.28,1.28,0,0,1,.78-.23h.36a25.28,25.28,0,0,0,1.82,6.56,2.39,2.39,0,0,1-1,.44c.12-.18,0-.32-.08-.47a22.65,22.65,0,0,1-1.54-5.09C109.73,59.24,109.86,58.75,109.47,58.42Z"/><path class="cls-23" d="M109.47,58.42c.39.33.26.82.32,1.22a22.65,22.65,0,0,0,1.54,5.09c.06.15.2.29.08.47a1.4,1.4,0,0,1-1.14-.19,33.39,33.39,0,0,1-1.12-3.33c-.22-.87-.4-1.74-.6-2.61A1.78,1.78,0,0,1,109.47,58.42Z"/><path class="cls-23" d="M117,74.28c0-.31-.18-.47-.37-.65a26.49,26.49,0,0,1-4.24-4.91c-.18-.28-.34-.58-.5-.87a5.6,5.6,0,0,1,1.59.57,20.36,20.36,0,0,0,3.41,4A3.11,3.11,0,0,1,117,74.28Z"/><path class="cls-24" d="M130.59,63.64a2.59,2.59,0,0,1-.68.68,6.24,6.24,0,0,1-2.76-1.45,9,9,0,0,1-2-2.75,1.93,1.93,0,0,1,.8-1,6.13,6.13,0,0,0,4.45,4.31A.24.24,0,0,1,130.59,63.64Z"/><path class="cls-25" d="M108.55,59.07c.2.87.38,1.74.6,2.61A33.39,33.39,0,0,0,110.27,65c-1.78-.71-3.33-2.75-2.51-4.8A2.48,2.48,0,0,1,108.55,59.07Z"/><path class="cls-26" d="M127.29,65.55c-.29-.52-.85-.7-1.28-1a9.43,9.43,0,0,1-3-4.37l1.36.56a7.75,7.75,0,0,0,3.15,3.68c.43.27,1,.36,1.28.84A6.24,6.24,0,0,1,127.29,65.55Z"/><path class="cls-20" d="M77.26,85.37c.28,1.42,1.33,1.81,2.38,1a.41.41,0,0,1,.59,0c.16.16-.09.28-.19.39a2,2,0,0,1-2.29.4,1.95,1.95,0,0,1,.88-3.67,1.91,1.91,0,0,1,1.84,1.39c.13.42,0,.53-.4.52C79.14,85.36,78.22,85.37,77.26,85.37Zm2.61-.58c-.4-.54-.82-.85-1.4-.73a1.07,1.07,0,0,0-1,.73Z"/><path class="cls-22" d="M94.26,85.37c-.42,0-.83,0-1.25,0s-.37.15-.3.42a1.38,1.38,0,0,0,2,.81,2.37,2.37,0,0,0,.39-.32c.17-.18.34,0,.46,0s0,.26-.06.37a2,2,0,0,1-2.22.52A1.94,1.94,0,0,1,92.12,85a2,2,0,0,1,1.78-1.57,2,2,0,0,1,1.87,1.13c.26.63.17.77-.49.77Zm-1.43-.61h2.4A1.36,1.36,0,0,0,92.83,84.76Z"/><path class="cls-17" d="M112.43,64.76a25.28,25.28,0,0,1-1.82-6.56,4.34,4.34,0,0,0,.51,0c.43-.06.6.07.67.55a16.06,16.06,0,0,0,.64,3,7.25,7.25,0,0,0,.93,2.27A2.47,2.47,0,0,1,112.43,64.76Z"/><path class="cls-22" d="M90.29,85.57c0,.47,0,.94,0,1.41,0,.13,0,.28-.17.29s-.33.07-.35-.09c-.07-.48-.28-.16-.42-.09a2,2,0,0,1-2.46-.43,1.93,1.93,0,0,1,0-2.44,1.91,1.91,0,0,1,2.49-.46c.16.09.27.2.51.06s.46,0,.44.33S90.3,85.1,90.29,85.57Zm-.56-.14A1.41,1.41,0,0,0,88.41,84,1.43,1.43,0,0,0,87,85.43a1.37,1.37,0,0,0,1.37,1.35A1.33,1.33,0,0,0,89.73,85.43Z"/><path class="cls-27" d="M130.59,63.64a.24.24,0,0,0-.21-.23,6.13,6.13,0,0,1-4.45-4.31,1.39,1.39,0,0,1,.8-.56c.3.05.27.33.33.53a4.85,4.85,0,0,0,1.66,2.47,6.46,6.46,0,0,0,2.43,1.08A2,2,0,0,1,130.59,63.64Z"/><path class="cls-28" d="M128.77,65.21c-.29-.48-.85-.57-1.28-.84a7.75,7.75,0,0,1-3.15-3.68c.6.27.53-.38.79-.57a9,9,0,0,0,2,2.75,6.24,6.24,0,0,0,2.76,1.45A2.63,2.63,0,0,1,128.77,65.21Z"/><path class="cls-14" d="M134.21,68.85a14.6,14.6,0,0,0-2.15-1.93c.09-.13.23-.1.36-.12a11.43,11.43,0,0,0,2.78-.56c.28-.11.53-.22.5-.58A7.69,7.69,0,0,1,136,68v.24A7.85,7.85,0,0,0,134.21,68.85Z"/><path class="cls-12" d="M113.36,64a7.25,7.25,0,0,1-.93-2.27,16.06,16.06,0,0,1-.64-3c-.07-.48-.24-.61-.67-.55a4.34,4.34,0,0,1-.51,0h-.36a3.52,3.52,0,0,1,2.64.33,9.86,9.86,0,0,0,.29,1.86c.17,1,.65,1.91.83,2.9A2.2,2.2,0,0,1,113.36,64Z"/><path class="cls-26" d="M122.76,59.68c-.05-.8-.27-1.58-.25-2.4a8.7,8.7,0,0,1,.84-3.3.49.49,0,0,1,.44-.31A4.55,4.55,0,0,1,125,54c-.34,0-.5.18-.64.45a6.23,6.23,0,0,0-.73,3.52Z"/><path class="cls-19" d="M67.29,85.43a1.86,1.86,0,0,1-1.94,1.9,1.9,1.9,0,0,1-1.93-1.93,2,2,0,0,1,2-1.94A1.94,1.94,0,0,1,67.29,85.43Zm-.58,0A1.42,1.42,0,0,0,65.35,84,1.48,1.48,0,0,0,64,85.41a1.43,1.43,0,0,0,1.43,1.38A1.36,1.36,0,0,0,66.71,85.39Z"/><path class="cls-19" d="M49,85.43a1.82,1.82,0,0,1-1.93,1.9,1.93,1.93,0,0,1-1.94-1.93,2,2,0,0,1,2-1.94A1.93,1.93,0,0,1,49,85.43Zm-1.93,1.35a1.41,1.41,0,0,0,1.4-1.33,1.38,1.38,0,0,0-2.76-.1A1.4,1.4,0,0,0,47.09,86.78Z"/><path class="cls-29" d="M131.15,62.62a6.46,6.46,0,0,1-2.43-1.08,4.85,4.85,0,0,1-1.66-2.47c-.06-.2,0-.48-.33-.53a1.17,1.17,0,0,1,.79-.23c.29,0,.42.07.49.38a3.58,3.58,0,0,0,2.66,2.73c.49.14.67.27.6.74C131.25,62.32,131.32,62.5,131.15,62.62Z"/><path class="cls-20" d="M59.41,87.33a2,2,0,0,1-2-1.41,2,2,0,0,1,1-2.22,1.88,1.88,0,0,1,2.28.37c.1.1.36.2.15.39a.37.37,0,0,1-.55,0A1.26,1.26,0,0,0,59,84.1a1.32,1.32,0,0,0-1,1.09,1.29,1.29,0,0,0,.65,1.4,1.31,1.31,0,0,0,1.48-.06,2.47,2.47,0,0,1,.27-.21.36.36,0,0,1,.47.06c.18.17,0,.27-.11.36A1.66,1.66,0,0,1,59.41,87.33Z"/><path class="cls-30" d="M81,85.51v-.62c0-1.17,0-1.17,1.15-1.31a1.38,1.38,0,0,1,1.6,1.16A13,13,0,0,1,83.81,87c0,.22-.12.29-.32.29s-.23-.15-.23-.31c0-.6,0-1.2,0-1.8a1,1,0,0,0-.57-1,.77.77,0,0,0-1.14.67c0,.65,0,1.31,0,2,0,.22,0,.43-.32.42S81,87,81,86.86C81,86.41,81,86,81,85.51Z"/><path class="cls-31" d="M131.27,62.16c.07-.47-.11-.6-.6-.74A3.58,3.58,0,0,1,128,58.69c-.07-.31-.2-.41-.49-.38a2,2,0,0,1,1.59.12,2.27,2.27,0,0,0,2,2A2.08,2.08,0,0,1,131.27,62.16Z"/><path class="cls-26" d="M135.7,65.66c0,.36-.22.47-.5.58a11.43,11.43,0,0,1-2.78.56c-.13,0-.27,0-.36.12-.93-.47-.93-.47-.12-1.14.43,0,.86,0,1.28-.11a5.53,5.53,0,0,0,2.25-.8A2,2,0,0,1,135.7,65.66Z"/><path class="cls-19" d="M54,85.05c0-.3,0-.6,0-.91s0-.36.3-.36.27.2.27.39c0,.5,0,1,0,1.52,0,.68.33,1,.91,1s.89-.39.9-1.06c0-.5,0-1,0-1.52,0-.19,0-.38.27-.37s.28.18.28.37c0,.57,0,1.13,0,1.7a1.46,1.46,0,0,1-2.92,0C54,85.58,54,85.31,54,85.05Z"/><path class="cls-32" d="M114,63.28c-.18-1-.66-1.9-.83-2.9a9.86,9.86,0,0,1-.29-1.86A3.2,3.2,0,0,1,114,63.28Z"/><path class="cls-10" d="M116.29,53.69a30.2,30.2,0,0,0-.36,3.43c0,.36.31.71,0,1.08L114.8,57c.21-.18.13-.43.12-.64a10.27,10.27,0,0,1,.23-2.34A2.48,2.48,0,0,1,116.29,53.69Z"/><path class="cls-33" d="M123.67,58a6.23,6.23,0,0,1,.73-3.52c.14-.27.3-.48.64-.45a3,3,0,0,1,.9.34A3.82,3.82,0,0,0,124.8,57Z"/><path class="cls-30" d="M97.3,87.28a1.17,1.17,0,0,1-1.07-.82c0-.17,0-.31.16-.37s.33-.09.38.17a.51.51,0,0,0,.56.45.48.48,0,0,0,.45-.37.58.58,0,0,0-.33-.7,4.82,4.82,0,0,1-.7-.48.78.78,0,0,1-.24-1,.87.87,0,0,1,.87-.61.85.85,0,0,1,.79.55.31.31,0,0,1-.17.46c-.23.1-.29,0-.34-.19a.3.3,0,0,0-.34-.24.36.36,0,0,0-.28.25.36.36,0,0,0,.16.4c.25.19.54.34.79.54a1,1,0,0,1,.29,1.23A1.07,1.07,0,0,1,97.3,87.28Z"/><path class="cls-30" d="M68.85,87.28a1.23,1.23,0,0,1-1.09-.83c0-.17,0-.3.15-.36s.33-.09.39.17a.52.52,0,0,0,.55.46.51.51,0,0,0,.48-.42.63.63,0,0,0-.37-.69,4.33,4.33,0,0,1-.7-.48.79.79,0,0,1-.22-.92.9.9,0,0,1,.8-.62.79.79,0,0,1,.8.44c.1.18.23.38,0,.53s-.35.09-.44-.19-.32-.26-.5-.09a.33.33,0,0,0,0,.53c.24.19.52.32.76.5a1.08,1.08,0,0,1,.34,1.28A1.06,1.06,0,0,1,68.85,87.28Z"/><path class="cls-34" d="M124.34,77.46c.39-.06.68.2,1,.31a23.66,23.66,0,0,0,4.45,1.15.39.39,0,0,1,.31.2A5.2,5.2,0,0,1,124.34,77.46Z"/><path class="cls-35" d="M84.87,85.76v-.85c0-.29.07-.63-.43-.58-.17,0-.18-.15-.18-.29s0-.25.17-.24c.53.06.44-.31.44-.62,0-.15,0-.3,0-.45s.09-.31.31-.3.26.1.25.28,0,.3,0,.45c0,.33-.1.73.47.64.18,0,.21.12.21.26s0,.29-.21.27c-.58-.08-.47.32-.47.64V86.9c0,.18,0,.39-.27.38s-.29-.18-.28-.39Z"/><path class="cls-17" d="M119.12,71.9l3.29,2.36-1.25.45c-.18-.38-.58-.51-.9-.71s-.56-.64-.81-.49,0,.65-.1,1h-.09A15.18,15.18,0,0,0,119.12,71.9Z"/><path class="cls-25" d="M122.22,78.57a11.3,11.3,0,0,1-2.12-1.12c-.46-.26-.9-.54-1.35-.81.12-.34.24-.68.35-1l2.29,1.49Z"/><path class="cls-33" d="M135.47,64.87a5.53,5.53,0,0,1-2.25.8c-.42.07-.85.08-1.28.11l.92-1.12a7.32,7.32,0,0,0,2.27-.8C135.41,64.14,135.39,64.52,135.47,64.87Z"/><path class="cls-36" d="M91,84.47V82.15c0-.21,0-.41.3-.4s.26.2.26.38v4.74c0,.21,0,.43-.3.41S91,87,91,86.83Z"/><path class="cls-37" d="M116.86,72.47a20.36,20.36,0,0,1-3.41-4A5.58,5.58,0,0,1,116.86,72.47Z"/><path class="cls-38" d="M61.9,85.81c0-.3,0-.6,0-.9s.06-.64-.44-.58c-.17,0-.21-.1-.21-.25s0-.3.18-.28c.51.06.44-.27.48-.6s-.25-.75.26-.74.19.47.23.73-.08.68.46.61c.19,0,.2.12.2.26s0,.29-.2.27c-.54-.06-.45.31-.45.62,0,.64,0,1.28,0,1.92,0,.18.05.4-.25.41s-.26-.21-.26-.39C61.89,86.53,61.9,86.17,61.9,85.81Z"/><path class="cls-9" d="M115.15,54a10.27,10.27,0,0,0-.23,2.34c0,.21.09.46-.12.64l-1.13-.69a3.8,3.8,0,0,0,.23-1.83A3.42,3.42,0,0,1,115.15,54Z"/><path class="cls-39" d="M106.53,66.93a13,13,0,0,0-.82-2.18,3.11,3.11,0,0,0-.58-1.36l.19-.58A6.82,6.82,0,0,0,107.51,66c.22.21.12.29-.09.4S106.83,66.76,106.53,66.93Z"/><path class="cls-40" d="M124.8,57a3.82,3.82,0,0,1,1.14-2.6,3.12,3.12,0,0,1,1,.45,2.9,2.9,0,0,0-.91,1.48Z"/><path class="cls-35" d="M43.43,85.52V84.23a1.31,1.31,0,0,1,0-.34.21.21,0,0,1,.28-.09c.3.45.82-.33,1.1.2.08.16,0,.25-.09.32A1.4,1.4,0,0,0,44,85.87c0,.37,0,.75,0,1.12,0,.18-.05.29-.25.29s-.31-.07-.31-.29C43.44,86.5,43.43,86,43.43,85.52Z"/><path class="cls-34" d="M121.39,77.11l-2.29-1.49c.05-.37.11-.74.16-1.11h.09l1.57,1.13Z"/><path class="cls-40" d="M135.13,63.86a7.32,7.32,0,0,1-2.27.8,3.54,3.54,0,0,0,.57-1.25,3.42,3.42,0,0,0,1.24-.68A2,2,0,0,1,135.13,63.86Z"/><path class="cls-27" d="M126.05,56.28A2.9,2.9,0,0,1,127,54.8,11.16,11.16,0,0,1,129,56,7.34,7.34,0,0,0,126.05,56.28Z"/><path class="cls-41" d="M120.92,75.63l-1.57-1.13c.05-.34-.17-.84.1-1s.53.31.81.49.72.33.9.71C120.6,74.89,120.92,75.3,120.92,75.63Z"/><path class="cls-42" d="M131.15,60.47a2.27,2.27,0,0,1-2-2A2.93,2.93,0,0,1,131.15,60.47Z"/><path class="cls-7" d="M134.21,68.85a7.85,7.85,0,0,1,1.82-.57v1.13a4.16,4.16,0,0,0-1.14.34Z"/><path class="cls-8" d="M113.9,54.45a3.8,3.8,0,0,1-.23,1.83l-1-.34c.26-.3,0-.73.23-1A2.84,2.84,0,0,1,113.9,54.45Z"/><path class="cls-27" d="M134.67,62.73a3.42,3.42,0,0,1-1.24.68c.07-.42.17-.84.21-1.27s0-.82.06-1.25A4.87,4.87,0,0,1,134.67,62.73Z"/><path class="cls-43" d="M115.17,65.57l1,1.56c.05.08.07.16,0,.23a6.66,6.66,0,0,0-1.35-.88c-.4-.15-.32-.3-.06-.52S115,65.7,115.17,65.57Z"/><path class="cls-6" d="M134.89,69.75a4.16,4.16,0,0,1,1.14-.34v1s0,.07,0,.1a1.08,1.08,0,0,0-.57.24Z"/><path class="cls-44" d="M112.88,54.9c-.23.31,0,.74-.23,1l-1.37-.14A7.36,7.36,0,0,1,112.88,54.9Z"/><path class="cls-5" d="M135.45,70.78a1.08,1.08,0,0,1,.57-.24,4.94,4.94,0,0,1-.16,1.62A13.61,13.61,0,0,0,135.45,70.78Z"/><path class="cls-45" d="M136,69.86V68a5.37,5.37,0,0,1,.1,1.83Z"/><path class="cls-46" d="M121.63,53.33h-.46a3.1,3.1,0,0,0-1.25.12v-.22A5.18,5.18,0,0,1,121.63,53.33Z"/><path class="cls-47" d="M104.05,71v-.86h.06V71Z"/><path class="cls-48" d="M136,69.86h.1c0,.19.1.4-.09.57Z"/><path class="cls-49" d="M104.15,71.77c0-.1,0-.29,0-.29s.06.11.07.17,0,.1,0,.15Z"/></svg>