<svg id="Capa_1" data-name="Capa 1" xmlns="http://www.w3.org/2000/svg" viewBox="0 0 141.73 141.73"><defs><style>.cls-1{fill:#0e0d10;}.cls-2{fill:#c1c0c0;}.cls-3{fill:#e76d22;}.cls-4{fill:#faeb76;}.cls-5{fill:#f0c14c;}</style></defs><title>Recurso 13</title><path class="cls-1" d="M109.14,63.15c-.44,13.76-6,24.85-17.49,32.65a35.56,35.56,0,0,1-25.4,6c-13.42-1.82-23.21-9-29.44-21A37.26,37.26,0,0,1,33,57.71c1.95-13.16,8.78-23.11,20.57-29.39a37.41,37.41,0,0,1,40.31,3.62A38.77,38.77,0,0,1,108.48,56c.19,1,.32,2.06.43,3.09C109.06,60.46,109.12,61.79,109.14,63.15ZM105,61.94a20.86,20.86,0,0,0-.39-4.32C102.17,43.78,94.06,34.76,81,29.92a6.34,6.34,0,0,0-2.41-.33c-.23,0-.48,0-.55.3s.16.4.37.49a13.58,13.58,0,0,1,4,3.06,1.21,1.21,0,0,1,.35,1,3.46,3.46,0,0,1-3.83,3.32.91.91,0,0,1-.81-.5,8,8,0,0,0-2.54-2.69,2.64,2.64,0,0,0-2.9-.1A2.59,2.59,0,0,0,71.25,37q.34,11.27.66,22.52a2.37,2.37,0,0,0,.94,1.92A5.08,5.08,0,0,0,76,62.51c1.12,0,2.23.72,3.3.37a20.06,20.06,0,0,0,3-1.61c1.31-.71,2.64-1.4,4-2.07a.51.51,0,0,1,.78.52c0,.32-.31.37-.51.49-1.49.86-3,1.7-4.48,2.55-.33.18-.49.41-.3.77s.49.35.82.21c.12-.05.23-.13.35-.19,1.89-1,3.76-2.09,5.65-3.12.67-.37,1.06-.29,1.36.31,2,3.87,2.29,8.73-1,12.47a.85.85,0,0,0-.24.89,22.07,22.07,0,0,1,.82,7.45,19.75,19.75,0,0,1-4.91,12.09c-.25.3-.83.56-.44,1s.8.08,1.17-.08A30.49,30.49,0,0,0,99,83.06C103.2,76.66,104.79,69.49,105,61.94ZM69.75,55.36H69.6q-.24-8.78-.48-17.56a5.77,5.77,0,0,0-5.45-5.63,5.49,5.49,0,0,0-5.43,3.64,5.26,5.26,0,0,0,1.45,6.33,1.22,1.22,0,0,1,.47,1c.07,1.35.23,2.7.26,4.06.06,3.12-2.25,6.76-6.89,5.68a5.68,5.68,0,0,1-4.17-5.28c-.11-1.86-.13-3.71-.14-5.57a2.45,2.45,0,0,0-1.81-2.5,2.37,2.37,0,0,0-2.76.92,35.63,35.63,0,0,0-6.3,11.85A32.26,32.26,0,0,0,37,66.48a37.3,37.3,0,0,0,2.61,9.18A35.71,35.71,0,0,0,53.88,92.8a25.83,25.83,0,0,0,4.86,2.4c.33.11.68.26.91-.13s0-.68-.3-.93a.81.81,0,0,1-.1-.09,18.68,18.68,0,0,1-5.61-18.18,1.34,1.34,0,0,0-.32-1.33,11.78,11.78,0,0,1-2.23-12.6c.4-1,.87-1.24,1.87-.74l7,3.6c.26.13.46.27.78,0a18,18,0,0,1,8.39-3.43c.48-.08.63-.24.62-.73C69.73,58.89,69.75,57.13,69.75,55.36ZM62,66.56l2.43,1.58c.12.08.38.15.29.31A4.05,4.05,0,0,1,64,69.51c-.24.23-.48-.09-.7-.21q-5.1-2.77-10.17-5.59c-.33-.17-.49-.2-.61.23a9.53,9.53,0,0,0-.17,5.16,9.06,9.06,0,0,0,6.22,6.37c.79.28,1.07.73.91,1.42s-.68.79-1.45.65a7,7,0,0,1-2-.7c-.43-.23-.52-.1-.58.32a19.69,19.69,0,0,0-.1,6.08c2,12.77,16.43,17.45,25.73,10.83,6-4.25,7.89-12.24,6.11-18.56-.11-.39-.23-.4-.54-.21a4.59,4.59,0,0,1-2.77.75,1.07,1.07,0,0,1-1-1.06,1,1,0,0,1,.9-1.09A4.57,4.57,0,0,0,87,72.17a8.58,8.58,0,0,0,1.87-9c-.1-.32-.23-.48-.56-.24a4,4,0,0,1-.54.29c-3.36,1.83-6.72,3.65-10.07,5.5-.39.22-.6.18-.76-.23a2,2,0,0,0-.27-.47c-.26-.32-.13-.5.18-.69.67-.41,1.33-.85,2-1.28s.75-.61-.08-1A15.68,15.68,0,0,0,62,66.56Zm.45-35.4c3.28.22,4.35.54,6.47,2.57a5.12,5.12,0,0,0,0-2.27.91.91,0,0,0-.9-.92,2.93,2.93,0,0,1-1.88-1A1.48,1.48,0,0,0,64,29.46,6.53,6.53,0,0,0,62.44,31.16Zm-3,15.89a5.43,5.43,0,0,0-.2-1.61c-.1-.37-.18-.86-.55-1s-.53.36-.74.6a4.65,4.65,0,0,0-1.55,3.49,1.48,1.48,0,0,0,1.35,1.51,1.82,1.82,0,0,0,1.54-1.41C59.41,48.13,59.43,47.59,59.48,47.05Zm-2.31-6.66c-.38-.82-.13-1.8-.61-2.11s-1.39-.11-2.11-.13h-.06c-.17,0-.4-.08-.47.15s.12.32.25.43A13.54,13.54,0,0,0,57.17,40.39Zm-.07-5.12a13.84,13.84,0,0,0-3,1.7c-.12.1-.26.21-.18.4s.24.11.36.11c.34,0,.68,0,1,0,1.32,0,1.32,0,1.57-1.26C56.92,35.94,57,35.66,57.1,35.27Z"/><path class="cls-1" d="M96.82,104.27c1.06,0,2.13,0,3.19,0a4.48,4.48,0,0,1,3.64,1.53,3.65,3.65,0,0,1-1.52,5.29c-.57.28-.58.48-.27,1,.66,1,1.27,2.08,1.9,3.12a2.2,2.2,0,0,0,.83,1c.44.21.31.58.27.87s-.4.19-.61.19c-.88,0-1.77,0-2.65,0a.72.72,0,0,1-.74-.44c-.87-1.51-1.78-3-2.63-4.51a.93.93,0,0,0-1-.53c-.25,0-.37.06-.37.34,0,1.13,0,2.27,0,3.4a.61.61,0,0,0,.41.64c.57.16.42.59.37.93s-.41.19-.62.2H93.26c-.19,0-.52.13-.51-.24s-.21-.61.19-.77.57-.6.57-1v-9c0-.42-.08-.75-.54-.92s-.21-.54-.21-.82.33-.22.52-.23Zm.05,3.7c0,.48,0,1,0,1.43,0,.31.08.45.42.44.66,0,1.32,0,2,0a1.43,1.43,0,0,0,1.43-1,2,2,0,0,0-.38-2.09c-.47-.46-2.76-.9-3.25-.5s-.09,1-.18,1.59A1.33,1.33,0,0,0,96.87,108Z"/><path class="cls-1" d="M38.69,110.8a7,7,0,0,1-6.21,6.78,7.27,7.27,0,0,1-7.95-5,6.86,6.86,0,0,1,5.8-8.58,7.26,7.26,0,0,1,7.87,4.25A6.35,6.35,0,0,1,38.69,110.8Zm-3.4,0a5,5,0,0,0-.92-3.06,3.4,3.4,0,0,0-5.47-.39,5.4,5.4,0,0,0-.15,6.71,3.32,3.32,0,0,0,5.33.17A4.89,4.89,0,0,0,35.29,110.78Z"/><path class="cls-1" d="M89,110c.62,0,1.23,0,1.84,0,.19,0,.53-.13.53.23s.2.68-.16.86a1.11,1.11,0,0,0-.58,1.18c0,1,0,2,0,3.06,0,.32,0,.7.36.81s.4.53.39.87-.43.34-.67.37a16.84,16.84,0,0,1-7.73-.31,6.81,6.81,0,0,1-4.79-8.27,7.44,7.44,0,0,1,12-2.87c.37.38.5.68,0,1.1s-.89,1-1.34,1.44c-.12.13-.25.41-.48.19s-.76-.24-.67-.73c.15-.81-.33-1.22-.94-1.53-2.37-1.19-4.83.19-5.32,3a5.08,5.08,0,0,0,5.34,6.16c.41,0,.54-.12.53-.54,0-1,0-2,0-3,0-.3,0-.65-.36-.73-.62-.14-.42-.62-.4-1s.46-.22.71-.24C87.89,110,88.46,110,89,110Z"/><path class="cls-1" d="M42.63,107.66v4.45c0,1,0,2.09,0,3.13,0,.45.1.84.56,1s.33.53.32.82-.34.23-.53.23H40.19c-.18,0-.47.1-.49-.2s-.2-.63.15-.79c.54-.25.58-.68.58-1.18q0-4.25,0-8.49c0-.56,0-1.07-.65-1.35-.34-.15-.16-.53-.15-.8s.31-.2.48-.2c1.2,0,2.41,0,3.61,0a1,1,0,0,1,.76.34c1.35,1.42,2.73,2.84,4.09,4.25l.58.64c0-1.33,0-2.45,0-3.57a.47.47,0,0,0-.31-.48c-.48-.12-.38-.47-.4-.8s.08-.36.35-.36h3.06c.17,0,.41,0,.38.24s.18.6-.22.68c-.57.13-.6.53-.6,1q0,4.47,0,9c0,.43.05.85.51,1s.37.57.34.9-.42.24-.65.24c-.88,0-1.76,0-2.65,0-.19,0-.52.12-.5-.25s-.23-.65.23-.79.49-.47.53-.85a2.42,2.42,0,0,0-.85-2.26C46.45,111.43,44.64,109.6,42.63,107.66Z"/><path class="cls-1" d="M70.68,117.3c-1.7,0-3.4,0-5.1,0-.19,0-.54.14-.54-.21s-.25-.67.24-.87a.79.79,0,0,0,.46-.83v-9.31a.69.69,0,0,0-.47-.74c-.24-.07-.28-.23-.3-.45,0-.49,0-.71.65-.71,3.23,0,6.47,0,9.71,0,.47,0,.64.11.61.6,0,.72,0,1.45,0,2.17,0,.19.07.47-.25.44s-.65.21-.79-.27a1.26,1.26,0,0,0-1.39-.94c-1.29,0-2.59,0-3.88,0-.39,0-.5.12-.48.5,0,.63,0,1.26,0,1.9,0,.32,0,.49.43.48,1.09,0,2.17,0,3.26,0,.33,0,.64-.09.72-.4.16-.63.64-.42,1-.37s.18.44.19.67c0,.82,0,1.63,0,2.45,0,.19.06.46-.26.43s-.61.22-.76-.2a1.18,1.18,0,0,0-1.3-.75c-.93,0-1.86,0-2.79,0-.36,0-.52.07-.51.48,0,1.16,0,2.31,0,3.46,0,.37.08.52.48.52,1.54,0,3.09,0,4.63,0a1,1,0,0,0,1-.77c.12-.54.49-.42.83-.42s.3.37.31.61c0,.61,0,1.23,0,1.83s-.2.75-.77.74C74,117.28,72.33,117.3,70.68,117.3Z"/><path class="cls-1" d="M117,117.3c-.7,0-1.41,0-2.11,0-.19,0-.46.06-.45-.25s-.21-.63.19-.77.49-.52.34-.92c-.29-.73-.59-1.46-.87-2.2a.44.44,0,0,0-.5-.32H110.5a.48.48,0,0,0-.55.36c-.25.7-.51,1.4-.79,2.09-.16.42,0,.74.36.87s.38.55.36.87-.39.22-.59.22c-1,0-2,0-3,0-.2,0-.53.12-.55-.21s-.21-.63.24-.81a1.44,1.44,0,0,0,.73-.93c1.27-3.46,2.57-6.9,3.82-10.36a.86.86,0,0,1,1-.69,15.28,15.28,0,0,0,2,0,.77.77,0,0,1,.9.58c1.27,3.38,2.58,6.75,3.87,10.13a1.83,1.83,0,0,0,1,1.28c.39.15.17.55.17.84s-.29.21-.48.21C118.36,117.31,117.66,117.3,117,117.3Zm-5-9.87-1.18,3.36h2.51Z"/><path class="cls-1" d="M22.89,115.68c0,1.66,0,1.65-1.68,1.83a11.59,11.59,0,0,1-6.86-1.06,6.6,6.6,0,0,1-3.26-8.56A7.06,7.06,0,0,1,18.23,104,6.85,6.85,0,0,1,22.88,106c.31.33.33.57,0,.9-.61.61-1.17,1.26-1.75,1.89-.13.15-.27.37-.5.19s-.73-.29-.65-.68a1.62,1.62,0,0,0-.48-1.73,2.81,2.81,0,0,0-2.29-.59,3.47,3.47,0,0,0-2.9,3.16,5.48,5.48,0,0,0,2.51,5.65,4.16,4.16,0,0,0,3.71.36,1.29,1.29,0,0,0,.9-.67c.25-.7.79-.42,1.24-.46.24,0,.22.17.22.33Z"/><path class="cls-1" d="M58.62,104.25c1.66,0,3.31,0,5,0,.41,0,.57.09.54.53,0,.72,0,1.44,0,2.17,0,.23,0,.49-.32.45s-.69.19-.78-.31c-.15-.83-.72-1-1.46-1-1.3,0-1.3,0-1.3,1.3,0,2.58,0,5.16,0,7.74,0,.52.12.93.68,1.1s.22.53.23.81-.26.24-.45.24H56.62c-.19,0-.47.08-.46-.23s-.21-.66.22-.82a.86.86,0,0,0,.54-.93c0-2.92,0-5.84,0-8.76,0-.34-.12-.43-.43-.41s-.82,0-1.22,0a1,1,0,0,0-1.09.82c-.1.54-.46.39-.76.4-.46,0-.34-.33-.35-.57,0-.66,0-1.32,0-2s.19-.62.66-.61C55.36,104.26,57,104.25,58.62,104.25Z"/><path class="cls-1" d="M125.65,117.3c-1.61,0-3.22,0-4.83,0-.2,0-.53.12-.55-.21s-.24-.67.26-.86.5-.56.5-1v-9c0-.36,0-.75-.41-.86-.57-.17-.4-.59-.37-.93s.42-.24.65-.24q1.93,0,3.87,0c.21,0,.58-.15.57.25s.17.67-.28.81-.68.6-.68,1.12c0,2.81,0,5.61,0,8.42,0,.42.12.54.53.53,1.2,0,2.41,0,3.61,0a1.31,1.31,0,0,0,1.45-1c.19-.6.63-.3.95-.32s.23.36.24.56c0,.65,0,1.31,0,2s-.11.74-.69.73C128.87,117.28,127.26,117.3,125.65,117.3Z"/><path class="cls-2" d="M105,61.94c-.19,7.55-1.78,14.72-6,21.12A30.49,30.49,0,0,1,85.35,94.61c-.37.16-.83.53-1.17.08s.19-.75.44-1a19.75,19.75,0,0,0,4.91-12.09,22.07,22.07,0,0,0-.82-7.45.85.85,0,0,1,.24-.89c3.25-3.74,2.92-8.6,1-12.47-.3-.6-.69-.68-1.36-.31-1.89,1-3.76,2.08-5.65,3.12-.12.06-.23.14-.35.19-.33.14-.63.15-.82-.21s0-.59.3-.77c1.49-.85,3-1.69,4.48-2.55.2-.12.49-.17.51-.49a.51.51,0,0,0-.78-.52c-1.33.67-2.66,1.36-4,2.07a20.06,20.06,0,0,1-3,1.61c-1.07.35-2.18-.34-3.3-.37a5.08,5.08,0,0,1-3.14-1.12,2.37,2.37,0,0,1-.94-1.92q-.3-11.26-.66-22.52a2.59,2.59,0,0,1,1.42-2.5,2.64,2.64,0,0,1,2.9.1,8,8,0,0,1,2.54,2.69.91.91,0,0,0,.81.5,3.46,3.46,0,0,0,3.83-3.32,1.21,1.21,0,0,0-.35-1,13.58,13.58,0,0,0-4-3.06c-.21-.09-.44-.2-.37-.49s.32-.29.55-.3a6.34,6.34,0,0,1,2.41.33c13,4.84,21.13,13.86,23.55,27.7A20.86,20.86,0,0,1,105,61.94ZM81.38,43.46a7.38,7.38,0,0,0,6.94-4.61.72.72,0,0,0-.26-1,7.11,7.11,0,0,0-3-1.43,2.24,2.24,0,0,0-1.53.06c-1.57.86-3.13,1.74-4.69,2.61-.26.14-.47.34-.29.65s.44.08.64,0q2.13-1.12,4.25-2.28a2.2,2.2,0,0,1,2-.11,8.35,8.35,0,0,1,1.64.95c.33.23.34.46.17.8A5.63,5.63,0,0,1,85,41.53a7.7,7.7,0,0,1-5.26.82c-.2,0-.5-.29-.6.14s.1.57.46.67A7.07,7.07,0,0,0,81.38,43.46Zm-9.22.91a8.18,8.18,0,0,1,2.15.26c.79.18,1.62-.4,1.47-1.13a2.6,2.6,0,0,1,.35-1.9c.07-.11.14-.25,0-.37s-.25,0-.37,0a10.84,10.84,0,0,0-2.41,1.48A3.43,3.43,0,0,0,72.16,44.37Zm2.4,12.93a1.52,1.52,0,0,0-.79.13c-.36.19-.6.49-.33.88a4.16,4.16,0,0,1,.71,1.59,1,1,0,0,0,1.48.47,2.17,2.17,0,0,0,.58-2A1.55,1.55,0,0,0,74.56,57.3Z"/><path class="cls-3" d="M69.75,55.36c0,1.77,0,3.53,0,5.29,0,.49-.14.65-.62.73a18,18,0,0,0-8.39,3.43c-.32.26-.52.12-.78,0l-7-3.6c-1-.5-1.47-.31-1.87.74a11.78,11.78,0,0,0,2.23,12.6,1.34,1.34,0,0,1,.32,1.33,18.68,18.68,0,0,0,5.61,18.18.81.81,0,0,0,.1.09c.3.25.54.53.3.93s-.58.24-.91.13a25.83,25.83,0,0,1-4.86-2.4A35.71,35.71,0,0,1,39.62,75.66,37.3,37.3,0,0,1,37,66.48a32.26,32.26,0,0,1,1.34-14.2,35.63,35.63,0,0,1,6.3-11.85,2.37,2.37,0,0,1,2.76-.92A2.45,2.45,0,0,1,49.22,42c0,1.86,0,3.71.14,5.57a5.68,5.68,0,0,0,4.17,5.28c4.64,1.08,6.95-2.56,6.89-5.68,0-1.36-.19-2.71-.26-4.06a1.22,1.22,0,0,0-.47-1,5.26,5.26,0,0,1-1.45-6.33,5.49,5.49,0,0,1,5.43-3.64,5.77,5.77,0,0,1,5.45,5.63q.22,8.78.48,17.56ZM63.33,39.51a1.76,1.76,0,0,0,1.78-1.75A1.8,1.8,0,0,0,63.32,36a1.75,1.75,0,0,0-1.73,1.74A1.73,1.73,0,0,0,63.33,39.51Z"/><path class="cls-4" d="M62,66.56a15.68,15.68,0,0,1,16.78-1.5c.83.42.84.54.08,1s-1.32.87-2,1.28c-.31.19-.44.37-.18.69a2,2,0,0,1,.27.47c.16.41.37.45.76.23,3.35-1.85,6.71-3.67,10.07-5.5a4,4,0,0,0,.54-.29c.33-.24.46-.08.56.24a8.58,8.58,0,0,1-1.87,9,4.57,4.57,0,0,1-3.26,1.73,1,1,0,0,0-.9,1.09,1.07,1.07,0,0,0,1,1.06,4.59,4.59,0,0,0,2.77-.75c.31-.19.43-.18.54.21,1.78,6.32-.13,14.31-6.11,18.56-9.3,6.62-23.76,1.94-25.73-10.83a19.69,19.69,0,0,1,.1-6.08c.06-.42.15-.55.58-.32a7,7,0,0,0,2,.7c.77.14,1.32-.11,1.45-.65s-.12-1.14-.91-1.42a9.06,9.06,0,0,1-6.22-6.37,9.53,9.53,0,0,1,.17-5.16c.12-.43.28-.4.61-.23q5.07,2.81,10.17,5.59c.22.12.46.44.7.21a4.05,4.05,0,0,0,.72-1.06c.09-.16-.17-.23-.29-.31Zm9.49,25.49h4.07c1.87,0,2.13-.23,2.39-2.11a7.89,7.89,0,0,0,.1-1.08,6.48,6.48,0,1,0-12.43,2.62.77.77,0,0,0,.84.58C68.13,92,69.8,92.05,71.48,92.05Zm.22.42H67.76c-.42,0-.82,0-1,.5a.94.94,0,0,0,.35,1.08,6.22,6.22,0,0,0,9.07-.39c.21-.26.38-.52.21-.85s-.44-.34-.75-.34ZM76.64,76a1.31,1.31,0,1,0,0-2.61,1.31,1.31,0,1,0,0,2.61Zm-9.83-1.31A1.39,1.39,0,1,0,65.39,76,1.31,1.31,0,0,0,66.81,74.64Z"/><path class="cls-5" d="M62.44,31.16A6.53,6.53,0,0,1,64,29.46a1.48,1.48,0,0,1,2.14.11,2.93,2.93,0,0,0,1.88,1,.91.91,0,0,1,.9.92,5.12,5.12,0,0,1,0,2.27C66.79,31.7,65.72,31.38,62.44,31.16Z"/><path class="cls-3" d="M59.48,47.05c0,.54-.07,1.08-.15,1.62a1.82,1.82,0,0,1-1.54,1.41,1.48,1.48,0,0,1-1.35-1.51A4.65,4.65,0,0,1,58,45.08c.21-.24.41-.69.74-.6s.45.59.55,1A5.43,5.43,0,0,1,59.48,47.05Z"/><path class="cls-5" d="M57.17,40.39a13.54,13.54,0,0,1-3-1.66c-.13-.11-.32-.23-.25-.43s.3-.12.47-.15h.06c.72,0,1.6-.21,2.11.13S56.79,39.57,57.17,40.39Z"/><path class="cls-5" d="M57.1,35.27c-.1.39-.18.67-.23.95-.25,1.26-.25,1.26-1.57,1.26-.34,0-.68,0-1,0-.12,0-.29,0-.36-.11s.06-.3.18-.4A13.84,13.84,0,0,1,57.1,35.27Z"/><path class="cls-1" d="M81.38,43.46a7.07,7.07,0,0,1-1.75-.3c-.36-.1-.55-.28-.46-.67s.4-.17.6-.14A7.7,7.7,0,0,0,85,41.53a5.63,5.63,0,0,0,2.19-2.44c.17-.34.16-.57-.17-.8a8.35,8.35,0,0,0-1.64-.95,2.2,2.2,0,0,0-2,.11q-2.12,1.15-4.25,2.28c-.2.11-.44.36-.64,0s0-.51.29-.65c1.56-.87,3.12-1.75,4.69-2.61A2.24,2.24,0,0,1,85,36.44a7.11,7.11,0,0,1,3,1.43.72.72,0,0,1,.26,1A7.38,7.38,0,0,1,81.38,43.46Z"/><path class="cls-1" d="M72.16,44.37a3.43,3.43,0,0,1,1.2-1.63,10.84,10.84,0,0,1,2.41-1.48c.12,0,.25-.15.37,0s.06.26,0,.37a2.6,2.6,0,0,0-.35,1.9c.15.73-.68,1.31-1.47,1.13A8.18,8.18,0,0,0,72.16,44.37Z"/><path class="cls-1" d="M74.56,57.3a1.55,1.55,0,0,1,1.65,1,2.17,2.17,0,0,1-.58,2,1,1,0,0,1-1.48-.47,4.16,4.16,0,0,0-.71-1.59c-.27-.39,0-.69.33-.88A1.52,1.52,0,0,1,74.56,57.3Z"/><path class="cls-1" d="M63.33,39.51a1.73,1.73,0,0,1-1.74-1.78A1.75,1.75,0,0,1,63.32,36a1.8,1.8,0,0,1,1.79,1.77A1.76,1.76,0,0,1,63.33,39.51Z"/><path class="cls-1" d="M71.48,92.05c-1.68,0-3.35,0-5,0a.77.77,0,0,1-.84-.58A6.48,6.48,0,1,1,78,88.86a7.89,7.89,0,0,1-.1,1.08c-.26,1.88-.52,2.11-2.39,2.11Zm0-1.47c1.35,0,2.71,0,4.07,0,.52,0,.7-.17.81-.64a5,5,0,0,0-2.15-5.2,4.9,4.9,0,0,0-5.5,0A5,5,0,0,0,66.71,90c.1.44.3.57.74.56C68.81,90.56,70.17,90.58,71.53,90.58Z"/><path class="cls-1" d="M71.7,92.47h3.93c.31,0,.6,0,.75.34s0,.59-.21.85a6.22,6.22,0,0,1-9.07.39A.94.94,0,0,1,66.75,93c.19-.46.59-.5,1-.5Zm1.54,1.42H69.92A3.73,3.73,0,0,0,73.24,93.89Z"/><path class="cls-1" d="M76.64,76a1.31,1.31,0,1,1,0-2.61,1.31,1.31,0,1,1,0,2.61Z"/><path class="cls-1" d="M66.81,74.64A1.31,1.31,0,0,1,65.39,76a1.31,1.31,0,1,1,1.42-1.31Z"/><path class="cls-4" d="M71.53,90.58c-1.36,0-2.72,0-4.08,0-.44,0-.64-.12-.74-.56a5,5,0,0,1,2.05-5.23,4.9,4.9,0,0,1,5.5,0A5,5,0,0,1,76.41,90c-.11.47-.29.66-.81.64C74.24,90.55,72.88,90.58,71.53,90.58Zm1.88-2.1a1.11,1.11,0,0,0,1.16-1.08,1.14,1.14,0,0,0-1.16-1.15,1.16,1.16,0,0,0-1.14,1.12A1.14,1.14,0,0,0,73.41,88.48Zm-4-2.23a1.13,1.13,0,0,0-1.18,1.06,1.1,1.1,0,0,0,1.13,1.17,1.08,1.08,0,0,0,1.13-1.09A1.1,1.1,0,0,0,69.4,86.25Z"/><path class="cls-5" d="M73.24,93.89a3.73,3.73,0,0,1-3.32,0Z"/><path class="cls-1" d="M73.41,88.48a1.14,1.14,0,0,1-1.14-1.11,1.16,1.16,0,0,1,1.14-1.12,1.14,1.14,0,0,1,1.16,1.15A1.11,1.11,0,0,1,73.41,88.48Z"/><path class="cls-1" d="M69.4,86.25a1.1,1.1,0,0,1,1.08,1.14,1.08,1.08,0,0,1-1.13,1.09,1.1,1.1,0,0,1-1.13-1.17A1.13,1.13,0,0,1,69.4,86.25Z"/></svg>