<svg id="Capa_1" data-name="Capa 1" xmlns="http://www.w3.org/2000/svg" viewBox="0 0 141.73 141.73"><defs><style>.cls-1{fill:#36397a;}.cls-2{fill:#e63230;}</style></defs><title>Recurso 8</title><path class="cls-1" d="M51.45,39.54c0,.55.06,1.1.06,1.64q0,20,0,39.94a3.37,3.37,0,0,1-.14,1.55h-43a34.71,34.71,0,0,1-.12-4.07c.6-.46,1.23-.13,2-.33,1.52-2.19,3.24-4.44,5-6.7h6.28c.54.76.5,1.7.91,2.48A31.56,31.56,0,0,1,19,78.28h2.89c.47-.51.69-1.33,1.42-1.87.44.56.4,1.28.7,1.89h2.89c.51-.54.75-1.35,1.57-1.88L29,78.29h3.71a35.48,35.48,0,0,1-1.83-5.24A4.09,4.09,0,0,1,32,71.57h6.32a56.43,56.43,0,0,1,1.93,6.68,21.64,21.64,0,0,0,3.8.06c-1.93-5.29-3.52-10.59-5-16a14.94,14.94,0,0,0-2.93-.08c-1.77,2.89-3.93,5.45-6,8.33l-.57-1.72c1.69-2.11,3.28-4.33,5.24-6.51H31.8c-.73,1.57-2.05,2.83-3.24,4.49l-1.28-4.56H23.61c1,2.34,1.62,4.72,2.4,7.07a4.63,4.63,0,0,1-1.1,1.46,80,80,0,0,1-2.39-8.45,18.3,18.3,0,0,0-3.06-.15c-3.28,5.23-7.26,9.87-11.12,15V39.46c.29-.25.6-.16.89-.16H47.87c.35,0,.7,0,1.05.07-.11.17-.19.35-.31.51L33.06,60c-.13.18-.4.34-.17.61h2.18c.22-.23.4-.4.55-.59,3.72-4.85,7.4-9.72,11.14-14.55C48.31,43.51,49.72,41.4,51.45,39.54Z"/><path class="cls-2" d="M116.7,43c-2.91-.21-5.63-.32-8.35-.45A72.68,72.68,0,0,0,81.63,46,33.26,33.26,0,0,0,72,50.71a12.56,12.56,0,0,0-4,4.73,7.63,7.63,0,0,0,1.44,8.72,16.49,16.49,0,0,0,6.28,4,45,45,0,0,0,17.74,3,48.06,48.06,0,0,0,8.4-1.36,24.31,24.31,0,0,1-7.16,3.41,89.8,89.8,0,0,1-21.35,3.58,5.64,5.64,0,0,1-3.64-1,24.05,24.05,0,0,1-7.39-7.3,13.47,13.47,0,0,1,0-14.83A22.93,22.93,0,0,1,70,46.13,45.53,45.53,0,0,1,88.36,39.8a57.42,57.42,0,0,1,27,2.52A2.66,2.66,0,0,1,116.7,43Z"/><path class="cls-2" d="M77.37,79.3c4-.22,8,.24,12,.17a71.73,71.73,0,0,0,25.59-4.77,25.67,25.67,0,0,0,7.58-4.43A11.59,11.59,0,0,0,125.16,67a7.73,7.73,0,0,0-1.22-9.37,17.87,17.87,0,0,0-7.37-4.42,41.18,41.18,0,0,0-15-2.42,68.47,68.47,0,0,0-8.88,1.24c-.35.06-.56.09-.72-.21C98.07,48.28,104.84,47,111.7,46a57.14,57.14,0,0,1,9.24-.68,4.28,4.28,0,0,1,2.39.7,26.87,26.87,0,0,1,6.9,6.12,13.7,13.7,0,0,1,.19,17.4,27.26,27.26,0,0,1-10.94,8.36c-9.27,4.21-19,5.4-29.09,4.44A47.54,47.54,0,0,1,77.37,79.3Z"/><path class="cls-2" d="M98.57,69.4a17,17,0,0,1-10.31-2.67,9.39,9.39,0,0,1-2.38-2.24,5.61,5.61,0,0,1-.63-5.92,13.2,13.2,0,0,1,4.58-5.22,5.27,5.27,0,0,1,2.43-.64,19,19,0,0,1,11.12,1.35,10.52,10.52,0,0,1,4.22,3.24,5.69,5.69,0,0,1,.72,6.06,13.36,13.36,0,0,1-4.68,5.32,5.88,5.88,0,0,1-2.75.59C100,69.39,99.1,69.37,98.57,69.4Z"/><path class="cls-1" d="M12.64,89.24a5.21,5.21,0,0,1,2,0L19,102.37l3.86-6.83-3.45-6.22a4.54,4.54,0,0,1,1.8-.13l2.8,5.15,2.59-5c.58-.33,1.12-.16,1.89-.17L25,95.62l3.84,6.73,4.4-13a3.72,3.72,0,0,1,2-.14l4.37,13a3.81,3.81,0,0,1-1.8.09c-.41-1.26-.81-2.53-1.24-3.85H32c-.65,1.16-.77,2.59-1.38,3.83H26.86c-.94-1.74-1.91-3.53-3-5.47L21,102.27c-1.26.11-2.51-.11-3.77.11l-1.29-4H11.29L10,102.26a4.6,4.6,0,0,1-1.73,0Zm23.45,7.57-1.86-6.09-1.82,6.09A15.1,15.1,0,0,0,36.09,96.81Zm-20.62,0-1.9-6.14-1.81,6.14Z"/><path class="cls-1" d="M114.09,96.7c1.06,1.84,2.09,3.64,3.18,5.55a6.58,6.58,0,0,1-1.93,0c-1-1.81-2.07-3.61-3.09-5.37a7.86,7.86,0,0,0-2.32,0v5.25a3.39,3.39,0,0,1-1.76.09V89.17c2.19.09,4.32-.29,6.4.31a3.05,3.05,0,0,1,2.31,2.83A3.61,3.61,0,0,1,115.39,96,12.44,12.44,0,0,1,114.09,96.7Zm-4.19-1.38a10.26,10.26,0,0,0,3.83-.24,2.22,2.22,0,0,0,1.47-2.34,1.91,1.91,0,0,0-1.68-2,12.73,12.73,0,0,0-3.55-.15c0,.31-.07.5-.07.69Z"/><path class="cls-1" d="M65.93,95.48A8.89,8.89,0,0,1,65,99.72a5.09,5.09,0,0,1-4.88,2.82,5,5,0,0,1-4.6-3A9,9,0,0,1,55.1,93a5.28,5.28,0,0,1,5.56-4,5.55,5.55,0,0,1,5.1,4.83C65.87,94.45,65.89,95.15,65.93,95.48Zm-1.84.22a6.3,6.3,0,0,0-.77-3.45,3.37,3.37,0,0,0-6,0,6.92,6.92,0,0,0,.13,7.12,3.27,3.27,0,0,0,5.69,0A6.39,6.39,0,0,0,64.09,95.7Z"/><path class="cls-2" d="M51.45,39.54c-1.73,1.86-3.14,4-4.69,6-3.74,4.83-7.42,9.7-11.14,14.55-.15.19-.33.36-.55.59H32.89c-.23-.27,0-.43.17-.61L48.61,39.87c.12-.16.2-.34.31-.51C49.77,39.22,50.64,38.92,51.45,39.54Z"/><path class="cls-1" d="M131.68,102.26l-1.24-3.86h-4.59c-.62,1.17-.75,2.58-1.35,3.82a2.47,2.47,0,0,1-1.69-.07l4.29-12.76a3.54,3.54,0,0,1,2-.17c1.44,4.25,2.89,8.55,4.38,12.94A3.47,3.47,0,0,1,131.68,102.26ZM130,96.85l-1.9-6.14-1.81,6.14Z"/><path class="cls-1" d="M93.92,98.39H89.4c-.59,1.18-.79,2.52-1.3,3.75a2.44,2.44,0,0,1-1.76.07l4.35-12.93a4.23,4.23,0,0,1,2,0c1.43,4.24,2.87,8.51,4.34,12.89a4.4,4.4,0,0,1-1.7.13C94.65,101.11,94.57,99.67,93.92,98.39Zm-4.14-1.48a22.82,22.82,0,0,0,3.7-.14L91.66,90.7C91,92.92,90.41,94.84,89.78,96.91Z"/><path class="cls-1" d="M77.89,89.18a37.76,37.76,0,0,1,5.76.16,3.39,3.39,0,0,1,3,3.2,3.84,3.84,0,0,1-2.28,4.13,5.7,5.7,0,0,1-2.48.46H79.62v4.94a2,2,0,0,1-1.73.13Zm1.74,6.51a15.72,15.72,0,0,0,3.45-.14A2.31,2.31,0,0,0,85,93a2,2,0,0,0-1.87-2.3,9.42,9.42,0,0,0-3.47,0Z"/><path class="cls-1" d="M53,99.63a2.67,2.67,0,0,1,.87,1,1,1,0,0,1-.44.6A5.31,5.31,0,0,1,45,99.44a8.35,8.35,0,0,1,0-7.36,5.2,5.2,0,0,1,8.48-1.61c0,.52-.45.7-.73,1.06a1.69,1.69,0,0,1-.4-.12c-2.56-1.76-5.13-.88-6.06,2.11a7.41,7.41,0,0,0,.08,4.7c1,2.84,3.68,3.65,6.06,1.82Z"/><path class="cls-1" d="M102.29,102.08c-.61.39-1.11.17-1.74.27V90.85c-1.33-.42-2.59-.06-3.79-.25a1.45,1.45,0,0,1,0-1.36h9.2c.47.36.15.81.24,1.28-1.29.29-2.54,0-3.89.21Z"/><path class="cls-1" d="M70.07,100.78h5.48a1.31,1.31,0,0,1,.21,1.43H68.55V89.33a1.89,1.89,0,0,1,1.52,0Z"/><path class="cls-1" d="M119.54,89.31a2.09,2.09,0,0,1,1.61,0v12.82c-.5.31-1,.12-1.61.11Z"/><path class="cls-1" d="M21,69.61H16.86l3-4Z"/><path class="cls-1" d="M33.43,69.59l3.13-4.15a25.53,25.53,0,0,0,1,4.15Z"/><path class="cls-1" d="M26.85,71.72l.72,2a5.59,5.59,0,0,1-1.09,1.56,7.09,7.09,0,0,1-.73-2.08A5.63,5.63,0,0,1,26.85,71.72Z"/></svg>