<svg id="Capa_1" data-name="Capa 1" xmlns="http://www.w3.org/2000/svg" viewBox="0 0 141.73 141.73"><defs><style>.cls-1{fill:#253b80;}.cls-2{fill:#fff;}.cls-3{fill:#58a6dc;}.cls-4{fill:#3b6b83;}</style></defs><title>Recurso 12</title><path class="cls-1" d="M34.28,48.78S7.45,47.55,7.45,72.53C7.45,93,29.82,93,29.82,93H134.28L123.52,88.3,124.63,92,30.31,89.73S10.2,89.07,10.2,71.27C10.2,51.24,34.28,48.78,34.28,48.78Z"/><path class="cls-1" d="M57.69,73.25,62.1,58.4h5.08s3.39.38,2,5.12a6.43,6.43,0,0,1-3.45,2.94l1.64,6.79H64.76l-1.91-7.42-2.19,7.42Z"/><path class="cls-2" d="M63,64.79l1.2-4H66s2,.18,1.54,1.85C66.84,65.19,63,64.79,63,64.79Z"/><polygon class="cls-1" points="72.88 73.25 75.23 73.25 79.09 61.07 81.65 61.07 82.78 58.4 75.38 58.4 73.98 61.07 76.7 61.07 72.88 73.25"/><path class="cls-1" d="M123.68,60c-2.66-2.66-7.53-2.09-10.88,1.26s-3.92,8.22-1.26,10.88,7.53,2.09,10.88-1.26S126.33,62.65,123.68,60ZM121,69.47c-2.38,2.37-5.83,2.77-7.71.89s-1.49-5.34.89-7.71,5.83-2.78,7.71-.89S123.39,67.09,121,69.47Z"/><path class="cls-1" d="M103.38,68.86a7.46,7.46,0,0,1-.53.61c-2.38,2.37-5.83,2.77-7.72.89S93.65,65,96,62.65s5.82-2.78,7.71-.89a3.86,3.86,0,0,1,.66.9l2.22-1A5.41,5.41,0,0,0,105.5,60c-2.65-2.66-7.52-2.09-10.88,1.26s-3.91,8.22-1.25,10.88,7.53,2.09,10.88-1.26c.2-.21.4-.42.59-.64Z"/><polygon class="cls-1" points="85.44 73.25 83.13 73.25 87.54 58.4 89.84 58.4 85.44 73.25"/><path class="cls-3" d="M37.87,54.51s4-3.44,6.58-3.1,3.72,3.1,5.63,4a12,12,0,0,0,2.53,1,37,37,0,0,1-2.34-3.48c-1.77-2.84-2.69-4.45-4.5-4.11S39.78,52.47,37.87,54.51Z"/><path class="cls-3" d="M27.13,63.27s6.61-4.35,12-4.35,9.17,5.44,12.24,5.89a14.72,14.72,0,0,0,3.79.3s-5.74-4.94-7.38-7.19c-1.79-2.45-7.83-2.62-9-2.19A34.58,34.58,0,0,0,27.13,63.27Z"/><path class="cls-3" d="M16.23,74.58S25.91,64.5,35.12,64.5s8.8,4.49,14.33,6.39,4.46,1.44,4.46,1.44-8,.75-14.64-1.06S25.55,66.8,16.23,74.58Z"/><path class="cls-4" d="M18.89,78.13H21v.72h-.7V82h-.74V78.85h-.69Z"/><path class="cls-4" d="M22.11,78.13h.77a2.73,2.73,0,0,1,.91.11,1,1,0,0,1,.44.38,1.18,1.18,0,0,1,.16.63,1.07,1.07,0,0,1-.18.63,1.1,1.1,0,0,1-.55.39L24.58,82h-.81l-.86-1.63h-.07V82h-.73Zm.73,1.5h.23a.92.92,0,0,0,.48-.09.33.33,0,0,0,.13-.3.38.38,0,0,0-.06-.22.37.37,0,0,0-.18-.14,1.55,1.55,0,0,0-.4,0h-.2Z"/><path class="cls-4" d="M26.88,78.13h.74L29.1,82h-.76l-.3-.79H26.47l-.31.79h-.77Zm.38,1-.52,1.32h1Z"/><path class="cls-4" d="M30.21,78.13h.7l1.65,2.53V78.13h.73V82h-.7l-1.65-2.53V82h-.73Z"/><path class="cls-4" d="M36.73,78.65l-.55.48a.78.78,0,0,0-.58-.4.36.36,0,0,0-.23.08.24.24,0,0,0-.1.18.34.34,0,0,0,.07.18,4.57,4.57,0,0,0,.54.49c.28.24.45.38.51.45a1.4,1.4,0,0,1,.31.43,1.05,1.05,0,0,1,.1.44,1,1,0,0,1-.33.79,1.24,1.24,0,0,1-.86.31,1.21,1.21,0,0,1-.71-.21,1.54,1.54,0,0,1-.53-.63l.62-.37c.19.34.4.51.64.51a.5.5,0,0,0,.32-.11.34.34,0,0,0,.13-.25.5.5,0,0,0-.1-.27,3.77,3.77,0,0,0-.43-.4,4,4,0,0,1-.81-.79,1,1,0,0,1-.18-.55.92.92,0,0,1,.3-.69,1.07,1.07,0,0,1,.75-.29,1.15,1.15,0,0,1,.55.14A2.1,2.1,0,0,1,36.73,78.65Z"/><path class="cls-4" d="M38,78.13h.78a2.41,2.41,0,0,1,.9.12.84.84,0,0,1,.44.37,1.16,1.16,0,0,1,.17.63,1.06,1.06,0,0,1-.22.67,1.08,1.08,0,0,1-.57.37,3.29,3.29,0,0,1-.77.06V82H38Zm.73,1.5H39a1.2,1.2,0,0,0,.39,0,.28.28,0,0,0,.16-.12.36.36,0,0,0,.07-.22.35.35,0,0,0-.18-.33,1,1,0,0,0-.46-.08h-.21Z"/><path class="cls-4" d="M43.39,78a1.92,1.92,0,0,1,1.4.59,2,2,0,0,1,.59,1.45,2,2,0,0,1-2,2,1.9,1.9,0,0,1-1.44-.6,2,2,0,0,1-.57-1.43,2.08,2.08,0,0,1,.26-1,2,2,0,0,1,.74-.74A2,2,0,0,1,43.39,78Zm0,.72a1.19,1.19,0,0,0-.9.37,1.31,1.31,0,0,0-.36.95,1.25,1.25,0,0,0,.45,1,1.28,1.28,0,0,0,.82.29,1.21,1.21,0,0,0,.89-.38,1.35,1.35,0,0,0,0-1.86A1.23,1.23,0,0,0,43.38,78.75Z"/><path class="cls-4" d="M46.66,78.13h.77a2.73,2.73,0,0,1,.91.11,1,1,0,0,1,.44.38,1.18,1.18,0,0,1,.16.63,1.07,1.07,0,0,1-.18.63,1.1,1.1,0,0,1-.55.39L49.12,82h-.8l-.86-1.63h-.07V82h-.73Zm.73,1.5h.23a.92.92,0,0,0,.48-.09.33.33,0,0,0,.13-.3.38.38,0,0,0-.06-.22.49.49,0,0,0-.18-.14,1.62,1.62,0,0,0-.4,0h-.2Z"/><path class="cls-4" d="M49.87,78.13H52v.72h-.7V82h-.74V78.85h-.69Z"/><path class="cls-4" d="M53,78.13h2.1v.72H53.77v.69h1.37v.71H53.77v1h1.37V82H53Z"/><path class="cls-4" d="M58.45,78.13h.77a2.73,2.73,0,0,1,.91.11,1,1,0,0,1,.44.38,1.18,1.18,0,0,1,.16.63,1.07,1.07,0,0,1-.18.63,1.1,1.1,0,0,1-.55.39L60.91,82h-.8l-.86-1.63h-.07V82h-.73Zm.73,1.5h.23a.92.92,0,0,0,.48-.09.33.33,0,0,0,.13-.3A.38.38,0,0,0,60,79a.42.42,0,0,0-.18-.14,1.55,1.55,0,0,0-.4,0h-.2Z"/><path class="cls-4" d="M62.05,78.13h2.1v.72H62.77v.69h1.38v.71H62.77v1h1.38V82h-2.1Z"/><path class="cls-4" d="M65.38,78.13h1.91v.71H66.1v.7h1.19v.71H66.1V82h-.72Z"/><path class="cls-4" d="M68.53,78.13h.77a2.73,2.73,0,0,1,.91.11,1,1,0,0,1,.44.38,1.18,1.18,0,0,1,.16.63,1.07,1.07,0,0,1-.18.63,1.15,1.15,0,0,1-.55.39L71,82h-.8l-.86-1.63h-.07V82h-.73Zm.73,1.5h.23a.92.92,0,0,0,.48-.09.33.33,0,0,0,.13-.3A.38.38,0,0,0,70,79a.49.49,0,0,0-.18-.14,1.62,1.62,0,0,0-.4,0h-.2Z"/><path class="cls-4" d="M72.07,78.13h.73V82h-.73Z"/><path class="cls-4" d="M77.71,78.76l-.51.51a1.53,1.53,0,0,0-1.15-.52,1.31,1.31,0,0,0-1,.38,1.2,1.2,0,0,0-.38.91,1.27,1.27,0,0,0,.4.95,1.33,1.33,0,0,0,1,.38,1.29,1.29,0,0,0,.64-.15,1.24,1.24,0,0,0,.42-.5H76V80H78v.16a2,2,0,0,1-.94,1.65,2,2,0,0,1-1,.24A2.2,2.2,0,0,1,75,81.82a1.91,1.91,0,0,1-.74-.75A2.08,2.08,0,0,1,74,80a1.9,1.9,0,0,1,.51-1.32A2,2,0,0,1,76.05,78a2.29,2.29,0,0,1,.94.19A2,2,0,0,1,77.71,78.76Z"/><path class="cls-4" d="M79.2,78.13h2.1v.72H79.93v.69H81.3v.71H79.93v1H81.3V82H79.2Z"/><path class="cls-4" d="M82.57,78.13h.77a2.73,2.73,0,0,1,.91.11,1,1,0,0,1,.44.38,1.18,1.18,0,0,1,.16.63,1.07,1.07,0,0,1-.18.63,1.1,1.1,0,0,1-.55.39L85,82h-.8l-.86-1.63H83.3V82h-.73Zm.73,1.5h.23a.92.92,0,0,0,.48-.09.33.33,0,0,0,.13-.3.38.38,0,0,0-.06-.22.42.42,0,0,0-.18-.14,1.55,1.55,0,0,0-.4,0h-.2Z"/><path class="cls-4" d="M87.34,78.13h.74L89.56,82H88.8l-.3-.79H86.93l-.31.79h-.77Zm.37,1-.51,1.32h1Z"/><path class="cls-4" d="M90.67,78.13h.87a2.8,2.8,0,0,1,1.24.21,1.62,1.62,0,0,1,.68.67,2.29,2.29,0,0,1,.26,1.1,2.21,2.21,0,0,1-.15.82,1.77,1.77,0,0,1-.41.62,1.56,1.56,0,0,1-.56.34,4.16,4.16,0,0,1-1,.09h-.88Zm.73.71v2.42h.34a1.64,1.64,0,0,0,.72-.11.83.83,0,0,0,.37-.39,1.36,1.36,0,0,0,.15-.67,1.31,1.31,0,0,0-.34-1,1.41,1.41,0,0,0-1-.3Z"/><path class="cls-4" d="M96.77,78a1.93,1.93,0,0,1,1.41.59,2,2,0,0,1,.59,1.45,1.93,1.93,0,0,1-.59,1.42,2,2,0,0,1-2.84,0,2,2,0,0,1,.42-3.18A2,2,0,0,1,96.77,78Zm0,.72a1.19,1.19,0,0,0-.89.37,1.27,1.27,0,0,0-.37.95,1.23,1.23,0,0,0,.46,1,1.28,1.28,0,0,0,.82.29,1.23,1.23,0,0,0,.89-.38,1.29,1.29,0,0,0,.36-.93,1.26,1.26,0,0,0-.37-.93A1.2,1.2,0,0,0,96.76,78.75Z"/><path class="cls-4" d="M101.75,78.13h.79l.72,1.38.71-1.38h.78l-1.13,2.18V82h-.73V80.31Z"/><path class="cls-4" d="M109.94,78.65l-.54.48a.78.78,0,0,0-.58-.4.36.36,0,0,0-.24.08.23.23,0,0,0-.09.18.27.27,0,0,0,.07.18,5.07,5.07,0,0,0,.53.49c.28.24.45.38.51.45a1.45,1.45,0,0,1,.32.43,1.11,1.11,0,0,1-.24,1.23,1.2,1.2,0,0,1-.85.31,1.27,1.27,0,0,1-.72-.21,1.6,1.6,0,0,1-.52-.63l.62-.37c.18.34.4.51.64.51a.47.47,0,0,0,.31-.11.31.31,0,0,0,.13-.25.48.48,0,0,0-.09-.27,3.77,3.77,0,0,0-.43-.4,4,4,0,0,1-.81-.79.94.94,0,0,1-.19-.55.89.89,0,0,1,.31-.69,1.05,1.05,0,0,1,.75-.29,1.18,1.18,0,0,1,.55.14A2.08,2.08,0,0,1,109.94,78.65Z"/><path class="cls-4" d="M111.25,78.13h2.1v.72H112v.69h1.37v.71H112v1h1.37V82h-2.1Z"/><path class="cls-4" d="M118.11,78.81l-.51.48a1.62,1.62,0,0,0-1.18-.55,1.3,1.3,0,0,0-1.31,1.31,1.37,1.37,0,0,0,.17.68,1.18,1.18,0,0,0,.47.47,1.32,1.32,0,0,0,.68.17,1.41,1.41,0,0,0,.59-.12,2.14,2.14,0,0,0,.58-.43l.49.52a2.71,2.71,0,0,1-.8.58,2.37,2.37,0,0,1-.87.16,2,2,0,0,1-2-2,2,2,0,0,1,.26-1,2,2,0,0,1,.75-.72,2.1,2.1,0,0,1,1-.27,2.24,2.24,0,0,1,.92.2A2.27,2.27,0,0,1,118.11,78.81Z"/><path class="cls-4" d="M121.1,78a1.93,1.93,0,0,1,1.41.59,2,2,0,0,1,.59,1.45,2,2,0,0,1-.58,1.42,1.93,1.93,0,0,1-1.41.59,1.9,1.9,0,0,1-1.44-.6,2,2,0,0,1-.57-1.43,2,2,0,0,1,.26-1,2,2,0,0,1,.74-.74A2,2,0,0,1,121.1,78Zm0,.72a1.19,1.19,0,0,0-.9.37,1.31,1.31,0,0,0-.37.95,1.26,1.26,0,0,0,.46,1,1.28,1.28,0,0,0,.82.29A1.21,1.21,0,0,0,122,81a1.38,1.38,0,0,0,0-1.86A1.23,1.23,0,0,0,121.1,78.75Z"/></svg>