<svg id="Capa_1" data-name="Capa 1" xmlns="http://www.w3.org/2000/svg" viewBox="0 0 141.73 141.73"><defs><style>.cls-1{fill:#9d9d9b;}.cls-2{fill:#e51b80;}</style></defs><title>Recurso 3</title><path class="cls-1" d="M68,51.64c5.87,0,10.88,5.93,10.09,11.78-.66,4.92-4.92,8.84-11,9.25-3.1.17-4.13.16-6.53.16V90.25C73,91.74,84.74,88.45,91.88,76.17c5.69-9.79,5.14-23.38-4.09-33.66-6-6.73-13.92-9.13-27.3-9.13V51.65C63.13,51.65,65.56,51.66,68,51.64Z"/><path class="cls-1" d="M55.9,90.37V56.17h-17v34.2Z"/><path class="cls-2" d="M56.14,33.7H38.72v18H56.14Z"/><rect class="cls-2" x="38.72" y="94.55" width="4.08" height="13.42"/><path class="cls-2" d="M53.16,100.89c0,.4,0,.75,0,1s0,.54.08.78c-.14-.46-.27-.84-.39-1.17a4.07,4.07,0,0,0-.34-.74L49,94.55h-3.8V108H49v-6.29c0-.47,0-.83,0-1.09s0-.51-.09-.74c.13.43.26.81.39,1.15a5.36,5.36,0,0,0,.35.77l3.5,6.2H57V94.55H53.16Z"/><path class="cls-2" d="M68.5,95.32a4.88,4.88,0,0,0-1.57-.59,15.32,15.32,0,0,0-2.75-.18H59.34V108h4.1a22.74,22.74,0,0,0,2.94-.13,5.26,5.26,0,0,0,1.53-.43,5.08,5.08,0,0,0,2.38-2.31,8.19,8.19,0,0,0,.81-3.83,9.13,9.13,0,0,0-.65-3.65A5.15,5.15,0,0,0,68.5,95.32Zm-2,8.54a2.55,2.55,0,0,1-2.08.72H63.34V98h1.13a2.41,2.41,0,0,1,2,.76,4.2,4.2,0,0,1,.6,2.57A4.29,4.29,0,0,1,66.5,103.86Z"/><polygon class="cls-2" points="76.94 102.64 81.97 102.64 81.97 99.56 76.94 99.56 76.94 97.77 82.89 97.77 82.89 94.55 72.93 94.55 72.93 107.98 83.14 107.98 83.14 104.72 76.94 104.72 76.94 102.64"/><path class="cls-2" d="M94,100.61a9.94,9.94,0,0,0-2.84-1.08l-.72-.19-.22-.07c-1.1-.29-1.64-.66-1.64-1.11a.79.79,0,0,1,.31-.69,1.66,1.66,0,0,1,1-.23,1.89,1.89,0,0,1,1.12.29,1.35,1.35,0,0,1,.49.89h3.79a4.19,4.19,0,0,0-1.55-3.12,7.08,7.08,0,0,0-7.63,0,3.82,3.82,0,0,0-1.39,3.13,4.18,4.18,0,0,0,.36,1.77,3.61,3.61,0,0,0,1.07,1.33,5.65,5.65,0,0,0,1.19.59c.55.21,1.28.44,2.2.7L90,103c1.12.31,1.68.7,1.68,1.19a.8.8,0,0,1-.4.71,2.07,2.07,0,0,1-1.11.26,2,2,0,0,1-1.26-.32,1.72,1.72,0,0,1-.58-1H84.43a4.61,4.61,0,0,0,1.63,3.37A6,6,0,0,0,90,108.35a6.35,6.35,0,0,0,4.13-1.19,4.2,4.2,0,0,0,1.44-3.42,3.87,3.87,0,0,0-.38-1.79A3.62,3.62,0,0,0,94,100.61Z"/><path class="cls-2" d="M100.59,103.12a2.43,2.43,0,1,0,2.42,2.43A2.44,2.44,0,0,0,100.59,103.12Zm0,4.37a1.94,1.94,0,1,1,0-3.87,1.94,1.94,0,0,1,0,3.87Z"/><path class="cls-2" d="M101.5,106.13a2.38,2.38,0,0,0-.17-.31.63.63,0,0,0-.28-.23h0l.06,0a.7.7,0,0,0,.33-.26.66.66,0,0,0,.09-.31.84.84,0,0,0,0-.35.58.58,0,0,0-.34-.33,1.31,1.31,0,0,0-.48-.08h-1.1v2.53h.65v-1h.26a.34.34,0,0,1,.26.15l.1.15c.1.21.2.42.31.63,0,0,0,0,0,0h.67l0,0Zm-.67-1a.27.27,0,0,1-.22.22h-.13a2.62,2.62,0,0,1-.28,0h0v-.65c.14,0,.28,0,.42,0a.27.27,0,0,1,.24.27A.66.66,0,0,1,100.83,105.12Z"/></svg>