<svg id="Capa_1" data-name="Capa 1" xmlns="http://www.w3.org/2000/svg" viewBox="0 0 141.73 141.73"><defs><style>.cls-1{fill:#2a306b;}.cls-2{fill:#e52e23;}</style></defs><title>Recurso 1</title><path class="cls-1" d="M136.4,53.1a3.39,3.39,0,0,0-.27,1.4c-.22,2-.31,4.06-.39,6.1-.11,2.76-.13,5.53-.23,8.29-.07,1.93,0,3.86-.1,5.78,0,2.13,0,4.26-.07,6.39,0,.8-.14,1-.92,1a12.62,12.62,0,0,1-3.5-.47l-.2-.07c-1.12-.28-1.42-.59-1.48-1.74-.09-1.62-.19-3.24-.2-4.86,0-3.75,0-7.5.06-11.25.1-4.11.29-8.21.66-12.31a6.46,6.46,0,0,1,.18-1.07,1.17,1.17,0,0,1,1.33-.89c1.87.06,3.7.27,5.13,1.69Z"/><path class="cls-2" d="M20.64,92.55l-6.72-.1c-.25,0-.42,0-.52-.33a1,1,0,0,0-.84-.63c-.59-.11-.7-.53-.86-1a13.17,13.17,0,0,1-.14-4c0-1,.09-2,.12-2.94A1,1,0,0,1,12,82.8a5.76,5.76,0,0,0,1.44-2.87,10.85,10.85,0,0,0,.12-3.41,1.35,1.35,0,0,1,1.26-1.34,5.8,5.8,0,0,1,2.25.32,2.37,2.37,0,0,0,2.37-.81,1.09,1.09,0,0,0,.07-1.09c-.12-.3-.34-.55-.44-.87s-.39-.28-.65-.26c-.48,0-.8,0-1-.59a2.22,2.22,0,0,0-1.78-1.46c-.51-.09-.53-.32-.43-.7a1.34,1.34,0,0,0-.18-1.25c-.17-.21-.31-.28-.4,0a2.34,2.34,0,0,1-.89,1.14,21.14,21.14,0,0,1-2.77,2,8.26,8.26,0,0,0-2.52,2.54,2.82,2.82,0,0,1-2.05,1.27c-.34,0-.44.21-.45.55,0,2.09-.07,4.18-.11,6.27v.17c0,1.17,0,1.17,1.11,1.17,1.41,0,1.57.08,1.94,1.52a9.72,9.72,0,0,1,.33,2.16c0,.87,0,1.74.05,2.62,0,.23,0,.43.25.55.69.33.75,1,.94,1.64.07.21-.07.24-.24.24l-4.59-.06c-.32,0-.33-.21-.33-.45,0-2,0-4.07.06-6.11s.11-3.9.14-5.84c0-2.39,0-4.77.08-7.16.06-3.56.09-7.13.19-10.7s.1-6.91.15-10.37c0-1,0-2.1,0-3.14l.19,0,1.3,2Q13,58.88,19.16,66.86a138.69,138.69,0,0,0,9.78,11.59A83.23,83.23,0,0,0,39.8,88.23a27.25,27.25,0,0,0,9.57,4.47l1.58.41v.15L29.4,92.77A2.8,2.8,0,0,1,29,91.34c0-1,0-2.08,0-3.11a3.82,3.82,0,0,0-1.38-3.45,5.91,5.91,0,0,0-1.28-.71,1.45,1.45,0,0,1-.73-1.41c.45-1.1.28-2.3.52-3.43.05-.23.12-.57-.11-.71s-.4.23-.63.3c-.45.14-.64.8-1.24.65a4.44,4.44,0,0,0-2.65,0,.54.54,0,0,1-.22,0,.67.67,0,0,0-.78.51,1,1,0,0,0,.32,1.34c.23.2.45.4.25.74-.54.91-.89,1.9-1.34,2.85-.06.14-.16.29-.08.41a12.82,12.82,0,0,1,.63,1.9,8.14,8.14,0,0,1,.43,1.26,12.65,12.65,0,0,1,.11,2.61.86.86,0,0,1-.32.78C20.08,92.18,20.18,92.4,20.64,92.55Z"/><path class="cls-1" d="M108.64,60.92a15.41,15.41,0,0,1-.16,2.59,1,1,0,0,1-.86.9,8.74,8.74,0,0,1-3.14.15,1.8,1.8,0,0,1-1.36-.89,8.89,8.89,0,0,1-1.18-4.26,9.47,9.47,0,0,0-.16-1.68c-.07-.26-.18-.49-.46-.55s-.43.17-.55.36a12,12,0,0,0-1.21,3c-.62,2-1.25,4-1.68,6a13.9,13.9,0,0,0-.08,6.9l.12.36c.8,2,2,2.28,3.62.92A9.89,9.89,0,0,0,104.63,70c.21-.67.44-.85,1.13-.86A5.43,5.43,0,0,1,109.65,71a2.3,2.3,0,0,1,.32,2.28,15.12,15.12,0,0,1-2.42,5.67,6.75,6.75,0,0,1-4.5,2.74,9.57,9.57,0,0,1-8.35-2A11.87,11.87,0,0,1,91.1,74a19.11,19.11,0,0,1-.24-10.23,35.92,35.92,0,0,1,4.53-11.15c.16-.26.35-.51.51-.77.87-1.47,2.23-1.76,3.8-1.66a28.44,28.44,0,0,1,3.9.47,5.29,5.29,0,0,1,3.83,3.37,15.19,15.19,0,0,1,1.11,5.09C108.61,59.82,108.61,60.49,108.64,60.92Z"/><path class="cls-1" d="M42,73.93c0-2,0-4.05,0-6.07.07-2.78,0-5.57.12-8.35.08-2.22,0-4.44,0-6.66a1.42,1.42,0,0,1,.41-1.08,1,1,0,0,0,.24-.3,1.88,1.88,0,0,1,1.92-1,41.49,41.49,0,0,1,4.86-.07,11.92,11.92,0,0,1,9.35,5.75,7.21,7.21,0,0,1,.79,4.65,11.78,11.78,0,0,1-5.36,8.94A16.69,16.69,0,0,1,50.67,72a3.21,3.21,0,0,1-.84.24c-.56,0-.74.35-.73.87,0,2.11.06,4.23,0,6.34s-.54,2.08-2,2a11.62,11.62,0,0,1-3.38-1c-2.08-.8-1.54-.38-1.68-2.42C42,76.66,42,75.29,42,73.93Zm7.41-10.07c0,.2,0,.4,0,.6,0,.37-.19.94.12,1s.71-.36,1-.68A8,8,0,0,0,52.21,58,2.7,2.7,0,0,0,50,55.82c-.33-.08-.48-.06-.49.36C49.48,58.74,49.55,61.3,49.45,63.86Z"/><path class="cls-1" d="M125.9,71a14.57,14.57,0,0,1-2,8,6.12,6.12,0,0,1-3.84,3,4.19,4.19,0,0,1-2.35-.3c-1-.32-1.94-.8-2.91-1.21A4.61,4.61,0,0,1,112.05,77a17.7,17.7,0,0,1-.3-6.07,23.61,23.61,0,0,1,2-7.49,8.6,8.6,0,0,1,1.39-2.2,2.28,2.28,0,0,1,2.7-.71,22,22,0,0,0,2.35.86,9.94,9.94,0,0,0,1.08.13,3.37,3.37,0,0,1,2.37,1.6,11.23,11.23,0,0,1,2.17,6.62c0,.22,0,.43,0,.65S125.9,70.76,125.9,71Zm-5.78-1.11c0-.68,0-1.35,0-2a10.38,10.38,0,0,0-.17-1.35.47.47,0,0,0-.31-.41c-.23-.06-.34.13-.43.28a5,5,0,0,0-.42.87,24.45,24.45,0,0,0-1.42,8.39,2.7,2.7,0,0,0,.23,1.16.55.55,0,0,0,1,.19,3.21,3.21,0,0,0,.68-1.17A14.5,14.5,0,0,0,120.12,69.85Z"/><path class="cls-1" d="M75.27,70.55a8.91,8.91,0,0,1-.08,1.63.82.82,0,0,1-.6.64,20.87,20.87,0,0,1-2.74.45c-1.27.21-2.56.35-3.83.54-.84.12-.92.22-1,1.08a3.86,3.86,0,0,0,0,.76,1.22,1.22,0,0,0,1.87,1.07,5.53,5.53,0,0,0,1.44-1.06c1.38-1.28,2.06-1.34,3.64-.31.92.59,1.07,1.05.59,2a7.89,7.89,0,0,1-3.14,3.47,5.66,5.66,0,0,1-5.87,0c-.68-.39-1.37-.76-2-1.2a5,5,0,0,1-2-3.48,22.3,22.3,0,0,1,.63-9.61,17.93,17.93,0,0,1,1.89-4.73,5,5,0,0,1,1.1-1.28,2,2,0,0,1,2-.44,12.28,12.28,0,0,0,2.77.57,5.26,5.26,0,0,1,3.82,2.53,8.43,8.43,0,0,1,1.37,4.14A25.4,25.4,0,0,1,75.27,70.55Zm-5.33-2.37a8.62,8.62,0,0,0-.28-2.2c-.1-.38-.15-.9-.63-.91s-.56.51-.71.86a19.64,19.64,0,0,0-1,3.28c-.28,1.2-.24,1.26,1,1C69.8,69.9,69.93,69.74,69.94,68.18Z"/><path class="cls-1" d="M81.81,54.18A6.1,6.1,0,0,1,86,55.71a.66.66,0,0,1,.24.68C86,58.31,86,60.24,86,62.17c0,.33,0,.56.44.52a3.26,3.26,0,0,1,.75.12,1.54,1.54,0,0,1,1.35,1.55,22,22,0,0,1,0,2.57c0,.78-.32,1-1.11,1-.4,0-.79.07-1.19.07s-.41.11-.41.42c-.06,2.73-.15,5.45-.18,8.18a31.57,31.57,0,0,0,.1,3.22A1.61,1.61,0,0,1,84,81.72,13.5,13.5,0,0,1,80.12,81a1.26,1.26,0,0,1-.87-1.33q0-3.68.06-7.37c0-1,.14-2.06.07-3.1,0-.41-.11-.67-.64-.73A1.78,1.78,0,0,1,77,66.51a8,8,0,0,1,0-1.3,1.39,1.39,0,0,1,1-1.32,2.92,2.92,0,0,1,.85-.2c.57,0,.76-.25.78-.84.09-2.56.28-5.11.29-7.68a.83.83,0,0,1,.78-.89C81.05,54.22,81.43,54.21,81.81,54.18Z"/><path class="cls-1" d="M20.64,92.55c-.46-.15-.56-.37-.15-.7a.86.86,0,0,0,.32-.78,12.65,12.65,0,0,0-.11-2.61,8.14,8.14,0,0,0-.43-1.26,12.82,12.82,0,0,0-.63-1.9c-.08-.12,0-.27.08-.41.45-1,.8-1.94,1.34-2.85.2-.34,0-.54-.25-.74A1,1,0,0,1,20.49,80a.67.67,0,0,1,.78-.51.54.54,0,0,0,.22,0,4.44,4.44,0,0,1,2.65,0c.6.15.79-.51,1.24-.65.23-.07.35-.47.63-.3s.16.48.11.71c-.24,1.13-.07,2.33-.52,3.43a1.45,1.45,0,0,0,.73,1.41,5.91,5.91,0,0,1,1.28.71A3.82,3.82,0,0,1,29,88.23c0,1-.07,2.07,0,3.11a2.8,2.8,0,0,0,.45,1.43,7.59,7.59,0,0,1-2.47,0c-1.85-.13-3.69-.11-5.54-.17A2.12,2.12,0,0,1,20.64,92.55Z"/></svg>