<svg id="Capa_1" data-name="Capa 1" xmlns="http://www.w3.org/2000/svg" viewBox="0 0 141.73 141.73"><defs><style>.cls-1{fill:#13703b;}.cls-2{fill:#fedb5e;}</style></defs><title>Recurso 9</title><path class="cls-1" d="M120.66,58.9a8.44,8.44,0,0,1,3.09-1.33,5.52,5.52,0,0,0,1-.16h.4c0,.09.11.07.17.07a5.33,5.33,0,0,1,1.31.2,6.31,6.31,0,0,1,2.23,1.11.21.21,0,0,1-.22,0,9.59,9.59,0,0,0-2.91-.53,5.73,5.73,0,0,0-3,.62,5,5,0,0,0-2.05,1.77c-.09.13,0,.19.08.25s.51.27.77.39a.39.39,0,0,1,.24.32,13.76,13.76,0,0,0,.73,2.42.47.47,0,0,0,.41.36,4.3,4.3,0,0,1,1.5.62,2.13,2.13,0,0,1,1.1,2.12c0,.17,0,.34-.05.5s.06.36.31.27a3.87,3.87,0,0,0,.55-.25A6,6,0,0,0,128,66.19a.82.82,0,0,1-.08.48,3.63,3.63,0,0,1-1.86,2c-.21.1-.4.19-.61,0s-.18-.07-.24.08a12.09,12.09,0,0,1-4,5.14c-.09.07-.18.14-.3.1a3.87,3.87,0,0,1-2.1-1.52.6.6,0,0,1,.31.13,3.15,3.15,0,0,0,1.64.6.45.45,0,0,0,.34-.08,9.79,9.79,0,0,0,3.32-4.85.29.29,0,0,0-.12-.37,8.47,8.47,0,0,1-2-2.25.69.69,0,0,0-.8-.4h-.17a11,11,0,0,0-5.43,2.22,4.68,4.68,0,0,0-1.52,6.38c.12.24.22.26.44.13.41-.22.84-.42,1.33-.66a.65.65,0,0,1-.33.33,9,9,0,0,0-2.64,2.42,4,4,0,0,0-.81,2.93,4.74,4.74,0,0,0,.75,1.86h0c-.89-.31-2.33-1.66-2.17-3a3.29,3.29,0,0,1,1-1.86,12.27,12.27,0,0,1,1.28-1.11c.36-.22.72-.44,1.09-.65.12-.07.16-.12,0-.24a6.59,6.59,0,0,1-1.14-1.84,4.48,4.48,0,0,1-.21-2.12c.07-.3.14-.58.22-.87a6.22,6.22,0,0,1,1.95-2.42,11,11,0,0,1,6.13-2.52c.23,0,.2-.09.13-.24a6.51,6.51,0,0,1-.4-1.09,1.38,1.38,0,0,0-1.21-1.27c-.73-.15-.76-.37-.47-1.08A4.58,4.58,0,0,1,120.66,58.9Zm2.71,6.62h-.08l0,.06a6.52,6.52,0,0,0,1.29,1.63c0-.43.07-.8-.23-1.07A2.5,2.5,0,0,0,123.37,65.52Z"/><path class="cls-1" d="M135.49,66.27a4.38,4.38,0,0,1,1.43.28,2.47,2.47,0,0,1,1.54,2c0,.08,0,.18.06.24v.87c-.15.54-.23,1.1-.43,1.62a15.82,15.82,0,0,1-2.48,4.19c-.06.07-.15.13-.16.24-.64.7-1.25,1.41-1.92,2.07-1.13,1.13-2.35,2.16-3.58,3.17-1.51,1.14-3,2.24-4.65,3.24-.12.07-.22.2-.42.15,1.27-1.09,2.54-2.15,3.71-3.32h0a45.47,45.47,0,0,0,4.87-5.33,18.14,18.14,0,0,0,2-3.08,6.77,6.77,0,0,0,.9-2.61,2.21,2.21,0,0,0-.9-2.3,2.64,2.64,0,0,0-1-.44,9.1,9.1,0,0,0-2.9,0A9.65,9.65,0,0,1,135.49,66.27Z"/><path class="cls-2" d="M135.47,72.57a18.14,18.14,0,0,1-2,3.08A45.47,45.47,0,0,1,128.62,81h0a2.57,2.57,0,0,0-.83,0l-2,0a9.9,9.9,0,0,0,2-1.63,3.13,3.13,0,0,0,0-4.4s-.08-.15-.18-.1a3,3,0,0,1,0,3,6.52,6.52,0,0,1-2.36,2.39c-.39.25-.79.47-1.27.76h1.79a7.68,7.68,0,0,1-1.66,0c-.86,0-1.72,0-2.58,0l-3.17,0a8.76,8.76,0,0,1,4.48-4.39.64.64,0,0,0-.28,0,9,9,0,0,0-4.26,2.26,8.52,8.52,0,0,0-1.79,2.13c-1.11,0-2.22,0-3.33,0,0,0,0,0,0-.06V76.06a9,9,0,0,1,2.64-2.42.65.65,0,0,0,.33-.33c-.49.24-.92.44-1.33.66-.22.13-.32.11-.44-.13a4.68,4.68,0,0,1,1.52-6.38,11,11,0,0,1,5.43-2.22h.17a.69.69,0,0,1,.8.4,8.47,8.47,0,0,0,2,2.25.29.29,0,0,1,.12.37,9.79,9.79,0,0,1-3.32,4.85.45.45,0,0,1-.34.08,3.15,3.15,0,0,1-1.64-.6.6.6,0,0,0-.31-.13,3.87,3.87,0,0,0,2.1,1.52c.12,0,.21,0,.3-.1a12.09,12.09,0,0,0,4-5.14c.06-.15.13-.16.24-.08s.4.09.61,0a3.63,3.63,0,0,0,1.86-2,.82.82,0,0,0,.08-.48,6,6,0,0,1-1.65,1.46,3.87,3.87,0,0,1-.55.25c-.25.09-.34,0-.31-.27s0-.33.05-.5a2.13,2.13,0,0,0-1.1-2.12,4.3,4.3,0,0,0-1.5-.62.47.47,0,0,1-.41-.36,13.76,13.76,0,0,1-.73-2.42.39.39,0,0,0-.24-.32c-.26-.12-.52-.26-.77-.39s-.17-.12-.08-.25a5,5,0,0,1,2.05-1.77h12.45c.28,0,.26.17.26.35q0,3.32,0,6.64c0,.13,0,.26,0,.4a9.65,9.65,0,0,0-3.92.9,9.1,9.1,0,0,1,2.9,0,2.64,2.64,0,0,1,1,.44Zm-10.82,3.52a2.91,2.91,0,0,1-.75-.44,1.48,1.48,0,0,1-.54-1.24,2.8,2.8,0,0,1,2.36-2.5,1.46,1.46,0,0,1,1.73,1.24,2,2,0,0,1-.34,1.4c.12,0,.17,0,.23-.09a3.16,3.16,0,0,0,.5-.83,1.75,1.75,0,0,0-1.3-2.4,3.52,3.52,0,0,0-3.93,2.67A1.78,1.78,0,0,0,124.65,76.09Zm-8.28-3.93a2.93,2.93,0,0,1,.79-2.22,9.35,9.35,0,0,1,2.92-2.23c.1-.06.22-.08.29-.21a.84.84,0,0,0-.16,0l-.48.13a8.44,8.44,0,0,0-3.13,1.59A2,2,0,0,0,116.37,72.16Zm14.81-4.88a11.25,11.25,0,0,1-1.85-4.62,2.72,2.72,0,0,0,0,3A5.21,5.21,0,0,0,131.18,67.28ZM125,59.87c.83.18,1.55.68,2.42.4a2,2,0,0,1,.49-.06,10.22,10.22,0,0,1,2.13.09A5.44,5.44,0,0,0,125,59.87Zm-7,9.53a13.32,13.32,0,0,1-.57,2.44,17,17,0,0,1-1,2.35A4,4,0,0,0,118.06,69.4Zm8.54-8.1a5.34,5.34,0,0,0,1.48.52c.65,0,1.32-.11,2,0C129.61,61.25,128.46,61,126.6,61.3Z"/><path class="cls-1" d="M22.75,73.28l.59.1a2.07,2.07,0,0,1,1.79,2c.11.88.1,1.78.18,2.66.09,1.12.29,2.23.47,3.33.06.4.07.4-.33.4H23.94c-.45,0-.56-.08-.61-.52-.12-1.17-.23-2.35-.34-3.52,0-.56-.07-1.13-.17-1.69a1.92,1.92,0,0,0-1.95-1.8c-.68-.07-1.38,0-2.07,0-.17,0-.17.09-.17.21,0,.37,0,.73,0,1.1,0,2,0,3.94,0,5.91,0,.26-.07.34-.33.33-.56,0-1.12,0-1.67,0-.21,0-.29,0-.29-.27V65.29c0-.16,0-.26.22-.26l5.55,0a3.64,3.64,0,0,1,1,.14,3.23,3.23,0,0,1,2.55,3.12,6.71,6.71,0,0,1-.13,2.32,3.14,3.14,0,0,1-2.39,2.47l-.4.11ZM18.64,69.6c0,.82,0,1.64,0,2.47,0,.19,0,.27.25.26.85,0,1.71,0,2.57-.1a1.76,1.76,0,0,0,1.77-1.51,6.78,6.78,0,0,0,.16-1.85A1.73,1.73,0,0,0,21.73,67a25.47,25.47,0,0,0-2.9-.11c-.21,0-.19.14-.19.27Z"/><path class="cls-1" d="M8.52,65c.4,0,.81,0,1.21,0,.24,0,.34.06.39.31.49,2.17,1,4.35,1.49,6.52.72,3.17,1.44,6.35,2.17,9.52.07.26,0,.35-.25.34-.6,0-1.21,0-1.81,0-.24,0-.32-.08-.37-.3-.19-1-.41-2-.6-3-.06-.32-.19-.44-.53-.43C9,78,7.72,78,6.47,78c-.22,0-.3.07-.34.28-.22,1.08-.45,2.16-.67,3.23,0,.18-.1.26-.31.26-.57,0-1.14,0-1.7,0-.24,0-.27-.06-.22-.28.83-3.57,1.64-7.15,2.46-10.72.41-1.79.83-3.59,1.23-5.39.06-.25.16-.31.4-.3C7.72,65.05,8.12,65,8.52,65Zm0,2.28H8.42a1.06,1.06,0,0,0-.06.19c-.58,2.78-1.15,5.56-1.74,8.35,0,.26.1.21.24.21H10c.24,0,.3,0,.25-.3-.45-2.1-.88-4.21-1.32-6.32C8.78,68.74,8.62,68,8.47,67.31Z"/><path class="cls-2" d="M120.66,58.9a4.58,4.58,0,0,0-1.35,1.67c-.29.71-.26.93.47,1.08A1.38,1.38,0,0,1,121,62.92a6.51,6.51,0,0,0,.4,1.09c.07.15.1.23-.13.24a11,11,0,0,0-6.13,2.52,6.22,6.22,0,0,0-1.95,2.42c0-1,0-2,0-3.07V59.21c0-.17,0-.33.24-.33C115.82,58.9,118.24,58.9,120.66,58.9Z"/><path class="cls-1" d="M28.46,73.37c0-2.66,0-5.32,0-8,0-.28.07-.36.35-.35.53,0,1.07,0,1.6,0,.25,0,.33.06.32.32,0,1.27,0,2.54,0,3.8q0,5.15,0,10.28c0,.32.05.44.41.43,1.36,0,2.72,0,4.08,0,.32,0,.38.1.37.39s0,.84,0,1.27c0,.15,0,.2-.2.2H28.68c-.3,0-.21-.2-.21-.34Q28.46,77.38,28.46,73.37Z"/><path class="cls-1" d="M101.86,77A18.73,18.73,0,0,0,104,80.13a1.72,1.72,0,0,0,.77.5c.16,0,.16.12.16.24s-.14.11-.22.11a15,15,0,0,0-1.64,0,.36.36,0,0,1-.39-.21,35.83,35.83,0,0,0-2.16-3.29,1,1,0,0,0-1-.31c-.11,0-.09.11-.09.18l0,2.37a.61.61,0,0,0,.48.66c.25.08.5.19.75.27s.17.12.16.24-.13.09-.2.09a22,22,0,0,0-3.54,0c-.07,0-.2.06-.2-.09s0-.21.16-.25a5.27,5.27,0,0,0,.6-.2.53.53,0,0,0,.4-.52c0-.17,0-.33,0-.5v-5.1c0-.7-.08-.8-.76-1l-.42-.1c-.1,0-.19,0-.18-.19s.14-.11.23-.1a20.33,20.33,0,0,0,2.47,0,12.51,12.51,0,0,1,2.29,0,3.36,3.36,0,0,1,.71.18,1.77,1.77,0,0,1,1.29,1.91,1.84,1.84,0,0,1-1.38,1.79Zm-2.37-2v1.2c0,.12,0,.22.16.22a8.28,8.28,0,0,0,1.57-.09,1.22,1.22,0,0,0,1.1-1.35,1.25,1.25,0,0,0-1.19-1.32c-.48-.07-1,0-1.44,0-.16,0-.21.06-.21.21C99.49,74.25,99.49,74.64,99.49,75Z"/><path class="cls-1" d="M52.85,76.8a3.17,3.17,0,0,1,1.12.45,1.9,1.9,0,0,1,.11,3.14,3,3,0,0,1-1.87.59c-1,0-2,0-2.94,0-.47,0-.93,0-1.4,0-.09,0-.21.06-.22-.11s0-.21.18-.23a1.87,1.87,0,0,0,.32-.08c.68-.23.83-.43.83-1.13,0-1.73,0-3.45,0-5.17,0-.5-.1-.66-.58-.85a4.14,4.14,0,0,0-.6-.18c-.14,0-.16-.09-.16-.2s.09-.13.18-.12c1.4.12,2.81,0,4.21,0a2.85,2.85,0,0,1,1.55.44,1.77,1.77,0,0,1-.14,3.15Zm-2.57,1.78h0c0,.47,0,.93,0,1.4,0,.15,0,.22.2.23a7.1,7.1,0,0,0,1.53,0c.57-.09,1.11-.24,1.3-.88a1.47,1.47,0,0,0-1-1.91,6.64,6.64,0,0,0-1.83-.16c-.17,0-.2.08-.19.23Zm0-3.57h0v1.1c0,.11,0,.23.16.23a5.6,5.6,0,0,0,1.78-.15A1.13,1.13,0,0,0,53,74.92a1.14,1.14,0,0,0-.91-1.22,6.3,6.3,0,0,0-1.56-.09c-.22,0-.28.09-.28.27Z"/><path class="cls-1" d="M61.17,72.77A3.73,3.73,0,0,1,65,77.07a4.34,4.34,0,0,1-1.71,3.36,4,4,0,0,1-6.25-2.76,4.63,4.63,0,0,1,.48-2.88A3.8,3.8,0,0,1,61.17,72.77Zm2.3,4.5a7.58,7.58,0,0,0-.1-1.42,3.3,3.3,0,0,0-.65-1.62,2.27,2.27,0,0,0-3.72.53,5,5,0,0,0,.22,4.5,2,2,0,0,0,2,1.13,2,2,0,0,0,1.85-1.27A4,4,0,0,0,63.47,77.27Z"/><path class="cls-1" d="M91.42,78.35c-.39,0-.78,0-1.17,0a.31.31,0,0,0-.35.22c-.19.5-.39,1-.6,1.48-.07.19,0,.26.15.31l.66.24c.15,0,.18.14.16.28s-.14.1-.23.1a12.55,12.55,0,0,0-2.6,0c-.08,0-.19,0-.21-.09s0-.23.12-.27c.75-.2,1-.81,1.27-1.46.9-2.11,1.84-4.2,2.75-6.31.1-.25.28-.19.46-.21s.26.07.33.23C93.09,75.15,94,77.42,95,79.7a1.23,1.23,0,0,0,.87.83c.08,0,.15.06.22.07s.18.14.17.28-.15.1-.23.1a20.94,20.94,0,0,0-2.24-.06l-1.2.06c-.09,0-.21,0-.21-.12s0-.21.15-.25.55-.16.83-.24.23-.09.16-.27c-.18-.5-.35-1-.52-1.51a.26.26,0,0,0-.31-.22H91.42Zm0-3.61c-.39,1-.75,1.89-1.13,2.8-.08.19,0,.23.15.23l1.9,0c.17,0,.22,0,.16-.21C92.17,76.62,91.82,75.71,91.45,74.74Z"/><path class="cls-1" d="M84.34,78.45c.63-1.58,1.25-3.08,1.75-4.64.08-.24,0-.35-.2-.43l-.47-.16c-.11,0-.11-.13-.11-.22s.11-.09.18-.09a9.89,9.89,0,0,0,2.37,0c.07,0,.16,0,.18.08a.17.17,0,0,1-.13.23,1.45,1.45,0,0,0-1,1c-.93,2.17-1.78,4.38-2.63,6.58-.06.17-.06.37-.34.36s-.27-.19-.32-.34c-.81-2.23-1.67-4.42-2.61-6.59a1.6,1.6,0,0,0-1-1c-.14,0-.23-.11-.19-.26s.17-.07.25-.06a20.61,20.61,0,0,0,2.94,0c.1,0,.26-.11.3.09s-.12.2-.25.23c-.8.21-.82.24-.52,1l1.6,3.9C84.23,78.21,84.27,78.29,84.34,78.45Z"/><path class="cls-1" d="M70.34,81A27.07,27.07,0,0,0,67,81c-.1,0-.25.09-.29-.12s.1-.22.23-.25l.39-.1a.92.92,0,0,0,.75-1.06V74.38c0-.72-.09-.84-.76-1.06l-.39-.09c-.11,0-.23,0-.22-.2s.16-.12.25-.12a25,25,0,0,0,2.87,0l.8,0c.08,0,.19-.06.21.09s0,.21-.18.22a4.33,4.33,0,0,0-.7.21.74.74,0,0,0-.56.82c0,1.65,0,3.3,0,4.94,0,.3-.14.68.07.86s.55,0,.84,0,.8,0,1.2,0a1.19,1.19,0,0,0,1.32-1,1.46,1.46,0,0,0,0-.2c0-.14.16-.09.25-.09s.13.08.12.17c0,.6-.06,1.2-.08,1.8,0,.23-.15.17-.27.17Z"/><path class="cls-1" d="M76,77.26c0-1,0-1.91,0-2.87a1,1,0,0,0-.68-1,2.6,2.6,0,0,0-.44-.16.2.2,0,0,1-.18-.23c0-.17.16-.1.23-.09a18.84,18.84,0,0,0,2.71,0l.79-.06c.08,0,.19-.06.21.09a.17.17,0,0,1-.14.22c-1.3.34-1.11.6-1.15,1.62,0,1.24,0,2.47,0,3.7a6.42,6.42,0,0,0,.11,1.16.89.89,0,0,0,.75.82l.23.07c.15,0,.27.08.24.27s-.19.12-.29.11a17.9,17.9,0,0,0-2.64,0l-.83.06c-.08,0-.19,0-.19-.11s0-.23.14-.25c1-.1,1.16-.75,1.16-1.56v-1.8Z"/><path class="cls-2" d="M130,80.92c1.23-1,2.45-2,3.58-3.17.67-.66,1.28-1.37,1.92-2.07,0,1.35,0,2.71,0,4.07,0,.31,0,.62,0,.93s-.05.26-.24.26Z"/><path class="cls-1" d="M69.83,66.92a10.75,10.75,0,0,0,.87,1.32c.12.14.27.25.41.39s.3,0,.23.21-.22,0-.33,0a.91.91,0,0,1-1.11-.6,10.69,10.69,0,0,0-.71-1.09.39.39,0,0,0-.45-.19c-.19.06-.08.23-.1.35s0,.44,0,.66a.54.54,0,0,0,.42.65c.1,0,.29,0,.26.15s-.21.07-.32.06a8.9,8.9,0,0,0-1.46,0c-.06,0-.15,0-.17,0s.06-.12.12-.13c.44,0,.48-.34.47-.69,0-.78,0-1.56,0-2.34,0-.37-.12-.56-.48-.62-.08,0-.22,0-.19-.13s.14-.06.22-.05c.76.07,1.53-.09,2.3,0a1,1,0,0,1,.95,1.16.84.84,0,0,1-.53.71C70.1,66.82,70,66.86,69.83,66.92Zm-1.22-1c0,.82,0,.82.78.69.47-.09.64-.27.63-.69s-.2-.59-.65-.65C68.64,65.14,68.61,65.17,68.61,65.9Z"/><path class="cls-1" d="M74,69a1.94,1.94,0,0,1-2-2,2,2,0,0,1,2.08-2.14,1.85,1.85,0,0,1,1.94,2A2,2,0,0,1,74,69Zm-1.18-2.37a3.17,3.17,0,0,0,.09.88,2.83,2.83,0,0,0,.14.41,1,1,0,0,0,1.13.69,1,1,0,0,0,.93-.78,2.81,2.81,0,0,0-.08-2,1.1,1.1,0,0,0-1.83-.3A1.53,1.53,0,0,0,72.86,66.59Z"/><path class="cls-1" d="M65.25,66.4v-.63c0-.37-.08-.69-.53-.75-.07,0-.14,0-.11-.12s.09-.05.14-.05a6.55,6.55,0,0,0,1.4,0c.06,0,.14,0,.16.06s0,.1-.11.11c-.39.06-.43.33-.43.66a13.33,13.33,0,0,1,0,2A1.36,1.36,0,0,1,64.31,69c-1.36.07-2-.55-1.91-1.93,0-.41.06-.81.09-1.22s0-.55-.46-.75c-.07,0-.21,0-.19-.13s.14-.08.22-.07a10.29,10.29,0,0,0,1.57,0c.07,0,.2-.06.22.07s-.12.11-.19.13a.56.56,0,0,0-.47.6,10.62,10.62,0,0,0,.05,2,.9.9,0,0,0,1,.79.86.86,0,0,0,.91-.78,4.9,4.9,0,0,0,.07-.67c0-.21,0-.42,0-.63Z"/><path class="cls-1" d="M59.27,67h1.78v.08a.61.61,0,0,0-.48.78,1.33,1.33,0,0,1,0,.2c0,.81,0,.81-.78.91a3.19,3.19,0,0,1-1.23-.07A2,2,0,0,1,57,67.25a2.07,2.07,0,0,1,1-2.09,3.15,3.15,0,0,1,2.19-.33c.12,0,.18.07.18.19,0,.27,0,.54,0,.8,0,.06,0,.13-.07.13a.14.14,0,0,1-.1-.07c-.18-.74-.71-.7-1.28-.59a1.31,1.31,0,0,0-1.07,1.1A2.24,2.24,0,0,0,58,67.48a1.36,1.36,0,0,0,1.77,1c.07,0,.15,0,.16-.1,0-.27,0-.53,0-.8s-.31-.36-.54-.44C59.32,67.08,59.28,67.07,59.27,67Z"/><path class="cls-1" d="M56,65.85c-.2,0-.17-.17-.19-.24a.46.46,0,0,0-.48-.33c-.35,0-.69,0-1,0-.18,0-.26,0-.25.24a7.15,7.15,0,0,1,0,.8c0,.18.06.23.23.22h.5c.65,0,.65,0,1-.59v1.57s-.06,0-.06,0c-.12-.53-.49-.62-1-.55-.22,0-.52-.06-.65,0s0,.44,0,.67c0,.65,0,.65.63.68l.27,0c.49,0,1,0,1-.66a3.69,3.69,0,0,1,0,1.09c0,.1-.13.06-.2.06a21,21,0,0,0-3,0c-.07,0-.18.05-.2,0s.1-.12.18-.14a.53.53,0,0,0,.5-.61c0-.8,0-1.6,0-2.4,0-.38-.12-.58-.49-.65-.08,0-.21,0-.19-.12s.13-.06.2-.06a25.51,25.51,0,0,0,2.9,0c.2,0,.25.06.24.24S56,65.58,56,65.85Z"/><path class="cls-1" d="M125.75,80.93H124c.48-.29.88-.51,1.27-.76a6.52,6.52,0,0,0,2.36-2.39,3,3,0,0,0,0-3c.1-.05.14,0,.18.1a3.13,3.13,0,0,1,0,4.4,9.9,9.9,0,0,1-2,1.63Z"/><path class="cls-1" d="M116.49,80.93a8.52,8.52,0,0,1,1.79-2.13,9,9,0,0,1,4.26-2.26.64.64,0,0,1,.28,0,8.76,8.76,0,0,0-4.48,4.39l-.1,0a11.5,11.5,0,0,0-1.66,0Z"/><path class="cls-1" d="M79.38,65.45c-.06.13.09.39-.08.42s-.18-.25-.21-.4c-.08-.31-.32-.26-.53-.27a.7.7,0,0,0-.75.4.56.56,0,0,0,.17.66,2.63,2.63,0,0,0,.63.36,5,5,0,0,1,.56.3,1,1,0,0,1-.07,1.76,2.42,2.42,0,0,1-2,.15c-.1,0-.17-.07-.15-.19l.09-.82c0-.07,0-.14.11-.14s.11.06.11.13,0,.09,0,.13c.07.21,0,.5.32.54a1.15,1.15,0,0,0,1.1-.22.54.54,0,0,0-.07-.77,6.35,6.35,0,0,0-1-.64A1.06,1.06,0,0,1,77,66a1.1,1.1,0,0,1,.89-1.16,2,2,0,0,1,1,0C79.4,64.93,79.4,64.92,79.38,65.45Z"/><path class="cls-1" d="M51.33,65.9c-.14,0-.11-.15-.13-.23a.53.53,0,0,0-.56-.5.78.78,0,0,0-.84.48.58.58,0,0,0,.31.7c.32.19.66.37,1,.53a1,1,0,0,1,0,1.8,2.53,2.53,0,0,1-2,.15c-.12,0-.15-.1-.14-.22s.06-.53.08-.79a.13.13,0,0,1,.11-.14c.1,0,.09.07.1.13s0,0,0,.06c.06.21,0,.52.26.6a1.27,1.27,0,0,0,1.06-.11.57.57,0,0,0-.06-1c-.29-.2-.61-.36-.91-.55a1.27,1.27,0,0,1-.59-.66A1,1,0,0,1,49.54,65a1.94,1.94,0,0,1,1.74-.08s.12,0,.12.1A3.17,3.17,0,0,1,51.33,65.9Z"/><path class="cls-1" d="M75.75,72.43l1.81-2a.7.7,0,0,1,.44-.23.62.62,0,0,1,.68.36.57.57,0,0,1-.24.76c-.63.38-1.28.74-1.94,1.1C76.3,72.49,76.07,72.41,75.75,72.43Z"/><path class="cls-2" d="M113.17,72.18A6.59,6.59,0,0,0,114.31,74c.11.12.07.17,0,.24-.37.21-.73.43-1.09.65Z"/><path class="cls-2" d="M116.58,81a11.5,11.5,0,0,1,1.66,0A11.5,11.5,0,0,1,116.58,81Z"/><path class="cls-1" d="M113.15,80.85s0,0,0,.06-.09,0-.06-.06h.05Z"/><path class="cls-2" d="M123.37,65.52a2.5,2.5,0,0,1,1,.61c.3.27.22.64.23,1.07a6.52,6.52,0,0,1-1.29-1.63Z"/><path class="cls-2" d="M123.32,65.57l0-.06h.08Z"/><path class="cls-1" d="M124.65,76.09a1.78,1.78,0,0,1-2-2.19,3.52,3.52,0,0,1,3.93-2.67,1.75,1.75,0,0,1,1.3,2.4,3.16,3.16,0,0,1-.5.83c-.06.06-.11.14-.23.09a2,2,0,0,0,.34-1.4,1.46,1.46,0,0,0-1.73-1.24,2.8,2.8,0,0,0-2.36,2.5,1.48,1.48,0,0,0,.54,1.24A2.91,2.91,0,0,0,124.65,76.09Z"/><path class="cls-1" d="M116.37,72.16a2,2,0,0,1,.23-2.94,8.44,8.44,0,0,1,3.13-1.59l.48-.13a.84.84,0,0,1,.16,0c-.07.13-.19.15-.29.21a9.35,9.35,0,0,0-2.92,2.23A2.93,2.93,0,0,0,116.37,72.16Z"/><path class="cls-1" d="M131.18,67.28a5.21,5.21,0,0,1-1.88-1.67,2.72,2.72,0,0,1,0-3A11.25,11.25,0,0,0,131.18,67.28Z"/><path class="cls-1" d="M125,59.87a5.44,5.44,0,0,1,5,.43,10.22,10.22,0,0,0-2.13-.09,2,2,0,0,0-.49.06C126.59,60.55,125.87,60.05,125,59.87Z"/><path class="cls-1" d="M118.06,69.4a4,4,0,0,1-1.58,4.79,17,17,0,0,0,1-2.35A13.32,13.32,0,0,0,118.06,69.4Z"/><path class="cls-1" d="M126.6,61.3c1.86-.31,3,0,3.51.47-.71-.06-1.38.08-2,0A5.34,5.34,0,0,1,126.6,61.3Z"/></svg>