<svg id="Capa_1" data-name="Capa 1" xmlns="http://www.w3.org/2000/svg" viewBox="0 0 141.73 141.73"><defs><style>.cls-1{fill:#b8b0b0;}.cls-2{fill:#eae9e9;}.cls-3{fill:#df2226;}.cls-4{fill:#373434;}.cls-5{fill:#241915;}</style></defs><title>Recurso 6</title><path class="cls-1" d="M96.85,96.94c.13,0,.18.08.24.15a7.71,7.71,0,0,1,1.37,2.06,8.26,8.26,0,0,1,.6,1.82c0,.16,0,.34.08.49v1.74c-.08.07,0,.17-.06.26a7.17,7.17,0,0,1-1.54,4,7.57,7.57,0,0,1-2.24,1.82,13.94,13.94,0,0,1-1.46.7,4,4,0,0,1-2.1.21A7,7,0,0,1,88.8,109c-.23-.15-.32-.19-.47.15l0,.11c-.1.38-.1.38-.5.38H84.89c-.33,0-.33,0-.33-.33,0-.17,0-.34,0-.51h2.61c.16,0,.22,0,.21-.21a.75.75,0,0,1,.06-.29c.11-.31.2-.34.47-.17a7.6,7.6,0,0,0,2.25,1.06,4.17,4.17,0,0,0,2.85-.08,13.07,13.07,0,0,0,1.59-.79,6.78,6.78,0,0,0,2.84-2.94,8.87,8.87,0,0,0,.84-4.32A7.53,7.53,0,0,0,97,97.25C97,97.15,96.86,97.07,96.85,96.94Z"/><path class="cls-2" d="M43.5,23.36v-.07h55v.08h-55Z"/><path class="cls-2" d="M42.59,58.58h.09v1.81h-.09Z"/><path class="cls-1" d="M83.12,118.44v-.07h.17a1.19,1.19,0,0,0,.7,0h.15a.06.06,0,0,0,0,.06Z"/><path class="cls-2" d="M53.25,118.44v-.06h.66v.06Z"/><path class="cls-2" d="M89.08,118.44v-.06h.67v.06Z"/><path class="cls-3" d="M42.68,60.39V58.58c.07-.74.13-1.48.21-2.21A26.38,26.38,0,0,1,45.12,48a18.06,18.06,0,0,1,1.59-2.72c.06-.08.11-.17.16-.25a.74.74,0,0,0,.12-.13,22.23,22.23,0,0,1,4.7-4.59,23.1,23.1,0,0,1,5-2.88,23.89,23.89,0,0,1,8.55-1.73,23.21,23.21,0,0,1,3.72.21,21.53,21.53,0,0,1,3.55.74A15,15,0,0,1,77,38.7a3.55,3.55,0,0,0,.47.32s.05,0,.09,0h0c0,.07.09.1.14.15a19.71,19.71,0,0,1,4.16,4.44,26.45,26.45,0,0,1,4.25,11c.14.85.24,1.7.32,2.56s.13,1.88.15,2.82c0,.25,0,.25-.24.28l-6.74,1-6.09,1-6.09.92L62.12,64l-6.41,1c-.21,0-.22,0-.16.25A13.07,13.07,0,0,0,56.26,67a13.62,13.62,0,0,0,7.31,6.89,4.06,4.06,0,0,0,.85.29,1,1,0,0,0,.3.13,17.41,17.41,0,0,0,4.59.69A16.85,16.85,0,0,0,71.05,75c.52,0,1-.07,1.56-.14a30.61,30.61,0,0,0,3.65-.73,49.41,49.41,0,0,0,9.68-3.73,4.85,4.85,0,0,1,.65-.31,1.27,1.27,0,0,1,.07.24c.15.65.29,1.31.45,2,.11.49.19,1,.34,1.46.16.7.31,1.39.46,2.08s.34,1.53.52,2.29c0,.15,0,.23-.13.28a2,2,0,0,0-.21.1q-2.4,1.13-4.87,2.08A60.76,60.76,0,0,1,72,83.79a34.13,34.13,0,0,1-5.14.49,31.94,31.94,0,0,1-3.79-.15,23.54,23.54,0,0,1-4-.73,10.93,10.93,0,0,0-1.12-.31,11.29,11.29,0,0,0-1.09-.44,16.86,16.86,0,0,1-5.71-3.91,39.78,39.78,0,0,1-4-4.65,23.91,23.91,0,0,1-4.1-9.76,24.7,24.7,0,0,1-.39-3.64C42.7,60.59,42.69,60.49,42.68,60.39ZM71,46.77a1.38,1.38,0,0,0-.27-.27,8.84,8.84,0,0,0-5.6-2.06,11.16,11.16,0,0,0-3.15.35,9,9,0,0,0-6.11,4.73,9.61,9.61,0,0,0-1.11,3.78,23,23,0,0,0,0,2.35c0,.41,0,.37.4.32L57,55.68l1.87-.3a5.41,5.41,0,0,0,.89-.11l3-.44,3-.46L68.27,54l3-.46c.59-.09,1.19-.17,1.78-.27.25,0,.25,0,.26-.3a9.11,9.11,0,0,0-.12-1.56,8.68,8.68,0,0,0-1.09-3.16A6.23,6.23,0,0,0,71,46.77Z"/><path class="cls-4" d="M87.45,73.71c-.15-.48-.23-1-.34-1.46-.16-.65-.3-1.31-.45-2a1.27,1.27,0,0,0-.07-.24,4.85,4.85,0,0,0-.65.31,49.41,49.41,0,0,1-9.68,3.73,30.61,30.61,0,0,1-3.65.73c-.52.07-1,.1-1.56.14a16.85,16.85,0,0,1-1.74.05,17.41,17.41,0,0,1-4.59-.69,1,1,0,0,1-.3-.13.76.76,0,0,0-.09-.09A14.3,14.3,0,0,1,60,68.24a6.81,6.81,0,0,1-.35-1.08l.13,0L62,66.77l3.33-.5,3.32-.52,3.36-.5,3.77-.58,2.94-.46L82,63.7l3.36-.51,3-.45,2.11-.32c.28-.05.3-.06.27-.35-.06-.61,0-1.22-.08-1.83-.08-1.11-.2-2.21-.37-3.31a28.66,28.66,0,0,0-2.13-7.31,21.92,21.92,0,0,0-5.33-7.45,14.81,14.81,0,0,0-4.89-3,.68.68,0,0,0-.37-.09h0s0,0-.09,0A3.55,3.55,0,0,1,77,38.7a15,15,0,0,0-4.5-2.09A21.53,21.53,0,0,0,69,35.87a23.21,23.21,0,0,0-3.72-.21,23.89,23.89,0,0,0-8.55,1.73,23.1,23.1,0,0,0-5,2.88A22.23,22.23,0,0,0,47,44.86a.74.74,0,0,1-.12.13c-.11-.49-.17-1-.24-1.48-.22-1.35-.42-2.7-.63-4s-.43-2.72-.64-4.07-.41-2.7-.62-4-.42-2.7-.64-4-.39-2.56-.59-3.84a.49.49,0,0,1,0-.12h55c-.12.93-.24,1.85-.35,2.77s-.27,2.13-.4,3.2l-.39,3.1-.39,3.16-.39,3.07c-.12,1-.25,2.09-.38,3.14s-.27,2.16-.41,3.25l-.45,3.61-.45,3.61-.45,3.61L94,59l-.39,3.16-.39,3.1c-.13,1.07-.27,2.13-.4,3.2s-.26,2.06-.38,3.1-.27,2.11-.4,3.16c-.08.64-.16,1.27-.23,1.91-.09,0-.09-.06-.1-.12l-.48-2.11c-.15-.66-.29-1.33-.45-2,0-.25-.06-.25-.28-.14l-.83.42C89,73,88.22,73.4,87.45,73.71Z"/><path class="cls-3" d="M96.85,96.94c0,.13.11.21.17.31a7.53,7.53,0,0,1,1.27,3.81,8.87,8.87,0,0,1-.84,4.32,6.78,6.78,0,0,1-2.84,2.94,13.07,13.07,0,0,1-1.59.79,4.17,4.17,0,0,1-2.85.08,7.6,7.6,0,0,1-2.25-1.06c-.27-.17-.36-.14-.47.17a.75.75,0,0,0-.06.29c0,.16,0,.22-.21.21H84.57c-.24,0-.48,0-.73,0s-.18,0-.17-.18a1.47,1.47,0,0,0,0-.21V87.66c0-.41-.06-.36.37-.36h3.08c.33,0,.29,0,.3.31,0,.18,0,.36,0,.54s0,.14,0,.21q0,3.28,0,6.57c0,.07,0,.14,0,.22l.85-.41a9.81,9.81,0,0,1,1.92-.48,8.07,8.07,0,0,1,3,.06,5.93,5.93,0,0,1,2.87,1.78c.19.19.37.4.55.6,0,0,0,.07.07.07h0a.2.2,0,0,0,.13.18Zm-3.67,1.2h0a2.36,2.36,0,0,0-1.59-1.08,3.87,3.87,0,0,0-1.4,0,6.14,6.14,0,0,0-2.3.84.49.49,0,0,0-.28.47q0,3.18,0,6.36v.15a.21.21,0,0,0,.12.22,4.78,4.78,0,0,0,.74.4,6.77,6.77,0,0,0,2,.78,2.33,2.33,0,0,0,2.34-.75,3.91,3.91,0,0,0,.84-1.38,7.86,7.86,0,0,0,.2-4.53,3.5,3.5,0,0,0-.62-1.41S93.22,98.14,93.18,98.14Z"/><path class="cls-3" d="M52.89,108c-.26-.24-.53-.47-.77-.72a7.89,7.89,0,0,1-2.19-4.59,9.52,9.52,0,0,1,.81-5.34,7,7,0,0,1,4.38-3.73,6.89,6.89,0,0,1,2-.39,6.73,6.73,0,0,1,6.11,2.62s0,.07.07.06h0a.09.09,0,0,0,.07.12h0c0,.09.06.15.1.22a7.26,7.26,0,0,1,.69,1.56,10.45,10.45,0,0,1,.34,4.34c0,.41,0,.34-.38.34H54c-.09,0-.13.05-.12.14l0,.17a4.91,4.91,0,0,0,1.32,2.36s.08.1.15.09h0a.05.05,0,0,0,.06.06h0s0,.06.07.07a4.22,4.22,0,0,0,2,1,8.31,8.31,0,0,0,2.81.15,13.92,13.92,0,0,0,3.43-.8l.14,0c.11.37,0,.76.13,1.12V107c0,.43.07.86.1,1.29,0,.27,0,.28-.22.36l-.81.21a27.3,27.3,0,0,1-3,.5,20.22,20.22,0,0,1-2.58.19,7.72,7.72,0,0,1-4.27-1.28.44.44,0,0,0-.19-.1h0a.06.06,0,0,0-.06,0h0a.06.06,0,0,0-.07-.05h0S52.93,108,52.89,108Zm7-10.73h0a.39.39,0,0,0-.16-.25,2.41,2.41,0,0,0-1.07-.7,3.92,3.92,0,0,0-2-.11,3.24,3.24,0,0,0-2.52,3.15c0,.12,0,.16.15.16h6c.1,0,.15,0,.15-.14a4.7,4.7,0,0,0,0-.75A2.59,2.59,0,0,0,60,97.35S59.94,97.29,59.89,97.28Z"/><path class="cls-3" d="M72,91.08h1.59c.38,0,.38,0,.38.39,0,.17,0,.34,0,.51s0,.1,0,.15v2.2c0,.5,0,.5-.51.5h-2c-.22,0-.22,0-.22.21v.1q0,4.56,0,9.12a.92.92,0,0,0,.9,1,2.62,2.62,0,0,0,.79-.13c.37-.07.73-.16,1.11-.24.12.34.06.69.15,1,.06.8.13,1.59.21,2.39a.28.28,0,0,1-.15.31,3.64,3.64,0,0,1-.63.3,6.37,6.37,0,0,1-1.79.34,8.35,8.35,0,0,1-1.73,0,4.56,4.56,0,0,1-1.25-.4v0a.08.08,0,0,0-.07,0,5.77,5.77,0,0,1-.69-.62,4.13,4.13,0,0,1-1-2.7c0-3.18,0-6.37,0-9.56a1.09,1.09,0,0,0,0-.18c0-.23,0-.45,0-.68s0-.22-.2-.21H65.27c-.13,0-.2,0-.2-.18,0-1.11,0-2.23,0-3.34,0-.17.08-.19.22-.19h1.47c.27,0,.27,0,.27-.26V90a.22.22,0,0,1,.13-.24L71,87.91l.13,0v1.23c0,.59,0,1.18,0,1.77,0,.16.06.21.21.21S71.77,91.09,72,91.08Z"/><path class="cls-1" d="M87.45,73.71c.77-.31,1.5-.67,2.24-1l.83-.42c.22-.11.23-.11.28.14.16.66.3,1.33.45,2l.48,2.11c0,.06,0,.12.1.12a1.9,1.9,0,0,0,.11.82c.19.9.4,1.79.61,2.69.06.27.06.27-.19.39-1.42.7-2.88,1.31-4.35,1.9S85.2,83.49,83.78,84a55.14,55.14,0,0,1-7.38,1.91c-.83.15-1.68.26-2.52.36a34,34,0,0,1-5,.16c-.79,0-1.58-.11-2.36-.21a24.5,24.5,0,0,1-3.41-.68,17.08,17.08,0,0,1-4.88-2.21c-.09-.06-.21-.09-.25-.2a10.93,10.93,0,0,1,1.12.31,23.54,23.54,0,0,0,4,.73,31.94,31.94,0,0,0,3.79.15A34.13,34.13,0,0,0,72,83.79a60.76,60.76,0,0,0,11.24-3.25q2.48-1,4.87-2.08a2,2,0,0,1,.21-.1c.15,0,.17-.13.13-.28-.18-.76-.35-1.52-.52-2.29S87.61,74.41,87.45,73.71Z"/><path class="cls-3" d="M77.53,108.81c-.23,0-.46,0-.69,0s-.19,0-.18-.18V94.76c0-.43,0-.38.39-.38h3.19c.11,0,.15.05.16.16a4.33,4.33,0,0,0,0,.72c0,.12,0,.24,0,.36v13c0,.14,0,.23-.2.21H77.53Z"/><path class="cls-5" d="M84.15,118.38H84a1.19,1.19,0,0,1-.7,0h-.17a.22.22,0,0,0-.19-.05,3.18,3.18,0,0,1-2.43-2.54A3.24,3.24,0,0,1,83.06,112a3.21,3.21,0,0,1,3.74,2.62,3.25,3.25,0,0,1-2.28,3.71Zm1.52-3.21a2.2,2.2,0,0,0-.08-.64,2,2,0,0,0-1.49-1.43,1.88,1.88,0,0,0-1.9.63,2.16,2.16,0,0,0,.19,3,1.92,1.92,0,0,0,2.64-.07A2.06,2.06,0,0,0,85.67,115.17Z"/><path class="cls-5" d="M78.6,114.84a1.77,1.77,0,0,1,1,1,1.74,1.74,0,0,1-1.4,2.3,3.05,3.05,0,0,1-.6.06H76.11c-.39,0-.34.05-.34-.36v-5.71c0-.08,0-.11.11-.11a7.54,7.54,0,0,1,2.12.12,1.61,1.61,0,0,1,1,.64,1.38,1.38,0,0,1-.07,1.7A3.76,3.76,0,0,1,78.6,114.84ZM77,116.3c0,.21,0,.42,0,.63s0,.16.13.15a5.08,5.08,0,0,0,.78,0,.67.67,0,0,0,.59-.52.87.87,0,0,0-.73-1c-.2,0-.42,0-.63,0s-.14,0-.14.14S77,116.09,77,116.3Zm0-2.47h0c0,.17,0,.34,0,.51s0,.12.1.12a1.46,1.46,0,0,0,.62-.08.57.57,0,0,0,.37-.56.65.65,0,0,0-.7-.62c-.4,0-.4,0-.4.36Z"/><path class="cls-5" d="M91.93,118.21c.18-.49.35-.93.52-1.36l1.75-4.57c.06-.16.12-.24.31-.23s.46,0,.69,0,.29,0,.39.25l1.14,3c.33.87.67,1.74,1,2.6a.76.76,0,0,1,.08.33H96.72c-.11,0-.13-.08-.16-.15-.12-.3-.24-.6-.34-.9A.23.23,0,0,0,96,117H93.85c-.16,0-.22.06-.27.21s-.23.55-.33.83-.11.2-.26.19Zm3-4.46-.81,2h1.62Z"/><path class="cls-1" d="M55.42,105.25c-.07,0-.11,0-.15-.09A4.91,4.91,0,0,1,54,102.8l0-.17c0-.09,0-.13.12-.14H64.12c.36,0,.33.07.38-.34a10.45,10.45,0,0,0-.34-4.34,7.26,7.26,0,0,0-.69-1.56c0-.07-.11-.13-.1-.22s.18.08.24.15a5.79,5.79,0,0,1,1.2,1.89,9.33,9.33,0,0,1,.62,2.86,11.36,11.36,0,0,1-.07,2.18c0,.27,0,.27-.32.27H55.15c-.38,0-.38,0-.3.4a5.61,5.61,0,0,0,.47,1.17C55.37,105,55.45,105.13,55.42,105.25Z"/><path class="cls-1" d="M77.53,108.81H80.2c.17,0,.21-.07.2-.21v-13c0-.12,0-.24,0-.36H81c.31,0,.31,0,.31.32v13.7c0,.4,0,.37-.37.37h-3c-.32,0-.33,0-.33-.33C77.52,109.15,77.52,109,77.53,108.81Z"/><path class="cls-1" d="M72.1,105.29a.92.92,0,0,1-.9-1q0-4.56,0-9.12v-.1c0-.2,0-.21.22-.21h2c.51,0,.51,0,.51-.5v-2.2s0-.1,0-.15c.22,0,.43,0,.64,0s.22.05.21.21,0,.46,0,.69v2.56c0,.28,0,.28-.28.28H72.37c-.27,0-.27,0-.27.26Z"/><path class="cls-5" d="M53.91,118.38h-.66a2.09,2.09,0,0,1-1.59-1.2.15.15,0,0,1,.07-.24l.82-.49c.11.08.14.2.21.29a1.24,1.24,0,0,0,.56.45.81.81,0,0,0,.86-.19.48.48,0,0,0,0-.56,1.56,1.56,0,0,0-.48-.57,10.38,10.38,0,0,1-1.22-1.07,2.85,2.85,0,0,1-.46-.59,1.43,1.43,0,0,1,.48-2,1.8,1.8,0,0,1,2.11,0,3.66,3.66,0,0,1,.59.52c.08.09.1.15,0,.24s-.5.44-.75.66a4.05,4.05,0,0,0-.53-.49.68.68,0,0,0-.6-.09.38.38,0,0,0-.22.63,1.26,1.26,0,0,0,.22.24l1.15,1a6.14,6.14,0,0,1,.45.43,1.85,1.85,0,0,1,.43,1.77,1.64,1.64,0,0,1-1.18,1.17Z"/><path class="cls-5" d="M89.75,118.38h-.67a2.06,2.06,0,0,1-1.58-1.2c-.07-.11-.06-.17,0-.24l.84-.5c.08.11.15.22.22.33a1.19,1.19,0,0,0,.54.42A.79.79,0,0,0,90,117a.47.47,0,0,0,.06-.56,1.56,1.56,0,0,0-.48-.57,11.11,11.11,0,0,1-1.26-1.11,2.77,2.77,0,0,1-.42-.55,1.44,1.44,0,0,1,.5-2,1.8,1.8,0,0,1,2.09,0,3.24,3.24,0,0,1,.59.52c.08.09.1.15,0,.24s-.5.44-.75.66a3.81,3.81,0,0,0-.46-.44.68.68,0,0,0-.67-.14.38.38,0,0,0-.21.65,2.13,2.13,0,0,0,.26.26l1.12,1a3.79,3.79,0,0,1,.53.53,1.83,1.83,0,0,1,.32,1.68A1.64,1.64,0,0,1,90,118.31Z"/><path class="cls-5" d="M62.57,115.15v-2.86c0-.23,0-.23.22-.23a19,19,0,0,1,2,0,1.55,1.55,0,0,1,1.43,1.38,2.63,2.63,0,0,1,0,.84,1.43,1.43,0,0,1-.8,1,2.58,2.58,0,0,1-1.22.26h-.24c-.13,0-.16,0-.16.15,0,.48,0,1,0,1.45,0,.29,0,.58,0,.87,0,.13-.05.17-.18.17h-.81c-.22,0-.22,0-.22-.21v-2.89Zm1.2-1.31c0,.17,0,.34,0,.51s0,.11.1.11a5.27,5.27,0,0,0,.69,0,.59.59,0,0,0,.55-.58.58.58,0,0,0-.52-.62,3.2,3.2,0,0,0-.69,0c-.11,0-.13.06-.13.15S63.77,113.68,63.77,113.84Z"/><path class="cls-3" d="M77.53,90.68l-.63,0c-.23,0-.24,0-.24-.23v-2.8c0-.1,0-.15.14-.14h3.31c.31,0,.28,0,.29.29a2.41,2.41,0,0,0,0,.6c0,.11,0,.22,0,.33v1.71c0,.24,0,.24-.23.24s-.42,0-.63,0Z"/><path class="cls-1" d="M53.1,108.17a.44.44,0,0,1,.19.1,7.72,7.72,0,0,0,4.27,1.28,20.22,20.22,0,0,0,2.58-.19,27.3,27.3,0,0,0,3-.5l.81-.21c.25-.08.25-.09.22-.36,0-.43-.07-.86-.1-1.29v-.18l.75-.24a1.81,1.81,0,0,1,.07.55c.07.7.11,1.39.15,2.09,0,.23,0,.24-.24.31a13.21,13.21,0,0,1-2.07.47c-.69.11-1.38.22-2.07.3a14.53,14.53,0,0,1-2.55.12,7.51,7.51,0,0,1-4.82-2C53.18,108.35,53.06,108.31,53.1,108.17Z"/><path class="cls-5" d="M60.66,115.71V118c0,.21,0,.22-.21.22s-.54,0-.81,0-.2,0-.19-.19a1.08,1.08,0,0,0,0-.18v-4.42c0-.29,0-.26-.26-.26h-.57c-.27,0-.25,0-.25-.23v-.67c0-.24,0-.24.24-.24h3c.13,0,.18,0,.18.16s0,.53,0,.79,0,.19-.19.19h-.75c-.16,0-.21,0-.2.2,0,.46,0,.91,0,1.36Z"/><path class="cls-1" d="M68.81,108.84a4.56,4.56,0,0,0,1.25.4,8.35,8.35,0,0,0,1.73,0,6.37,6.37,0,0,0,1.79-.34,3.64,3.64,0,0,0,.63-.3.28.28,0,0,0,.15-.31c-.08-.8-.15-1.59-.21-2.39a2.43,2.43,0,0,0,.59-.1c.12,0,.18,0,.19.12.06.69.12,1.38.19,2.07,0,.3.07.61.1.92,0,.52.09.46-.4.72a4.53,4.53,0,0,1-1.37.41,11.19,11.19,0,0,1-1.92.11,3.59,3.59,0,0,1-2.34-.85A1.15,1.15,0,0,1,68.81,108.84Z"/><path class="cls-5" d="M57.66,115.16c0,.94,0,1.88,0,2.83,0,.26,0,.26-.25.26h-.76c-.11,0-.16,0-.15-.16v-5.92c0-.08,0-.11.11-.11h.93c.09,0,.13,0,.12.12v3Z"/><path class="cls-1" d="M88.3,94.74l-.85.41c-.06-.08,0-.15,0-.22q0-3.29,0-6.57c0-.07,0-.14,0-.21h.63c.21,0,.23,0,.24.22v6.36Z"/><path class="cls-1" d="M77.53,90.68l2,0c.21,0,.42,0,.63,0s.23,0,.23-.24V88.71c0-.11,0-.22,0-.33H81c.26,0,.27,0,.27.26v2.68c0,.15-.05.21-.21.21H77.72c-.14,0-.2,0-.2-.19S77.53,90.9,77.53,90.68Z"/><path class="cls-5" d="M70.87,116.51H70c-.14,0-.2,0-.2-.18a5.77,5.77,0,0,0,0-.72c0-.12,0-.18.17-.17H71.8c.14,0,.17.06.17.18s0,.48,0,.72,0,.18-.17.17Z"/><path class="cls-1" d="M72,91.08c-.22,0-.44,0-.66,0s-.22,0-.21-.21c0-.59,0-1.18,0-1.77.28-.08.52-.26.85-.34Z"/><path class="cls-1" d="M66,94.85h.89c.17,0,.21.06.2.21s0,.45,0,.68h-.89c-.15,0-.2,0-.19-.19Z"/><path class="cls-1" d="M96.85,96.94a.2.2,0,0,1-.13-.18C96.81,96.79,96.87,96.84,96.85,96.94Z"/><path class="cls-1" d="M82.94,118.32a.22.22,0,0,1,.19.05A.17.17,0,0,1,82.94,118.32Z"/><path class="cls-1" d="M63.37,96a.09.09,0,0,1-.07-.12C63.37,95.93,63.39,96,63.37,96Z"/><path class="cls-1" d="M63.3,95.92s-.06,0-.07-.06S63.3,95.88,63.3,95.92Z"/><path class="cls-1" d="M53,108.12a.06.06,0,0,1,.06,0C53,108.19,53,108.17,53,108.12Z"/><path class="cls-1" d="M53,108.07a.06.06,0,0,1,.07.05C53,108.13,53,108.11,53,108.07Z"/><path class="cls-1" d="M52.89,108s.07,0,.07.06A.07.07,0,0,1,52.89,108Z"/><path class="cls-1" d="M55.55,105.38s-.07,0-.07-.07S55.54,105.34,55.55,105.38Z"/><path class="cls-1" d="M55.48,105.31a.05.05,0,0,1-.06-.06A.05.05,0,0,1,55.48,105.31Z"/><path class="cls-1" d="M68.74,108.79a.08.08,0,0,1,.07,0S68.75,108.83,68.74,108.79Z"/><path class="cls-1" d="M96.73,96.77s-.06,0-.07-.07A.06.06,0,0,1,96.73,96.77Z"/><path class="cls-1" d="M77.58,39.07a.68.68,0,0,1,.37.09,14.81,14.81,0,0,1,4.89,3,21.92,21.92,0,0,1,5.33,7.45,28.66,28.66,0,0,1,2.13,7.31c.17,1.1.29,2.2.37,3.31,0,.61,0,1.22.08,1.83,0,.29,0,.3-.27.35l-2.11.32-3,.45L82,63.7l-3.32.51-2.94.46L72,65.25l-3.36.5-3.32.52-3.33.5-2.22.35-.13,0A6.81,6.81,0,0,0,60,68.24a14.3,14.3,0,0,0,4.33,5.86.76.76,0,0,1,.09.09,4.06,4.06,0,0,1-.85-.29A13.62,13.62,0,0,1,56.26,67a13.07,13.07,0,0,1-.71-1.79c-.06-.2,0-.22.16-.25l6.41-1,5.32-.82,6.09-.92,6.09-1,6.74-1c.24,0,.25,0,.24-.28,0-.94-.06-1.88-.15-2.82s-.18-1.71-.32-2.56a26.45,26.45,0,0,0-4.25-11,19.71,19.71,0,0,0-4.16-4.44S77.6,39.14,77.58,39.07Z"/><path class="cls-4" d="M71,46.77a6.23,6.23,0,0,1,1.15,1.46,8.68,8.68,0,0,1,1.09,3.16A9.11,9.11,0,0,1,73.31,53c0,.25,0,.26-.26.3-.59.1-1.19.18-1.78.27l-3,.46-2.55.39-3,.46-3,.44a5.41,5.41,0,0,1-.89.11,9.5,9.5,0,0,1,.6-2.62,9,9,0,0,1,5.43-5.48,11.63,11.63,0,0,1,3.19-.67,8.27,8.27,0,0,1,1.65,0C70.14,46.65,70.54,46.72,71,46.77Z"/><path class="cls-1" d="M71,46.77c-.41-.05-.81-.12-1.22-.18a8.27,8.27,0,0,0-1.65,0,11.63,11.63,0,0,0-3.19.67,9,9,0,0,0-5.43,5.48,9.5,9.5,0,0,0-.6,2.62l-1.87.3L55.11,56c-.37.05-.39.09-.4-.32a23,23,0,0,1,0-2.35,9.61,9.61,0,0,1,1.11-3.78,9,9,0,0,1,6.11-4.73,11.16,11.16,0,0,1,3.15-.35,8.84,8.84,0,0,1,5.6,2.06A1.38,1.38,0,0,1,71,46.77Z"/><path class="cls-1" d="M77.49,39s.09,0,.09,0S77.52,39.05,77.49,39Z"/><path class="cls-1" d="M93.18,98.14c-.21,0-.37-.13-.57-.17a4.18,4.18,0,0,0-1.69,0,6.16,6.16,0,0,0-2.18.83.48.48,0,0,0-.26.48c0,2,0,3.91,0,5.87v.36a4.78,4.78,0,0,1-.74-.4.21.21,0,0,1-.12-.22v-.15q0-3.18,0-6.36a.49.49,0,0,1,.28-.47,6.14,6.14,0,0,1,2.3-.84,3.87,3.87,0,0,1,1.4,0A2.36,2.36,0,0,1,93.18,98.14Z"/><path class="cls-1" d="M93.24,98.21a.07.07,0,0,1-.06-.07S93.23,98.17,93.24,98.21Z"/><path class="cls-1" d="M59.9,97.28c-.11.06-.19,0-.29,0a3.65,3.65,0,0,0-3.09.27A2.94,2.94,0,0,0,55.3,99a1,1,0,0,0-.13.51h-.88c-.11,0-.15,0-.15-.16a3.24,3.24,0,0,1,2.52-3.15,3.92,3.92,0,0,1,2,.11,2.41,2.41,0,0,1,1.07.7A.39.39,0,0,1,59.9,97.28Z"/><path class="cls-1" d="M60,97.35s-.09,0-.08-.07S60,97.32,60,97.35Z"/></svg>