<svg id="Capa_1" data-name="Capa 1" xmlns="http://www.w3.org/2000/svg" viewBox="0 0 141.73 141.73"><defs><style>.cls-1{fill:#22599d;}.cls-2{fill:#818488;}</style></defs><title>Recurso 15</title><path class="cls-1" d="M113.35,58.58c-1.31.32-.88,1.06-.7,1.67a33.45,33.45,0,0,0,2.91,6.63c.35.64,1,1.18.66,2.2a16.4,16.4,0,0,1-5.58-7.51,5,5,0,0,1,1.89-6.24,14.5,14.5,0,0,1,3.32-2c4.81-1.93,9.74-3.41,15-3.39,2.49,0,3.3,1.07,2.64,3.45a44.43,44.43,0,0,1-6.9,14c-.34.48-.58,1.12-1.42.7,1.52-4.61,3.53-9,4.86-13.63-.81-.59-1.16-.24-1.45.27-.76,1.31-1.47,2.65-2.26,3.94q-2,3.19-4,6.35a5.66,5.66,0,0,1-1.86,1.85C116.21,65.77,115.2,61.73,113.35,58.58ZM120.6,65a4.19,4.19,0,0,0,.81-3.77c-.28-1.13-1.1-1.51-2.48-1.26-1.17.21-1.92,1-1.86,1.9A3.73,3.73,0,0,0,120.6,65Z"/><path class="cls-1" d="M32.13,86.64c0,1.41,0,2.61,0,3.81,0,.63-.25,1.25-1,1.3s-1.23-.53-1.28-1.28c0-.9,0-1.81,0-2.72,0-3.54,0-7.09,0-10.63s1-4.4,4.51-4.4a11.86,11.86,0,0,1,1.58.07A3,3,0,0,1,38.72,76c0,2.41,0,4.83,0,7.24,0,1.86-.75,2.71-2.53,3.24A14.49,14.49,0,0,1,32.13,86.64Zm4.31-10.91a2.77,2.77,0,0,0-3-1A1.46,1.46,0,0,0,32.06,76c-.07,2.4-.11,4.81,0,7.21.05,1.13.89,1.49,2.43,1.4s1.88-.4,1.92-1.66C36.49,80.49,36.44,78,36.44,75.73Z"/><path class="cls-1" d="M42.45,67.38c2.12,1.34.55,3.55,1.39,5.37.86,0,1.83,0,2.8,0,2.45.14,3.46,1.15,3.5,3.52,0,2.8,0,5.6,0,8.39a1.76,1.76,0,0,0,0,.23c0,.83-.11,1.63-1.1,1.65s-1.16-.74-1.16-1.59q0-3.63,0-7.26c0-3-1.07-3.7-4-2.5-.59,1-.31,2.2-.34,3.32,0,1.89,0,3.78,0,5.67a8.24,8.24,0,0,1-.12,1.57,1,1,0,0,1-1,.83,1.06,1.06,0,0,1-1.15-.9,6.84,6.84,0,0,1-.1-1.57V70.05C41.21,69.09,41,68,42.45,67.38Z"/><path class="cls-1" d="M10.23,80.88c-.44,2.47-.19,3.29,1.11,3.66,1.77.51,2.69-.16,3.45-2.48,1.6-.18,2,.13,1.94,1.43a2.88,2.88,0,0,1-1.83,2.64,6.69,6.69,0,0,1-5.32,0,2.91,2.91,0,0,1-1.86-2.86q0-3.63,0-7.26a3.15,3.15,0,0,1,.2-1.1c.64-1.78,2.73-2.54,5.71-2.12,2,.29,3,1.28,3.08,3.27a10.54,10.54,0,0,1,0,1.59A2.92,2.92,0,0,1,14,80.53C12.78,80.74,11.49,80.77,10.23,80.88Zm0-2.21a23.78,23.78,0,0,0,2.54,0c1.22-.13,1.66-.72,1.66-2a1.75,1.75,0,0,0-1.68-2C11,74.38,10,75.19,10,76.93A2.65,2.65,0,0,0,10.26,78.67Z"/><path class="cls-1" d="M82.94,78.34a8,8,0,0,0,0-2.76c-2.18-1.55-3.16-1.3-4.23,1.07a1.7,1.7,0,0,1-1,.92,1.25,1.25,0,0,1-1.31-1.25,3,3,0,0,1,1-2.65c1.48-1.34,5.57-1.3,7.06,0a2.38,2.38,0,0,1,.87,1.78q0,4.2,0,8.39a2.15,2.15,0,0,1-.12.67C84.63,86,82.4,86.9,80,86.63c-2.16-.24-3.23-1.12-3.55-2.87a6.42,6.42,0,0,1,0-2.47,3,3,0,0,1,2.91-2.65c.61-.06,1.22,0,1.83,0A3,3,0,0,0,82.94,78.34Zm0,2.29c-3-.2-3.75-.08-4,1s-.46,2,.52,2.72c.8.6,2.25.31,3.51-.65A9.69,9.69,0,0,0,82.9,80.63Z"/><path class="cls-2" d="M100.11,80.87c-.19,2.6.12,3.38,1.31,3.68,1.74.43,2.49-.13,3.46-2.56,1.6,0,1.85.17,1.86,1.4a2.9,2.9,0,0,1-1,2.21c-1.56,1.44-5.42,1.42-7,0a2.84,2.84,0,0,1-1-2.17c0-2.41,0-4.83,0-7.25A3.18,3.18,0,0,1,101,72.77a12.48,12.48,0,0,1,1.37,0c3.69,0,5.28,2.1,4.25,5.61a3,3,0,0,1-2.36,2.19A32.29,32.29,0,0,1,100.11,80.87Zm0-2.43c.52.39,1.06.21,1.57.24a6.08,6.08,0,0,0,1.13,0,1.72,1.72,0,0,0,1.66-1.8,1.87,1.87,0,0,0-1.94-2.22c-1.5-.1-2.47.57-2.55,1.85A3.88,3.88,0,0,0,100.11,78.44Z"/><path class="cls-1" d="M61.55,79.64c0,1.21,0,2.42,0,3.63a4.22,4.22,0,0,1-.16,1.33c-.55,1.51-2.64,2.33-5.12,2.06-2.23-.25-3.29-1-3.49-2.87a56.7,56.7,0,0,1-.05-8.14A2.73,2.73,0,0,1,55.06,73a7.72,7.72,0,0,1,4.26.07,2.69,2.69,0,0,1,2.22,3C61.58,77.22,61.55,78.43,61.55,79.64Zm-2.28-4c-1.41-.93-2-1.13-2.84-.93s-1.5.57-1.52,1.44c-.07,2.34-.13,4.68,0,7,.05,1.15.89,1.53,2.4,1.46s1.92-.4,2-1.64C59.31,80.5,59.27,78,59.27,75.65Z"/><path class="cls-1" d="M27.28,73.08c0,3.67,0,7.22,0,10.77a2.14,2.14,0,0,1-.44,1.26c-1,1.43-3.77,2-6.1,1.28-1.71-.54-2.42-1.55-2.44-3.63,0-2.64,0-5.29,0-7.94a6.92,6.92,0,0,1,0-.91,1.18,1.18,0,0,1,1.17-1.16c.77,0,1.09.45,1.18,1.11a14,14,0,0,1,0,1.59c0,2.34,0,4.69,0,7,0,1.77.49,2.17,2.17,2.13S25,84.11,25,82.39c0-2.65,0-5.3,0-8C25.09,72.87,25.27,72.79,27.28,73.08Z"/><path class="cls-2" d="M93.39,75.23c-1.41-.92-2.65-.75-4,.36v8.24a8.27,8.27,0,0,1-.09,1.8,1.13,1.13,0,0,1-1.33,1,1.07,1.07,0,0,1-.83-1.19V81.77c0-1.89,0-3.78,0-5.68,0-2.53,1.22-3.3,4.54-3.38,2.73-.06,4.39,1.16,4.27,3.46-.15,2.79,0,5.6-.05,8.4,0,.79.27,1.78-.88,2.05-.84.19-1.31-.6-1.32-2.19,0-2.27,0-4.54,0-6.82A5.91,5.91,0,0,0,93.39,75.23Z"/><path class="cls-2" d="M110,74.82c-1.11-.53-2.76.25-2.61-1.62.68-.81,1.66-.24,2.62-.76,0-1,0-2.12,0-3.23,0-.77.31-1.4,1.15-1.38s1.1.68,1.1,1.44c0,1,0,2.1,0,3.07.94.77,2.08,0,2.9.66,0,1.38,0,1.38-2.9,1.79,0,2.66,0,5.35,0,8,0,1.18.76,1.72,1.92,1.78.79,0,1.35.43,1.15,1.29s-.79.82-1.44.8c-2.56-.09-3.88-1.4-3.9-3.93S110,77.51,110,74.82Z"/><path class="cls-1" d="M70.73,73.11c-.23,3-3,.89-4,2.1-.61.61-.4,1.4-.41,2.13,0,2.34,0,4.68,0,7a3.2,3.2,0,0,1-.18,1.56,1,1,0,0,1-1.07.67A1.09,1.09,0,0,1,64.2,86,3.4,3.4,0,0,1,64,84.2q0-3.51,0-7C64,73.09,66.52,71.45,70.73,73.11Z"/><path class="cls-1" d="M72,73.1a1.63,1.63,0,0,1,2,.06c.15,4.2,0,8.6.06,13-1.1.37-2,.52-2-.73C71.92,81.35,72,77.21,72,73.1Z"/><path class="cls-1" d="M74,69c-.1.66-.4,1-1,1a1,1,0,0,1-1-1.17A1.05,1.05,0,1,1,74,69Z"/></svg>