<svg id="Capa_1" data-name="Capa 1" xmlns="http://www.w3.org/2000/svg" viewBox="0 0 141.73 141.73"><defs><style>.cls-1{fill:#283580;}.cls-2{fill:#26a33a;}.cls-3{fill:#fefdfe;}.cls-4{fill:#020202;}</style></defs><title>Recurso 7</title><path class="cls-1" d="M94.55,81a5.16,5.16,0,0,1,2.14-2.37,119.84,119.84,0,0,0,15.9-11.52,22.17,22.17,0,0,0,4.69-5.48,6.85,6.85,0,0,0,1-2.87c.19-2.35-1.18-3.72-3.06-4.69a19.33,19.33,0,0,0-6.36-1.81,92.9,92.9,0,0,0-18.19-.35c-5.94.32-11.86.94-17.76,1.68-5,.61-9.95,1.34-14.91,2.13-6.2,1-12.39,2.06-18.56,3.26-2.82.54-5.63,1.13-8.44,1.7l-.51.09c.31-1.31.59-2.53.87-3.75.08-.35.37-.33.63-.4q9.23-2.45,18.53-4.66c8.78-2.09,17.6-4,26.47-5.66C84.37,44.9,91.8,43.71,99.3,43a176.85,176.85,0,0,1,23-1,35.51,35.51,0,0,1,9.39,1.29,11.32,11.32,0,0,1,2.6,1.13,3.91,3.91,0,0,1,1.8,5A14.46,14.46,0,0,1,133,54.25a73.69,73.69,0,0,1-11.78,10c-8.38,6-17.2,11.41-26.1,16.63a3.52,3.52,0,0,1-.4.18Z"/><path class="cls-2" d="M96.31,77.78a27.57,27.57,0,0,0,3.53-5,8.79,8.79,0,0,0,1.22-5.46,6.27,6.27,0,0,0-3.18-4.34,21.57,21.57,0,0,0-7.67-2.66,89.83,89.83,0,0,0-17.72-1c-6.2.1-12.38.57-18.55,1.14-5.81.53-11.59,1.23-17.37,2-2,.25-3.91.56-5.87.81-.29,0-.7.31-.89-.07s.34-1.2.75-1.29L34.21,61c7-1.46,14-2.74,21-3.91q8.15-1.35,16.34-2.42c6-.78,12-1.44,18-1.83a102.23,102.23,0,0,1,16.6,0A25.81,25.81,0,0,1,113,54.26a8.7,8.7,0,0,1,2.24,1.22,3.83,3.83,0,0,1,1.32,4.62,14.74,14.74,0,0,1-3.77,5.42,76.66,76.66,0,0,1-11.52,9.19c-1.47,1-3,2-4.46,2.93C96.66,77.72,96.55,77.9,96.31,77.78Z"/><path class="cls-1" d="M10.49,87.07c-3.43,0-5.19-1.75-5.16-5.06a10.58,10.58,0,0,1,2-6.28,6.8,6.8,0,0,1,8.07-2.32A1.75,1.75,0,0,1,16,76.18c-.31.36-.51.06-.72-.1a3.5,3.5,0,0,0-3.63-.58,4.37,4.37,0,0,0-2.11,1.94,8.35,8.35,0,0,0-1.19,4.24c0,2.26,1.36,3.42,3.59,3a6.2,6.2,0,0,0,1.94-.79c.53-.32.69-.2.67.41a2.17,2.17,0,0,1-1.84,2.44A6.06,6.06,0,0,1,10.49,87.07Z"/><path class="cls-1" d="M20.54,87.08A10.12,10.12,0,0,1,19.05,87a3.12,3.12,0,0,1-2.77-3c-.21-2.59.45-4.92,2.64-6.51a5.69,5.69,0,0,1,5.57-.62,2.91,2.91,0,0,1,1.91,2.62,7.73,7.73,0,0,1-1,4.91A5.35,5.35,0,0,1,20.54,87.08Zm3.14-6.64c0-.57,0-1.35-.79-1.71a2.16,2.16,0,0,0-2.38.35,5.55,5.55,0,0,0-1.4,5,1.36,1.36,0,0,0,.87.83A2.3,2.3,0,0,0,22.61,84,5.76,5.76,0,0,0,23.68,80.44Z"/><path class="cls-1" d="M51.73,87.08a7.63,7.63,0,0,1-1-.07,3.31,3.31,0,0,1-3.06-3.62c0-2.49.73-4.72,3-6.15a5.9,5.9,0,0,1,4.71-.62,3,3,0,0,1,2.49,2.87,7.44,7.44,0,0,1-1.54,5.56A5.46,5.46,0,0,1,51.73,87.08Zm3.42-6.5c0-.75,0-1.51-.83-1.87a2.18,2.18,0,0,0-2.27.3,3,3,0,0,0-.85,1,6.34,6.34,0,0,0-.75,3.44A1.5,1.5,0,0,0,52.11,85a2.22,2.22,0,0,0,1.74-.78A5.64,5.64,0,0,0,55.15,80.58Z"/><path class="cls-1" d="M85.19,87.1c-.41,0-.82-.06-1.23-.14a3.11,3.11,0,0,1-2.85-3A7.12,7.12,0,0,1,83.05,78a5.66,5.66,0,0,1,5.74-1.4,3.08,3.08,0,0,1,2.48,3,7.77,7.77,0,0,1-.83,4.31A5.52,5.52,0,0,1,85.19,87.1Zm3.34-6.53c0-1.57-.72-2.26-2.18-2a2.22,2.22,0,0,0-1.34.83,5.78,5.78,0,0,0-1.18,3.67,1.64,1.64,0,0,0,.71,1.65,2.08,2.08,0,0,0,2.15-.07,2.81,2.81,0,0,0,1.08-1.16A6.12,6.12,0,0,0,88.53,80.57Z"/><path class="cls-1" d="M31.35,78.44a4.92,4.92,0,0,1,3.06-2,2.54,2.54,0,0,1,3.21,3c-.19,1.84-.69,3.63-1,5.45,0,.12-.06.23-.08.35-.28,1.59-.85,2-2.43,1.61-.34-.08-.53-.2-.43-.66.42-1.92.78-3.85,1.15-5.79a2.34,2.34,0,0,0,0-.79c-.09-.79-.59-1.11-1.34-.8A4.32,4.32,0,0,0,31,82.18c-.3,1.28-.54,2.57-.76,3.86a.9.9,0,0,1-1,.86c-1.79.14-1.87.06-1.54-1.65l1.56-7.86c.07-.31.08-.67.49-.72a3.38,3.38,0,0,1,1.73.08c.14.06.1.25.07.4Z"/><path class="cls-1" d="M41.55,87.07a5.58,5.58,0,0,1-2.38-.42,1.53,1.53,0,0,1-.24-2.23c.23-.17.4,0,.59.12a3.83,3.83,0,0,0,2.28.61,2,2,0,0,0,1-.28,1,1,0,0,0,0-1.8,7.07,7.07,0,0,0-1.15-.62A2.64,2.64,0,0,1,39.79,80a3.2,3.2,0,0,1,1.76-3,5.54,5.54,0,0,1,4.66-.19c.3.11.53.3.49.64a2,2,0,0,1-.45,1.41c-.2.18-.4-.05-.59-.14a3.24,3.24,0,0,0-2.32-.35,1.21,1.21,0,0,0-.94,1c-.09.52.3.74.66,1a8.81,8.81,0,0,0,1,.49c1.13.51,2,1.21,2,2.6a3.41,3.41,0,0,1-2,3.13A5,5,0,0,1,41.55,87.07Z"/><path class="cls-1" d="M66.79,83.14a8.28,8.28,0,0,1,1.41-4.48,5.09,5.09,0,0,1,6.12-1.89,1.55,1.55,0,0,1,.44,2.51c-.24.23-.42.13-.64,0-1.86-1.2-3.29-.72-4.11,1.36A7.52,7.52,0,0,0,69.52,83c-.06,1.49.85,2.2,2.3,1.82a4.9,4.9,0,0,0,1.39-.65c.17-.11.36-.33.58-.2s.14.44.12.68a2.13,2.13,0,0,1-1.83,2.21,5.88,5.88,0,0,1-2.6.2C67.57,86.76,66.64,85.35,66.79,83.14Z"/><path class="cls-1" d="M62.83,78.3A8,8,0,0,1,64.1,77a2.88,2.88,0,0,1,1.4-.57c1.08-.12,1.37.2,1.18,1.26,0,.24-.1.48-.16.71-.15.55-.34.94-1.06.63a1.32,1.32,0,0,0-1.41.37,5,5,0,0,0-1.6,2.8c-.26,1.26-.54,2.52-.74,3.79-.11.71-.5.91-1.13.93-1.73.06-1.75,0-1.41-1.67.53-2.55,1-5.11,1.52-7.66a1.62,1.62,0,0,1,2.23-.88c.17.13.14.3.11.47S62.92,77.79,62.83,78.3Z"/><path class="cls-1" d="M64.51,91.6a3,3,0,0,1,2.36-.91,1.56,1.56,0,0,1,1.3.93,5.25,5.25,0,0,1-1.31,5.23,2.62,2.62,0,0,1-3.34,0c-.16.8-.34,1.57-.47,2.34,0,.32-.18.51-.48.55a1.66,1.66,0,0,1-1.2-.13c-.14-.1,0-.27,0-.41l1.56-7.79a1,1,0,0,1,1.43-.56c.3.21,0,.45.06.66s0,.17,0,.19S64.49,91.66,64.51,91.6Zm2.18,1.62c0-.41,0-.87-.46-1.06a1.1,1.1,0,0,0-1.13.32,3.87,3.87,0,0,0-1.22,2.63.53.53,0,0,0,.18.45,1.19,1.19,0,0,0,2-.21A4.43,4.43,0,0,0,66.69,93.22Z"/><path class="cls-1" d="M51.37,97.31c-.63,0-1.27,0-1.9,0s-.71-.19-.6-.7q.74-3.64,1.46-7.29a.85.85,0,0,1,1-.75c1.19,0,2.39,0,3.58,0,.26,0,.7-.15.64.33s0,1-.64,1-1.61,0-2.42,0c-.38,0-.52.09-.6.5-.3,1.63-.33,1.62,1.3,1.63a3.17,3.17,0,0,1,.44,0c.28,0,.8-.22.74.37,0,.44,0,1-.77,1-.61,0-1.22,0-1.83,0-.37,0-.54.12-.57.48-.07.65-.57,1.43-.24,1.88s1.18.1,1.8.14a5.76,5.76,0,0,1,.59,0c.29.06.83-.26.76.42-.05.48-.08,1-.82.94S52,97.31,51.37,97.31Z"/><path class="cls-1" d="M76.74,86.9h-.51c-.54,0-.77-.17-.63-.81.61-2.9,1.18-5.8,1.74-8.71a.78.78,0,0,1,.81-.74c1.91-.21,2-.08,1.65,1.76-.49,2.38-.94,4.77-1.41,7.16C78.14,86.86,78.09,86.91,76.74,86.9Z"/><path class="cls-1" d="M76.72,97.45c-2.12,0-2.86-.89-2.57-3.12.32-2.45,2-3.85,4.24-3.63a1.88,1.88,0,0,1,1.78,1.37,1.73,1.73,0,0,1-1.19,2,6.76,6.76,0,0,1-2.36.44c-.31,0-.83-.3-.85.42s.23,1.13.87,1.2A5.61,5.61,0,0,0,78.37,96c.26-.06.66-.47.8,0a.91.91,0,0,1-.52,1.16A4.9,4.9,0,0,1,76.72,97.45Zm-.21-4a3.34,3.34,0,0,0,1.66-.33.65.65,0,0,0,.36-.72.68.68,0,0,0-.64-.5,1.63,1.63,0,0,0-1.63,1C76,93.27,76,93.54,76.51,93.43Z"/><path class="cls-1" d="M58.18,95c-.51.71-1,1.34-1.42,2a2.37,2.37,0,0,1-1.83.31c-.24-.18,0-.35.07-.48.6-.8,1.2-1.61,1.83-2.38a.85.85,0,0,0,.14-1c-.27-.65-.45-1.33-.73-2s0-.63.45-.68c.73-.07,1.3,0,1.43.9a6.52,6.52,0,0,0,.45,1.3c.43-.59.82-1.11,1.2-1.64a1.69,1.69,0,0,1,1.81-.51c.41.18.08.36,0,.49-.54.75-1.09,1.5-1.66,2.23a.75.75,0,0,0-.14.85c.3.75.52,1.52.82,2.26.22.52,0,.64-.45.67-1.14,0-1.13.06-1.49-1C58.51,95.93,58.36,95.52,58.18,95Z"/><path class="cls-1" d="M89.67,90.69a2.85,2.85,0,0,1,.87.13A.76.76,0,0,1,91,92.06c-.17.28-.37.18-.55.08a2.11,2.11,0,0,0-1.34-.25.77.77,0,0,0-.68.58c-.12.36.14.54.4.69s.48.24.72.35a1.88,1.88,0,0,1,.33,3.32,3.51,3.51,0,0,1-3.54.33.9.9,0,0,1-.17-1.36c.23-.22.36,0,.5.09a2.22,2.22,0,0,0,1.61.29.78.78,0,0,0,.69-.65c.07-.38-.16-.58-.47-.73s-.38-.21-.58-.3A1.69,1.69,0,0,1,86.75,93a2.05,2.05,0,0,1,1.09-1.92A3.28,3.28,0,0,1,89.67,90.69Z"/><path class="cls-1" d="M84,90.68a5,5,0,0,1,1.11.14c.61.15.69.49.52,1s-.31.46-.64.28a2,2,0,0,0-1.34-.23.74.74,0,0,0-.66.59c-.09.36.15.54.42.68s.48.24.72.36a1.87,1.87,0,0,1,.23,3.35,3.47,3.47,0,0,1-3.4.3.88.88,0,0,1-.21-1.39c.19-.19.3,0,.43.07a2.22,2.22,0,0,0,1.68.32.82.82,0,0,0,.69-.66c.07-.39-.19-.57-.49-.72-.13-.07-.25-.15-.38-.21-1.19-.59-1.5-1.09-1.32-2.13a2.31,2.31,0,0,1,2-1.74C83.57,90.69,83.79,90.69,84,90.68Z"/><path class="cls-1" d="M71.69,91.68a2.32,2.32,0,0,1,1.83-1c.48,0,.64.28.49.66s.11,1.09-.64,1a1.47,1.47,0,0,0-1.55.84,8.33,8.33,0,0,0-.88,3.13c-.22,1-.51,1.24-1.53,1-.27,0-.37-.14-.31-.43.39-1.88.75-3.77,1.13-5.65.14-.65.69-.42,1.08-.43C71.92,90.79,71.6,91.28,71.69,91.68Z"/><path class="cls-1" d="M79.07,75.23c-.42,0-1,.11-1.23-.53a2.27,2.27,0,0,1,.56-2,2.66,2.66,0,0,1,2.24-.14.74.74,0,0,1,.36.67C81.06,74.58,80.44,75.22,79.07,75.23Z"/><path class="cls-3" d="M94.7,81.09a.19.19,0,0,1-.28.09l.13-.21Z"/><path class="cls-4" d="M64.51,91.6c0,.06,0,.15-.11.11s0-.12,0-.19Z"/></svg>