<svg id="Capa_1" data-name="Capa 1" xmlns="http://www.w3.org/2000/svg" viewBox="0 0 141.73 141.73"><defs><style>.cls-1{fill:#166aab;}.cls-2{fill:#d72d29;}</style></defs><title>Recurso 17</title><path class="cls-1" d="M137.37,70.82l0,20.41a2.73,2.73,0,0,1-.07.39H4.49c-.2-.14-.15-.36-.15-.55V71.17c0-.12,0-.23,0-.34H16.29v5.46h5.2V72.06l2.14-1.29c2.79.11,5.58.07,8.38,0v5.49h4.85V70.82l2,0,5.15,8,3.8-2.89-3.4-5.06,4.47,0V76.3H61.12L62.19,72c-2.79-.25-5.47-.16-8.1-.27a1.38,1.38,0,0,1-.1-.92h9.48v5.47h5.27V70.82h7.33v5.47h5.12V70.82h2.57v5.46h5V70.81h2c0,.14.08.27.11.41.66,3.46,2.67,5.12,6.2,5.12h9.45V70.82h2.36v5.47h5.29V70.82h7.29v5.47h5.14V70.82ZM69.14,89.64c2.56,0,4-1.61,4-4.33a3.83,3.83,0,0,0-4.13-4.17c-2.51,0-4,1.63-4,4.3S66.59,89.65,69.14,89.64ZM60.55,85.9v2.61c0,.59.13,1.14.88,1.12s.79-.57.8-1.12V82.29c0-.59-.11-1.16-.87-1.13s-.8.55-.8,1.11c0,.71,0,1.43,0,2.18H56.93c0-.76,0-1.47,0-2.18,0-1-.31-1.21-1.29-1a1.22,1.22,0,0,0-.39,1q0,3.12,0,6.23c0,.6.12,1.15.88,1.13s.8-.54.8-1.11c0-.86,0-1.71,0-2.62Zm32.14-.06c1.17,0,2.24,0,3.3,0,.49,0,.86-.11,1-.84-1.29-.87-2.86-.07-4.24-.51a5.76,5.76,0,0,1,0-1.94h3.49c.45,0,1,0,1-.6s-.5-.69-1-.69c-1.33,0-2.66,0-4,0-1,0-1.27.24-1.28,1.29,0,1.9,0,3.8,0,5.71a1.29,1.29,0,0,0,.49,1.2,54.87,54.87,0,0,0,5.73,0c.34-.91,0-1.19-.7-1.2h-3.8Zm-8.15,3.8A3.22,3.22,0,0,0,88,87.55c.17-.49.28-1-.32-1.26s-.88.16-1.08.66a1.94,1.94,0,0,1-1.46,1.33,2.14,2.14,0,0,1-2.66-2c-.33-1.94.46-3.58,1.83-3.77h.09a2,2,0,0,1,2.22,1.28c.22.43.56.7,1,.48s.49-.7.31-1.18a2.73,2.73,0,0,0-1.16-1.35A3.93,3.93,0,0,0,80.85,84C80.05,87.07,81.73,89.61,84.54,89.64Zm-35.67,0a3.22,3.22,0,0,0,3.32-2c.18-.49.38-1-.27-1.34s-.9.19-1.12.69a2,2,0,0,1-2.36,1.29c-1.22-.19-1.86-1.29-1.78-3.11.06-1.59.82-2.58,2-2.7a2.12,2.12,0,0,1,2.19,1.35.74.74,0,0,0,1.07.41.77.77,0,0,0,.3-1.06,2.74,2.74,0,0,0-1-1.34,3.93,3.93,0,0,0-6.15,2.43C44.39,87.23,46.09,89.63,48.87,89.64ZM77.73,85.4V82.21c0-.58-.16-1.06-.85-1s-.82.45-.82,1q0,3.22,0,6.47c0,.54.19,1,.82,1s.86-.46.86-1Z"/><path class="cls-2" d="M48.91,70.82l-4.47,0-1.75-2.61c.27-.33.54-.63.78-1a16.41,16.41,0,0,0,2.59-4.18c.9-2.37.12-4.07-2.26-4.94a6.66,6.66,0,0,0-1-.3,36.73,36.73,0,0,0-10.73-.23l-.65,3.92c.51,0,1,0,1.43,0a43.93,43.93,0,0,1,4.59,0,9.13,9.13,0,0,1,3,.49c.85.36,1.07.9.54,1.63A12.73,12.73,0,0,1,36.74,67V62.58H32v8.21c-2.8,0-5.59.09-8.38,0l.55-.41a17,17,0,0,0,5.26-5.42c1.42-2.65.77-5-1.91-6.41-3.79-2-7.83-1.55-11.9-1.12L15.2,61.6c.34,0,.56,0,.78-.05a29.11,29.11,0,0,1,5.28-.15,7,7,0,0,1,3.16.78A1.18,1.18,0,0,1,24.91,64a9.56,9.56,0,0,1-3.67,2.74V62.63H16.29v8.19H4.37q0-10.22,0-20.42a2,2,0,0,1,.07-.3h133V70.82H126.61V57.43h-5l-3.87,4.85-3.79-4.82h-5V70.82h-2.36V57.23h-5.08a1.88,1.88,0,0,0-.1,1q0,6.3,0,12.61l-4.51,0a4.25,4.25,0,0,1-1-3.38A18.26,18.26,0,0,1,97.2,61.7a24,24,0,0,1,2-4.34H94.15a9,9,0,0,0-.92,1.91c-1.52,3.7-2.83,7.44-2.46,11.54h-2V57.48h-5V70.82H81.19V57.43h-5l-3.87,4.84-3.78-4.81H63.47V70.82H54V68.25l5.36.25,1-4-6.5-.28V61.33h6.88V57.42H48.91Z"/><path class="cls-2" d="M68.74,70.82v-5.4l3.64,4.42,3.69-4.35v5.33Z"/><path class="cls-2" d="M114.18,70.82V65.45l3.6,4.4,3.69-4.36v5.33Z"/><path class="cls-2" d="M36.86,70.82V68.37c1.18.44,1.43,1.58,2,2.41Z"/><path class="cls-1" d="M101.33,70.82a1.33,1.33,0,0,1,0,.74,4.41,4.41,0,0,1-4.53-.71Z"/><path class="cls-1" d="M71.46,85.4c0,2-1.08,3.13-2.77,2.89-1.31-.19-2-1.44-1.93-3.29.1-1.56.95-2.51,2.28-2.52C70.57,82.46,71.47,83.54,71.46,85.4Z"/></svg>