<svg id="Capa_1" data-name="Capa 1" xmlns="http://www.w3.org/2000/svg" viewBox="0 0 141.73 141.73"><defs><style>.cls-1{fill:#ed6b1e;}.cls-2{fill:#131211;}</style></defs><title>Moovit_logo</title><path class="cls-1" d="M14.86,57.31A11.12,11.12,0,0,1,26,67.49a12.78,12.78,0,0,1-1.77,7.18,33,33,0,0,1-6.65,8.19c-.76.71-1.55,1.38-2.36,2-.14.11-.25.18-.43,0-3.8-3.14-7.23-6.6-9.46-11.07a12.18,12.18,0,0,1-1.4-5.77,11.11,11.11,0,0,1,9.19-10.62A10.39,10.39,0,0,1,14.86,57.31Zm.36,14.86c.17,0,.44,0,.7-.06A5.64,5.64,0,0,0,18.64,71a.73.73,0,0,0,.16-1,.7.7,0,0,0-1-.09,5.14,5.14,0,0,1-.49.32,4.49,4.49,0,0,1-5-.4.71.71,0,0,0-1.07.1.7.7,0,0,0,.24,1.05A6.39,6.39,0,0,0,15.22,72.17Zm-4-4.8a1.19,1.19,0,1,0-1.2,1.2A1.21,1.21,0,0,0,11.19,67.37Zm10.08,0a1.24,1.24,0,0,0-1.22-1.2,1.2,1.2,0,1,0,1.22,1.2Z"/><path class="cls-2" d="M42.55,66.74a6.83,6.83,0,0,1,4.32-2.81A7.53,7.53,0,0,1,55,67a8.7,8.7,0,0,1,1.24,4.72c0,3.58,0,7.17,0,10.76a2.21,2.21,0,0,1-4.28.9,2.54,2.54,0,0,1-.13-.91V71.56a3.42,3.42,0,0,0-4.56-3.41,3.55,3.55,0,0,0-2.43,2.71,4.59,4.59,0,0,0-.1,1.17c0,3.5,0,7,0,10.51a2.21,2.21,0,0,1-2.55,2.28,2.24,2.24,0,0,1-1.88-2.32c0-3.51,0-7,0-10.51A4.15,4.15,0,0,0,40,70.11,3.38,3.38,0,0,0,37,68a3.27,3.27,0,0,0-3.32,1.67,3.78,3.78,0,0,0-.46,2v11a2.2,2.2,0,0,1-3.52,1.78,2.05,2.05,0,0,1-.87-1.57c0-.08,0-.16,0-.25,0-3.86,0-7.73,0-11.6a7.12,7.12,0,0,1,6.28-7.16A7.52,7.52,0,0,1,42.55,66.74Z"/><path class="cls-2" d="M68.07,84.83A10,10,0,0,1,58,76.14a11,11,0,0,1,2-8.5,9.59,9.59,0,0,1,7.16-3.86,10,10,0,0,1,11,8.66A11,11,0,0,1,77,79.63a9.62,9.62,0,0,1-7.49,5.11C69,84.81,68.51,84.8,68.07,84.83Zm5.61-10.52a6.89,6.89,0,0,0-.55-2.86A5.29,5.29,0,0,0,68.64,68a5.21,5.21,0,0,0-5.15,2.42,7.35,7.35,0,0,0,0,7.71,5.43,5.43,0,0,0,8.23,1A6.41,6.41,0,0,0,73.68,74.31Z"/><path class="cls-2" d="M90.49,84.83c-5.91,0-10-3.47-10.79-8.64a10.76,10.76,0,0,1,2.21-8.83,10.21,10.21,0,0,1,17.88,4.93,10.58,10.58,0,0,1-3.27,10A9.28,9.28,0,0,1,90.49,84.83ZM95.38,74.1a6.15,6.15,0,0,0-.44-2.39A5.34,5.34,0,0,0,90.37,68a5.08,5.08,0,0,0-5.21,2.52,6.86,6.86,0,0,0,0,7.54,5.38,5.38,0,0,0,8.77.54A6.67,6.67,0,0,0,95.38,74.1Z"/><path class="cls-2" d="M109.18,78.14c.42-.94.79-1.8,1.17-2.66q2.27-5.19,4.54-10.38a2.15,2.15,0,0,1,2.17-1.34,2.18,2.18,0,0,1,2,1.65,2.13,2.13,0,0,1-.13,1.47q-3.8,8.28-7.59,16.54a2.34,2.34,0,0,1-4.32,0L99.48,67a2.21,2.21,0,1,1,4-1.77l5.4,12.38Z"/><path class="cls-2" d="M128,69.59q0-3.8,0-7.57a2.2,2.2,0,0,1,3.12-2.09,2.17,2.17,0,0,1,1.31,2c0,.62,0,1.24,0,1.85,0,.26.06.34.33.33.73,0,1.45,0,2.18,0a2.13,2.13,0,1,1,.08,4.25c-.76,0-1.52,0-2.28,0-.23,0-.31.05-.3.3,0,2.86,0,5.72,0,8.58,0,1.91,1.28,3.15,3.37,3.35a2.12,2.12,0,0,1,1.93,1.94,2.08,2.08,0,0,1-1.64,2.23,6.37,6.37,0,0,1-2.9-.27,7,7,0,0,1-5-5.86A11.32,11.32,0,0,1,128,76.4C128.05,74.13,128,71.86,128,69.59Z"/><path class="cls-2" d="M121.14,74.25c0-2.73,0-5.47,0-8.2a2.22,2.22,0,1,1,4.43-.11c0,.52,0,1,0,1.55v15a2.25,2.25,0,0,1-1.48,2.25,2.21,2.21,0,0,1-3-2.14C121.13,79.79,121.14,77,121.14,74.25Z"/><path class="cls-2" d="M123.35,56.72A2.59,2.59,0,0,1,126,59.25a2.64,2.64,0,0,1-5.27,0A2.59,2.59,0,0,1,123.35,56.72Z"/><path class="cls-2" d="M15.22,72.17a6.39,6.39,0,0,1-3.72-1.24.7.7,0,0,1-.24-1.05.71.71,0,0,1,1.07-.1,4.49,4.49,0,0,0,5,.4,5.14,5.14,0,0,0,.49-.32.7.7,0,0,1,1,.09.73.73,0,0,1-.16,1,5.64,5.64,0,0,1-2.72,1.12C15.66,72.15,15.39,72.16,15.22,72.17Z"/><path class="cls-2" d="M11.19,67.37A1.19,1.19,0,1,1,10,66.16,1.2,1.2,0,0,1,11.19,67.37Z"/><path class="cls-2" d="M21.27,67.36a1.2,1.2,0,1,1-1.22-1.2A1.24,1.24,0,0,1,21.27,67.36Z"/></svg>