<svg id="Capa_1" data-name="Capa 1" xmlns="http://www.w3.org/2000/svg" viewBox="0 0 141.73 141.73"><defs><style>.cls-1{fill:#00070c;}.cls-2{fill:#fff;}</style></defs><title>Waze_logo_2022</title><path class="cls-1" d="M12,69.3a11.85,11.85,0,0,1,4,0c.66,1.63,1.07,3.42,1.61,5.17s1.05,3.46,1.58,5.22c.37-.21.37-.56.46-.86.91-2.87,1.83-5.74,2.71-8.62.23-.76.61-1.15,1.42-1.09a16.37,16.37,0,0,1,3.31.17l3.32,10.38h.17l.9-3c.65-2.19,1.32-4.36,1.92-6.56a1.18,1.18,0,0,1,1.34-1,16.34,16.34,0,0,1,2.91.11,1,1,0,0,1,.09,1.13c-1.56,4.63-3.1,9.27-4.66,13.91-.34,1-.47,1.08-1.52,1.08-.77,0-1.55,0-2.31,0a1.23,1.23,0,0,1-1.39-1c-.83-2.72-1.68-5.44-2.53-8.16-.12-.4-.26-.8-.4-1.2-.4.13-.35.46-.42.69-.91,2.84-1.79,5.69-2.7,8.53-.35,1.09-.45,1.14-1.57,1.15-.77,0-1.54,0-2.31,0a1.17,1.17,0,0,1-1.32-1c-1-3.09-2.06-6.17-3.09-9.25-.51-1.52-1-3-1.53-4.57C11.89,70.21,11.62,69.79,12,69.3Z"/><path class="cls-1" d="M100.88,80.71a15.18,15.18,0,0,1-5-4.15A9.2,9.2,0,0,1,94.37,74a1.55,1.55,0,0,1,.1-1.61.56.56,0,0,1,.17-.09c2.29-.34,2.9-1,2.88-3.39a19.25,19.25,0,0,1,.88-6.74,15.09,15.09,0,1,1,23.11,17.23l-.71.52a4.65,4.65,0,0,1-.72,4.26,3.85,3.85,0,0,1-2.27,1.38,4.23,4.23,0,0,1-5.12-3.14A6.28,6.28,0,0,0,111,82.3c-.57,0-1.13,0-1.76,0a4.48,4.48,0,0,1-2.38,3,4.3,4.3,0,0,1-2.76.27C102.09,85.1,101,83.45,100.88,80.71Zm8.41-.14c1.5,0,2.94,0,4.38,0a9.69,9.69,0,0,0,1.78-.27,13.36,13.36,0,0,0,8.38-20.4,12.62,12.62,0,0,0-12.34-6.07c-5.51.51-9.33,3.53-11.43,8.7A15.32,15.32,0,0,0,99.23,69a4.42,4.42,0,0,1-3.11,4.81,12.36,12.36,0,0,0,5.36,5.37A4.35,4.35,0,0,1,109.29,80.57Z"/><path class="cls-1" d="M51.56,71c.28-.56,0-1.16.35-1.6a7.58,7.58,0,0,1,3.9.05V85.19a11.87,11.87,0,0,1-3.61.11c-.34,0-.45-.36-.49-.69a3.32,3.32,0,0,0-.08-1c-.07,0-.15,0-.18,0A7.71,7.71,0,0,1,40,82.29c-2.47-3.46-2.1-9.66,2.55-12.32a7.92,7.92,0,0,1,6.58-.74A6,6,0,0,1,51.56,71Zm-4.21,1.72a4.58,4.58,0,1,0,4.47,4.65A4.4,4.4,0,0,0,47.35,72.67Z"/><path class="cls-1" d="M78.72,78.73a4,4,0,0,0,3.64,3.2,5,5,0,0,0,4.42-1.46.92.92,0,0,1,1.47-.09,14.52,14.52,0,0,1,1.87,1.52A1.2,1.2,0,0,1,89.68,83c-3.42,3.72-10.51,3.54-13.64-.41a8.3,8.3,0,0,1-1-8.84,7.74,7.74,0,0,1,7.18-4.85c5.64-.31,8.82,3.71,8.66,8.88,0,.79-.24.94-1.2,1H79.38Zm7.88-3a3.6,3.6,0,0,0-3.85-3.31,3.81,3.81,0,0,0-3.92,3.31Z"/><path class="cls-1" d="M72.76,69.12c.11,1.83.47,3.32-1,4.7C69.45,76.1,67.28,78.58,65,81l-.45.53c.23.3.51.18.75.18h6.84c1,0,1.15.11,1.16,1.15,0,.5,0,1,0,1.51,0,.84-.17,1-1,1-1.38,0-2.75,0-4.13,0-2.78,0-5.57,0-8.35,0-1,0-1.08-.17-1.19-1.17a4.37,4.37,0,0,1,1.43-3.85c2.22-2.18,4.29-4.52,6.43-6.8L67,73c-.2-.35-.5-.21-.74-.21-2,0-4.09,0-6.14,0a1.31,1.31,0,0,1-1.2-.39,18.43,18.43,0,0,1,0-3.23C63.54,69.06,68.07,69.15,72.76,69.12Z"/><path class="cls-2" d="M109.29,80.57a4.35,4.35,0,0,0-7.81-1.44,12.36,12.36,0,0,1-5.36-5.37A4.42,4.42,0,0,0,99.23,69a15.32,15.32,0,0,1,.83-6.43c2.1-5.17,5.92-8.19,11.43-8.7a12.62,12.62,0,0,1,12.34,6.07,13.36,13.36,0,0,1-8.38,20.4,9.69,9.69,0,0,1-1.78.27C112.23,80.6,110.79,80.57,109.29,80.57Zm5-6.71a6,6,0,0,0,2.27-.39,6.5,6.5,0,0,0,3.72-3.34.8.8,0,0,0-.34-1.19.79.79,0,0,0-1.12.34c-.13.2-.23.41-.36.61a4.86,4.86,0,0,1-3.24,2.18c-2.27.4-4-.44-5.4-2.59-.42-.64-.83-.81-1.3-.52s-.54.75-.15,1.41A6.59,6.59,0,0,0,114.34,73.86Zm6.66-10a1.68,1.68,0,0,0-3.35-.08,1.68,1.68,0,1,0,3.35.08Zm-10,0a1.67,1.67,0,0,0-1.79-1.62,1.65,1.65,0,0,0-1.61,1.69,1.68,1.68,0,0,0,1.78,1.63A1.71,1.71,0,0,0,111,63.78Z"/><path class="cls-1" d="M114.34,73.86a6.59,6.59,0,0,1-5.92-3.49c-.39-.66-.33-1.12.15-1.41s.88-.12,1.3.52c1.38,2.15,3.13,3,5.4,2.59a4.86,4.86,0,0,0,3.24-2.18c.13-.2.23-.41.36-.61a.79.79,0,0,1,1.12-.34.8.8,0,0,1,.34,1.19,6.5,6.5,0,0,1-3.72,3.34A6,6,0,0,1,114.34,73.86Z"/><path class="cls-1" d="M121,63.83a1.68,1.68,0,1,1-3.35-.08,1.68,1.68,0,0,1,3.35.08Z"/><path class="cls-1" d="M111,63.78a1.71,1.71,0,0,1-1.62,1.7,1.68,1.68,0,0,1-1.78-1.63,1.65,1.65,0,0,1,1.61-1.69A1.67,1.67,0,0,1,111,63.78Z"/></svg>