<svg id="Capa_1" data-name="Capa 1" xmlns="http://www.w3.org/2000/svg" viewBox="0 0 141.73 141.73"><defs><style>.cls-1{fill:#5cb13e;}.cls-2{fill:#1c1d2b;}.cls-3{fill:#32313b;}.cls-4{fill:#383741;}.cls-5{fill:#f2f1f3;}</style></defs><title>Recurso10</title><path class="cls-1" d="M13.6,56.17c2.28,0,4.48-.12,6.67,0a6.33,6.33,0,0,1,5.45,3.72A12.08,12.08,0,0,1,26,70.29a6.56,6.56,0,0,1-6,4.34c-2.11.12-4.23,0-6.44,0Zm3.18,3.47V71.18c.84,0,1.6,0,2.36,0A3.89,3.89,0,0,0,23,68.77a7.62,7.62,0,0,0-.1-7,3.74,3.74,0,0,0-2.95-2.15A13.89,13.89,0,0,0,16.78,59.64Z"/><path class="cls-1" d="M88.86,56.2a65.18,65.18,0,0,1,7,.11,4.88,4.88,0,0,1,4.34,3.91,6.39,6.39,0,0,1-2.8,7.56l2.76,6.87a24,24,0,0,1-3.49,0l-2.57-6.26a4.78,4.78,0,0,0-2.1-.06v6.29a19.49,19.49,0,0,1-3.15,0Zm3.2,8.47a15.09,15.09,0,0,0,3.38.11,2.55,2.55,0,0,0,1.79-2.53A2.36,2.36,0,0,0,95.5,59.7a15.82,15.82,0,0,0-3.44,0Z"/><path class="cls-1" d="M57.15,56.12l9.23,10.2.23-.07v-10a19,19,0,0,1,3.2,0V74.68l-.19.11Q65,69.63,60.33,64.48l-.26.13v10H56.94V56.2Z"/><path class="cls-1" d="M85.11,56.27a19.7,19.7,0,0,1,0,3.45H77.68v4c1.94.22,3.86,0,5.81.16v3.41H77.71V71.2h7.35a21.17,21.17,0,0,1,.15,3.45H74.46V56.27Z"/><path class="cls-1" d="M42.55,56.24H53.16a17.91,17.91,0,0,1,.07,3.45h-7.5V63.8h5.78a27.16,27.16,0,0,1,.11,3.51H45.74v3.9h7.42a26.28,26.28,0,0,1,.11,3.42H42.55Z"/><path class="cls-2" d="M119.06,60.82c-1.49.58-2.16.43-3-.81-2.48-3.63-7-3.47-9.51.44a7.69,7.69,0,0,0,.49,8.66,5.42,5.42,0,0,0,8.88-.06c.36-.49.63-1.07,1.33-1.35.6.12,1.45-.3,1.9.53s-.09,1.48-.51,2.12c-1.87,2.88-4.39,4.6-8,4.29A7.86,7.86,0,0,1,105.52,72a11.56,11.56,0,0,1-.41-14.73c4.23-5,11-3.87,14,2.05A1.37,1.37,0,0,1,119.06,60.82Z"/><path class="cls-1" d="M131.19,74.62h-3.3c0-1.28-.1-2.5,0-3.71a12.71,12.71,0,0,0-2-8.4c-1.16-1.79-2-3.79-3-5.7a.81.81,0,0,1-.12-.72,26.11,26.11,0,0,1,3.32,0l3.44,6.65,3.42-6.58a26.08,26.08,0,0,1,3.69-.08l-3.15,6a25.46,25.46,0,0,1-1.3,2.42,6.78,6.78,0,0,0-1,4.27C131.24,70.64,131.19,72.59,131.19,74.62Z"/><path class="cls-1" d="M8.91,74.68H5.78V56.16H8.91Z"/><path class="cls-1" d="M30.74,56.17h3.12V74.66H30.74Z"/><path class="cls-3" d="M122.08,80c.44-.06.53-.5.93-.46.64.52-.19.82-.21,1.25.52,2.16-.21,3-2.48,2.86-.37.6-.06.89.52,1a10.93,10.93,0,0,0,1.15.06,1.23,1.23,0,0,1,1.24,1,1.45,1.45,0,0,1-.78,1.64,2.21,2.21,0,0,1-3.2-1.3,2.21,2.21,0,0,1,.46-1c-.43-1.09-.43-1.13.17-2C119,80.81,120.4,79.21,122.08,80Zm-.81.62c-1.15.74-1.15,1.5,0,2.3a1,1,0,0,0,.86-1C122.12,81.27,122,80.77,121.27,80.58Zm1.26,5.19a2.19,2.19,0,0,0-2.5.11c.19.79.78.86,1.34.85S122.44,86.59,122.53,85.77Z"/><path class="cls-4" d="M101.06,85.17v-7.3c1.34-.18,2.62,0,3.76-.09a.57.57,0,0,1,.25.77c-1,.3-2,0-3.12.2a16.18,16.18,0,0,0-.07,2.34h2.24a.62.62,0,0,1,.27.76c-.76.31-1.58,0-2.43.21a13.9,13.9,0,0,0-.09,2.17c1.08.24,2.13,0,3.09.16a.49.49,0,0,1,0,.78Z"/><path class="cls-4" d="M64.77,85.11c-.43.08-.51-.23-.73-.29-1.2.65-2,.63-2.74-.07a3.39,3.39,0,0,1-.53-3.65c.51-1.11,1.3-1.41,3.07-1.17.22-.66-.05-1.36.14-2a.52.52,0,0,1,.79,0Zm-.91-4c-1.06-.56-1.66-.5-2.16.19A2.35,2.35,0,0,0,61.86,84c.58.53,1.15.45,2-.29A13.24,13.24,0,0,0,63.86,81.07Z"/><path class="cls-3" d="M47.69,79.91c.17-.71-.06-1.37.13-2,.21-.22.42-.22.73-.05v7.2c-.34.2-.41-.16-.6-.22-1.28.61-2.09.56-2.83-.18a3.34,3.34,0,0,1-.47-3.54C45.18,80,45.87,79.71,47.69,79.91Zm0,1.15c-1.09-.55-1.7-.47-2.17.23a2.28,2.28,0,0,0,.22,2.76,1.3,1.3,0,0,0,1.95-.22Z"/><path class="cls-3" d="M10.51,78.77a.67.67,0,0,1-.41.57c-2.28-1.37-3.94-.58-4,1.93a2.83,2.83,0,0,0,1.2,2.82c1,.62,1.92.15,2.74-.46.36.06.42.32.53.54a2.86,2.86,0,0,1-4.77-.29,4.63,4.63,0,0,1-.24-4.32C6.44,77.39,8.83,77,10.51,78.77Z"/><path class="cls-3" d="M69.75,82.72h-3c.12,1.7.72,2,2.75,1.26.48.46.14.73-.23,1a2.18,2.18,0,0,1-3.16-.86A3.4,3.4,0,0,1,66,81.3a2.1,2.1,0,0,1,2.32-1.49c.92.1,1.48.77,1.6,2A1.47,1.47,0,0,1,69.75,82.72ZM69,81.9c-.12-1-.29-1.22-.9-1.24-.82,0-1.21.47-1.42,1.32A13.59,13.59,0,0,0,69,81.9Z"/><path class="cls-3" d="M25.86,82.74H23c0,1.61.56,1.86,2.69,1.29.4.43.08.69-.24.92a2.15,2.15,0,0,1-3-.67,3.35,3.35,0,0,1-.17-3.19,2,2,0,0,1,2.34-1.27A1.85,1.85,0,0,1,26,81.67,1.65,1.65,0,0,1,25.86,82.74Zm-.62-.83c.05-.7-.21-1.16-.9-1.24s-1.22.41-1.45,1.29A14.08,14.08,0,0,0,25.24,81.91Z"/><path class="cls-4" d="M17.18,85.05V80c.44-.25.46.28.73.25,1.49-1,3.17-.39,3.23,1.77,0,1,0,2.06,0,3a.6.6,0,0,1-.79.07c-.38-1.38.41-3-.56-4.21a1.42,1.42,0,0,0-1.77.54V85C17.61,85.33,17.36,85.24,17.18,85.05Z"/><path class="cls-3" d="M115,82.68c-1,.13-2-.08-2.92.12.2,1.66,1,2,2.57,1.17.26.07.38.23.36.56a2.06,2.06,0,0,1-2.23.69,2.29,2.29,0,0,1-1.59-1.82,3.75,3.75,0,0,1,0-1.6,2.21,2.21,0,0,1,2.62-2C114.82,80,115.34,81.2,115,82.68Zm-1-1.86c-1.27-.28-1.64,0-1.82,1.17a10.24,10.24,0,0,0,2.15-.11A1,1,0,0,0,114,80.82Z"/><path class="cls-3" d="M54.3,82.55c0,1.73-1,2.86-2.41,2.76s-2.22-1.33-2.1-3.06a2.29,2.29,0,0,1,2.46-2.44C53.52,79.91,54.3,81,54.3,82.55Zm-.81,0a2.12,2.12,0,0,0-.25-1.12,1.28,1.28,0,0,0-1.53-.7c-.68.17-1.08.83-1.08,1.81,0,.8.18,1.55,1,1.85a1.23,1.23,0,0,0,1.55-.65A2,2,0,0,0,53.49,82.53Z"/><path class="cls-3" d="M87.34,82.43A3,3,0,0,1,87.72,81a2,2,0,0,1,2-1.15C91,79.83,92,81,91.92,82.6s-1,2.74-2.35,2.7S87.31,84.09,87.34,82.43Zm3.7.07c0-.11,0-.23,0-.34-.11-1-.73-1.59-1.54-1.5s-1.38,1-1.27,2.15.75,1.72,1.58,1.62a1.35,1.35,0,0,0,1-.71A2.16,2.16,0,0,0,91,82.5Z"/><path class="cls-4" d="M126.92,81a.6.6,0,0,1-.23-.68A2.24,2.24,0,0,1,129,80c.84.37.86,1.21.85,2a22.87,22.87,0,0,1,0,3.11c-.46.23-.48-.27-.77-.25a1.64,1.64,0,0,1-2.18.18,1.6,1.6,0,0,1-.52-2c.43-1.25,1.5-1.09,2.51-1a1.08,1.08,0,0,0-.19-1.2C128.07,80.49,127.5,80.82,126.92,81Zm.62,3.44c1.28,0,1.48-.24,1.36-1.45a2,2,0,0,0-1.54,0A.85.85,0,0,0,127.54,84.39Z"/><path class="cls-3" d="M16,82.56a3.13,3.13,0,0,1-.55,1.83A2.08,2.08,0,0,1,12,84.33a3.53,3.53,0,0,1,0-3.59,2.09,2.09,0,0,1,3.49,0A3.27,3.27,0,0,1,16,82.56Zm-.86,0c0-1.09-.56-1.92-1.35-1.94s-1.44.72-1.46,1.84.54,1.9,1.35,2a1.23,1.23,0,0,0,1.14-.64A2.54,2.54,0,0,0,15.14,82.59Z"/><path class="cls-4" d="M71.14,80.26a2.45,2.45,0,0,1,1.55-.46A1.38,1.38,0,0,1,74.24,81a30.13,30.13,0,0,1,.1,4c-.5.26-.54-.2-.8-.25a1.66,1.66,0,0,1-2.29.15,1.6,1.6,0,0,1-.45-1.88c.43-1.27,1.5-1.08,2.52-1.08a1,1,0,0,0-.11-1.12c-.67-.38-1.24,0-1.75.08C71.12,80.8,71.07,80.6,71.14,80.26Zm.55,3.9a1,1,0,0,0,1.37,0,1,1,0,0,0,.24-1.31c-.58,0-1.15-.24-1.63.23A1,1,0,0,0,71.69,84.16Z"/><path class="cls-3" d="M40.3,84.88c-.34.36-.55.35-.82.22a1.56,1.56,0,0,1-.11-.4c0-1.57,0-3.13,0-4.65.43-.32.5.12.72.21s.33-.14.49-.22a1.77,1.77,0,0,1,2.73,1.42,31.09,31.09,0,0,1,0,3.61.54.54,0,0,1-.74,0c-.14-.89,0-1.85-.07-2.8,0-.58-.07-1.19-.72-1.44s-1,.07-1.5.57Z"/><path class="cls-3" d="M110.25,85a.5.5,0,0,1-.73.11c-.44-1.35.39-3-.56-4.2a1.35,1.35,0,0,0-1.81.59v3.36c-.24.43-.48.34-.8.33V80c.38-.18.38.18.53.31s.48-.22.72-.32a1.77,1.77,0,0,1,2.58,1.43A18,18,0,0,1,110.25,85Z"/><path class="cls-3" d="M35.06,80.89c-.17-.27-.25-.49-.09-.63A2.16,2.16,0,0,1,37,79.89a1.29,1.29,0,0,1,1,1.3c0,1.3,0,2.59,0,3.84-.41.29-.45-.24-.81-.2a1.55,1.55,0,0,1-2.12.14,1.65,1.65,0,0,1-.45-2c.43-1.19,1.47-1,2.48-1a1.25,1.25,0,0,0-.21-1.17C36.25,80.43,35.67,80.93,35.06,80.89Zm.54,2a.83.83,0,0,0-.05,1.28.81.81,0,0,0,1.05.11,1,1,0,0,0,.48-1.43A2.27,2.27,0,0,0,35.6,82.94Z"/><path class="cls-3" d="M93.07,80c.38-.13.45.14.57.3s.35-.11.52-.19a1.78,1.78,0,0,1,2.78,1.45A33.74,33.74,0,0,1,97,85a.52.52,0,0,1-.71.1c-.4-1.39.38-3-.54-4.21a1.39,1.39,0,0,0-1.84.59c-.13,1.19.09,2.42-.11,3.59a.52.52,0,0,1-.69,0Z"/><path class="cls-3" d="M75.58,84.81a.52.52,0,0,1,.16-.62c.71,0,1.6.82,2.17-.29,0-.66-.48-.84-1-1a2.49,2.49,0,0,1-1.23-.81,1.46,1.46,0,0,1,1-2.25,2.46,2.46,0,0,1,1.65.36.47.47,0,0,1-.08.64c-.34.2-.64-.11-1-.13a1,1,0,0,0-.94.27c-.22.47.07.71.42.92a2.38,2.38,0,0,0,.32.12c1.45.64,1.95,1.41,1.54,2.37s-1.55,1.16-2.92.6A1.65,1.65,0,0,1,75.58,84.81Z"/><path class="cls-3" d="M86,84c.37.42.2.67-.11.92a2,2,0,0,1-2.95-.5,3.38,3.38,0,0,1-.35-3c.54-1.81,2.25-2.23,3.68-1,.06.32-.11.49-.43.63-.69-.37-1.42-.77-2.12.06a2.38,2.38,0,0,0,0,2.7C84.16,84.52,84.56,84.54,86,84Z"/><path class="cls-3" d="M30.74,80.59a.51.51,0,0,1-.38.5c-1.28-.53-1.76-.5-2.26.16a2.46,2.46,0,0,0,0,2.61c.49.67.93.7,2.26.15.47.32.31.61,0,.89a2.06,2.06,0,0,1-3-.56,3.67,3.67,0,0,1,.09-3.72A2,2,0,0,1,30.74,80.59Z"/><path class="cls-3" d="M32.87,84.2c.33.42.78,0,1.05.44,0,.71-.64.62-1.07.6a1,1,0,0,1-.88-1c0-1.07,0-2.14,0-3.06-.08-.5-.61-.39-.62-.9.3-.36.77-.73.74-1.34.92-.22.62.5.77.81s.65,0,.86.35c.3.84-.63.5-.84.8Z"/><path class="cls-4" d="M117,85c-.26.23-.47.17-.74,0V80c.43-.31.46.19.76.25.45-.21.91-.62,1.5-.42.24.23.14.45,0,.69-.37.29-1,.08-1.38.78C116.87,82.43,117.23,83.78,117,85Z"/><path class="cls-4" d="M58.43,77.91a.53.53,0,0,1,.67,0v7c-.16.26-.38.23-.67.11Z"/><path class="cls-4" d="M125.16,85c-.21.24-.43.23-.74.09V80a.55.55,0,0,1,.74,0Z"/><path class="cls-2" d="M121.32,62.81a1.75,1.75,0,0,0-1.22-.21c-1.62,0-3.24,0-4.85,0a5.84,5.84,0,0,0-2.28.15,1.75,1.75,0,0,0-1.09,2.11,1.69,1.69,0,0,0,1.85,1.4c2.19,0,4.39,0,6.59,0A1.78,1.78,0,0,0,122.2,65,1.8,1.8,0,0,0,121.32,62.81Z"/><path class="cls-4" d="M125.57,78.09c-.51.3-.82.89-1.6.84,0-.85.81-1,1.07-1.43C125.5,77.41,125.55,77.65,125.57,78.09Z"/><path class="cls-5" d="M121.27,80.58c.74.19.85.69.83,1.27a1,1,0,0,1-.86,1C120.12,82.08,120.12,81.32,121.27,80.58Z"/><path class="cls-5" d="M47.72,81.06v2.77a1.3,1.3,0,0,1-1.95.22,2.28,2.28,0,0,1-.22-2.76C46,80.59,46.63,80.51,47.72,81.06Z"/><path class="cls-5" d="M69,81.9a13.59,13.59,0,0,1-2.32.08c.21-.85.6-1.35,1.42-1.32C68.75,80.68,68.92,80.94,69,81.9Z"/><path class="cls-5" d="M25.24,81.91a14.08,14.08,0,0,1-2.35,0c.23-.88.62-1.38,1.45-1.29S25.29,81.21,25.24,81.91Z"/><path class="cls-5" d="M53.49,82.53a2,2,0,0,1-.28,1.19,1.23,1.23,0,0,1-1.55.65c-.85-.3-1-1.05-1-1.85,0-1,.4-1.64,1.08-1.81a1.28,1.28,0,0,1,1.53.7A2.12,2.12,0,0,1,53.49,82.53Z"/><path class="cls-5" d="M91,82.5a2.16,2.16,0,0,1-.26,1.22,1.35,1.35,0,0,1-1,.71c-.83.1-1.46-.55-1.58-1.62s.43-2,1.27-2.15,1.43.51,1.54,1.5C91,82.27,91,82.39,91,82.5Z"/><path class="cls-5" d="M71.69,84.16a1,1,0,0,1,0-1.06c.48-.47,1-.27,1.63-.23a1,1,0,0,1-.24,1.31A1,1,0,0,1,71.69,84.16Z"/><path class="cls-5" d="M35.6,82.94a2.27,2.27,0,0,1,1.48,0,1,1,0,0,1-.48,1.43.81.81,0,0,1-1.05-.11A.83.83,0,0,1,35.6,82.94Z"/></svg>