<svg id="Capa_1" data-name="Capa 1" xmlns="http://www.w3.org/2000/svg" viewBox="0 0 141.73 141.73"><defs><style>.cls-1{fill:#222249;}.cls-2{fill:#313363;}.cls-3{fill:#e52723;}.cls-4{fill:#f6e828;}</style></defs><title>Recurso 2</title><path class="cls-1" d="M116.46,79c.27,1.35.52,2.68.81,4a.46.46,0,0,1-.36.63,15.67,15.67,0,0,1-4.23.8,40.91,40.91,0,0,1-4.29,0,13.82,13.82,0,0,1-4.61-1.22,11,11,0,0,1-5-4.24,12,12,0,0,1-1.23-2.67,18.78,18.78,0,0,1-.79-3.55,13.67,13.67,0,0,1,.09-3.13,21.05,21.05,0,0,1,.67-3.23,11.71,11.71,0,0,1,3.06-5.09,13.28,13.28,0,0,1,6.77-3.57,15.92,15.92,0,0,1,6-.3,15.18,15.18,0,0,1,4.14,1l.07.06L116.48,63a12.81,12.81,0,0,0-5.12-.94,8.49,8.49,0,0,0-5.73,2,7.38,7.38,0,0,0-2.29,3.67,10.57,10.57,0,0,0,.88,8.43,6.86,6.86,0,0,0,4.64,3.29,14.07,14.07,0,0,0,3.16.32,13.61,13.61,0,0,0,4.09-.7A3.59,3.59,0,0,1,116.46,79Z"/><path class="cls-1" d="M127.58,84.12h-5.8V57.81h16v4.63l-.47,0h-9c-.71,0-.72,0-.72.7V68c0,.81,0,.83.86.83h8.69v4.62l-.39,0h-8.49c-.67,0-.67,0-.67.67q0,4.67,0,9.32Z"/><path class="cls-1" d="M93.07,57.82v4.64H83.71c-.81,0-.85,0-.85.85v4.84c0,.66,0,.68.69.68h8.3c.6,0,.59,0,.59.58v4.06h-9c-.63,0-.63,0-.63.64,0,3.13,0,6.25,0,9.38v.62H77.13V57.82Z"/><path class="cls-2" d="M53.34,70.89A24.65,24.65,0,0,1,30.83,95.46a24.07,24.07,0,0,1-19.38-6.87A23.85,23.85,0,0,1,4,70.6a24.69,24.69,0,0,1,49.37.29ZM45.16,53.71a24.84,24.84,0,0,0-5.85-4.12,23.83,23.83,0,0,0-7-2.21,23.07,23.07,0,0,0-6.84-.09,24.38,24.38,0,0,0-6.32,1.78,23.47,23.47,0,0,0-9.55,7.55,23,23,0,0,0-4.06,8.61A21.54,21.54,0,0,0,5,72.55c.15,1.39.41,2.77.63,4.16l-.21-.15-.1,0,.34,1.09.07,0,0-.4c.08.23.18.44.25.67A22.21,22.21,0,0,0,9.7,85.24a23.56,23.56,0,0,0,14,8.92,23,23,0,0,0,9.34.1,24.62,24.62,0,0,0,6.32-2.17A23.24,23.24,0,0,0,45.17,88,22.92,22.92,0,0,0,50,81.24a23.39,23.39,0,0,0,1.24-3,26.62,26.62,0,0,0,1.13-5.71,22.42,22.42,0,0,0-.61-7.25,21.47,21.47,0,0,0-3-7.13C47.91,57,47,55.81,46.08,54.62,46.17,54.16,45.76,53.76,45.16,53.71Zm-40.52,19,.06,0V69.07H4.64ZM26.91,46.83v.06h3.42v-.06Z"/><path class="cls-1" d="M64.52,50.21h1.2V92.32h-1.2Z"/><path class="cls-2" d="M50.78,95.47a2.32,2.32,0,0,1-2.38-2.28A2.26,2.26,0,0,1,50.79,91a2.21,2.21,0,0,1,2.35,2.19A2.24,2.24,0,0,1,50.78,95.47Zm-1.9-2.25c-.21,1.16,1.1,2,1.87,2a2.1,2.1,0,0,0,2-1.91,1.93,1.93,0,0,0-2-2.06A1.76,1.76,0,0,0,48.88,93.22Z"/><path class="cls-2" d="M4.64,72.71V69.07H4.7v3.62Z"/><ellipse class="cls-2" cx="28.62" cy="46.86" rx="2.42" ry="0.04"/><path class="cls-2" d="M46.08,54.62l-.92-.91C45.76,53.76,46.17,54.16,46.08,54.62Z"/><path class="cls-2" d="M5.58,76.71l.14.57,0,.4-.07,0-.34-1.09.1,0Z"/><path class="cls-3" d="M29.06,63.05c1.78,0,3.55,0,5.33,0a.6.6,0,0,1,.71.55q1.21,5,2.48,10.09c.09.35-.09.47-.32.6l-5.92,3.41c-.67.38-1.33.76-2,1.16a.54.54,0,0,1-.65,0q-3.9-2.3-7.85-4.54c-.36-.21-.46-.38-.34-.85.84-3.29,1.64-6.6,2.43-9.91A.57.57,0,0,1,23.6,63c1.82,0,3.64,0,5.46,0Z"/><path class="cls-3" d="M40.11,59.5h.37c1.51,0,1.53,0,2.43,1.16A17,17,0,0,1,46,67.16a17.45,17.45,0,0,1,.26,6.36,1,1,0,0,1-.56.78c-.7.4-1.39.82-2.06,1.26a.84.84,0,0,1-.9.09c-1.18-.51-2.37-1-3.56-1.49a.8.8,0,0,1-.53-.59q-1.25-5.13-2.55-10.25a1.09,1.09,0,0,1,.2-1c.54-.74,1-1.49,1.53-2.25a.94.94,0,0,1,1-.54c.44,0,.89,0,1.33,0Z"/><path class="cls-3" d="M11.62,71.37a16.52,16.52,0,0,1,1.86-8.1,14.81,14.81,0,0,1,2.38-3.48,1,1,0,0,1,.66-.29c1,0,2,0,3,0a1,1,0,0,1,.63.36c.58.8,1.11,1.63,1.67,2.44a1,1,0,0,1,.18.9c-.57,2.22-1.12,4.45-1.67,6.68-.29,1.21-.58,2.43-.9,3.63a1,1,0,0,1-.45.56c-1.23.54-2.48,1-3.73,1.56a.76.76,0,0,1-.79-.11,21.43,21.43,0,0,0-2-1.23,1.11,1.11,0,0,1-.68-1C11.71,72.66,11.67,72,11.62,71.37Z"/><path class="cls-3" d="M28.49,82.79c0,.78,0,1.57,0,2.36a.89.89,0,0,1-.38.82c-.72.55-1.41,1.14-2.13,1.69a.83.83,0,0,1-.59.14A17.61,17.61,0,0,1,15,81.21a1.86,1.86,0,0,1-.41-1.78,11.85,11.85,0,0,0,.29-2,.76.76,0,0,1,.56-.75c1.31-.52,2.61-1.06,3.91-1.62a.82.82,0,0,1,.79,0L26.84,79c.42.24.84.49,1.27.71a.66.66,0,0,1,.39.67C28.47,81.17,28.49,82,28.49,82.79Z"/><path class="cls-3" d="M29.56,82.79c0-.81,0-1.62,0-2.42a.65.65,0,0,1,.39-.67c2.67-1.53,5.34-3.07,8-4.58a.91.91,0,0,1,.67,0c1.35.53,2.68,1.1,4,1.63a.75.75,0,0,1,.5.68c.12.86.28,1.71.37,2.57a1.29,1.29,0,0,1-.2.77,16.55,16.55,0,0,1-7.68,6.12,27.28,27.28,0,0,1-3,.93.75.75,0,0,1-.59-.14c-.74-.55-1.47-1.13-2.17-1.73a1,1,0,0,1-.31-.65c0-.83,0-1.66,0-2.48Z"/><path class="cls-3" d="M29,62c-1.92,0-3.84,0-5.76,0a.75.75,0,0,1-.69-.37c-.64-.93-1.28-1.86-1.89-2.8a.93.93,0,0,1-.12-.67,18,18,0,0,1,.5-2,1.16,1.16,0,0,1,.51-.62,16.61,16.61,0,0,1,4.3-1.38,18.53,18.53,0,0,1,4.46-.23,16.34,16.34,0,0,1,6.17,1.6,1.12,1.12,0,0,1,.51.6c.15.37.14.8.31,1.16a2.21,2.21,0,0,1-.5,2.47c-.48.6-.88,1.26-1.3,1.9a.78.78,0,0,1-.75.38Z"/><path class="cls-4" d="M27.51,91.18c0,.4,0,.8,0,1.21s-.1.44-.42.41c-.64-.06-1.3,0-1.93-.16A23.16,23.16,0,0,1,20,91.19,22.15,22.15,0,0,1,7.51,77.74a20.59,20.59,0,0,1-1.07-5.55c0-.7,0-.7.69-.71l2.05,0c.4,0,.6.15.63.61A18.13,18.13,0,0,0,14,82.68a18.4,18.4,0,0,0,8.83,6,30.8,30.8,0,0,0,4,.78c.67.12.68.08.68.77Z"/><path class="cls-3" d="M44.35,86.32c-.67-.73-1.27-1.4-1.9-2-.27-.27-.25-.46,0-.75a29.36,29.36,0,0,0,2.17-2.82,17.61,17.61,0,0,0,2.82-8.64c0-.38.11-.55.52-.54.78,0,1.57,0,2.36,0,.33,0,.45.11.43.47a21.52,21.52,0,0,1-5.56,13.42C44.93,85.7,44.67,86,44.35,86.32Z"/><path class="cls-2" d="M30.64,89.52a26.45,26.45,0,0,0,4.62-1.15A20.16,20.16,0,0,0,40.89,85c.3-.25.45-.31.72,0,.58.68,1.21,1.34,1.89,2.08a22,22,0,0,1-13,5.61,3,3,0,0,0-.65-.17c-.94,0-.94,0-.94-1V89.91h-.15v2.83c0-.95,0-1.91,0-2.86,0-.11.2-.28.33-.29a7.63,7.63,0,0,1,1,0c.07.08.15.22.22.21.45,0,.89-.1,1.34-.15v0Zm1.65,0v-.06H32v.06Z"/><path class="cls-2" d="M11.51,62.79,10.62,65l-3-1.21.6-1.39c.61.25.17.54.13.8.5.42.49.41.87-.12.06-.1.29-.09.51-.14-.26.86-.54.77.72,1.17l.43-.85L8.38,61.92a7.14,7.14,0,0,1,.55-1c.16-.2.46-.44.65-.41s.5.32.74.51c0,0,0,.14.08.23.68-.35,1.09.26,1.61.45a.87.87,0,0,1-.1.4.47.47,0,0,1-.38.14c-.21-.06-.38-.23-.59-.3a2.71,2.71,0,0,0-.58-.07l-.06.18Zm-1.65-.92c.08-.48-.21-.56-.47-.63-.07,0-.18.12-.35.24Z"/><path class="cls-2" d="M38.89,51.43,37.56,54.3a5.1,5.1,0,0,0-.5-.19c-.31-.08-.37-.26-.29-.54s.21-.78.29-1.17a4,4,0,0,0,0-.5l-.14,0c-.21.48-.42,1-.66,1.43-.07.14-.28.33-.39.3-.29-.06-.24-.29-.13-.51.39-.83.78-1.67,1.16-2.5a.63.63,0,0,1,.14,0c.77.41.76.41.55,1.28a3.91,3.91,0,0,0,0,.49l.16,0,.61-1.22Z"/><path class="cls-2" d="M17.29,53.93l-.83-1.36c.21-.29.41-.35.64,0,.52.74,1,1.47,1.61,2.27l-.74.56c-.59-.35-.9-1-1.59-1.14.26.38.51.77.8,1.13s.2.52-.23.62l-1.81-2.56.26-.21c.55-.41.55-.41,1,.06l.74.7Z"/><path class="cls-2" d="M48,60.25l-1.72.91a2.18,2.18,0,0,0-.37.2,2.33,2.33,0,0,0-.31.38,1.88,1.88,0,0,0,.53,0,3,3,0,0,0,.54-.27c.32-.17.65-.32,1-.51.59-.37.69-.25.85.36-.74.39-1.49.82-2.27,1.18-.45.21-.84,0-1.07-.5s-.18-.91.3-1.18c.7-.4,1.42-.76,2.17-1.17Z"/><path class="cls-2" d="M40.41,56.22l2.09-2.46c.3.28.59.51.86.78a.68.68,0,0,1,0,1.06c-.32.41-.67.8-1,1.19a.81.81,0,0,1-1.13.14C41,56.72,40.71,56.47,40.41,56.22Zm.84.2c.2,0,.34.08.37,0,.46-.49.9-1,1.33-1.52,0,0,0-.18-.08-.24a.2.2,0,0,0-.21,0C42.2,55.25,41.75,55.8,41.25,56.42Z"/><path class="cls-2" d="M49.58,63.93c.1.33.21.61.28.89s.22.72-.12,1a.79.79,0,0,1-1.1,0c-.15.17-.25.37-.41.45-.81.36-1.27.32-1.5-.59s-.22-.83.58-1.06Zm-1.33,1.42c-.16-.12-.24-.24-.29-.22a4.79,4.79,0,0,0-.73.24.4.4,0,0,0,0,.2,1.08,1.08,0,0,0,.48.11A2.76,2.76,0,0,0,48.25,65.35Zm1.1-.68-.77.41c.09.08.22.25.26.23a2.59,2.59,0,0,0,.61-.38S49.39,64.76,49.35,64.67Z"/><path class="cls-2" d="M10,67c-.92-.27-1.78-.55-2.66-.76-.4-.09-.41-.28-.32-.6.33-1.19.49-1.29,1.69-1,.33.09.66.18,1,.29a.78.78,0,0,1,.61,1A11.17,11.17,0,0,1,10,67Zm-.24-.87.1-.2a2,2,0,0,0-.45-.28A15.07,15.07,0,0,0,8,65.28c-.09,0-.21.11-.32.17.06.07.1.19.17.2Z"/><path class="cls-2" d="M31.18,49.05l1,.15c.72.14,1,.73.51,1.28a.53.53,0,0,0-.11.66.88.88,0,0,1-1,1.21c-1-.1-1-.1-.86-1.07C30.92,50.55,31.05,49.82,31.18,49.05Zm.92,2.24-.35-.4a6.52,6.52,0,0,0-.29.73c0,.08.1.2.16.3ZM32.32,50,32,49.58a3.38,3.38,0,0,0-.27.58c0,.08.11.2.17.3Z"/><path class="cls-2" d="M50.48,67.44c0,.48-.26.7-.67.79-.56.13-1.14.23-1.71.33a.83.83,0,0,1-1-.71c-.13-.55.05-1,.53-1.1a17.06,17.06,0,0,1,1.89-.37C50.14,66.3,50.49,66.74,50.48,67.44Zm-2.58.43c.66-.13,1.24-.23,1.81-.37.1,0,.18-.16.27-.24-.13-.07-.26-.2-.37-.18-.58.09-1.15.21-1.71.35-.1,0-.17.18-.25.27Z"/><path class="cls-2" d="M27.19,51.43a.79.79,0,0,1-.86.9c-.62,0-.93-.24-1-.87-.06-.47-.13-1-.19-1.43a.81.81,0,0,1,.79-1c.7-.08,1,.14,1.11.79S27.14,50.82,27.19,51.43Zm-1.35-1.64c.09.66.15,1.18.24,1.69,0,.11.14.2.22.3.07-.12.21-.24.21-.35q-.07-.78-.21-1.56a1.62,1.62,0,0,0-.24-.42Z"/><path class="cls-2" d="M22.1,53.23c-.1-.09-.41-.23-.51-.46A12.17,12.17,0,0,1,21,51c-.15-.58.09-.89.75-1.08s.85,0,1,.6.33.94.47,1.42C23.47,52.69,23,53.24,22.1,53.23Zm-.16-2.93c-.18.15-.24.18-.24.19.19.7.37,1.4.57,2.09a.24.24,0,0,0,.2.09c.07-.05.16-.16.15-.22C22.41,51.76,22.19,51.07,21.94,50.3Z"/><path class="cls-2" d="M14.7,54.09a2.61,2.61,0,0,1,.56.34,14.73,14.73,0,0,1,1.09,1.28A.85.85,0,0,1,16.11,57a.81.81,0,0,1-1.26-.13c-.33-.37-.66-.75-1-1.14s-.43-.59-.2-1A1,1,0,0,1,14.7,54.09Zm-.49.78c0,.07,0,.12,0,.15.43.5.86,1,1.3,1.49,0,.05.17,0,.26,0s.06-.26,0-.32c-.4-.5-.82-1-1.25-1.46a.33.33,0,0,0-.26,0C14.26,54.72,14.24,54.83,14.21,54.87Z"/><path class="cls-2" d="M12.89,57l-.43.54-.14,0a2.58,2.58,0,0,0-.54-.22c-.22.31.14.4.29.53a13.93,13.93,0,0,0,1.13.9,1.74,1.74,0,0,0,.38.14l.11-.15-.56-.61.43-.51a1,1,0,0,1,.12,1.8.67.67,0,0,1-.79,0c-.5-.37-1-.73-1.47-1.14s-.4-.81,0-1.28a.75.75,0,0,1,1.19-.19A2.8,2.8,0,0,1,12.89,57Z"/><path class="cls-2" d="M35.49,53.35c-.43-.08-.79-.11-.58-.65,0-.09-.06-.24-.09-.37a2.28,2.28,0,0,0-.38.2c-.07.06-.08.22-.15.25a.8.8,0,0,1-.43.07.44.44,0,0,1-.06-.34c.38-.8.77-1.59,1.19-2.37.22-.41.53-.08.8,0s.32.15.26.42C35.85,51.44,35.68,52.37,35.49,53.35Z"/><path class="cls-2" d="M20.18,51.78l-.68-.45a3.32,3.32,0,0,0,.13.7c.15.39.34.77.53,1.15a2.12,2.12,0,0,0,.27.34l.17-.07-.17-.82.56-.25c.54.85.4,1.32-.46,1.63a.69.69,0,0,1-.9-.27,18.22,18.22,0,0,1-.86-2c-.13-.38.11-.64.44-.82s.7-.35,1.07-.07S20.69,51.56,20.18,51.78Z"/><path class="cls-2" d="M13.22,59.91l-.36.51c-.35.11-.6-.53-.86-.07-.07.13.23.46.4.79l-.24.4-2.4-2.18c.63-1,.35-.89,1.35-.45C11.81,59.21,12.49,59.56,13.22,59.91Zm-2.41-.48-.08.08a5.91,5.91,0,0,0,.52.48c.08,0,.23,0,.35,0-.06-.08-.09-.2-.17-.25S11,59.54,10.81,59.43Z"/><path class="cls-2" d="M28.75,49.57l.14,1.1.17,0c.08-.41.16-.82.25-1.23.13-.6.17-.61.77-.56.25,0,.37.1.37.35,0,.87,0,1.73-.07,2.6,0,.09-.22.26-.29.24a.48.48,0,0,1-.29-.3,13.16,13.16,0,0,0-.13-1.87l-.38,2-.66.09-.12-.9c.07-.12.21-.23.21-.34,0-.4,0-.8,0-1.19Z"/><path class="cls-2" d="M37.77,54.4c.64-.72,1.28-1.39,1.87-2.1.34-.41.55-.06.81.06s.26.33.14.58c-.4.83-.78,1.66-1.18,2.51-.43-.14-.7-.3-.4-.77.06-.09,0-.27,0-.41-.13,0-.31,0-.38.14C38.32,54.71,38.1,54.82,37.77,54.4Zm1.37-.63.24.15.46-.82L39.71,53Z"/><path class="cls-2" d="M45.3,56.65c-.14,0-.36.06-.42,0-.36-.43-.62-.32-.89.14a1.34,1.34,0,0,1,.29.34,1,1,0,0,1,.06.39c-.13,0-.33,0-.39-.08-.28-.35-.47-.23-.74,0s-.45.5,0,.81c.07.05,0,.23.07.35-.13,0-.31,0-.39,0-.29-.27-.55-.57-.79-.83l2.16-2.35,1.1,1.08Z"/><path class="cls-2" d="M7.2,67.6c.69.14.69.14.86-.64.26,0,.46.08.35.43s-.1.47.19.46.68.33.9-.17a1.07,1.07,0,0,1,.36-.44,2,2,0,0,1-.07,1.31c0,.08-.27.14-.4.12-.9-.11-1.79-.25-2.79-.39l.21-1.46C7.2,66.93,7.2,66.93,7.2,67.6Z"/><path class="cls-2" d="M45.41,59.45c-.22.16-.47.32-.71.5-.51.38-.51.38-.89-.24l2.58-1.87.89,1.22c-.52.5-.56-.23-.87-.28-.69.15-.44.62-.29,1C45.67,60.08,45.69,59.56,45.41,59.45Z"/><path class="cls-3" d="M30.69,88.08H27.35l0-.12c.5-.41,1-.83,1.52-1.22a.45.45,0,0,1,.42,0c.51.38,1,.8,1.48,1.2Z"/><path class="cls-2" d="M8.28,69.61l1.36.09c.18.69.15.74-.53.68s-1.49-.14-2.23-.19c-.28,0-.4-.13-.35-.42s0-.48.08-.71a1.43,1.43,0,0,1,.23-.39c.06.13.19.26.18.37-.07.39.17.47.45.45a.54.54,0,0,0,.34-.22c.1-.14.16-.45.23-.45.37,0,.17.32.19.51Z"/><path class="cls-3" d="M13.48,78.86l-1.29-3.23.14-.1c.48.27,1,.53,1.43.82a.44.44,0,0,1,.17.35c-.08.71-.18,1.41-.28,2.12Z"/><path class="cls-2" d="M46.26,64.11,46,63.45l2.14-.87c.22-.08.43-.11.31-.44,0-.08.08-.21.13-.32.1.06.25.1.29.2a11.79,11.79,0,0,1,.48,1.16.31.31,0,0,1-.1.28c-.07,0-.27,0-.29-.08-.13-.37-.33-.22-.56-.12C47.71,63.55,47,63.81,46.26,64.11Z"/><path class="cls-3" d="M44.4,78.77c-.09-.66-.2-1.31-.26-2a.61.61,0,0,1,.22-.48,9.09,9.09,0,0,1,1.38-.76,12.68,12.68,0,0,1-1.2,3.23Z"/><path class="cls-2" d="M23.06,49.65c.68-.23.69-.23.82.36s.29,1.13.39,1.7c.06.35.17.45.51.35.13,0,.4,0,.43.12.1.31-.19.27-.37.32l-1.06.22Z"/><path class="cls-3" d="M40.69,58.49c-.58,0-1.15,0-1.73,0a.47.47,0,0,1-.35-.24c-.16-.55-.27-1.11-.41-1.67l.14-.12,2.43,1.86Z"/><path class="cls-2" d="M47.38,68.94l3.19-.26,0,.66-2.69.28a3.94,3.94,0,0,1,0,.6c0,.08-.12.22-.15.21s-.24-.11-.25-.18C47.45,69.83,47.42,69.42,47.38,68.94Z"/><path class="cls-3" d="M19.82,56.57c-.13.56-.25,1.12-.41,1.67a.47.47,0,0,1-.36.22c-.56,0-1.12,0-1.68,0l-.08-.18,2.37-1.82Z"/><path class="cls-2" d="M33.46,49.45c.75.14.73.14.56.76s-.37,1.44-.52,2.17c0,.28-.17.31-.41.26s-.36-.14-.29-.41C33,51.32,33.24,50.4,33.46,49.45Z"/><path class="cls-2" d="M15.26,57.63l-.55.5-2.09-2.32-.14.07.43-.49Z"/><path class="cls-2" d="M28.5,50.92l-.14-.57H28.2c0,.33,0,.66-.06,1s-.09.47-.13.7l-.17-2.92h-.08v2.94c-.06,0-.17-.09-.17-.13,0-1,0-2,0-3,1.17-.09,1.17-.09,1.17.66l0,.06Z"/><path class="cls-2" d="M28.72,92.74V89.91h.15v1.68c0,1,0,1,.94,1a3,3,0,0,1,.65.17Z"/><path class="cls-2" d="M27.76,52.06V49.12h.08L28,52Z"/><path class="cls-2" d="M28.5,50.92l.21-1.29c0,.39,0,.79,0,1.19,0,.11-.14.22-.21.34Z"/><path class="cls-2" d="M30.64,89.52l.88,0v0c-.45,0-.89.12-1.34.15-.07,0-.15-.13-.22-.21Z"/><path class="cls-2" d="M51.4,93.33l.43.89-.14.11a1.47,1.47,0,0,1-.32-.29c-.12-.16-.16-.37-.3-.5-.32-.31-.69-.16-.78.28,0,.16-.09.32-.14.48l-.19,0c0-.6,0-1.21,0-1.82,0-.11.25-.2.33-.27l.27,1.06c.22-.1.52-.15.64-.32s-.06-.42-.12-.68a.41.41,0,0,1,.58.29C51.72,92.76,51.51,93,51.4,93.33Z"/><path class="cls-2" d="M32.29,89.51H32v-.06h.31Z"/></svg>