<svg id="Capa_1" data-name="Capa 1" xmlns="http://www.w3.org/2000/svg" viewBox="0 0 141.73 141.73"><defs><style>.cls-1{isolation:isolate;}.cls-2{fill:#1a4071;}.cls-3{fill:#215596;}.cls-4{fill:#1a4173;}.cls-5{fill:#f49c2c;}.cls-6{fill:#f0b32b;}.cls-7{fill:#fabf28;}.cls-8{fill:#3c539e;}.cls-9{fill:#3f6fb3;}.cls-10{fill:#3d54a1;}.cls-11{fill:#289898;}.cls-12{fill:#29b5b4;}.cls-13{fill:#20af9d;}.cls-14{fill:#476cab;}.cls-15{fill:#db9b40;}</style></defs><title>Recurso 16</title><g class="cls-1"><polygon class="cls-2" points="59.67 66.68 47.37 49.28 58.7 33.26 71 50.66 59.67 66.68"/><polygon class="cls-3" points="71 50.66 58.7 33.26 78.5 33.26 90.8 50.66 71 50.66"/><polygon class="cls-4" points="90.8 50.66 79.48 66.68 59.67 66.68 71 50.66 90.8 50.66"/></g><g class="cls-1"><polygon class="cls-5" points="36.04 66.68 23.74 49.28 35.06 33.26 47.37 50.66 36.04 66.68"/><polygon class="cls-6" points="47.37 50.66 35.06 33.26 54.87 33.26 67.17 50.66 47.37 50.66"/><polygon class="cls-7" points="67.17 50.66 55.84 66.68 36.04 66.68 47.37 50.66 67.17 50.66"/></g><g class="cls-1"><polygon class="cls-8" points="72.78 48.03 60.47 30.63 71.8 14.61 84.11 32.01 72.78 48.03"/><polygon class="cls-9" points="84.11 32.01 71.8 14.61 91.6 14.61 103.91 32.01 84.11 32.01"/><polygon class="cls-10" points="103.91 32.01 92.58 48.03 72.78 48.03 84.11 32.01 103.91 32.01"/></g><g class="cls-1"><polygon class="cls-8" points="49.15 48.03 36.84 30.63 48.17 14.61 60.47 32.01 49.15 48.03"/><polygon class="cls-9" points="60.47 32.01 48.17 14.61 67.97 14.61 80.28 32.01 60.47 32.01"/><polygon class="cls-10" points="80.28 32.01 68.95 48.03 49.15 48.03 60.47 32.01 80.28 32.01"/></g><g class="cls-1"><polygon class="cls-5" points="73.76 87.65 61.45 70.24 72.78 54.22 85.09 71.63 73.76 87.65"/><polygon class="cls-6" points="85.09 71.63 72.78 54.22 92.59 54.22 104.89 71.63 85.09 71.63"/><polygon class="cls-7" points="104.89 71.63 93.56 87.65 73.76 87.65 85.09 71.63 104.89 71.63"/></g><g class="cls-1"><polygon class="cls-11" points="50.13 87.65 37.82 70.24 49.15 54.22 61.45 71.63 50.13 87.65"/><polygon class="cls-12" points="61.45 71.63 49.15 54.22 68.95 54.22 81.26 71.63 61.45 71.63"/><polygon class="cls-13" points="81.26 71.63 69.93 87.65 50.13 87.65 61.45 71.63 81.26 71.63"/></g><g class="cls-1"><polygon class="cls-8" points="86.87 68.99 74.56 51.59 85.89 35.57 98.19 52.97 86.87 68.99"/><polygon class="cls-9" points="98.19 52.97 85.89 35.57 105.69 35.57 118 52.97 98.19 52.97"/><polygon class="cls-10" points="118 52.97 106.67 68.99 86.87 68.99 98.19 52.97 118 52.97"/></g><g class="cls-1"><polygon class="cls-11" points="63.23 68.99 50.93 51.59 62.26 35.57 74.56 52.97 63.23 68.99"/><polygon class="cls-12" points="74.56 52.97 62.26 35.57 82.06 35.57 94.36 52.97 74.56 52.97"/><polygon class="cls-13" points="94.36 52.97 83.04 68.99 63.23 68.99 74.56 52.97 94.36 52.97"/></g><path class="cls-14" d="M14.73,112.74H18a6.33,6.33,0,0,1,1.31.13,3.43,3.43,0,0,1,1.13.45,2.54,2.54,0,0,1,.82.81,2.41,2.41,0,0,1,.31,1.25,2.33,2.33,0,0,1-.51,1.55,2.82,2.82,0,0,1-1.38.88v0a2.84,2.84,0,0,1,1,.26,2.75,2.75,0,0,1,.77.57,2.42,2.42,0,0,1,.51.81,2.73,2.73,0,0,1,.18,1,2.67,2.67,0,0,1-.37,1.47,2.85,2.85,0,0,1-1,.92,4.69,4.69,0,0,1-1.35.48,8.44,8.44,0,0,1-1.5.13h-3.2ZM16,117.29h1.76a6.54,6.54,0,0,0,.89-.06,2.3,2.3,0,0,0,.78-.25,1.5,1.5,0,0,0,.56-.53,1.73,1.73,0,0,0,.21-.91,1.52,1.52,0,0,0-.2-.81,1.44,1.44,0,0,0-.52-.49,2.23,2.23,0,0,0-.74-.25,4.8,4.8,0,0,0-.85-.07H16Zm0,5h2.15a4.23,4.23,0,0,0,.94-.1,2.86,2.86,0,0,0,.83-.32,1.75,1.75,0,0,0,.6-.58,1.56,1.56,0,0,0,.23-.87,1.92,1.92,0,0,0-.22-.94,1.88,1.88,0,0,0-.58-.61,2.6,2.6,0,0,0-.82-.32,4.94,4.94,0,0,0-.95-.09H16Z"/><path class="cls-14" d="M30.27,121.8c0,.32,0,.62,0,.91s0,.54,0,.77H29.21c0-.19,0-.38,0-.58s0-.38,0-.59h0a2,2,0,0,1-.34.5,2.3,2.3,0,0,1-.53.44,3.25,3.25,0,0,1-.68.3,2.67,2.67,0,0,1-.82.11,3.1,3.1,0,0,1-1.2-.21,2.36,2.36,0,0,1-.85-.59,2.46,2.46,0,0,1-.49-.92,4,4,0,0,1-.16-1.17v-4.39h1.18v4.26a2.27,2.27,0,0,0,.4,1.41,1.43,1.43,0,0,0,1.23.52,2.19,2.19,0,0,0,1-.2,1.8,1.8,0,0,0,.69-.56A2.72,2.72,0,0,0,29,121a4.33,4.33,0,0,0,.13-1.11v-3.46h1.18Z"/><path class="cls-14" d="M32.67,121.62a2.92,2.92,0,0,0,.77.69,1.88,1.88,0,0,0,1.05.26,2.57,2.57,0,0,0,.55-.06,1.65,1.65,0,0,0,.51-.2,1.1,1.1,0,0,0,.37-.34.88.88,0,0,0,.13-.49.77.77,0,0,0-.13-.47,1,1,0,0,0-.34-.31,1.75,1.75,0,0,0-.48-.21l-.56-.13c-.34-.08-.66-.16-1-.25a3.45,3.45,0,0,1-.8-.35,1.63,1.63,0,0,1-.75-1.47,1.81,1.81,0,0,1,.23-.91,1.89,1.89,0,0,1,.61-.65,2.9,2.9,0,0,1,.85-.4,3.44,3.44,0,0,1,1-.13,3.29,3.29,0,0,1,1.4.3,2.15,2.15,0,0,1,1,1l-1,.65a1.81,1.81,0,0,0-.59-.61,1.65,1.65,0,0,0-.91-.24,2.12,2.12,0,0,0-.49.06,1.51,1.51,0,0,0-.45.18,1.22,1.22,0,0,0-.33.31.81.81,0,0,0-.12.44.51.51,0,0,0,.14.38,1.3,1.3,0,0,0,.39.28,2.8,2.8,0,0,0,.58.22,6.78,6.78,0,0,0,.68.15,7.71,7.71,0,0,1,.89.23,2.8,2.8,0,0,1,.75.39,1.77,1.77,0,0,1,.5.61,2,2,0,0,1,.18.89,2,2,0,0,1-.24,1,2.08,2.08,0,0,1-.65.7,3,3,0,0,1-.91.38,4.55,4.55,0,0,1-1,.12,3.93,3.93,0,0,1-1.57-.28,2.75,2.75,0,0,1-1.19-1Z"/><path class="cls-14" d="M38.82,113.6a.82.82,0,0,1,.25-.6.78.78,0,0,1,.61-.26.82.82,0,0,1,.62.26.86.86,0,0,1,.25.6.84.84,0,0,1-.25.62.89.89,0,0,1-1.24,0A.83.83,0,0,1,38.82,113.6Zm.27,2.78h1.18v7.1H39.09Z"/><path class="cls-14" d="M42.62,118.06c0-.32,0-.62,0-.91s0-.54,0-.77h1.13c0,.19,0,.38,0,.58s0,.39,0,.59h0a1.93,1.93,0,0,1,.34-.5,2.81,2.81,0,0,1,.52-.44,3.12,3.12,0,0,1,.69-.3,3,3,0,0,1,.82-.11,3.14,3.14,0,0,1,1.2.21,2.24,2.24,0,0,1,.84.59,2.34,2.34,0,0,1,.5.92,4.37,4.37,0,0,1,.16,1.18v4.38H47.63v-4.26a2.27,2.27,0,0,0-.39-1.41,1.45,1.45,0,0,0-1.23-.52,2.35,2.35,0,0,0-1,.2,1.85,1.85,0,0,0-.68.56,2.34,2.34,0,0,0-.39.86,4.33,4.33,0,0,0-.13,1.11v3.46H42.62Z"/><path class="cls-14" d="M57.41,122.19a3.62,3.62,0,0,1-1.4,1.15,4.57,4.57,0,0,1-1.76.32,3.59,3.59,0,0,1-1.5-.29,3.35,3.35,0,0,1-1.13-.8,3.53,3.53,0,0,1-.72-1.18,4.39,4.39,0,0,1-.25-1.46,3.9,3.9,0,0,1,.28-1.51,3.5,3.5,0,0,1,.75-1.18,3.41,3.41,0,0,1,1.16-.77,3.82,3.82,0,0,1,1.45-.27,3.56,3.56,0,0,1,1.37.25,2.84,2.84,0,0,1,1.07.73,3.12,3.12,0,0,1,.69,1.16,4.86,4.86,0,0,1,.24,1.58v.37H51.93a2.43,2.43,0,0,0,.22.88,2.46,2.46,0,0,0,.49.73,2.37,2.37,0,0,0,.71.49,2.26,2.26,0,0,0,.9.18,2.63,2.63,0,0,0,2.26-1.08Zm-1-2.9a2,2,0,0,0-.59-1.45,2.11,2.11,0,0,0-1.55-.55,2.2,2.2,0,0,0-2.32,2Z"/><path class="cls-14" d="M59.65,121.62a2.92,2.92,0,0,0,.77.69,1.9,1.9,0,0,0,1,.26,2.74,2.74,0,0,0,.56-.06,1.87,1.87,0,0,0,.51-.2,1.07,1.07,0,0,0,.36-.34.88.88,0,0,0,.14-.49.84.84,0,0,0-.13-.47,1.13,1.13,0,0,0-.34-.31,2,2,0,0,0-.49-.21l-.56-.13-1-.25a3.19,3.19,0,0,1-.79-.35,1.76,1.76,0,0,1-.55-.57,1.74,1.74,0,0,1-.21-.9,1.81,1.81,0,0,1,.23-.91,2,2,0,0,1,.61-.65,3,3,0,0,1,.85-.4,3.49,3.49,0,0,1,1-.13,3.26,3.26,0,0,1,1.4.3,2.15,2.15,0,0,1,1,1l-1,.65a1.94,1.94,0,0,0-.6-.61,1.65,1.65,0,0,0-.91-.24,2.12,2.12,0,0,0-.49.06,1.51,1.51,0,0,0-.45.18,1.05,1.05,0,0,0-.32.31.74.74,0,0,0-.13.44.56.56,0,0,0,.14.38,1.24,1.24,0,0,0,.4.28,2.71,2.71,0,0,0,.57.22c.22.06.45.11.68.15a7.71,7.71,0,0,1,.89.23,2.66,2.66,0,0,1,.75.39,1.66,1.66,0,0,1,.5.61,2,2,0,0,1,.18.89,2,2,0,0,1-.24,1,2,2,0,0,1-.65.7,3,3,0,0,1-.91.38,4.48,4.48,0,0,1-1,.12,4,4,0,0,1-1.57-.28,2.75,2.75,0,0,1-1.19-1Z"/><path class="cls-14" d="M66.12,121.62a2.89,2.89,0,0,0,.76.69,1.92,1.92,0,0,0,1.06.26,2.64,2.64,0,0,0,.55-.06,1.65,1.65,0,0,0,.51-.2,1.07,1.07,0,0,0,.36-.34.81.81,0,0,0,.14-.49.77.77,0,0,0-.13-.47,1,1,0,0,0-.34-.31,1.69,1.69,0,0,0-.49-.21l-.56-.13c-.33-.08-.65-.16-1-.25a3.27,3.27,0,0,1-.8-.35,1.76,1.76,0,0,1-.55-.57,1.84,1.84,0,0,1-.2-.9,1.71,1.71,0,0,1,.23-.91,2,2,0,0,1,.6-.65,3.16,3.16,0,0,1,.85-.4,3.54,3.54,0,0,1,1-.13,3.3,3.3,0,0,1,1.41.3,2.2,2.2,0,0,1,1,1l-1,.65a1.75,1.75,0,0,0-.6-.61,1.63,1.63,0,0,0-.9-.24,2.05,2.05,0,0,0-.49.06,1.51,1.51,0,0,0-.45.18,1.22,1.22,0,0,0-.33.31.81.81,0,0,0-.13.44.52.52,0,0,0,.15.38,1.09,1.09,0,0,0,.39.28,2.8,2.8,0,0,0,.58.22c.22.06.44.11.67.15a7.38,7.38,0,0,1,.9.23,2.73,2.73,0,0,1,.74.39,1.66,1.66,0,0,1,.5.61,2,2,0,0,1,.19.89,2,2,0,0,1-.25,1,2,2,0,0,1-.64.7,3,3,0,0,1-.91.38,4.55,4.55,0,0,1-1,.12,3.93,3.93,0,0,1-1.57-.28,2.75,2.75,0,0,1-1.19-1Z"/><path class="cls-15" d="M76.86,112.74h1.28v10.74H76.86Z"/><path class="cls-15" d="M80.59,118.06c0-.32,0-.62,0-.91s0-.54,0-.77h1.13c0,.19,0,.38,0,.58s0,.39,0,.59h0a1.93,1.93,0,0,1,.34-.5,2.81,2.81,0,0,1,.52-.44,3.25,3.25,0,0,1,.68-.3,3.12,3.12,0,0,1,.82-.11,3.16,3.16,0,0,1,1.21.21,2.24,2.24,0,0,1,.84.59,2.34,2.34,0,0,1,.5.92,4.37,4.37,0,0,1,.16,1.18v4.38H85.6v-4.26a2.27,2.27,0,0,0-.39-1.41,1.45,1.45,0,0,0-1.23-.52,2.35,2.35,0,0,0-1,.2,1.85,1.85,0,0,0-.68.56,2.34,2.34,0,0,0-.39.86,4.33,4.33,0,0,0-.13,1.11v3.46H80.59Z"/><path class="cls-15" d="M89.18,121.62a3.09,3.09,0,0,0,.77.69,1.9,1.9,0,0,0,1,.26,2.67,2.67,0,0,0,.56-.06,1.87,1.87,0,0,0,.51-.2,1.07,1.07,0,0,0,.36-.34.88.88,0,0,0,.14-.49.84.84,0,0,0-.13-.47,1.13,1.13,0,0,0-.34-.31,1.81,1.81,0,0,0-.49-.21l-.56-.13-1-.25a3.19,3.19,0,0,1-.79-.35,1.76,1.76,0,0,1-.55-.57,1.74,1.74,0,0,1-.2-.9,1.8,1.8,0,0,1,.22-.91,2,2,0,0,1,.61-.65,3,3,0,0,1,.85-.4,3.49,3.49,0,0,1,1-.13,3.23,3.23,0,0,1,1.4.3,2.11,2.11,0,0,1,1,1l-1,.65a1.75,1.75,0,0,0-.6-.61,1.63,1.63,0,0,0-.9-.24,2.14,2.14,0,0,0-.5.06,1.77,1.77,0,0,0-.45.18,1.05,1.05,0,0,0-.32.31.74.74,0,0,0-.13.44.56.56,0,0,0,.14.38,1.24,1.24,0,0,0,.4.28,2.94,2.94,0,0,0,.57.22c.22.06.45.11.68.15a8.46,8.46,0,0,1,.9.23,2.73,2.73,0,0,1,.74.39,1.66,1.66,0,0,1,.5.61,2,2,0,0,1,.18.89,2,2,0,0,1-.24,1,2,2,0,0,1-.65.7,2.87,2.87,0,0,1-.91.38,4.48,4.48,0,0,1-1,.12,4,4,0,0,1-1.57-.28,2.81,2.81,0,0,1-1.19-1Z"/><path class="cls-15" d="M95.33,113.6a.82.82,0,0,1,.25-.6.86.86,0,0,1,1.23,0,.82.82,0,0,1,.25.6.84.84,0,0,1-.87.87.81.81,0,0,1-.62-.25A.83.83,0,0,1,95.33,113.6Zm.27,2.78h1.19v7.1H95.6Z"/><path class="cls-15" d="M106.22,123.16a4,4,0,0,1-1,3,3.83,3.83,0,0,1-2.88,1,5.58,5.58,0,0,1-1.88-.3,4.38,4.38,0,0,1-1.61-1l.85-1a4.19,4.19,0,0,0,1.2.92,3.18,3.18,0,0,0,1.44.31,3.36,3.36,0,0,0,1.32-.23,2,2,0,0,0,.82-.64,2.36,2.36,0,0,0,.43-.92,4.7,4.7,0,0,0,.12-1.08v-.91h0a2.49,2.49,0,0,1-1.11,1,3.14,3.14,0,0,1-1.39.32,4.26,4.26,0,0,1-1.54-.27,3.57,3.57,0,0,1-1.19-.76,3.26,3.26,0,0,1-.78-1.15,3.87,3.87,0,0,1-.27-1.46,4.25,4.25,0,0,1,.27-1.56,3.23,3.23,0,0,1,.77-1.18,3.27,3.27,0,0,1,1.19-.73,4.24,4.24,0,0,1,1.55-.26,3.71,3.71,0,0,1,.73.08,3.12,3.12,0,0,1,.7.26,2.69,2.69,0,0,1,.62.44,2.47,2.47,0,0,1,.45.61h0v-1.21h1.18ZM100,119.93a2.6,2.6,0,0,0,.2,1,2.36,2.36,0,0,0,.54.8,2.46,2.46,0,0,0,.8.54,2.4,2.4,0,0,0,1,.2,2.59,2.59,0,0,0,1.07-.21,2.33,2.33,0,0,0,.8-.57,2.36,2.36,0,0,0,.49-.82,2.7,2.7,0,0,0,.17-1,2.93,2.93,0,0,0-.18-1.05,2.29,2.29,0,0,0-.52-.83,2.36,2.36,0,0,0-.8-.54,2.7,2.7,0,0,0-1-.19,2.63,2.63,0,0,0-1,.2,2.39,2.39,0,0,0-.79.57,2.56,2.56,0,0,0-.5.83A2.75,2.75,0,0,0,100,119.93Z"/><path class="cls-15" d="M108.41,112h1.18v5.36h0A1.85,1.85,0,0,1,110,117a2.23,2.23,0,0,1,.51-.37,2.85,2.85,0,0,1,.66-.28,2.76,2.76,0,0,1,.77-.1,3.16,3.16,0,0,1,1.21.21,2.24,2.24,0,0,1,.84.59,2.33,2.33,0,0,1,.49.92,4,4,0,0,1,.16,1.18v4.38h-1.18v-4.26a2.21,2.21,0,0,0-.4-1.41,1.43,1.43,0,0,0-1.23-.52,2.33,2.33,0,0,0-1,.2,1.7,1.7,0,0,0-.68.56,2.53,2.53,0,0,0-.4.86,4.83,4.83,0,0,0-.13,1.11v3.46h-1.18Z"/><path class="cls-15" d="M120.73,117.38h-2.09v3.55c0,.23,0,.45,0,.65a1.16,1.16,0,0,0,.13.51.76.76,0,0,0,.31.35,1.18,1.18,0,0,0,.61.13,2.46,2.46,0,0,0,.53-.06,2.28,2.28,0,0,0,.52-.18l0,1.08a2.63,2.63,0,0,1-.67.19,4.44,4.44,0,0,1-.71.06,2.57,2.57,0,0,1-1-.16,1.42,1.42,0,0,1-.6-.47,1.92,1.92,0,0,1-.28-.75,7.47,7.47,0,0,1-.07-1v-3.9h-1.54v-1h1.54v-2h1.19v2h2.09Z"/><path class="cls-15" d="M122.34,121.62a2.92,2.92,0,0,0,.77.69,1.9,1.9,0,0,0,1,.26,2.74,2.74,0,0,0,.56-.06,1.69,1.69,0,0,0,.5-.2,1,1,0,0,0,.37-.34.88.88,0,0,0,.14-.49.84.84,0,0,0-.13-.47,1.13,1.13,0,0,0-.34-.31,2,2,0,0,0-.49-.21l-.56-.13-1-.25a3.19,3.19,0,0,1-.79-.35,1.76,1.76,0,0,1-.55-.57,1.74,1.74,0,0,1-.21-.9,1.81,1.81,0,0,1,.23-.91,2,2,0,0,1,.61-.65,2.9,2.9,0,0,1,.85-.4,3.49,3.49,0,0,1,1-.13,3.26,3.26,0,0,1,1.4.3,2.15,2.15,0,0,1,1,1l-1,.65a1.94,1.94,0,0,0-.6-.61,1.65,1.65,0,0,0-.91-.24,2.12,2.12,0,0,0-.49.06,1.51,1.51,0,0,0-.45.18,1.05,1.05,0,0,0-.32.31.74.74,0,0,0-.13.44.56.56,0,0,0,.14.38,1.24,1.24,0,0,0,.4.28,2.71,2.71,0,0,0,.57.22c.22.06.45.11.68.15a7.71,7.71,0,0,1,.89.23,2.66,2.66,0,0,1,.75.39,1.66,1.66,0,0,1,.5.61,2,2,0,0,1,.18.89,2,2,0,0,1-.24,1,2,2,0,0,1-.65.7,3,3,0,0,1-.91.38,4.48,4.48,0,0,1-1,.12,4,4,0,0,1-1.57-.28,2.75,2.75,0,0,1-1.19-1Z"/></svg>