<svg id="Capa_1" data-name="Capa 1" xmlns="http://www.w3.org/2000/svg" viewBox="0 0 141.73 141.73"><defs><style>.cls-1{fill:#1c2f51;}.cls-2{fill:#17304c;}.cls-3{fill:#293759;}.cls-4{fill:#ffd800;}</style></defs><title>Recurso 5</title><path class="cls-1" d="M60.66,62.2V60.88c0-.26,0-.26.26-.26H66c.28,0,.24,0,.24.24V71.35c0,1.53,0,3.07,0,4.6a11.87,11.87,0,0,1-.49,3.3A5.84,5.84,0,0,1,63.9,82a9.11,9.11,0,0,1-3.73,1.92,12.45,12.45,0,0,1-4.3.33,10.21,10.21,0,0,1-3.67-1,7.48,7.48,0,0,1-3.43-3.15,6.28,6.28,0,0,1-.62-1.66s0-.11,0-.16a.41.41,0,0,1,.24,0h5.78a.32.32,0,0,1,.35.22,2.18,2.18,0,0,0,1.65,1.26,4.48,4.48,0,0,0,2.46-.17,3.05,3.05,0,0,0,1.93-2.27,4.34,4.34,0,0,0,.12-1V74.84s0-.09,0-.14l-.49.43a6.42,6.42,0,0,1-2.66,1.39,8.42,8.42,0,0,1-2.65.14A7.46,7.46,0,0,1,52,75.85,7.09,7.09,0,0,1,48.22,71a9.08,9.08,0,0,1,.83-6.62,7.64,7.64,0,0,1,4.83-3.9,7.07,7.07,0,0,1,4.34.12,6.09,6.09,0,0,1,2.27,1.5l.11.11Zm-3.34,9.85A3.62,3.62,0,0,0,61,68.52a3.6,3.6,0,1,0-7.19-.12A3.54,3.54,0,0,0,57.32,72.05Z"/><path class="cls-2" d="M36.21,60a10.46,10.46,0,0,1,5.53,1.41,7.63,7.63,0,0,1,3.75,4.82,8.06,8.06,0,0,1-2.24,8.2,8.8,8.8,0,0,1-4,2.13,12,12,0,0,1-3.82.37,9.87,9.87,0,0,1-4.94-1.54,8.43,8.43,0,0,1-3.14-10,8.21,8.21,0,0,1,4-4.24,9.94,9.94,0,0,1,3.7-1.08C35.47,60.05,35.89,60,36.21,60Zm3.69,8.43a3.6,3.6,0,1,0-3.61,3.62A3.59,3.59,0,0,0,39.9,68.46Z"/><path class="cls-2" d="M10.24,69.57a12.79,12.79,0,0,0,1.69,1.26,7.12,7.12,0,0,0,3,1.06,4.52,4.52,0,0,0,1.9-.14,2.14,2.14,0,0,0,1.57-1.64,1.82,1.82,0,0,0-.67-2,5.31,5.31,0,0,0-1.24-.67c-1-.4-2-.7-3-1.06A15.18,15.18,0,0,1,12,65.84a5.87,5.87,0,0,1-2.79-2.6,5.34,5.34,0,0,1-.54-1.74c0-.15-.08-.18-.22-.19A1.37,1.37,0,0,1,7.53,59a.27.27,0,0,0,.07-.28,8.27,8.27,0,0,1,0-2,8.58,8.58,0,0,1,7.26-7.63,8.53,8.53,0,0,1,9.58,6.45c.05.22.05.22.29.24a11.12,11.12,0,0,1,2,.36,2.33,2.33,0,0,1,.49.21.75.75,0,0,1,.29.34.44.44,0,0,1-.09.51,1.44,1.44,0,0,1-.48.28,7.48,7.48,0,0,1-1.41.36l-6,1.25-4.24.89L15,60a1.27,1.27,0,0,0,.42.7,3.74,3.74,0,0,0,1.07.68,18,18,0,0,0,1.92.63,14.87,14.87,0,0,1,3,1.23,7.28,7.28,0,0,1,2,1.63,5.77,5.77,0,0,1,1.27,3,8.76,8.76,0,0,1-.23,3.74,6.91,6.91,0,0,1-4.08,4.59,10.58,10.58,0,0,1-3.23.81,14.43,14.43,0,0,1-2.37,0,13.72,13.72,0,0,1-5-1.34,17.31,17.31,0,0,1-1.95-1.13c-.11-.08-.14-.13-.07-.26Q9,72,10.18,69.63ZM26.62,56.83a.3.3,0,0,0-.15-.09,9,9,0,0,0-1.25-.27c-.35,0-.7,0-1.06-.07s-.27,0-.32-.28a7.93,7.93,0,0,0-7.3-6.5A7.92,7.92,0,0,0,8.35,59c0,.13,0,.21-.14.28a.71.71,0,0,0,.56,1.29l1.92-.4,7-1.46,7-1.47A18.67,18.67,0,0,0,26.62,56.83Z"/><path class="cls-1" d="M122.11,71.56a7,7,0,0,1-3.72,4.55,9.24,9.24,0,0,1-2.68.76,13,13,0,0,1-2.41.09,9.45,9.45,0,0,1-4.89-1.52,7.53,7.53,0,0,1-3.29-5,10,10,0,0,1,.33-5,7.44,7.44,0,0,1,5.1-4.9,11,11,0,0,1,3.86-.43,9.36,9.36,0,0,1,3.26.72,7.21,7.21,0,0,1,4.16,4.66,10.87,10.87,0,0,1,.49,3.35c0,.17,0,.34,0,.51s0,.19-.18.17a1.2,1.2,0,0,0-.19,0h-11c-.34,0-.31,0-.29.32a4.67,4.67,0,0,0,.25,1.38,2.6,2.6,0,0,0,1.75,1.69,4.27,4.27,0,0,0,2.1.12,2.85,2.85,0,0,0,1.88-1.23c.08-.1.14-.18.29-.18h5.23Zm-11.33-5.37h6.33a3.21,3.21,0,0,0-2-2.36,3.64,3.64,0,0,0-2-.11A2.81,2.81,0,0,0,110.78,66.19Z"/><path class="cls-1" d="M91.56,71.22l.45.29a8.4,8.4,0,0,0,2.78,1.17,4.43,4.43,0,0,0,1.74.09,2.07,2.07,0,0,0,.78-.33,1.09,1.09,0,0,0,.34-1.34.81.81,0,0,0-.44-.43,4.65,4.65,0,0,0-1.09-.36c-.67-.16-1.35-.27-2-.47a7.82,7.82,0,0,1-1.63-.69,3.38,3.38,0,0,1-1.69-2.58,5.6,5.6,0,0,1,.53-3.41A5.3,5.3,0,0,1,94,60.73a9.06,9.06,0,0,1,3.49-.7,13.12,13.12,0,0,1,5.07.91l.08,0c.18.08.18.08.09.27l-1.5,2.9-.29.55a7.26,7.26,0,0,0-1.6-.62,4.85,4.85,0,0,0-2-.13,1.8,1.8,0,0,0-.78.32,1,1,0,0,0-.33,1.15.71.71,0,0,0,.31.35,3.09,3.09,0,0,0,.85.31c.74.19,1.5.31,2.24.53a6,6,0,0,1,2,1,4,4,0,0,1,1.56,2.79,5.44,5.44,0,0,1-1,3.91,5.78,5.78,0,0,1-2.5,1.92,9,9,0,0,1-2.85.71,12.13,12.13,0,0,1-7.26-1.64c-.2-.12-.21-.12-.1-.32l1.86-3.61Z"/><path class="cls-1" d="M129.87,63.63V76.22c0,.15-.05.17-.18.17h-5.22c-.18,0-.18,0-.18-.2v-25c0-.39-.07-.34.35-.35h5.06c.15,0,.19.06.17.19V63.63Z"/><path class="cls-1" d="M80.25,65.66A6.37,6.37,0,0,0,79,65.23a5.41,5.41,0,0,0-2.3,0,3.13,3.13,0,0,0-2.39,2.08A6.24,6.24,0,0,0,74,69.52v6.57c0,.34,0,.3-.29.3h-5c-.32,0-.28,0-.28-.28V60.92c0-.33,0-.3.29-.3h5.09c.2,0,.2,0,.2.2V63.1a.52.52,0,0,0,.2-.22,6.1,6.1,0,0,1,2.36-2.06,7.32,7.32,0,0,1,3.53-.52c.14,0,.19.07.19.21,0,.41,0,.82,0,1.23v3.92Z"/><path class="cls-1" d="M82.11,68.48c0-1.7,0-3.41,0-5.11a2.75,2.75,0,0,1,2.18-2.69,2.78,2.78,0,0,1,3.39,2.7V73.59a2.79,2.79,0,0,1-5.57.08C82.1,71.94,82.11,70.21,82.11,68.48Zm.69,0h0c0,1.68,0,3.37,0,5A2,2,0,0,0,84,75.43a2,2,0,0,0,2.23-.32A2.06,2.06,0,0,0,87,73.43v-10a2.09,2.09,0,0,0-3.11-1.81,2,2,0,0,0-1.08,1.83C82.79,65.15,82.8,66.83,82.8,68.51Z"/><path class="cls-1" d="M84.9,84.32a3.14,3.14,0,1,1,3.15-3.14A3.14,3.14,0,0,1,84.9,84.32Zm2.5-3.13a2.5,2.5,0,1,0-2.52,2.49A2.49,2.49,0,0,0,87.4,81.19Z"/><path class="cls-3" d="M33.86,91.29l1,1.36,1.3-3.08,1.26,3.08c-.3,0-.3,0-.39-.18s-.16-.42-.23-.63a.22.22,0,0,0-.25-.17c-.28,0-.55,0-.83,0s-.21,0-.25.17-.19.46-.27.69a.2.2,0,0,1-.21.16c-.44,0-.44,0-.71-.35l-.67-.9-.09-.13a.11.11,0,0,0-.12,0c-.06,0,0,.07,0,.11v1.12c0,.16-.05.2-.21.18a.1.1,0,0,1-.09-.11V90c0-.26,0-.26.26-.26a2.93,2.93,0,0,1,.66,0,.71.71,0,0,1,.61.76.68.68,0,0,1-.59.76A.9.9,0,0,0,33.86,91.29Zm-.48-.8a.21.21,0,0,0,0,.08c0,.14-.07.35,0,.42s.36,0,.55,0l.1,0a.35.35,0,0,0,.21-.22c.08-.39,0-.79-.52-.8s-.36,0-.37.35A1.2,1.2,0,0,0,33.38,90.49Zm3.29.94-.49-1.26-.52,1.26Z"/><path class="cls-3" d="M127,89.57l1.25,3.09c-.29,0-.29,0-.38-.2s-.17-.41-.24-.62a.21.21,0,0,0-.22-.17c-.3,0-.59,0-.88,0a.21.21,0,0,0-.23.17c-.08.24-.18.46-.27.7a.2.2,0,0,1-.21.15c-.44,0-.44,0-.71-.35l-.65-.88-.07-.11a.15.15,0,0,0-.16-.07c-.07,0,0,.09,0,.14v1.09c0,.16,0,.2-.21.18a.1.1,0,0,1-.09-.11.4.4,0,0,0,0-.11V89.92c0-.24,0-.23.24-.23a4,4,0,0,1,.69,0,.72.72,0,0,1,.61.75.69.69,0,0,1-.59.77l-.15,0c.15.24.33.45.49.66l.52.7Zm-2.82.93v.4c0,.08,0,.13.11.13s.29,0,.43,0a.4.4,0,0,0,.38-.43c0-.34-.07-.51-.32-.59a1.67,1.67,0,0,0-.5,0c-.09,0-.1,0-.1.12Zm3.29.93L127,90.17l-.51,1.26Z"/><path class="cls-3" d="M135.41,54.68a1.92,1.92,0,1,1,1.93-1.88A1.91,1.91,0,0,1,135.41,54.68Zm-1.59-1.92a1.6,1.6,0,1,0,3.19,0,1.6,1.6,0,1,0-3.19,0Z"/><path class="cls-3" d="M117.59,92.66c-.3,0-.3,0-.39-.2s-.16-.41-.23-.62a.21.21,0,0,0-.23-.17c-.3,0-.59,0-.88,0a.21.21,0,0,0-.22.15c-.08.24-.19.48-.28.72a.18.18,0,0,1-.21.15H113.9c-.2,0-.21,0-.21-.2,0-.87,0-1.74,0-2.61,0-.2,0-.19.2-.19s.09,0,.1.1v2.42c0,.2,0,.21.2.21h.67c.1,0,.16,0,.18.19l1.29-3Zm-1.28-2.49-.51,1.25h1Z"/><path class="cls-3" d="M40.32,92.6l1.29-3,1.24,3.07c-.27.08-.28.08-.37-.15s-.17-.43-.24-.65a.2.2,0,0,0-.23-.17q-.43,0-.87,0a.2.2,0,0,0-.22.15c-.09.24-.19.47-.28.72a.2.2,0,0,1-.21.15H39.16c-.14,0-.19,0-.19-.18,0-.89,0-1.77,0-2.66,0-.08,0-.16.11-.16s.17,0,.17.16v1.67c0,.24,0,.48,0,.72s.05.18.18.18.43,0,.64,0S40.28,92.43,40.32,92.6Zm1.76-1.16c-.16-.43-.31-.83-.5-1.26l-.5,1.23.11,0Z"/><path class="cls-3" d="M78.93,91.2h.48c.17,0,.18,0,.17.19a1.39,1.39,0,0,1-1.73,1.36,1.47,1.47,0,0,1-1.25-1.67,1.43,1.43,0,0,1,1.17-1.41,1.55,1.55,0,0,1,1.36.29.81.81,0,0,1,.18.19c.09.12.07.17,0,.25s-.08,0-.12,0l-.08-.1a1.22,1.22,0,0,0-2.08.43,1.49,1.49,0,0,0,0,.81,1.24,1.24,0,0,0,1.72.86,1,1,0,0,0,.6-.79c0-.15,0-.16-.15-.16h-.72c-.08,0-.15,0-.15-.12s.07-.13.16-.13Z"/><path class="cls-3" d="M46.92,91.45h-.86c-.08,0-.16,0-.16-.11s.07-.14.16-.14h1c.13,0,.16,0,.16.17a1.36,1.36,0,0,1-1.34,1.4,1.46,1.46,0,0,1-1.51-.86A1.72,1.72,0,0,1,44.71,90a1.68,1.68,0,0,1,2-.14,1.5,1.5,0,0,1,.27.29.11.11,0,0,1,0,.18c-.07.07-.13.1-.21,0a1.14,1.14,0,0,0-.94-.46A1.21,1.21,0,0,0,44.57,91a1.68,1.68,0,0,0,0,.63,1.23,1.23,0,0,0,1.71.79A1,1,0,0,0,46.92,91.45Z"/><path class="cls-3" d="M97.3,91.45h-.87c-.09,0-.16,0-.16-.12s.07-.13.16-.13h1c.11,0,.14,0,.14.16a1.36,1.36,0,0,1-1.33,1.41A1.48,1.48,0,0,1,94.79,92,1.74,1.74,0,0,1,95,90.09a1.65,1.65,0,0,1,2-.2,1.07,1.07,0,0,1,.26.26c.08.12.06.18-.06.26a.07.07,0,0,1-.11,0l-.09-.1A1.23,1.23,0,0,0,95,91a1.5,1.5,0,0,0,0,.63,1.24,1.24,0,0,0,1.76.74A1,1,0,0,0,97.3,91.45Z"/><path class="cls-3" d="M81.61,89.63a1.57,1.57,0,0,1,1.6,1.57,1.6,1.6,0,0,1-1.61,1.57,1.57,1.57,0,1,1,0-3.14Zm0,2.88a1.31,1.31,0,0,0,0-2.62,1.31,1.31,0,0,0,0,2.62Z"/><path class="cls-3" d="M11,89.63a1.57,1.57,0,0,1,1.6,1.57A1.61,1.61,0,1,1,11,89.63Zm0,.26a1.31,1.31,0,1,0,1.29,1.33A1.29,1.29,0,0,0,11,89.89Z"/><path class="cls-3" d="M56.56,89.63a1.55,1.55,0,0,1,1.6,1.57,1.58,1.58,0,0,1-1.6,1.57A1.6,1.6,0,0,1,55,91.2,1.58,1.58,0,0,1,56.56,89.63Zm0,.26a1.31,1.31,0,1,0,1.28,1.31A1.3,1.3,0,0,0,56.58,89.89Z"/><path class="cls-3" d="M121.68,89.63a1.56,1.56,0,0,1,1.6,1.57,1.6,1.6,0,1,1-1.6-1.57Zm-1.29,1.57a1.28,1.28,0,0,0,1.28,1.31,1.31,1.31,0,1,0,0-2.62A1.28,1.28,0,0,0,120.39,91.2Z"/><path class="cls-3" d="M58.8,89.62l2,2.37c.08-.07,0-.15,0-.21V89.86c0-.12,0-.18.16-.17s.11,0,.11.11v2.8s0,.08,0,.18l-2-2.42c-.08.07,0,.14,0,.2q0,1,0,2c0,.1,0,.19-.15.18s-.13,0-.13-.13c0-1,0-2,0-2.92Z"/><path class="cls-3" d="M104.28,92.68a.81.81,0,0,1,0-.15V89.9c0-.2,0-.21.2-.21a8.53,8.53,0,0,1,1,0,1.16,1.16,0,0,1,1,.87,1.9,1.9,0,0,1,0,1.18,1.16,1.16,0,0,1-1,.87A6.51,6.51,0,0,1,104.28,92.68Zm.28-1.51v1.12c0,.1,0,.16.15.16s.47,0,.71,0a.85.85,0,0,0,.75-.59,1.7,1.7,0,0,0,0-1.29.91.91,0,0,0-.82-.59h-.63c-.14,0-.16.06-.16.17C104.57,90.47,104.56,90.82,104.56,91.17Z"/><path class="cls-3" d="M119.12,91.09a.77.77,0,0,1,.49,1,.74.74,0,0,1-.65.58,7.23,7.23,0,0,1-.93,0c-.11,0-.13-.07-.13-.16s0-.46,0-.69V90c0-.33,0-.29.3-.29a4.56,4.56,0,0,1,.64,0,.74.74,0,0,1,.64.86A.65.65,0,0,1,119.12,91.09Zm-.92.75v.48c0,.06,0,.13.1.13a2.57,2.57,0,0,0,.68,0,.55.55,0,0,0,.35-.61.48.48,0,0,0-.45-.5c-.17,0-.35,0-.52,0s-.17,0-.16.15S118.2,91.7,118.2,91.84Zm0-1.38h0v.46c0,.06,0,.1.09.1a2.51,2.51,0,0,0,.55,0,.44.44,0,0,0,.36-.51c0-.31-.12-.47-.39-.51a2.68,2.68,0,0,0-.4,0c-.2,0-.2,0-.21.2Z"/><path class="cls-3" d="M63.06,92.68c0-.06,0-.11,0-.15V89.9c0-.2,0-.21.21-.21s.65,0,1,0a1.2,1.2,0,0,1,1.07,1,2,2,0,0,1,0,1.08,1.17,1.17,0,0,1-1,.89A6.51,6.51,0,0,1,63.06,92.68Zm.29-1.5V92.3c0,.11,0,.15.15.15s.48,0,.72,0a.87.87,0,0,0,.73-.58,1.7,1.7,0,0,0,0-1.29.9.9,0,0,0-.81-.6H63.5c-.14,0-.16.06-.16.17C63.35,90.47,63.35,90.82,63.35,91.18Z"/><path class="cls-3" d="M25.25,92.69a3,3,0,0,1-.6,0,2.72,2.72,0,0,1,0-.57V89.9c0-.2,0-.21.21-.21a8.87,8.87,0,0,1,1,0,1.14,1.14,0,0,1,.94.73,1.87,1.87,0,0,1,0,1.45,1.19,1.19,0,0,1-1,.76Zm-.33-1.5v1.12c0,.09,0,.14.13.14s.48,0,.72,0a.86.86,0,0,0,.78-.65,1.79,1.79,0,0,0,0-1,.94.94,0,0,0-1-.77h-.51c-.19,0-.19,0-.19.19Z"/><path class="cls-3" d="M109.6,92.68c0-.06,0-.1,0-.15V89.9c0-.2,0-.21.2-.21s.65,0,1,0a1.19,1.19,0,0,1,1.07,1,1.94,1.94,0,0,1,0,1.07,1.17,1.17,0,0,1-1,.9A7.43,7.43,0,0,1,109.6,92.68Zm.28-1.5c0,.37,0,.73,0,1.09,0,.14,0,.19.19.18s.46,0,.69,0a.86.86,0,0,0,.73-.57,1.68,1.68,0,0,0,0-1.32.9.9,0,0,0-.82-.58h-.61c-.14,0-.18,0-.18.18C109.88,90.48,109.88,90.83,109.88,91.18Z"/><path class="cls-3" d="M19.32,91.19V89.86c0-.12,0-.18.16-.17a8.19,8.19,0,0,1,1,0,1.2,1.2,0,0,1,1.11,1,2,2,0,0,1,0,1,1.21,1.21,0,0,1-1.11.89c-.32,0-.64,0-1,0-.13,0-.16,0-.16-.17C19.33,92.08,19.32,91.63,19.32,91.19Zm.28,0v1.09c0,.14,0,.19.18.18s.44,0,.66,0a.88.88,0,0,0,.8-.67,1.76,1.76,0,0,0,0-1,.94.94,0,0,0-1-.76h-.56c-.12,0-.16,0-.15.15Z"/><path class="cls-3" d="M70.09,91.3l1,1.36a.37.37,0,0,1-.47-.15c-.24-.36-.51-.7-.76-1.05l-.12-.15a.11.11,0,0,0-.12,0c-.06,0,0,.07,0,.11v1.14c0,.11,0,.16-.14.16s-.14-.07-.14-.17V89.87c0-.14,0-.19.18-.18a3.33,3.33,0,0,1,.77,0,.71.71,0,0,1,.57.75.68.68,0,0,1-.56.75Zm-.5-.83h0v.43c0,.08,0,.13.11.13s.31,0,.45,0a.4.4,0,0,0,.37-.39,1.38,1.38,0,0,0,0-.29.41.41,0,0,0-.28-.33,1.69,1.69,0,0,0-.55,0c-.06,0-.09,0-.09.1Z"/><path class="cls-3" d="M98.45,90.82c0,.3,0,.6,0,.9a.81.81,0,0,0,1.28.68.71.71,0,0,0,.32-.58c0-.16,0-.32,0-.48V89.85c0-.1,0-.16.14-.16s.15,0,.15.16c0,.63,0,1.25,0,1.88a1.34,1.34,0,0,1-.06.4.88.88,0,0,1-.65.6,1.78,1.78,0,0,1-.69,0A.89.89,0,0,1,98.2,92a2.51,2.51,0,0,1,0-.27V89.84c0-.08,0-.15.13-.15s.16,0,.16.14c0,.33,0,.66,0,1Z"/><path class="cls-3" d="M102.87,92.66a.37.37,0,0,1-.48-.17c-.24-.34-.49-.67-.74-1l-.11-.15a.13.13,0,0,0-.14,0c-.07,0-.06.08-.06.13v1.12c0,.15,0,.18-.19.15s-.09,0-.09-.07V89.92c0-.25,0-.23.23-.23a3.71,3.71,0,0,1,.67,0,.71.71,0,0,1,.63.76.68.68,0,0,1-.6.76l-.15,0ZM101.64,90h-.11c-.18,0-.19,0-.19.19v.48c0,.44,0,.44.45.4a.53.53,0,0,0,0-1.06Z"/><path class="cls-3" d="M92.62,91.17V89.92c0-.23,0-.23.24-.23H94c.1,0,.14,0,.14.14s0,.14-.12.13h-.88c-.2,0-.2,0-.2.2s0,.39,0,.59,0,.13.15.13c.3,0,.6,0,.9,0,.12,0,.16,0,.16.15s-.07.13-.16.13h-.91c-.1,0-.14,0-.14.14q0,.49,0,1c0,.12.06.14.16.14H94c.11,0,.17,0,.17.14s-.06.13-.15.13h-1.2c-.12,0-.15,0-.15-.16Z"/><path class="cls-3" d="M17.18,91.19c0-.44,0-.87,0-1.31,0-.18,0-.19.19-.19h1.14c.11,0,.16,0,.16.15s-.07.12-.15.12h-.91c-.12,0-.15,0-.15.15s0,.43,0,.64.05.13.15.13h.9c.07,0,.14,0,.16.1s0,.17-.15.17h-.88c-.12,0-.18,0-.18.16q0,.48,0,1c0,.11,0,.15.15.15.31,0,.61,0,.91,0,.12,0,.16,0,.15.15s0,.12-.11.12H17.28c-.13,0-.1-.1-.1-.17Z"/><path class="cls-3" d="M47.8,91.2c0-.43,0-.86,0-1.3,0-.2,0-.21.19-.21h1.15c.07,0,.14,0,.15.1s0,.17-.14.17h-.88c-.18,0-.18,0-.19.19s0,.39,0,.58,0,.16.15.15h.91c.07,0,.14,0,.15.11s0,.17-.14.17h-.9c-.13,0-.17,0-.17.17q0,.47,0,.93c0,.16.06.17.19.17.29,0,.58,0,.88,0,.1,0,.14,0,.14.14s0,.13-.12.13H47.92c-.12,0-.13-.07-.13-.16C47.8,92.09,47.8,91.65,47.8,91.2Z"/><path class="cls-3" d="M15.54,92.21c.05.29.05.29-.19.4a1.72,1.72,0,0,1-1.22.09,1.41,1.41,0,0,1-1.06-1.17,1.54,1.54,0,0,1,1.2-1.87,1.77,1.77,0,0,1,1.11.14.31.31,0,0,1,.19.43,1.77,1.77,0,0,0-.68-.32,1.4,1.4,0,0,0-.73,0,1.21,1.21,0,0,0-.6.47,1.44,1.44,0,0,0,.1,1.66C14.09,92.58,14.7,92.62,15.54,92.21Z"/><path class="cls-3" d="M21.74,92.66l1.28-3a27.8,27.8,0,0,1,1.26,3c-.27.08-.27.08-.36-.16s-.16-.42-.23-.63-.12-.18-.27-.18-.55,0-.82,0a.21.21,0,0,0-.24.16c-.08.22-.17.44-.26.66S22,92.7,21.74,92.66Zm.78-1.22c.35,0,.66,0,1,0L23,90.17Z"/><path class="cls-3" d="M109.27,92.66c-.3,0-.3,0-.39-.2s-.16-.39-.23-.59-.1-.21-.26-.2-.55,0-.82,0a.23.23,0,0,0-.26.17c-.07.22-.16.43-.25.64s-.08.21-.36.19l1.31-3.1ZM108,90.24H108l-.48,1.18h1Z"/><path class="cls-3" d="M31.5,89.56l1.25,3.09c-.29.06-.29.06-.38-.17l-.24-.65a.2.2,0,0,0-.21-.16q-.45,0-.9,0a.2.2,0,0,0-.21.16c-.08.22-.17.43-.25.64s-.09.23-.37.19ZM31,91.44c.35,0,.67,0,1,0l-.48-1.21c-.08,0-.08.12-.11.17C31.26,90.73,31.12,91.06,31,91.44Z"/><path class="cls-3" d="M66,92.69c0-.07,0-.11,0-.16V89.9c0-.2,0-.21.2-.21h1.14c.09,0,.15,0,.15.13s0,.14-.13.14H66.4c-.11,0-.16,0-.16.15s0,.42,0,.63,0,.14.14.14h.93c.1,0,.16,0,.16.13s0,.15-.14.15h-1c-.09,0-.13,0-.13.12,0,.34,0,.68,0,1,0,.12.07.13.16.13h.9c.1,0,.17,0,.16.14s0,.13-.12.13H66Z"/><path class="cls-3" d="M72.52,92.66V89.9c0-.2,0-.21.21-.21h1.14c.07,0,.14,0,.14.11s0,.16-.14.16H73c-.19,0-.2,0-.2.18v.59q0,.17.15.15h.91c.08,0,.15,0,.16.12s0,.16-.16.16H73c-.21,0-.21,0-.21.2v.85c0,.2,0,.21.2.21h.88c.08,0,.13,0,.13.11s0,.16-.15.16h-.93A1.15,1.15,0,0,1,72.52,92.66Z"/><path class="cls-3" d="M50,92.07a.63.63,0,0,0,.56.44.55.55,0,0,0,.59-.33.67.67,0,0,0-.14-.73,1.69,1.69,0,0,0-.36-.23,2.53,2.53,0,0,1-.49-.31.69.69,0,0,1-.23-.81.8.8,0,0,1,1.33-.2s.09.1,0,.15-.13.13-.2,0a.51.51,0,0,0-.45-.18.4.4,0,0,0-.4.25.46.46,0,0,0,.07.52.93.93,0,0,0,.3.22,2.92,2.92,0,0,1,.57.33.86.86,0,0,1,.28,1,.77.77,0,0,1-.68.59.85.85,0,0,1-.89-.36C49.7,92.22,49.65,92.14,50,92.07Z"/><path class="cls-3" d="M75.36,89.63a.65.65,0,0,1,.56.26S76,90,76,90s-.13.14-.22,0a.46.46,0,0,0-.42-.17.41.41,0,0,0-.42.26.47.47,0,0,0,.1.54,1.24,1.24,0,0,0,.34.22,3.68,3.68,0,0,1,.5.3.86.86,0,0,1,.27,1,.78.78,0,0,1-.71.58.86.86,0,0,1-.89-.44c0-.09-.07-.15,0-.22s.15,0,.2.08a.55.55,0,0,0,.41.31.58.58,0,0,0,.65-.28.65.65,0,0,0-.13-.78,1.67,1.67,0,0,0-.33-.21,4.34,4.34,0,0,1-.46-.28.7.7,0,0,1-.28-.84A.72.72,0,0,1,75.36,89.63Z"/><path class="cls-3" d="M8,92.77a.83.83,0,0,1-.69-.47c0-.09,0-.14,0-.18s.13-.05.19,0a.62.62,0,0,0,.71.33.5.5,0,0,0,.41-.41.59.59,0,0,0-.17-.65,1.73,1.73,0,0,0-.41-.25,1.92,1.92,0,0,1-.48-.32.7.7,0,0,1-.18-.78A.68.68,0,0,1,8,89.63a.75.75,0,0,1,.69.25c0,.05.11.11,0,.18s-.13.1-.2,0a.5.5,0,0,0-.43-.17.38.38,0,0,0-.41.26.47.47,0,0,0,.1.54,2,2,0,0,0,.3.21,4.76,4.76,0,0,1,.49.28.89.89,0,0,1,.31,1.06A.86.86,0,0,1,8,92.77Z"/><path class="cls-3" d="M90.55,92.07a1.37,1.37,0,0,0,.13.2.65.65,0,0,0,.9.11.7.7,0,0,0,0-.92,2.64,2.64,0,0,0-.35-.23,2.76,2.76,0,0,1-.5-.3.75.75,0,1,1,1.05-1.07s.14.11,0,.19-.14.11-.22,0a.48.48,0,0,0-.41-.16.41.41,0,0,0-.43.28.46.46,0,0,0,.13.53,1.65,1.65,0,0,0,.31.2c.17.1.34.19.5.3a.84.84,0,0,1,.29,1,.74.74,0,0,1-.66.61.86.86,0,0,1-.91-.36C90.29,92.18,90.3,92.14,90.55,92.07Z"/><path class="cls-3" d="M83.8,92.07a.65.65,0,0,0,.59.44.53.53,0,0,0,.56-.32.69.69,0,0,0-.11-.72,1.74,1.74,0,0,0-.36-.24,3.68,3.68,0,0,1-.5-.3.72.72,0,0,1,.43-1.3.72.72,0,0,1,.62.23s.15.11,0,.19-.14.11-.22,0a.48.48,0,0,0-.41-.16.41.41,0,0,0-.42.26.48.48,0,0,0,.1.54,1.3,1.3,0,0,0,.31.21,4.21,4.21,0,0,1,.51.29.84.84,0,0,1,.3,1,.73.73,0,0,1-.64.59.85.85,0,0,1-.92-.34C83.53,92.18,83.55,92.14,83.8,92.07Z"/><path class="cls-3" d="M29.24,89.69a2.09,2.09,0,0,1,.56,0,.62.62,0,0,1,.42.33,1,1,0,0,1,0,.87.7.7,0,0,1-.63.39,2,2,0,0,1-.42,0c-.15,0-.18.06-.18.19,0,.33,0,.66,0,1,0,.17,0,.19-.18.18a.09.09,0,0,1-.09-.1V89.9c0-.2,0-.2.2-.21Zm-.22.83c0,.14,0,.28,0,.42s0,.17.15.16l.37,0a.47.47,0,0,0,.49-.56.53.53,0,0,0-.56-.57h-.13c-.37,0-.31,0-.32.3Z"/><path class="cls-3" d="M86.75,89.71a.33.33,0,0,1,.44.2c.2.37.43.73.64,1.1.09,0,.1-.1.14-.16.19-.32.4-.65.58-1a.28.28,0,0,1,.38-.16c0,.1-.05.15-.09.22-.24.39-.46.78-.71,1.16a.8.8,0,0,0-.14.52c0,.31,0,.62,0,.93,0,.12,0,.15-.15.15s-.14,0-.14-.15c0-.34,0-.67,0-1a.71.71,0,0,0-.11-.4c-.25-.38-.49-.78-.73-1.17A.83.83,0,0,1,86.75,89.71Z"/><path class="cls-3" d="M129.85,92.69h-1.17c-.11,0-.13-.06-.13-.15s0-.39,0-.59V89.88c0-.08,0-.18.11-.19s.18,0,.18.18V92c0,.4,0,.4.41.4h.4C129.88,92.42,129.88,92.42,129.85,92.69Z"/><path class="cls-3" d="M52.54,91.31c0-.39,0-.78,0-1.17,0-.13,0-.19-.18-.18s-.34,0-.51,0-.15,0-.15-.13,0-.14.15-.14h1.59c.09,0,.2,0,.21.13s-.1.14-.19.14H53c-.18,0-.18,0-.18.19v2.21a1.2,1.2,0,0,0,0,.19c0,.1,0,.14-.14.14s-.15,0-.15-.16c0-.29,0-.58,0-.87Z"/><path class="cls-3" d="M103.26,91.2c0-.45,0-.89,0-1.33,0-.17,0-.19.18-.18s.11,0,.11.11v2.69c0,.09,0,.2-.13.2s-.17,0-.17-.17C103.26,92.08,103.26,91.64,103.26,91.2Z"/><path class="cls-3" d="M16.16,91.18c0-.44,0-.89,0-1.33,0-.15,0-.18.19-.16s.09,0,.09.08v2.76c0,.08,0,.15-.11.16s-.17,0-.17-.16C16.16,92.08,16.16,91.63,16.16,91.18Z"/><path class="cls-1" d="M54.09,91.19V89.86c0-.16,0-.19.19-.17s.08,0,.08.08a.41.41,0,0,1,0,.11V92.5c0,.09,0,.19-.12.18s-.16,0-.16-.14Z"/><path class="cls-1" d="M71.79,91.19v1.33c0,.15,0,.18-.19.16s-.09,0-.09-.1V89.87c0-.08,0-.17.12-.18s.16.06.16.17C71.78,90.31,71.79,90.75,71.79,91.19Z"/><path class="cls-3" d="M56.29,89.39c.13-.21.26-.41.37-.61s.23-.08.41-.1c-.19.27-.37.48-.55.7C56.46,89.44,56.39,89.43,56.29,89.39Z"/><path class="cls-4" d="M26.62,56.83a18.67,18.67,0,0,1-1.9.45l-7,1.47-7,1.46-1.92.4a.71.71,0,0,1-.56-1.29c.16-.07.16-.15.14-.28a7.88,7.88,0,1,1,15.49-2.92c.05.25.06.26.32.28s.71,0,1.06.07a9,9,0,0,1,1.25.27A.3.3,0,0,1,26.62,56.83ZM9.11,56.62a2.92,2.92,0,0,0,.2,1.17.32.32,0,1,0,.62-.19c0-.08,0-.15,0-.23a3.58,3.58,0,0,1,0-1.66,6.23,6.23,0,0,1,2-3.34,4.51,4.51,0,0,1,2.4-1.16.35.35,0,0,0,.32-.41c0-.19-.18-.28-.42-.26a4.23,4.23,0,0,0-1.17.32,6.47,6.47,0,0,0-2.74,2.25A6.27,6.27,0,0,0,9.11,56.62Z"/><path class="cls-4" d="M82.8,68.51c0-1.68,0-3.36,0-5a2,2,0,0,1,1.08-1.83A2.09,2.09,0,0,1,87,63.46v10a2.06,2.06,0,0,1-.73,1.68,2,2,0,0,1-2.23.32,2,2,0,0,1-1.23-1.87c0-1.68,0-3.37,0-5Z"/><path class="cls-4" d="M87.4,81.19a2.5,2.5,0,1,1-2.47-2.5A2.5,2.5,0,0,1,87.4,81.19Z"/><path class="cls-2" d="M9.11,56.62a6.27,6.27,0,0,1,1.21-3.51,6.47,6.47,0,0,1,2.74-2.25,4.23,4.23,0,0,1,1.17-.32c.24,0,.39.07.42.26a.35.35,0,0,1-.32.41,4.51,4.51,0,0,0-2.4,1.16,6.23,6.23,0,0,0-2,3.34,3.58,3.58,0,0,0,0,1.66c0,.08,0,.15,0,.23a.32.32,0,1,1-.62.19A2.92,2.92,0,0,1,9.11,56.62Z"/><path class="cls-3" d="M135.16,53.08c0,.22,0,.42,0,.62s0,.19-.19.17h-.13q-.14,0-.12-.12V51.84c0-.19,0-.19.19-.2a2.93,2.93,0,0,1,.59,0,.63.63,0,0,1,.58.53.66.66,0,0,1-.36.7l-.08.05.68.9a2.29,2.29,0,0,1-.45,0c-.09,0-.12-.07-.16-.12l-.4-.53S135.25,53.11,135.16,53.08Zm0-.75a.57.57,0,0,0,0,.13c0,.18,0,.2.2.16l.13,0a.29.29,0,0,0,.17-.32.34.34,0,0,0-.41-.22c-.17,0-.06.17-.09.25S135.16,52.32,135.16,52.33Z"/></svg>