<svg id="Capa_1" data-name="Capa 1" xmlns="http://www.w3.org/2000/svg" viewBox="0 0 141.73 141.73"><defs><style>.cls-1{fill:#2d9fd8;}.cls-2{fill:#244974;}</style></defs><title>Recurso 11</title><path class="cls-1" d="M73,78.84a12.77,12.77,0,0,1-5.77.2c-.89-.24-1.67.37-2.64.55V20.39c2.49-1.67,5.5-2.36,8-4.1H73Q73,44.13,73,72C73,74.27,73,76.55,73,78.84Z"/><path class="cls-2" d="M73,78.84c0-2.29,0-4.57,0-6.86q0-27.84,0-55.69h.4a37.93,37.93,0,0,0,5.48,2.84,11.83,11.83,0,0,1,2.52,1.35V75.7C78.68,77,76,78.39,73,78.84Z"/><path class="cls-1" d="M91.12,120.85h-8V107.36c.83-.46,1.75-.09,2.94-.26v10.84a25.23,25.23,0,0,0,5,.08Z"/><path class="cls-1" d="M62.68,79.53c-1.82-1.08-3.2-3.41-5.75-2-1.07.94-.81,2-.36,3a18.69,18.69,0,0,0,2.59,3.83c.27.36.76.59.73,1.29-1.8-.46-3.76.31-5.49-.94V36.1C57,35,59.81,34.25,62.68,33.24Z"/><path class="cls-1" d="M57.79,78.83a2.18,2.18,0,0,1,2.3.77c1,1,2.07,1.93,3,2.94,3.18,3.28,7.14,4.12,11.47,3.53A15,15,0,0,0,78,85.46c.55-.21,1-.4,1-1.08-.81-1-1.83-.54-2.79-.42a19.4,19.4,0,0,1-7.4-.21,4.52,4.52,0,0,1-3.06-2.38,1.2,1.2,0,0,1,1.37-.67c4.58.75,8.78-.53,12.8-2.51A20.48,20.48,0,0,1,89.21,76c4.45,0,7.5-3.1,8.4-8a24.14,24.14,0,0,0-1.9-14.51c-.2-.46-.66-.89-.32-1.7,2.26,3.65,4.28,7.32,4.8,11.44C101,70,100.39,76.46,96,82A18.49,18.49,0,0,1,87,88.14,44.64,44.64,0,0,1,72.4,90.63a11.68,11.68,0,0,1-8.49-3.51,41.66,41.66,0,0,1-5-5.8A5.79,5.79,0,0,1,57.79,78.83Z"/><path class="cls-1" d="M51.55,62.74a5.57,5.57,0,0,1-.94,2.62,24.43,24.43,0,0,0-1.47,14.78c.75,3.65,3.5,7.43,9,7.28.67,0,1.34,0,2,0a4,4,0,0,1,2.9,1.14,13,13,0,0,0,9.3,3.66c2.34,0,4.7.26,7-.27a1.08,1.08,0,0,1,1.26.62c-.26,1.65-1.69,2.06-3,2.44a15.21,15.21,0,0,1-6.78.23,8.63,8.63,0,0,0-3-.06c-.38.87-.1,1.33.72,1.53,5.45,1.32,10.65,1.53,14.92-3A18.06,18.06,0,0,1,87,90.59c.49-.32,1-.72,1.67-.36a3.47,3.47,0,0,1-1,2.35A33.42,33.42,0,0,1,82.13,99a11.4,11.4,0,0,1-7.51,3,42.77,42.77,0,0,1-16.31-3A18.16,18.16,0,0,1,46.79,85.42c-1.94-8.31-.08-15.79,4.78-22.65Z"/><path class="cls-2" d="M91.52,36V73.93a9.17,9.17,0,0,1-4.21.55c-1.34,0-2.65.31-4.09.42V33.27Z"/><path class="cls-2" d="M68.53,113.14c-1.16-3.19-.5-5.16,1.89-5.91A3.8,3.8,0,0,1,75.55,110a3.74,3.74,0,0,1-1.94.41c-.73-.26-.76-1.1-1.45-1.23-1.68.36-2.14,1.23-1.19,2.6a28,28,0,0,0,3.67,4,4.6,4.6,0,0,0,.82-2.37c.66-.5,1.38-.31,2.23-.21.24,1.68-.55,3.09-1.2,4.55l2.59,2.87H75.62c-.32,0-.57-.76-1.2-.91A8.68,8.68,0,0,1,71,120.84a4.38,4.38,0,0,1-4.61-2.52c-.74-1.74-.26-3.17,1.58-4.73Zm.43,3.44a2.72,2.72,0,0,0,.85,1.71A3.12,3.12,0,0,0,73,118a29,29,0,0,0-3.08-3.16C69.31,115.25,69.21,115.86,69,116.58Z"/><path class="cls-2" d="M58,118.13H63a5.88,5.88,0,0,1,.16,2.43h-8V107.3a11.46,11.46,0,0,1,2.95-.1Z"/><path class="cls-1" d="M51.57,62.77l.2-.24c0,.15-.05.22-.22.21Z"/></svg>