<svg id="Capa_1" data-name="Capa 1" xmlns="http://www.w3.org/2000/svg" viewBox="0 0 141.73 141.73"><defs><style>.cls-1{fill:#9b2671;}.cls-2{fill:#73b23f;}.cls-3{fill:#fcc316;}.cls-4{fill:#0f73ba;}.cls-5{fill:#e62351;}</style></defs><title>Recurso 4</title><path class="cls-1" d="M10.35,58.88c3.27,0,6.53,0,9.8,0,.53,0,.66.15.65.66,0,1.12,0,2.24,0,3.37,0,.39-.12.49-.5.49-1.2,0-2.4,0-3.6,0-.47,0-.66.09-.64.6,0,1,0,1,1,1s1.77,0,2.66,0c.34,0,.49.07.48.46,0,1.06,0,2.12,0,3.19,0,.34-.12.43-.45.43-1,0-2.09,0-3.13,0-.46,0-.61.1-.6.58,0,1.46,0,2.92,0,4.37,0,.42-.12.54-.53.53-1.73,0-3.46,0-5.19,0Z"/><path class="cls-1" d="M45.7,66.9c0,2.34,0,4.68,0,7,0,.47-.09.65-.61.63-1.44,0-2.87,0-4.31,0-.42,0-.53-.12-.53-.53q0-7.3,0-14.6c0-.4.1-.54.52-.53,1.48,0,3,0,4.43,0a.8.8,0,0,1,.79.46c1.33,2.3,2.68,4.59,4,6.88.1.16.14.37.42.49,0-.24,0-.44,0-.64,0-2.21,0-4.42,0-6.62,0-.43.1-.58.55-.57,1.48,0,3,0,4.43,0,.37,0,.47.1.47.46q0,7.37,0,14.72c0,.35-.09.48-.46.48-1.52,0-3,0-4.55,0a.72.72,0,0,1-.69-.43q-2-3.39-4.1-6.77c-.1-.17-.21-.33-.31-.49Z"/><path class="cls-1" d="M38.85,66.15c0,4.93-3,8.12-7.34,8.56A10.18,10.18,0,0,1,26.36,74a7.38,7.38,0,0,1-4.72-6.46,7.63,7.63,0,0,1,3.19-7.27A9.57,9.57,0,0,1,35.15,60,7.4,7.4,0,0,1,38.85,66.15Zm-11.52.7a2.83,2.83,0,0,0,2.88,3,3,3,0,1,0-2.88-3Z"/><path class="cls-1" d="M92.17,69.64v3.61c0,1.29,0,1.29-1.29,1.29s-2.52,0-3.78,0c-.38,0-.5-.11-.5-.51q0-7.32,0-14.65c0-.26,0-.51.37-.5,2.63.06,5.27-.11,7.91.11a7.34,7.34,0,0,1,1.38.28,5.19,5.19,0,0,1,3.43,6.87,3.45,3.45,0,0,1-2.23,2c-.36.14-.44.21-.14.57,1.18,1.38,2,3,3.09,4.46.28.4.54.81.88,1.31H99.9c-1.53,0-3.07,0-4.61,0a.74.74,0,0,1-.8-.5c-.62-1.31-1.28-2.61-1.93-3.92C92.48,70,92.45,69.75,92.17,69.64Zm0-5.12c0,.31,0,.63,0,.94,0,.13,0,.27.14.35a2.57,2.57,0,0,0,1.78-.41,1.53,1.53,0,0,0,.16-1.6,1.86,1.86,0,0,0-1.86-.61c-.48.18-.13.65-.22,1A1.37,1.37,0,0,0,92.17,64.52Z"/><path class="cls-1" d="M85.17,64.18c0,1.51,0,3,0,4.55a5.72,5.72,0,0,1-4.81,5.81,10.88,10.88,0,0,1-4.75,0,5.67,5.67,0,0,1-4.82-5.74c-.09-3.17,0-6.34,0-9.51,0-.32.11-.4.41-.4,1.61,0,3.23,0,4.84,0,.48,0,.44.26.44.56q0,4.08,0,8.16a6.47,6.47,0,0,0,0,.88,1.48,1.48,0,0,0,2.11,1.34,1.17,1.17,0,0,0,.8-.8,3.9,3.9,0,0,0,.13-1.17c0-2.78,0-5.56,0-8.33,0-.47.09-.65.6-.64,1.52,0,3,0,4.55,0,.46,0,.56.14.55.57,0,1.58,0,3.15,0,4.73Z"/><path class="cls-1" d="M63.37,58.9c1.79,0,3.58,0,5.37,0,.42,0,.59.07.58.54,0,1.36,0,2.72,0,4.07,0,.4-.13.51-.51.5-.69,0-1.38,0-2.07,0-.44,0-.56.12-.56.56,0,3.11,0,6.22,0,9.33,0,.55-.14.7-.68.68-1.44,0-2.88,0-4.31,0-.64,0-.73-.2-.73-.77,0-3,0-6.06,0-9.09,0-.6-.19-.75-.73-.72s-1.3,0-2,0c-.31,0-.46-.05-.45-.41,0-1.42,0-2.84,0-4.25,0-.41.17-.44.49-.44Z"/><path class="cls-2" d="M131.36,71.06a14.89,14.89,0,0,1-.45,5,10.94,10.94,0,0,1-14,7.08,5.15,5.15,0,0,1-.54-.23,3.37,3.37,0,0,1,.34-.09,7,7,0,0,0,5.77-5.15l.88.1A6.41,6.41,0,0,0,130,74.07a6.62,6.62,0,0,0-1.69-7.54C125.28,64,119.62,64.6,117.88,69l-.79-.2c.21-.66.39-1.32.63-2a.6.6,0,0,0-.33-.85,8.27,8.27,0,0,0-4.7-1,10.21,10.21,0,0,1,5.53-3c.79-.17,1.6-.24,2.41-.36a.84.84,0,0,0,.56.13,11,11,0,0,1,9.82,8C131.14,70.15,131.25,70.61,131.36,71.06Z"/><path class="cls-1" d="M117.09,68.79l.79.2c-1.15,3.13-.2,7.54,4.59,8.65a7,7,0,0,1-5.77,5.15,3.37,3.37,0,0,0-.34.09l-1.69,0a1.38,1.38,0,0,0-.27-.08,7,7,0,0,1-5.83-7A7.22,7.22,0,0,0,117.38,77a.6.6,0,0,0,.34-.85c-.32-.85-.58-1.72-.87-2.57-.22-.68-.31-.72-.88-.31a3.44,3.44,0,0,1-1.63.63,2.48,2.48,0,0,1-2.74-2.17A2.41,2.41,0,0,1,113.82,69a3.13,3.13,0,0,1,2.22.79c.39.31.62.25.77-.22C116.89,69.3,117,69,117.09,68.79Z"/><path class="cls-3" d="M120.63,61.6c-.81.12-1.62.19-2.41.36a10.21,10.21,0,0,0-5.53,3,6.43,6.43,0,0,0-4.28,2.55,7.49,7.49,0,0,0-1.27,3.2,8.06,8.06,0,0,1,5.52-12.59,7.66,7.66,0,0,1,4.45.54c.18.08.37.14.55.21A9.07,9.07,0,0,1,120.63,61.6Z"/><path class="cls-4" d="M120.63,61.6a9.07,9.07,0,0,0-3-2.71H131c.33,0,.44.09.43.43,0,3.91,0,7.83,0,11.75-.11-.45-.22-.91-.35-1.36a11,11,0,0,0-9.82-8A.84.84,0,0,1,120.63,61.6Z"/><path class="cls-5" d="M105.78,67.31a8.21,8.21,0,0,0,1.36,3.42,6.94,6.94,0,0,0,1.43,5,7,7,0,0,0,5.83,7,1.38,1.38,0,0,1,.27.08c-2.83,0-5.66,0-8.5,0-.42,0-.41-.22-.41-.52V74.27Q105.78,70.79,105.78,67.31Z"/><path class="cls-1" d="M84.64,80.06c-.26.84-.52,1.55-.69,2.29-.12.49-.4.52-.81.53a.58.58,0,0,1-.7-.52,12.63,12.63,0,0,0-.72-2.15c-.07.72-.17,1.44-.21,2.16,0,.37-.14.5-.53.51-1.44,0-1.45,0-1.24-1.4.19-1.27.41-2.53.58-3.8.06-.36.19-.48.57-.49,1.55,0,1.55,0,1.93,1.48.11.44.23.87.37,1.41.24-.89.46-1.65.66-2.43a.49.49,0,0,1,.55-.46c1.6,0,1.59,0,1.84,1.54.18,1.19.36,2.38.57,3.56.07.43,0,.59-.49.59-1.36,0-1.35,0-1.48-1.35A5.59,5.59,0,0,0,84.64,80.06Z"/><path class="cls-1" d="M62.55,80a3,3,0,0,1,6,.13,3,3,0,0,1-6-.13Zm4,.12a1,1,0,1,0-2,0,1,1,0,0,0,1,1.09A1,1,0,0,0,66.54,80.1Z"/><path class="cls-1" d="M73.19,80.07a3,3,0,1,1,3,2.89A2.82,2.82,0,0,1,73.19,80.07Zm3,1.08a1,1,0,0,0,1-1.08,1,1,0,1,0-2,0A1,1,0,0,0,76.19,81.15Z"/><path class="cls-1" d="M87.49,80V77.59c0-.25,0-.4.35-.39.82,0,1.65,0,2.47,0,1.13.09,1.68.73,1.6,1.7,0,.43-.52.71-.5,1s.56.49.68.89A1.45,1.45,0,0,1,91,82.75a15.14,15.14,0,0,1-3.23.11c-.32,0-.24-.26-.24-.43C87.48,81.62,87.49,80.82,87.49,80Zm1.83,1c0,.25,0,.49.34.45s.67-.08.65-.5-.35-.4-.65-.44S89.33,80.83,89.32,81.06Zm0-2.06c0,.18,0,.38.27.36s.47-.08.49-.38-.2-.37-.45-.4S89.31,78.75,89.33,79Z"/><path class="cls-1" d="M98.32,77.2c1.09,0,1.1,0,1.44,1,.47,1.35.92,2.71,1.4,4.06.16.45.08.62-.41.58a6.46,6.46,0,0,0-.88,0c-.38,0-.72,0-.76-.49,0-.17-.14-.22-.29-.22h-1c-.1,0-.23,0-.23.14-.06.74-.61.56-1,.57-1.21,0-1.21,0-.83-1.12S96.59,79.23,97,78c.17-.62.46-.86,1.06-.75A1.5,1.5,0,0,0,98.32,77.2Zm.06,2h-.09c-.09.4-.18.8-.25,1.2,0,.12-.15.3,0,.35a.81.81,0,0,0,.51,0c.17-.07.05-.25,0-.38C98.56,80,98.47,79.62,98.38,79.23Z"/><path class="cls-1" d="M60.39,83a2.74,2.74,0,0,1-2.66-1.52A3,3,0,0,1,58,78.27a2.82,2.82,0,0,1,3-1.14c1.37.24,1.66,1,.88,2.1-.1.15-.19.18-.34.08a3.42,3.42,0,0,0-.46-.26,1.06,1.06,0,0,0-1.29.26,1,1,0,0,0-.14,1.26,1.08,1.08,0,0,0,1.19.56,1.35,1.35,0,0,0,.65-.27c.23-.18.35-.08.43.15s.09.26.13.39c.39,1.16.27,1.35-1,1.56C60.83,83,60.61,83,60.39,83Z"/><path class="cls-1" d="M69.05,80.05c0-.78,0-1.57,0-2.36,0-.39.13-.49.51-.49,1.48,0,1.48,0,1.48,1.47,0,.65,0,1.3,0,2,0,.3.1.44.41.4h.06c.37.06.94-.19,1.1.14a3.85,3.85,0,0,1,.07,1.45c0,.26-.19.26-.38.26-1,0-1.93,0-2.89,0-.31,0-.36-.14-.35-.39Z"/><path class="cls-1" d="M94.76,80.07c0,.79,0,1.57,0,2.36,0,.33-.11.43-.44.45-1.55.06-1.54.07-1.54-1.47,0-1.24,0-2.47,0-3.71,0-.38.11-.5.5-.51,1.48,0,1.48,0,1.48,1.47Z"/><path class="cls-2" d="M121.79,71.47a2.21,2.21,0,1,1,4.4.06,2.21,2.21,0,1,1-4.4-.06Z"/></svg>