<svg xmlns="http://www.w3.org/2000/svg" width="200" height="260" viewBox="0 0 200 260" fill="none">
  <rect width="200" height="260" rx="12" fill="#F3F4F6"/>
  <rect x="20" y="20" width="160" height="220" rx="8" fill="white" stroke="#E5E7EB" stroke-width="2"/>
  <rect x="40" y="50" width="80" height="8" rx="4" fill="#D1D5DB"/>
  <rect x="40" y="70" width="120" height="6" rx="3" fill="#E5E7EB"/>
  <rect x="40" y="86" width="100" height="6" rx="3" fill="#E5E7EB"/>
  <rect x="40" y="102" width="110" height="6" rx="3" fill="#E5E7EB"/>
  <rect x="40" y="130" width="60" height="6" rx="3" fill="#D1D5DB"/>
  <rect x="40" y="146" width="120" height="6" rx="3" fill="#E5E7EB"/>
  <rect x="40" y="162" width="90" height="6" rx="3" fill="#E5E7EB"/>
  <rect x="40" y="190" width="70" height="6" rx="3" fill="#D1D5DB"/>
  <rect x="40" y="206" width="100" height="6" rx="3" fill="#E5E7EB"/>
  <path d="M100 35 L100 15 L120 35 Z" fill="#5DC4AF" opacity="0.3"/>
  <circle cx="100" cy="130" r="25" fill="#5DC4AF" opacity="0.1"/>
  <path d="M92 130 L98 136 L110 124" stroke="#5DC4AF" stroke-width="3" stroke-linecap="round" stroke-linejoin="round"/>
</svg>
