<svg id="Capa_1" data-name="Capa 1" xmlns="http://www.w3.org/2000/svg" viewBox="0 0 141.73 141.73"><defs><style>.cls-1{fill:#62666b;}.cls-2{fill:#34a854;}.cls-3{fill:#686a6e;}.cls-4{fill:#fbbc0e;}.cls-5{fill:#527cbe;}.cls-6{fill:#3b6cb3;}.cls-7{fill:#e84637;}</style></defs><title>google-maps-logo</title><path class="cls-1" d="M39.69,64.76c-.5.48-.95.89-1.38,1.33-.18.18-.3.17-.48,0a5.51,5.51,0,0,0-2.46-1.23,5.86,5.86,0,1,0,2.33,10.4,4.3,4.3,0,0,0,1.59-2.75c.07-.42.07-.43-.36-.44H34.85c-.14,0-.28,0-.42,0s-.36-.07-.35-.33c0-.53,0-1.07,0-1.6,0-.19.08-.29.28-.29a2.8,2.8,0,0,0,.29,0H41c.58,0,.59,0,.63.58a9.47,9.47,0,0,1-.18,2.76,7,7,0,0,1-6,5.38,8.14,8.14,0,0,1-8.14-3.48,7.92,7.92,0,0,1,3.33-11.8,7.75,7.75,0,0,1,8.68,1.16Z"/><path class="cls-2" d="M19.06,63.06a7.73,7.73,0,0,1,1,3.66,10.07,10.07,0,0,1-1.78,6.2c-.61.9-1.26,1.76-1.94,2.61a35.28,35.28,0,0,0-2.82,3.86,13.58,13.58,0,0,0-1.24,2.94,2.55,2.55,0,0,1-.3.7.76.76,0,0,1-1.32,0,2.14,2.14,0,0,1-.23-.54,15.42,15.42,0,0,0-2.81-5.29,3,3,0,0,1-.19-.3l5.64-6.65c.07-.09.17-.17.14-.31h0a.13.13,0,0,0,.13-.16,5.29,5.29,0,0,0,.94-1c.09-.06.16-.13.13-.25h0c.14,0,.19-.11.27-.2Z"/><path class="cls-1" d="M73.55,77.63c-.07,0-.11,0-.15.06a4,4,0,0,1-4.47.57,5.24,5.24,0,0,1,1.3-10,3.78,3.78,0,0,1,3,.79c.11.08.18.22.34.2.16-.2,0-.52.15-.65s.5,0,.75,0,.68,0,1,0,.34.1.33.35c0,.86,0,1.73,0,2.6v6.39a7.78,7.78,0,0,1-.24,2,4.4,4.4,0,0,1-3.95,3.38,4.93,4.93,0,0,1-5-2.37c0-.09-.1-.17-.14-.26-.2-.39-.2-.4.18-.56s.84-.33,1.25-.52.41-.1.56.18a2.76,2.76,0,0,0,1.73,1.42,2.6,2.6,0,0,0,3.41-2.24,6,6,0,0,0,.07-1.12C73.64,77.75,73.64,77.67,73.55,77.63Zm.24-4.19a3.72,3.72,0,0,0-.38-1.6A2.7,2.7,0,0,0,69,71.26a3.43,3.43,0,0,0-.14,4.26,2.7,2.7,0,0,0,4.68-.59A3.34,3.34,0,0,0,73.79,73.44Z"/><path class="cls-3" d="M107.28,68.1a1.6,1.6,0,0,0-.39.55q-1.77,3.1-3.55,6.21c-.09.17-.13.42-.34.45a2.89,2.89,0,0,1-.88,0c-.19,0-.24-.25-.32-.4l-2.67-4.67-1-1.69a1.55,1.55,0,0,0-.29-.43c-.19.1-.12.25-.12.37.1,3.07,0,6.15,0,9.22,0,.49,0,.49-.47.5-.28,0-.55,0-.83,0-.46,0-.46,0-.47-.5v-.18q0-6.12,0-12.23c0-.69-.11-.61.66-.69a1.49,1.49,0,0,1,1.65.94c1.23,2.29,2.55,4.53,3.84,6.78a1.68,1.68,0,0,0,.36.52,1.21,1.21,0,0,0,.31-.46c1.39-2.42,2.79-4.85,4.16-7.28a.74.74,0,0,1,.83-.48c.38.05.88-.17,1.13.11s.07.71.07,1.09v11.7a1.27,1.27,0,0,1-.08.68h-1.39c-.24,0-.3-.11-.3-.32,0-.57,0-1.14,0-1.72,0-2.54-.07-5.08.06-7.62A.63.63,0,0,0,107.28,68.1Z"/><path class="cls-3" d="M122.81,77a7.73,7.73,0,0,0,0,1.19v3.66c0,.42,0,.43-.43.43s-.67,0-1,0-.35-.11-.33-.35,0-.24,0-.35V69.43c0-.55,0-.51.51-.51.28,0,.56,0,.83,0s.37.07.35.33,0,.54,0,.8c.15.06.19,0,.23-.08a4,4,0,0,1,5.72-.32,5.36,5.36,0,0,1,.28,7.58,4,4,0,0,1-6-.09A1,1,0,0,0,122.81,77Zm2.93-6.79a2.87,2.87,0,0,0-2.83,2.23,4.51,4.51,0,0,0,0,2.16,2.9,2.9,0,0,0,2.56,2.26,2.87,2.87,0,0,0,3-1.89,4,4,0,0,0,0-2.83A2.84,2.84,0,0,0,125.74,70.24Z"/><path class="cls-1" d="M90.57,76.36a5,5,0,0,1-3.09,2.17,5.11,5.11,0,0,1-6.3-5.83,5,5,0,0,1,2-3.55,4.6,4.6,0,0,1,6.39.91,6.54,6.54,0,0,1,.93,1.7c.15.41.15.42-.27.6l-5.78,2.39-.71.3a2.42,2.42,0,0,0,1.73,1.47,2.86,2.86,0,0,0,3-1c.35-.4.27-.43.79-.09Zm-7.16-3.08L88,71.39a2.11,2.11,0,0,0-2.57-1A2.76,2.76,0,0,0,83.41,73.28Z"/><path class="cls-1" d="M54.36,73.44a5.13,5.13,0,1,1,5.1,5.23A5.08,5.08,0,0,1,54.36,73.44Zm8,0a3.08,3.08,0,0,0-.27-1.34,2.79,2.79,0,0,0-4.83-.58,3.42,3.42,0,0,0,.16,4.16,2.59,2.59,0,0,0,2.48.93A3,3,0,0,0,62.34,73.4Z"/><path class="cls-1" d="M42.87,73.46A5.13,5.13,0,1,1,48,78.67,5.08,5.08,0,0,1,42.87,73.46Zm8,0a3.09,3.09,0,0,0-.48-1.8,2.77,2.77,0,0,0-4.73,0,3.31,3.31,0,0,0,0,3.54,2.76,2.76,0,0,0,4.82,0A3,3,0,0,0,50.85,73.46Z"/><path class="cls-3" d="M119.17,78.18a11,11,0,0,1-1.41,0c-.19,0-.22-.11-.22-.26a2.5,2.5,0,0,0-.05-.82c-.21,0-.27.15-.36.25a3.9,3.9,0,0,1-5,.46,3,3,0,0,1,.06-4.89,5.53,5.53,0,0,1,4.72-.5c.18,0,.36.26.53.11s0-.37,0-.55a2.2,2.2,0,0,0-2-1.76,2.55,2.55,0,0,0-2.66,1.29c-.41-.17-.82-.37-1.24-.52s-.29-.25-.15-.48a3.69,3.69,0,0,1,2-1.67,4.86,4.86,0,0,1,3.3,0,3.47,3.47,0,0,1,2.44,3.3c.06,2,0,3.9,0,5.85C119.22,78.09,119.19,78.12,119.17,78.18Zm-4.52-1.28a2.9,2.9,0,0,0,2.82-2.16c.11-.53.1-.6-.4-.81a4.31,4.31,0,0,0-3.12-.08,1.7,1.7,0,0,0-.93.78,1.36,1.36,0,0,0,.49,2A2.11,2.11,0,0,0,114.65,76.9Z"/><path class="cls-4" d="M13.21,69.9c0,.14-.07.22-.14.31L7.43,76.86a38.29,38.29,0,0,1-3.51-4.7,3.48,3.48,0,0,1-.44-1c1-1.23,2.05-2.47,3.11-3.69a21.3,21.3,0,0,1,1.66-1.9c0,.19-.07.34-.12.51a3.2,3.2,0,0,0,1,3.46,3.2,3.2,0,0,0,3.62.48C12.92,70,13,69.87,13.21,69.9Z"/><path class="cls-3" d="M139,70.75a2.77,2.77,0,0,1-.72.34,1.84,1.84,0,0,1-.71.25c-.24,0-.26-.36-.45-.51a2.58,2.58,0,0,0-.41-.33,2.84,2.84,0,0,0-2.51-.06,1,1,0,0,0-.64,1,.94.94,0,0,0,.7.86,15.43,15.43,0,0,0,1.89.49,6.17,6.17,0,0,1,1.72.6,2.59,2.59,0,0,1,.48,4.14,3.53,3.53,0,0,1-.66.49,4.41,4.41,0,0,1-6.16-2,.86.86,0,0,1-.05-.15,10.54,10.54,0,0,1,1.33-.59.2.2,0,0,1,.29.09,3.42,3.42,0,0,0,.26.46,2.65,2.65,0,0,0,3.21.91,1.25,1.25,0,0,0,.77-.83,1.07,1.07,0,0,0-.43-1.15,2.47,2.47,0,0,0-.87-.36L134.39,74a4.67,4.67,0,0,1-1.8-.85,2.27,2.27,0,0,1-.21-3.43,3.94,3.94,0,0,1,2.49-1.11,4.37,4.37,0,0,1,2.78.57A3,3,0,0,1,139,70.75Z"/><path class="cls-5" d="M19.06,63.06,14.67,68.3c-.08.09-.13.21-.27.2l.12-.51a3.17,3.17,0,0,0-1.07-3.44,3.16,3.16,0,0,0-3.53-.47l-.38.15a.73.73,0,0,1,.26-.57c.42-.47.82-.95,1.22-1.43l1.24-1.49,1.67-2A6.69,6.69,0,0,1,16.45,60,7.91,7.91,0,0,1,19.06,63.06Z"/><path class="cls-1" d="M77.51,70.67V63.34c0-.19.08-.29.28-.28H79.5c.23,0,.34.08.32.31s0,.24,0,.36v14c0,.64.12.65-.63.65-.45,0-.9,0-1.36,0-.22,0-.33-.08-.32-.31s0-.28,0-.42Z"/><path class="cls-6" d="M13.93,58.78l-1.67,2L11,62.23c-.4.48-.8,1-1.22,1.43a.73.73,0,0,0-.26.57h0l-.12.08-.69.63L4.66,61.49A8.24,8.24,0,0,1,9.3,58.58a8.71,8.71,0,0,1,4.42.09A1.06,1.06,0,0,1,13.93,58.78Z"/><path class="cls-7" d="M4.66,61.49l4.07,3.45-.48.67a21.3,21.3,0,0,0-1.66,1.9C5.53,68.73,4.51,70,3.48,71.2a7,7,0,0,1-.74-2.4A8.86,8.86,0,0,1,4.21,62C4.34,61.84,4.51,61.67,4.66,61.49Z"/><path class="cls-5" d="M14.27,68.74c0-.1,0-.2.13-.25C14.43,68.61,14.36,68.68,14.27,68.74Z"/><path class="cls-4" d="M13.2,69.91c0-.09.07-.13.13-.16A.13.13,0,0,1,13.2,69.91Z"/><path class="cls-5" d="M9.54,64.23a.09.09,0,0,1-.12.08Z"/></svg>